# Blender 4.4.3
# www.blender.org
mtllib player.mtl
o 立方体
v 1.128000 0.000000 0.000000
v 0.000000 -1.128000 0.000000
v 0.000000 1.128000 0.000000
v 0.000000 0.000000 -1.128000
v -1.128000 0.000000 0.000000
v 0.000000 0.000000 1.128000
vn 0.5774 -0.5774 -0.5774
vn 0.5774 0.5774 -0.5774
vn 0.5774 -0.5774 0.5774
vn 0.5774 0.5774 0.5774
vn -0.5774 -0.5774 -0.5774
vn -0.5774 0.5774 -0.5774
vn -0.5774 -0.5774 0.5774
vn -0.5774 0.5774 0.5774
vt 0.288675 0.333333
vt -0.000000 0.166667
vt 0.288675 -0.000000
vt 0.288675 0.166667
vt 0.577350 0.000000
vt 0.577350 0.333333
vt 0.288675 0.666667
vt -0.000000 0.500000
vt 0.288675 0.333333
vt 0.577350 0.333333
vt 0.577350 0.666667
vt 0.288675 0.500000
vt 0.866025 0.333333
vt 0.577350 0.166667
vt 0.866025 -0.000000
vt 0.866025 0.333333
vt 0.866025 0.666667
vt 0.577350 0.500000
vt 0.288675 1.000000
vt 0.000000 0.833333
vt 0.288675 0.666667
vt 0.577350 0.666667
vt 0.577350 1.000000
vt 0.288675 0.833333
s 0
usemtl マテリアル.001
f 2/1/1 4/2/1 1/3/1
f 4/4/2 3/5/2 1/6/2
f 2/7/3 1/8/3 6/9/3
f 3/10/4 6/11/4 1/12/4
f 2/13/5 5/14/5 4/15/5
f 3/16/6 4/17/6 5/18/6
f 2/19/7 6/20/7 5/21/7
f 3/22/8 5/23/8 6/24/8
