# Blender 4.4.3
# www.blender.org
mtllib player.mtl
o 円柱
v -0.000000 0.287328 -1.913582
v -0.217564 0.492791 -0.609698
v -1.652813 -0.040434 1.348611
v -0.000000 0.289354 1.913582
v -1.652813 0.040434 1.348611
v -0.217564 0.492791 -1.044826
v -0.712341 -0.040434 -1.180752
v 0.217564 0.492791 -0.609698
v -0.065653 0.996240 1.419391
v -0.712341 0.040434 -1.000000
v 0.217564 0.492791 -1.044826
v 0.056055 0.281807 -1.913582
v 0.056450 0.283794 1.913582
v 0.109955 0.265456 -1.913582
v -0.217564 0.492791 -0.834674
v 0.065653 0.996240 1.419391
v 0.217564 0.492791 -0.834674
v 0.110731 0.267328 1.913582
v -1.042021 -0.040434 0.174305
v 0.159631 0.238904 -1.913582
v -1.042021 0.040434 0.174305
v 0.160756 0.240589 1.913582
v 0.203171 0.203171 -1.913582
v 0.204604 0.204604 1.913582
v 0.238904 0.159631 -1.913582
v -0.947570 0.040434 1.453278
v -0.947012 -0.040434 1.453278
v 0.240589 0.160756 1.913582
v 0.265456 0.109956 -1.913582
v 1.652813 -0.040434 1.348611
v 1.652813 0.040434 1.348611
v 0.267328 0.110731 1.913582
v 0.712341 -0.040434 -1.180752
v 0.281807 0.056055 -1.913582
v 0.712341 0.040434 -1.000000
v 0.283794 0.056450 1.913582
v 0.287327 0.000000 -1.913582
v 0.289354 0.000000 1.913582
v 0.281807 -0.056055 -1.913582
v 0.283794 -0.056450 1.913582
v 0.265456 -0.109955 -1.913582
v 1.042021 -0.040434 0.174305
v 1.042021 0.040434 0.174305
v 0.267328 -0.110731 1.913582
v 0.238904 -0.159631 -1.913582
v 0.240589 -0.160757 1.913582
v 0.947570 0.040434 1.453278
v 0.203171 -0.203171 -1.913582
v 0.947012 -0.040434 1.453278
v 0.204604 -0.204604 1.913582
v 0.159631 -0.238904 -1.913582
v 0.160756 -0.240589 1.913582
v 0.109956 -0.265456 -1.913582
v 0.110731 -0.267328 1.913582
v 0.056055 -0.281807 -1.913582
v 0.056450 -0.283794 1.913582
v -0.000000 -0.287327 -1.913582
v -0.000000 -0.289354 1.913582
v -0.056055 -0.281807 -1.913582
v -0.056450 -0.283794 1.913582
v -0.109956 -0.265456 -1.913582
v -0.110731 -0.267328 1.913582
v -0.159631 -0.238904 -1.913582
v -0.160756 -0.240589 1.913582
v -0.203171 -0.203171 -1.913582
v -0.204604 -0.204604 1.913582
v -0.238904 -0.159631 -1.913582
v -0.240589 -0.160757 1.913582
v -0.265456 -0.109955 -1.913582
v -0.267328 -0.110731 1.913582
v -0.281807 -0.056055 -1.913582
v -0.283794 -0.056450 1.913582
v -0.287327 0.000000 -1.913582
v -0.289354 0.000000 1.913582
v -0.281807 0.056055 -1.913582
v -0.283794 0.056450 1.913582
v -0.265456 0.109956 -1.913582
v -0.267328 0.110731 1.913582
v -0.238904 0.159631 -1.913582
v -0.240589 0.160756 1.913582
v -0.203171 0.203171 -1.913582
v -0.204604 0.204604 1.913582
v -0.159631 0.238904 -1.913582
v -0.160756 0.240589 1.913582
v -0.109955 0.265456 -1.913582
v -0.110731 0.267328 1.913582
v -0.056055 0.281807 -1.913582
v -0.056450 0.283794 1.913582
v -0.000000 0.371046 -1.913582
v 0.072387 0.363916 -1.913582
v 0.141993 0.342801 -1.913582
v 0.206142 0.308513 -1.913582
v 0.262369 0.262369 -1.913582
v 0.308513 0.206142 -1.913582
v 0.342801 0.141993 -1.913582
v 0.363916 0.072387 -1.913582
v 0.371046 0.000000 -1.913582
v 0.363916 -0.072387 -1.913582
v 0.342801 -0.141993 -1.913582
v 0.308513 -0.206142 -1.913582
v 0.262369 -0.262369 -1.913582
v 0.206142 -0.308513 -1.913582
v 0.141993 -0.342801 -1.913582
v 0.072387 -0.363916 -1.913582
v -0.000000 -0.371046 -1.913582
v -0.072387 -0.363916 -1.913582
v -0.141993 -0.342801 -1.913582
v -0.206142 -0.308513 -1.913582
v -0.262369 -0.262369 -1.913582
v -0.308513 -0.206142 -1.913582
v -0.342801 -0.141993 -1.913582
v -0.363916 -0.072387 -1.913582
v -0.371046 0.000000 -1.913582
v -0.363916 0.072387 -1.913582
v -0.342801 0.141993 -1.913582
v -0.308513 0.206142 -1.913582
v -0.262369 0.262369 -1.913582
v -0.206142 0.308513 -1.913582
v -0.141993 0.342801 -1.913582
v -0.072387 0.363916 -1.913582
v -0.000000 0.219369 -1.881814
v 0.042797 0.215154 -1.881814
v 0.083949 0.202670 -1.881814
v 0.121875 0.182398 -1.881814
v 0.155117 0.155117 -1.881814
v 0.182398 0.121875 -1.881814
v 0.202670 0.083949 -1.881814
v 0.215154 0.042797 -1.881814
v 0.219369 0.000000 -1.881814
v 0.215154 -0.042797 -1.881814
v 0.202670 -0.083949 -1.881814
v 0.182398 -0.121875 -1.881814
v 0.155117 -0.155117 -1.881814
v 0.121875 -0.182398 -1.881814
v 0.083949 -0.202670 -1.881814
v 0.042797 -0.215154 -1.881814
v -0.000000 -0.219369 -1.881814
v -0.042797 -0.215154 -1.881814
v -0.083949 -0.202670 -1.881814
v -0.121875 -0.182398 -1.881814
v -0.155117 -0.155117 -1.881814
v -0.182398 -0.121875 -1.881814
v -0.202670 -0.083949 -1.881814
v -0.215154 -0.042797 -1.881814
v -0.219369 0.000000 -1.881814
v -0.215154 0.042797 -1.881814
v -0.202670 0.083949 -1.881814
v -0.182398 0.121875 -1.881814
v -0.155117 0.155117 -1.881814
v -0.121875 0.182398 -1.881814
v -0.083949 0.202670 -1.881814
v -0.042797 0.215154 -1.881814
v -0.000000 0.287328 -1.881814
v 0.056055 0.281807 -1.881814
v 0.109955 0.265456 -1.881814
v 0.159631 0.238904 -1.881814
v 0.203171 0.203171 -1.881814
v 0.238904 0.159631 -1.881814
v 0.265456 0.109956 -1.881814
v 0.281807 0.056055 -1.881814
v 0.287327 0.000000 -1.881814
v 0.281807 -0.056055 -1.881814
v 0.265456 -0.109955 -1.881814
v 0.238904 -0.159631 -1.881814
v 0.203171 -0.203171 -1.881814
v 0.159631 -0.238904 -1.881814
v 0.109956 -0.265456 -1.881814
v 0.056055 -0.281807 -1.881814
v -0.000000 -0.287327 -1.881814
v -0.056055 -0.281807 -1.881814
v -0.109956 -0.265456 -1.881814
v -0.159631 -0.238904 -1.881814
v -0.203171 -0.203171 -1.881814
v -0.238904 -0.159631 -1.881814
v -0.265456 -0.109955 -1.881814
v -0.281807 -0.056055 -1.881814
v -0.287327 0.000000 -1.881814
v -0.281807 0.056055 -1.881814
v -0.265456 0.109956 -1.881814
v -0.238904 0.159631 -1.881814
v -0.203171 0.203171 -1.881814
v -0.159631 0.238904 -1.881814
v -0.109955 0.265456 -1.881814
v -0.056055 0.281807 -1.881814
v -0.000000 0.254646 -1.881814
v 0.049679 0.249753 -1.881814
v 0.097449 0.235262 -1.881814
v 0.141474 0.211730 -1.881814
v 0.180062 0.180062 -1.881814
v 0.211730 0.141474 -1.881814
v 0.235262 0.097449 -1.881814
v 0.249753 0.049679 -1.881814
v 0.254646 0.000000 -1.881814
v 0.249753 -0.049679 -1.881814
v 0.235262 -0.097449 -1.881814
v 0.211730 -0.141474 -1.881814
v 0.180062 -0.180062 -1.881814
v 0.141474 -0.211730 -1.881814
v 0.097449 -0.235262 -1.881814
v 0.049679 -0.249753 -1.881814
v -0.000000 -0.254646 -1.881814
v -0.049679 -0.249753 -1.881814
v -0.097449 -0.235262 -1.881814
v -0.141474 -0.211730 -1.881814
v -0.180062 -0.180062 -1.881814
v -0.211730 -0.141474 -1.881814
v -0.235262 -0.097449 -1.881814
v -0.249753 -0.049679 -1.881814
v -0.254646 0.000000 -1.881814
v -0.249753 0.049679 -1.881814
v -0.235262 0.097449 -1.881814
v -0.211730 0.141474 -1.881814
v -0.180062 0.180062 -1.881814
v -0.141474 0.211730 -1.881814
v -0.097449 0.235262 -1.881814
v -0.049679 0.249753 -1.881814
v -0.000000 0.000000 -2.366735
v -0.000000 0.371046 1.511235
v 0.072387 0.363916 1.511235
v 0.141993 0.342801 1.511235
v 0.206142 0.308513 1.511235
v 0.262369 0.262369 1.511235
v 0.308513 0.206142 1.511235
v 0.342801 0.141993 1.511235
v 0.363916 0.072387 1.511235
v 0.371046 0.000000 1.511235
v 0.363916 -0.072387 1.511235
v 0.342801 -0.141993 1.511235
v 0.308513 -0.206142 1.511235
v 0.262369 -0.262369 1.511235
v 0.206142 -0.308513 1.511235
v 0.141993 -0.342801 1.511235
v 0.072387 -0.363916 1.511235
v -0.000000 -0.371046 1.511235
v -0.072387 -0.363916 1.511235
v -0.141993 -0.342801 1.511235
v -0.206142 -0.308513 1.511235
v -0.262369 -0.262369 1.511235
v -0.308513 -0.206142 1.511235
v -0.342801 -0.141993 1.511235
v -0.363916 -0.072387 1.511235
v -0.371046 0.000000 1.511235
v -0.363916 0.072387 1.511235
v -0.342801 0.141993 1.511235
v -0.308513 0.206142 1.511235
v -0.262369 0.262369 1.511235
v -0.206142 0.308513 1.511235
v -0.141993 0.342801 1.511235
v -0.072387 0.363916 1.511235
v 0.058697 0.295092 1.913582
v -0.000000 0.300873 1.913582
v 0.115139 0.277970 1.913582
v 0.167156 0.250167 1.913582
v 0.212749 0.212749 1.913582
v 0.250167 0.167156 1.913582
v 0.277970 0.115139 1.913582
v 0.295092 0.058697 1.913582
v 0.300873 0.000000 1.913582
v 0.295092 -0.058697 1.913582
v 0.277970 -0.115139 1.913582
v 0.250167 -0.167156 1.913582
v 0.212749 -0.212749 1.913582
v 0.167156 -0.250167 1.913582
v 0.115139 -0.277970 1.913582
v 0.058697 -0.295092 1.913582
v -0.000000 -0.300873 1.913582
v -0.058697 -0.295092 1.913582
v -0.115139 -0.277970 1.913582
v -0.167156 -0.250167 1.913582
v -0.212749 -0.212749 1.913582
v -0.250167 -0.167156 1.913582
v -0.277970 -0.115139 1.913582
v -0.295092 -0.058697 1.913582
v -0.300873 0.000000 1.913582
v -0.295092 0.058697 1.913582
v -0.277970 0.115139 1.913582
v -0.250167 0.167156 1.913582
v -0.212749 0.212749 1.913582
v -0.167156 0.250167 1.913582
v -0.115139 0.277970 1.913582
v -0.058697 0.295092 1.913582
v 0.056450 0.283794 1.551533
v -0.000000 0.289354 1.551533
v 0.110731 0.267328 1.551533
v 0.160756 0.240589 1.551533
v 0.204604 0.204604 1.551533
v 0.240589 0.160757 1.551533
v 0.267328 0.110731 1.551533
v 0.283794 0.056450 1.551533
v 0.289354 0.000000 1.551533
v 0.283794 -0.056450 1.551533
v 0.267328 -0.110731 1.551533
v 0.240589 -0.160756 1.551533
v 0.204604 -0.204604 1.551533
v 0.160756 -0.240589 1.551533
v 0.110731 -0.267328 1.551533
v 0.056450 -0.283794 1.551533
v -0.000000 -0.289354 1.551533
v -0.056450 -0.283794 1.551533
v -0.110731 -0.267328 1.551533
v -0.160756 -0.240589 1.551533
v -0.204604 -0.204604 1.551533
v -0.240589 -0.160756 1.551533
v -0.267328 -0.110731 1.551533
v -0.283794 -0.056450 1.551533
v -0.289354 0.000000 1.551533
v -0.283794 0.056450 1.551533
v -0.267328 0.110731 1.551533
v -0.240589 0.160757 1.551533
v -0.204604 0.204604 1.551533
v -0.160756 0.240589 1.551533
v -0.110731 0.267328 1.551533
v -0.056450 0.283794 1.551533
v -0.065653 0.364579 1.419391
v -0.065653 0.364579 0.761658
v -0.000000 0.371046 1.419391
v -0.000000 0.371046 0.768391
v 0.065653 0.364579 1.419391
v 0.065653 0.364579 0.761658
v -0.367063 0.040434 1.475551
v -0.371046 0.000000 1.475398
v -0.371046 0.000000 -1.090376
v -0.367063 0.040434 0.174305
v -0.367063 0.040434 -1.000000
v -0.367063 -0.040434 1.475541
v -0.367063 -0.040434 0.174305
v -0.367063 -0.040434 -1.180752
v 0.367063 -0.040434 1.475541
v 0.371046 0.000000 1.475398
v 0.371046 0.000000 -1.090376
v 0.367063 -0.040434 0.174305
v 0.367063 -0.040434 -1.180752
v 0.367063 0.040434 1.475551
v 0.367063 0.040434 0.174305
v 0.367063 0.040434 -1.000000
v -0.000000 0.371046 -0.262531
v -0.000000 0.371046 -1.159837
v -0.072387 0.363916 -0.242200
v -0.072387 0.363916 -1.166572
v -0.141993 0.342801 -0.181990
v -0.141993 0.342801 -1.186519
v -0.206142 0.308513 -0.084214
v -0.206142 0.308513 -1.218911
v -0.217564 0.299139 -0.057484
v -0.217564 0.299139 -0.834674
v -0.217564 0.299139 -1.227766
v 0.206142 0.308513 -1.218911
v 0.217564 0.299139 -0.057484
v 0.217564 0.299139 -0.834674
v 0.206142 0.308513 -0.084214
v 0.217564 0.299139 -1.227766
v 0.141993 0.342801 -0.181990
v 0.141993 0.342801 -1.186519
v 0.072387 0.363916 -0.242200
v 0.072387 0.363916 -1.166572
vn 0.0966 0.9805 0.1710
vn 0.2860 0.9428 0.1710
vn 0.4645 0.8689 0.1710
vn 0.6250 0.7616 0.1710
vn 0.7616 0.6250 0.1710
vn 0.8689 0.4645 0.1710
vn 0.9428 0.2860 0.1710
vn 0.9805 0.0966 0.1710
vn 0.9805 -0.0966 0.1710
vn 0.9428 -0.2860 0.1710
vn 0.8689 -0.4645 0.1710
vn 0.7616 -0.6250 0.1710
vn 0.6250 -0.7616 0.1710
vn 0.4645 -0.8689 0.1710
vn 0.2860 -0.9428 0.1710
vn 0.0966 -0.9805 0.1710
vn -0.0966 -0.9805 0.1710
vn -0.2860 -0.9428 0.1710
vn -0.4645 -0.8689 0.1710
vn -0.6250 -0.7616 0.1710
vn -0.7616 -0.6250 0.1710
vn -0.8689 -0.4645 0.1710
vn -0.9428 -0.2860 0.1710
vn -0.9805 -0.0966 0.1710
vn -0.9805 0.0966 0.1710
vn -0.9428 0.2860 0.1710
vn -0.8689 0.4645 0.1710
vn -0.7616 0.6250 0.1710
vn -0.6250 0.7616 0.1710
vn -0.4645 0.8689 0.1710
vn -0.6344 0.7730 -0.0000
vn -0.2860 0.9428 0.1710
vn -0.0966 0.9805 0.1710
vn 0.0980 0.9952 -0.0000
vn -0.0000 -0.0000 -1.0000
vn -0.0894 0.9075 -0.4105
vn -0.6344 -0.7730 -0.0000
vn 0.2903 -0.9569 -0.0000
vn 0.2903 0.9569 -0.0000
vn -0.7730 -0.6344 -0.0000
vn 0.0980 -0.9952 -0.0000
vn 0.4714 0.8819 -0.0000
vn -0.8819 -0.4714 -0.0000
vn 0.6344 0.7730 -0.0000
vn -0.9569 -0.2903 -0.0000
vn 0.7730 0.6344 -0.0000
vn -0.9952 -0.0980 -0.0000
vn 0.8819 0.4714 -0.0000
vn -0.9952 0.0980 -0.0000
vn 0.9569 0.2903 -0.0000
vn -0.9569 0.2903 -0.0000
vn 0.9952 0.0980 -0.0000
vn -0.8819 0.4714 -0.0000
vn 0.9952 -0.0980 -0.0000
vn -0.7730 0.6344 -0.0000
vn 0.9569 -0.2903 -0.0000
vn 0.8819 -0.4714 -0.0000
vn -0.4714 0.8819 -0.0000
vn -0.0980 -0.9952 -0.0000
vn 0.7730 -0.6344 -0.0000
vn -0.2903 0.9569 -0.0000
vn -0.2903 -0.9569 -0.0000
vn 0.6344 -0.7730 -0.0000
vn -0.0980 0.9952 -0.0000
vn -0.4714 -0.8819 -0.0000
vn 0.4714 -0.8819 -0.0000
vn -0.4298 -0.8042 -0.4105
vn 0.8042 0.4298 -0.4105
vn -0.5785 -0.7049 -0.4105
vn 0.8726 0.2647 -0.4105
vn -0.7049 -0.5785 -0.4105
vn 0.9075 0.0894 -0.4105
vn -0.8042 -0.4298 -0.4105
vn 0.9075 -0.0894 -0.4105
vn -0.8726 -0.2647 -0.4105
vn 0.8726 -0.2647 -0.4105
vn -0.9075 -0.0894 -0.4105
vn 0.8042 -0.4298 -0.4105
vn -0.9075 0.0894 -0.4105
vn 0.7049 -0.5785 -0.4105
vn -0.8726 0.2647 -0.4105
vn 0.5785 -0.7049 -0.4105
vn -0.8042 0.4298 -0.4105
vn 0.4298 -0.8042 -0.4105
vn 0.0894 0.9075 -0.4105
vn -0.7049 0.5785 -0.4105
vn 0.2647 -0.8726 -0.4105
vn 0.2647 0.8726 -0.4105
vn -0.5785 0.7049 -0.4105
vn 0.0894 -0.9075 -0.4105
vn 0.4298 0.8042 -0.4105
vn -0.4298 0.8042 -0.4105
vn -0.0894 -0.9075 -0.4105
vn 0.5785 0.7049 -0.4105
vn -0.2647 0.8726 -0.4105
vn -0.2647 -0.8726 -0.4105
vn 0.7049 0.5785 -0.4105
vn -0.0000 -0.0000 1.0000
vn -1.0000 -0.0000 -0.0000
vn 1.0000 -0.0000 -0.0000
vn -0.0000 0.7213 -0.6927
vn -0.8591 0.4672 -0.2090
vn -0.0000 0.9128 -0.4084
vn -0.0384 -0.0002 0.9993
vn -0.0000 -1.0000 -0.0000
vn -0.0000 1.0000 -0.0000
vn -0.8872 -0.0000 -0.4614
vn -0.1467 -0.0010 0.9892
vn 0.9628 -0.0000 -0.2703
vn 0.0383 -0.0000 0.9993
vn 0.8872 -0.0000 -0.4614
vn 0.1467 -0.0010 0.9892
vn -0.0000 0.6867 -0.7269
vn -0.0000 0.9437 0.3309
vn -0.9628 -0.0000 -0.2703
vn -0.0383 -0.0000 0.9993
vn -0.0384 -0.0003 0.9993
vn -0.1468 -0.0000 0.9892
vn 0.8591 0.4672 -0.2090
vn 0.0384 -0.0002 0.9993
vn 0.0384 -0.0003 0.9993
vn 0.1468 -0.0000 0.9892
vt 0.747909 0.672017
vt 0.682063 0.683919
vt 0.682095 0.672017
vt 0.747884 0.681668
vt 0.681969 0.695363
vt 0.747807 0.690948
vt 0.681816 0.705910
vt 0.747683 0.699500
vt 0.681610 0.715155
vt 0.121423 0.598345
vt 0.187430 0.613957
vt 0.121746 0.607656
vt 0.121987 0.618252
vt 0.187624 0.622549
vt 0.122134 0.629726
vt 0.187785 0.641512
vt 0.122184 0.641637
vt 0.122134 0.653528
vt 0.187744 0.651154
vt 0.121987 0.664942
vt 0.187430 0.668921
vt 0.121746 0.675439
vt 0.121423 0.684617
vt 0.353626 0.689009
vt 0.287810 0.690095
vt 0.287655 0.680851
vt 0.353845 0.705058
vt 0.287925 0.700643
vt 0.353903 0.714338
vt 0.287996 0.712087
vt 0.288020 0.723988
vt 0.353903 0.733639
vt 0.287996 0.735890
vt 0.287925 0.747334
vt 0.353845 0.742919
vt 0.287810 0.757881
vt 0.353752 0.751471
vt 0.287655 0.767126
vt 0.066361 0.743090
vt 0.000355 0.727394
vt 0.066038 0.733912
vt 0.065798 0.723415
vt 0.000160 0.718882
vt 0.065650 0.712001
vt 0.000000 0.699985
vt 0.065600 0.700110
vt 0.065650 0.688199
vt 0.000040 0.690326
vt 0.065798 0.676725
vt 0.000160 0.681022
vt 0.066038 0.666129
vt 0.000355 0.672430
vt 0.066361 0.656818
vt 0.681610 0.628880
vt 0.747683 0.644535
vt 0.681816 0.638125
vt 0.681969 0.648672
vt 0.741493 0.782435
vt 0.681828 0.775226
vt 0.741332 0.775226
vt 0.747807 0.653087
vt 0.682063 0.660116
vt 0.115647 0.600980
vt 0.110450 0.591763
vt 0.115672 0.591763
vt 0.056081 0.450634
vt 0.043003 0.439269
vt 0.054732 0.436936
vt 0.066691 0.436936
vt 0.065342 0.450634
vt 0.074425 0.452441
vt 0.078421 0.439269
vt 0.089469 0.443845
vt 0.082981 0.455984
vt 0.090681 0.461130
vt 0.099413 0.450489
vt 0.107869 0.458946
vt 0.097229 0.467678
vt 0.102374 0.475378
vt 0.114514 0.468889
vt 0.119090 0.479938
vt 0.105918 0.483934
vt 0.107725 0.493017
vt 0.121423 0.491668
vt 0.121423 0.503627
vt 0.107725 0.502278
vt 0.105918 0.511361
vt 0.119090 0.515356
vt 0.114514 0.526405
vt 0.102374 0.519916
vt 0.097229 0.527617
vt 0.107869 0.536349
vt 0.099413 0.544805
vt 0.090681 0.534165
vt 0.082981 0.539310
vt 0.089469 0.551449
vt 0.078421 0.556026
vt 0.074425 0.542854
vt 0.065342 0.544661
vt 0.066691 0.558359
vt 0.054732 0.558359
vt 0.056081 0.544661
vt 0.046998 0.542854
vt 0.043003 0.556026
vt 0.031954 0.551449
vt 0.038442 0.539310
vt 0.030742 0.534165
vt 0.022010 0.544805
vt 0.013554 0.536349
vt 0.024194 0.527617
vt 0.019049 0.519916
vt 0.006910 0.526405
vt 0.002333 0.515356
vt 0.015505 0.511361
vt 0.013698 0.502278
vt -0.000000 0.503627
vt -0.000000 0.491668
vt 0.013698 0.493017
vt 0.015505 0.483934
vt 0.002333 0.479938
vt 0.006910 0.468890
vt 0.019049 0.475378
vt 0.024194 0.467678
vt 0.013554 0.458946
vt 0.022010 0.450489
vt 0.030742 0.461130
vt 0.038442 0.455984
vt 0.031954 0.443845
vt 0.046998 0.452441
vt 0.731132 0.526588
vt 0.737844 0.528698
vt 0.713448 0.605598
vt 0.115954 0.558359
vt 0.121056 0.565518
vt 0.115834 0.565518
vt 0.115690 0.600980
vt 0.120967 0.609842
vt 0.115745 0.609842
vt 0.115574 0.609842
vt 0.110426 0.600980
vt 0.103928 0.565468
vt 0.098460 0.558359
vt 0.103678 0.558361
vt 0.115672 0.591763
vt 0.120912 0.600980
vt 0.115456 0.618009
vt 0.110353 0.609842
vt 0.104114 0.573597
vt 0.098710 0.565466
vt 0.115296 0.625168
vt 0.110234 0.618009
vt 0.104229 0.582435
vt 0.098896 0.573595
vt 0.104606 0.617957
vt 0.110075 0.625165
vt 0.104857 0.625167
vt 0.104267 0.591643
vt 0.099010 0.582433
vt 0.104420 0.609752
vt 0.109825 0.617955
vt 0.104229 0.600867
vt 0.099049 0.591641
vt 0.104306 0.600867
vt 0.109639 0.609750
vt 0.104114 0.609752
vt 0.099010 0.600865
vt 0.104267 0.591643
vt 0.109524 0.600865
vt 0.103928 0.617957
vt 0.098896 0.609750
vt 0.104306 0.582435
vt 0.109486 0.591641
vt 0.103678 0.625167
vt 0.098710 0.617955
vt 0.104420 0.573597
vt 0.109524 0.582433
vt 0.115456 0.565518
vt 0.110075 0.558359
vt 0.115296 0.558359
vt 0.104606 0.565468
vt 0.109639 0.573595
vt 0.115574 0.573685
vt 0.110234 0.565518
vt 0.115690 0.582547
vt 0.120894 0.591763
vt 0.104857 0.558361
vt 0.109825 0.565466
vt 0.115647 0.582547
vt 0.110353 0.573685
vt 0.115745 0.573685
vt 0.120912 0.582547
vt 0.115834 0.618009
vt 0.121176 0.625168
vt 0.115954 0.625168
vt 0.110426 0.582547
vt 0.120967 0.573685
vt 0.121056 0.618009
vt 0.354405 0.596914
vt 0.348382 0.588631
vt 0.356938 0.592175
vt 0.364638 0.597320
vt 0.361229 0.601473
vt 0.367032 0.607277
vt 0.371186 0.603868
vt 0.376331 0.611568
vt 0.371592 0.614101
vt 0.374733 0.621684
vt 0.379875 0.620124
vt 0.381682 0.629207
vt 0.376334 0.629734
vt 0.376334 0.637941
vt 0.381682 0.638468
vt 0.379875 0.647551
vt 0.374733 0.645991
vt 0.371592 0.653574
vt 0.376331 0.656107
vt 0.371186 0.663807
vt 0.367032 0.660398
vt 0.361229 0.666202
vt 0.364638 0.670355
vt 0.356937 0.675500
vt 0.354405 0.670761
vt 0.346822 0.673902
vt 0.348382 0.679044
vt 0.339299 0.680851
vt 0.338772 0.675503
vt 0.330565 0.675503
vt 0.330038 0.680851
vt 0.320955 0.679044
vt 0.322515 0.673902
vt 0.314932 0.670761
vt 0.312399 0.675500
vt 0.304699 0.670355
vt 0.308108 0.666202
vt 0.302304 0.660398
vt 0.298151 0.663807
vt 0.293006 0.656107
vt 0.297744 0.653574
vt 0.294604 0.645991
vt 0.289462 0.647551
vt 0.287655 0.638468
vt 0.293002 0.637941
vt 0.293002 0.629734
vt 0.287655 0.629207
vt 0.289462 0.620124
vt 0.294604 0.621684
vt 0.297744 0.614101
vt 0.293006 0.611568
vt 0.298151 0.603868
vt 0.302304 0.607277
vt 0.308108 0.601473
vt 0.304699 0.597320
vt 0.312399 0.592175
vt 0.314932 0.596914
vt 0.322515 0.593773
vt 0.320955 0.588631
vt 0.330038 0.586824
vt 0.330565 0.592172
vt 0.338772 0.592172
vt 0.339299 0.586824
vt 0.346822 0.593773
vt 0.351670 0.602029
vt 0.357549 0.605957
vt 0.362549 0.610957
vt 0.366477 0.616835
vt 0.369183 0.623368
vt 0.370562 0.630302
vt 0.370562 0.637373
vt 0.369183 0.644307
vt 0.366477 0.650840
vt 0.362549 0.656718
vt 0.357549 0.661718
vt 0.351670 0.665646
vt 0.345138 0.668352
vt 0.338204 0.669731
vt 0.331133 0.669731
vt 0.324198 0.668352
vt 0.317666 0.665646
vt 0.311787 0.661718
vt 0.306788 0.656718
vt 0.302860 0.650840
vt 0.300154 0.644307
vt 0.298775 0.637373
vt 0.298775 0.630302
vt 0.300154 0.623368
vt 0.302860 0.616835
vt 0.306788 0.610957
vt 0.311787 0.605957
vt 0.317666 0.602029
vt 0.324198 0.599323
vt 0.331133 0.597944
vt 0.338204 0.597944
vt 0.345138 0.599323
vt 0.365025 0.753284
vt 0.359103 0.751331
vt 0.402533 0.680851
vt 0.109777 0.727934
vt 0.103851 0.729969
vt 0.066361 0.656818
vt 0.353922 0.749588
vt 0.097413 0.732110
vt 0.713448 0.451899
vt 0.718569 0.450094
vt 0.762118 0.521259
vt 0.090711 0.734274
vt 0.724448 0.448102
vt 0.084003 0.736377
vt 0.730861 0.446000
vt 0.077547 0.738340
vt 0.737561 0.443869
vt 0.071590 0.740087
vt 0.744289 0.441791
vt 0.066361 0.741551
vt 0.750788 0.439845
vt 0.402533 0.765039
vt 0.397296 0.763471
vt 0.756809 0.438107
vt 0.391333 0.761647
vt 0.744546 0.530843
vt 0.762118 0.436643
vt 0.384872 0.759637
vt 0.750978 0.532942
vt 0.713448 0.521259
vt 0.718695 0.522795
vt 0.378162 0.757519
vt 0.756894 0.534914
vt 0.724666 0.524595
vt 0.371460 0.755374
vt 0.762067 0.536683
vt 0.114965 0.726083
vt 0.888723 0.562883
vt 0.876821 0.440141
vt 0.888723 0.439002
vt 0.876821 0.288216
vt 0.876821 0.000032
vt 0.877928 0.123225
vt 0.865377 0.278415
vt 0.876821 0.562915
vt 0.865377 0.443514
vt 0.854830 0.262498
vt 0.865377 0.000126
vt 0.865377 0.563010
vt 0.854830 0.448990
vt 0.845585 0.563368
vt 0.852952 0.385881
vt 0.852952 0.450488
vt 0.586028 0.437068
vt 0.595339 0.999968
vt 0.586028 0.999648
vt 0.575432 0.436832
vt 0.575432 0.999412
vt 0.563958 0.436688
vt 0.563958 0.999268
vt 0.558700 0.656280
vt 0.540156 0.999277
vt 0.540156 0.436697
vt 0.545404 0.656285
vt 0.528742 0.436849
vt 0.528742 0.999429
vt 0.518245 0.437093
vt 0.518245 0.999673
vt 0.509067 0.437420
vt 0.509067 1.000000
vt 0.432037 0.999771
vt 0.422793 0.436643
vt 0.432037 0.436798
vt 0.442584 0.999887
vt 0.442584 0.436913
vt 0.454028 0.999957
vt 0.454028 0.436984
vt 0.465930 0.999981
vt 0.465930 0.437008
vt 0.477832 0.999957
vt 0.477832 0.436984
vt 0.489276 0.999887
vt 0.489276 0.436913
vt 0.499823 0.999771
vt 0.499823 0.436798
vt 0.509067 0.999616
vt 0.509067 0.436643
vt 0.672432 0.437093
vt 0.681610 1.000000
vt 0.672432 0.999673
vt 0.661935 0.436849
vt 0.661935 0.999429
vt 0.650522 0.436697
vt 0.650522 0.999277
vt 0.645273 0.656285
vt 0.626720 0.999268
vt 0.626720 0.436688
vt 0.631977 0.656280
vt 0.615245 0.436832
vt 0.615245 0.999412
vt 0.604649 0.437068
vt 0.604649 0.999648
vt 0.595339 0.437388
vt 0.931860 0.563368
vt 0.924493 0.385881
vt 0.924493 0.258147
vt 0.912068 0.000126
vt 0.922615 0.262498
vt 0.912068 0.278415
vt 0.922615 0.448990
vt 0.912068 0.563010
vt 0.912068 0.443514
vt 0.900624 0.000032
vt 0.900624 0.288216
vt 0.900624 0.562915
vt 0.900624 0.440141
vt 0.899517 0.123225
vt 0.899517 0.015124
vt 0.063040 0.562063
vt 0.072549 0.563962
vt 0.071656 0.565632
vt 0.054078 0.558359
vt 0.063590 0.560251
vt 0.044567 0.560244
vt 0.053893 0.560244
vt 0.034870 0.560251
vt 0.044381 0.558359
vt 0.026803 0.565632
vt 0.035420 0.562063
vt 0.019049 0.570813
vt 0.025911 0.563962
vt 0.012454 0.577408
vt 0.017848 0.569349
vt 0.005603 0.584270
vt 0.010991 0.576207
vt 0.003704 0.593779
vt 0.007273 0.585162
vt 0.000000 0.602740
vt 0.001892 0.593229
vt 0.001885 0.612252
vt 0.001885 0.602926
vt 0.001892 0.621948
vt 0.000000 0.612437
vt 0.003704 0.621399
vt 0.005603 0.630908
vt 0.012455 0.637769
vt 0.007273 0.630015
vt 0.019049 0.644364
vt 0.010991 0.638971
vt 0.025911 0.651215
vt 0.017848 0.645828
vt 0.035420 0.653114
vt 0.026804 0.649545
vt 0.044381 0.656818
vt 0.034870 0.654927
vt 0.044567 0.654934
vt 0.054078 0.656818
vt 0.063040 0.653114
vt 0.053893 0.654934
vt 0.071656 0.649545
vt 0.063590 0.654927
vt 0.080612 0.645828
vt 0.072549 0.651215
vt 0.086005 0.637769
vt 0.079410 0.644364
vt 0.092857 0.630908
vt 0.087469 0.638971
vt 0.094755 0.621399
vt 0.091186 0.630015
vt 0.098460 0.612437
vt 0.096568 0.621948
vt 0.096575 0.612252
vt 0.098460 0.602740
vt 0.096575 0.602926
vt 0.096568 0.593229
vt 0.091186 0.585162
vt 0.094755 0.593779
vt 0.086005 0.577408
vt 0.092857 0.584270
vt 0.079410 0.570813
vt 0.087469 0.576207
vt 0.080612 0.569349
vt 0.198353 0.611743
vt 0.226500 0.588643
vt 0.262736 0.592212
vt 0.252598 0.696857
vt 0.193316 0.688671
vt 0.252788 0.688671
vt 0.681708 0.767001
vt 0.741213 0.767001
vt 0.801006 0.748795
vt 0.741511 0.739514
vt 0.801025 0.739514
vt 0.193571 0.681514
vt 0.253043 0.681514
vt 0.681635 0.758076
vt 0.741139 0.758076
vt 0.741567 0.730589
vt 0.801080 0.730589
vt 0.801291 0.782435
vt 0.741656 0.775226
vt 0.801170 0.775226
vt 0.681610 0.748795
vt 0.741114 0.748795
vt 0.741656 0.722364
vt 0.801170 0.722364
vt 0.801081 0.767001
vt 0.741567 0.767001
vt 0.681635 0.739514
vt 0.741139 0.739514
vt 0.741777 0.715155
vt 0.801291 0.715155
vt 0.741511 0.758076
vt 0.801025 0.758076
vt 0.681708 0.730589
vt 0.741213 0.730589
vt 0.121423 0.684617
vt 0.181150 0.691774
vt 0.121678 0.691774
vt 0.741493 0.748795
vt 0.681828 0.722364
vt 0.741332 0.722364
vt 0.181341 0.699960
vt 0.121868 0.699960
vt 0.681988 0.715155
vt 0.741493 0.715155
vt 0.181459 0.708860
vt 0.121987 0.708860
vt 0.253018 0.748791
vt 0.193296 0.741531
vt 0.252769 0.741531
vt 0.181502 0.718133
vt 0.122029 0.718133
vt 0.252584 0.733268
vt 0.193112 0.733268
vt 0.181466 0.727422
vt 0.121994 0.727422
vt 0.193000 0.724320
vt 0.252473 0.724320
vt 0.181354 0.736370
vt 0.121882 0.736370
vt 0.192965 0.715031
vt 0.252437 0.715031
vt 0.181170 0.744633
vt 0.121698 0.744633
vt 0.252479 0.705758
vt 0.193007 0.705758
vt 0.180921 0.751894
vt 0.121448 0.751894
vt 0.193126 0.696857
vt 0.342680 0.586824
vt 0.267822 0.508916
vt 0.342680 0.436936
vt 0.192965 0.436936
vt 0.267822 0.508916
vt 0.192965 0.586824
vt 0.385857 0.436936
vt 0.385857 0.540790
vt 0.375063 0.539727
vt 0.364269 0.436936
vt 0.364269 0.547855
vt 0.353474 0.546720
vt 0.845338 0.661541
vt 0.832195 0.466296
vt 0.845585 0.436643
vt 0.154627 0.406867
vt 0.211396 0.406867
vt 0.210742 0.421901
vt 0.762118 0.531995
vt 0.762118 0.436643
vt 0.768766 0.437298
vt 0.750233 0.432983
vt 0.734612 0.222745
vt 0.845585 0.222745
vt 0.100423 0.213865
vt -0.000000 0.020863
vt 0.115952 0.003661
vt 0.211396 0.213865
vt 0.788816 -0.000000
vt 0.832290 0.858681
vt 0.845585 0.858718
vt 0.775414 0.532087
vt 0.762118 0.648039
vt 0.818748 0.661541
vt 0.831891 0.466296
vt 0.832043 0.661504
vt 0.268165 0.436936
vt 0.211396 0.436936
vt 0.212051 0.421901
vt 0.775415 0.532087
vt 0.775415 0.436643
vt 0.782063 0.437298
vt 0.533766 0.222745
vt 0.634189 0.415778
vt 0.518145 0.432983
vt 0.306840 0.003661
vt 0.322369 0.213865
vt 0.211396 0.213865
vt 0.268165 0.406867
vt 0.479562 -0.000000
vt 0.422793 0.222745
vt 0.422793 -0.000000
vt 0.831796 0.858681
vt 0.818501 0.858718
vt 0.788711 0.648039
vt 0.788711 0.531995
vt 0.681610 0.564309
vt 0.713448 0.598817
vt 0.273060 0.717285
vt 0.274232 0.729186
vt 0.253043 0.753056
vt 0.422793 0.564601
vt 0.390955 0.527633
vt 0.422793 0.436936
vt 0.157194 0.470315
vt 0.169096 0.467005
vt 0.192965 0.526830
vt 0.121423 0.563806
vt 0.192965 0.563806
vt 0.121423 0.598345
vt 0.192965 0.598345
vt 0.390955 0.599110
vt 0.422793 0.629173
vt 0.713448 0.527341
vt 0.681610 0.436643
vt 0.747516 0.706997
vt 0.187168 0.606407
vt 0.187744 0.631853
vt 0.187624 0.660409
vt 0.187168 0.676363
vt 0.353752 0.696505
vt 0.353922 0.723988
vt 0.353626 0.758967
vt 0.000617 0.734836
vt 0.000040 0.709627
vt 0.000617 0.664880
vt 0.747516 0.637038
vt 0.681988 0.782435
vt 0.747884 0.662367
vt 0.121176 0.558359
vt 0.110075 0.625168
vt 0.098460 0.625165
vt 0.888723 0.000000
vt 0.877928 0.015124
vt 0.888723 0.015095
vt 0.888723 0.122090
vt 0.888723 0.291526
vt 0.854830 0.000279
vt 0.854830 0.563163
vt 0.845585 0.000485
vt 0.852952 0.258147
vt 0.558700 0.442530
vt 0.552047 0.442530
vt 0.552047 0.436643
vt 0.552047 0.999223
vt 0.552047 0.863998
vt 0.558700 0.849178
vt 0.545404 0.878874
vt 0.545404 0.442537
vt 0.422793 0.999616
vt 0.681610 0.437420
vt 0.645273 0.442537
vt 0.638631 0.442530
vt 0.638631 0.436643
vt 0.638631 0.999223
vt 0.645273 0.878874
vt 0.638631 0.863998
vt 0.631977 0.849178
vt 0.631977 0.442530
vt 0.922615 0.000279
vt 0.931860 0.000485
vt 0.922615 0.563163
vt 0.924493 0.450488
vt 0.270491 0.597394
vt 0.277085 0.603988
vt 0.282266 0.611743
vt 0.285835 0.620359
vt 0.287655 0.629506
vt 0.287655 0.638832
vt 0.285835 0.647979
vt 0.282266 0.656595
vt 0.277085 0.664350
vt 0.270491 0.670944
vt 0.262736 0.676126
vt 0.254120 0.679695
vt 0.244973 0.681514
vt 0.217884 0.676126
vt 0.235647 0.681514
vt 0.226500 0.679695
vt 0.210129 0.670944
vt 0.203535 0.664350
vt 0.198353 0.656595
vt 0.194784 0.647979
vt 0.192965 0.638832
vt 0.192965 0.629506
vt 0.194784 0.620359
vt 0.203535 0.603988
vt 0.210129 0.597394
vt 0.217884 0.592212
vt 0.235647 0.586824
vt 0.244973 0.586824
vt 0.254120 0.588643
vt 0.741777 0.782435
vt 0.180896 0.684617
vt 0.193546 0.748792
vt 0.364269 0.540790
vt 0.342680 0.547855
vt 0.832043 0.661504
vt 0.154627 0.436936
vt 0.775414 0.436643
vt 0.845585 0.436643
vt 0.634189 0.415778
vt 0.211396 -0.000000
vt 0.845585 -0.000000
vt 0.775414 0.648039
vt 0.818501 0.436643
vt 0.788711 0.436643
vt 0.422793 0.436643
vt 0.211396 0.000000
vt 0.422793 0.020863
vt 0.775415 0.648039
vt 0.713448 0.564297
vt 0.283341 0.751178
vt 0.284882 0.753056
vt 0.253043 0.681514
vt 0.284882 0.681514
vt 0.283341 0.683392
vt 0.277704 0.693939
vt 0.277704 0.740631
vt 0.274232 0.705383
vt 0.390955 0.564589
vt 0.191087 0.441287
vt 0.192965 0.436936
vt 0.121423 0.526830
vt 0.121423 0.436936
vt 0.123301 0.441287
vt 0.133848 0.457204
vt 0.180540 0.457204
vt 0.145292 0.467005
s 0
usemtl マテリアル
f 186/198/35 153/199/35 154/200/35
f 186/198/35 155/201/35 187/202/35
f 188/203/35 155/201/35 156/204/35
f 188/203/35 157/205/35 189/206/35
f 190/207/35 157/205/35 158/208/35
f 190/207/35 159/209/35 191/210/35
f 192/211/35 159/209/35 160/212/35
f 192/211/35 161/213/35 193/214/35
f 194/215/35 161/213/35 162/216/35
f 194/215/35 163/217/35 195/218/35
f 196/219/35 163/217/35 164/220/35
f 196/219/35 165/221/35 197/222/35
f 198/223/35 165/221/35 166/224/35
f 198/223/35 167/225/35 199/226/35
f 200/227/35 167/225/35 168/228/35
f 200/227/35 169/229/35 201/230/35
f 202/231/35 169/229/35 170/232/35
f 202/231/35 171/233/35 203/234/35
f 204/235/35 171/233/35 172/236/35
f 204/235/35 173/237/35 205/238/35
f 206/239/35 173/237/35 174/240/35
f 206/239/35 175/241/35 207/242/35
f 208/243/35 175/241/35 176/244/35
f 208/243/35 177/245/35 209/246/35
f 210/247/35 177/245/35 178/248/35
f 210/247/35 179/249/35 211/250/35
f 212/251/35 179/249/35 180/252/35
f 212/251/35 181/253/35 213/254/35
f 214/255/35 181/253/35 182/256/35
f 214/255/35 183/257/35 215/258/35
f 216/259/35 183/257/35 184/260/35
f 216/259/35 153/199/35 185/261/35
f 122/262/35 185/261/35 186/198/35
f 122/262/35 187/202/35 123/263/35
f 124/264/35 187/202/35 188/203/35
f 124/264/35 189/206/35 125/265/35
f 126/266/35 189/206/35 190/207/35
f 126/266/35 191/210/35 127/267/35
f 128/268/35 191/210/35 192/211/35
f 128/268/35 193/214/35 129/269/35
f 130/270/35 193/214/35 194/215/35
f 130/270/35 195/218/35 131/271/35
f 132/272/35 195/218/35 196/219/35
f 132/272/35 197/222/35 133/273/35
f 134/274/35 197/222/35 198/223/35
f 134/274/35 199/226/35 135/275/35
f 136/276/35 199/226/35 200/227/35
f 136/276/35 201/230/35 137/277/35
f 138/278/35 201/230/35 202/231/35
f 138/278/35 203/234/35 139/279/35
f 140/280/35 203/234/35 204/235/35
f 140/280/35 205/238/35 141/281/35
f 142/282/35 205/238/35 206/239/35
f 142/282/35 207/242/35 143/283/35
f 144/284/35 207/242/35 208/243/35
f 144/284/35 209/246/35 145/285/35
f 146/286/35 209/246/35 210/247/35
f 146/286/35 211/250/35 147/287/35
f 148/288/35 211/250/35 212/251/35
f 148/288/35 213/254/35 149/289/35
f 150/290/35 213/254/35 214/255/35
f 150/290/35 215/258/35 151/291/35
f 152/292/35 215/258/35 216/259/35
f 152/292/35 185/261/35 121/293/35
f 89/331/64 339/332/64 337/333/64
f 120/338/61 341/339/61 339/332/61
f 119/342/58 343/343/58 341/339/58
f 347/403/42 91/404/42 353/405/42
f 353/405/39 90/408/39 355/409/39
f 355/409/34 89/331/34 337/333/34
f 287/476/98 282/477/98 311/478/98
f 186/198/35 185/261/35 153/199/35
f 186/198/35 154/200/35 155/201/35
f 188/203/35 187/202/35 155/201/35
f 188/203/35 156/204/35 157/205/35
f 190/207/35 189/206/35 157/205/35
f 190/207/35 158/208/35 159/209/35
f 192/211/35 191/210/35 159/209/35
f 192/211/35 160/212/35 161/213/35
f 194/215/35 193/214/35 161/213/35
f 194/215/35 162/216/35 163/217/35
f 196/219/35 195/218/35 163/217/35
f 196/219/35 164/220/35 165/221/35
f 198/223/35 197/222/35 165/221/35
f 198/223/35 166/224/35 167/225/35
f 200/227/35 199/226/35 167/225/35
f 200/227/35 168/228/35 169/229/35
f 202/231/35 201/230/35 169/229/35
f 202/231/35 170/232/35 171/233/35
f 204/235/35 203/234/35 171/233/35
f 204/235/35 172/236/35 173/237/35
f 206/239/35 205/238/35 173/237/35
f 206/239/35 174/240/35 175/241/35
f 208/243/35 207/242/35 175/241/35
f 208/243/35 176/244/35 177/245/35
f 210/247/35 209/246/35 177/245/35
f 210/247/35 178/248/35 179/249/35
f 212/251/35 211/250/35 179/249/35
f 212/251/35 180/252/35 181/253/35
f 214/255/35 213/254/35 181/253/35
f 214/255/35 182/256/35 183/257/35
f 216/259/35 215/258/35 183/257/35
f 216/259/35 184/260/35 153/199/35
f 122/262/35 121/293/35 185/261/35
f 122/262/35 186/198/35 187/202/35
f 124/264/35 123/263/35 187/202/35
f 124/264/35 188/203/35 189/206/35
f 126/266/35 125/265/35 189/206/35
f 126/266/35 190/207/35 191/210/35
f 128/268/35 127/267/35 191/210/35
f 128/268/35 192/211/35 193/214/35
f 130/270/35 129/269/35 193/214/35
f 130/270/35 194/215/35 195/218/35
f 132/272/35 131/271/35 195/218/35
f 132/272/35 196/219/35 197/222/35
f 134/274/35 133/273/35 197/222/35
f 134/274/35 198/223/35 199/226/35
f 136/276/35 135/275/35 199/226/35
f 136/276/35 200/227/35 201/230/35
f 138/278/35 137/277/35 201/230/35
f 138/278/35 202/231/35 203/234/35
f 140/280/35 139/279/35 203/234/35
f 140/280/35 204/235/35 205/238/35
f 142/282/35 141/281/35 205/238/35
f 142/282/35 206/239/35 207/242/35
f 144/284/35 143/283/35 207/242/35
f 144/284/35 208/243/35 209/246/35
f 146/286/35 145/285/35 209/246/35
f 146/286/35 210/247/35 211/250/35
f 148/288/35 147/287/35 211/250/35
f 148/288/35 212/251/35 213/254/35
f 150/290/35 149/289/35 213/254/35
f 150/290/35 214/255/35 215/258/35
f 152/292/35 151/291/35 215/258/35
f 152/292/35 216/259/35 185/261/35
f 89/331/64 120/338/64 339/332/64
f 120/338/61 119/342/61 341/339/61
f 119/342/58 118/642/58 343/343/58
f 347/403/42 92/665/42 91/404/42
f 353/405/39 91/404/39 90/408/39
f 355/409/34 90/408/34 89/331/34
f 311/478/98 310/667/98 309/668/98
f 309/668/98 308/669/98 311/478/98
f 308/669/98 307/670/98 311/478/98
f 307/670/98 306/671/98 305/672/98
f 305/672/98 304/673/98 307/670/98
f 304/673/98 303/674/98 307/670/98
f 303/674/98 302/675/98 301/676/98
f 301/676/98 300/677/98 299/678/98
f 299/678/98 298/679/98 295/680/98
f 298/679/98 297/681/98 295/680/98
f 297/681/98 296/682/98 295/680/98
f 295/680/98 294/683/98 293/684/98
f 293/684/98 292/685/98 295/680/98
f 292/685/98 291/686/98 295/680/98
f 291/686/98 290/687/98 287/476/98
f 290/687/98 289/688/98 287/476/98
f 289/688/98 288/689/98 287/476/98
f 287/476/98 286/690/98 285/691/98
f 285/691/98 284/692/98 287/476/98
f 284/692/98 282/477/98 287/476/98
f 282/477/98 283/693/98 313/694/98
f 313/694/98 312/695/98 282/477/98
f 312/695/98 311/478/98 282/477/98
f 303/674/98 301/676/98 295/680/98
f 301/676/98 299/678/98 295/680/98
f 311/478/98 307/670/98 295/680/98
f 307/670/98 303/674/98 295/680/98
f 295/680/98 291/686/98 311/478/98
f 291/686/98 287/476/98 311/478/98
usemtl マテリアル.001
f 345/600/99 6/601/99 346/54/99
f 337/602/113 339/603/113 6/604/113
f 349/605/100 8/606/100 348/607/100
f 336/608/114 354/609/114 8/610/114
f 15/611/106 8/610/106 17/612/106
f 6/613/106 17/612/106 11/614/106
f 11/615/100 349/605/100 351/616/100
f 2/617/99 345/600/99 344/618/99
f 345/600/99 15/715/99 6/601/99
f 343/716/113 346/717/113 6/604/113
f 11/718/113 351/719/113 347/720/113
f 11/718/113 347/720/113 353/721/113
f 341/722/113 343/716/113 6/604/113
f 339/603/113 341/722/113 6/604/113
f 6/604/113 11/718/113 337/602/113
f 11/718/113 353/721/113 355/723/113
f 11/718/113 355/723/113 337/602/113
f 349/605/100 17/724/100 8/606/100
f 350/725/114 348/726/114 8/610/114
f 2/727/114 344/728/114 342/729/114
f 2/727/114 342/729/114 340/730/114
f 352/731/114 350/725/114 8/610/114
f 354/609/114 352/731/114 8/610/114
f 8/610/114 2/727/114 336/608/114
f 2/727/114 340/730/114 338/732/114
f 2/727/114 338/732/114 336/608/114
f 15/611/106 2/727/106 8/610/106
f 6/613/106 15/611/106 17/612/106
f 11/615/100 17/724/100 349/605/100
f 2/617/99 15/715/99 345/600/99
usemtl マテリアル.002
f 59/63/34 169/64/34 57/65/34
f 12/66/35 89/67/35 90/68/35
f 12/66/35 91/69/35 14/70/35
f 20/71/35 91/69/35 92/72/35
f 20/71/35 93/73/35 23/74/35
f 25/75/35 93/73/35 94/76/35
f 25/75/35 95/77/35 29/78/35
f 34/79/35 95/77/35 96/80/35
f 34/79/35 97/81/35 37/82/35
f 39/83/35 97/81/35 98/84/35
f 39/83/35 99/85/35 41/86/35
f 45/87/35 99/85/35 100/88/35
f 45/87/35 101/89/35 48/90/35
f 51/91/35 101/89/35 102/92/35
f 51/91/35 103/93/35 53/94/35
f 55/95/35 103/93/35 104/96/35
f 55/95/35 105/97/35 57/98/35
f 59/99/35 105/97/35 106/100/35
f 59/99/35 107/101/35 61/102/35
f 63/103/35 107/101/35 108/104/35
f 63/103/35 109/105/35 65/106/35
f 67/107/35 109/105/35 110/108/35
f 67/107/35 111/109/35 69/110/35
f 71/111/35 111/109/35 112/112/35
f 71/111/35 113/113/35 73/114/35
f 75/115/35 113/113/35 114/116/35
f 75/115/35 115/117/35 77/118/35
f 79/119/35 115/117/35 116/120/35
f 79/119/35 117/121/35 81/122/35
f 83/123/35 117/121/35 118/124/35
f 83/123/35 119/125/35 85/126/35
f 87/127/35 119/125/35 120/128/35
f 87/127/35 89/67/35 1/129/35
f 23/133/37 156/134/37 20/135/37
f 87/136/38 183/137/38 85/138/38
f 61/139/39 170/140/39 59/63/39
f 25/141/40 157/142/40 23/143/40
f 1/144/41 184/145/41 87/136/41
f 63/146/42 171/147/42 61/139/42
f 29/148/43 158/149/43 25/141/43
f 65/150/44 172/151/44 63/146/44
f 34/152/45 159/153/45 29/148/45
f 67/154/46 173/155/46 65/156/46
f 37/157/47 160/158/47 34/152/47
f 69/159/48 174/160/48 67/154/48
f 39/161/49 161/162/49 37/157/49
f 71/163/50 175/164/50 69/159/50
f 41/165/51 162/166/51 39/161/51
f 73/167/52 176/168/52 71/163/52
f 45/169/53 163/170/53 41/165/53
f 75/171/54 177/172/54 73/167/54
f 48/173/55 164/174/55 45/169/55
f 77/175/56 178/176/56 75/171/56
f 51/177/31 165/178/31 48/179/31
f 79/180/57 179/181/57 77/175/57
f 53/182/58 166/183/58 51/177/58
f 12/184/59 153/185/59 1/144/59
f 81/186/60 180/187/60 79/180/60
f 55/188/61 167/189/61 53/182/61
f 14/190/62 154/191/62 12/184/62
f 83/192/63 181/193/63 81/194/63
f 57/65/64 168/195/64 55/188/64
f 20/135/65 155/196/65 14/190/65
f 85/138/66 182/197/66 83/192/66
f 338/334/64 249/335/64 315/336/64
f 340/337/61 249/335/61 338/334/61
f 342/340/58 248/341/58 340/337/58
f 117/344/31 345/345/31 346/346/31
f 245/347/55 117/348/55 116/349/55
f 244/350/53 116/349/53 115/351/53
f 243/352/51 115/351/51 114/353/51
f 243/352/49 114/353/49 323/354/49
f 112/355/47 241/356/47 326/357/47
f 240/358/45 112/355/45 111/359/45
f 239/360/43 111/359/43 110/361/43
f 238/362/40 110/361/40 109/363/40
f 237/364/37 109/365/37 108/366/37
f 236/367/65 108/366/65 107/368/65
f 235/369/62 107/368/62 106/370/62
f 234/371/59 106/370/59 105/372/59
f 233/373/41 105/372/41 104/374/41
f 232/375/38 104/374/38 103/376/38
f 231/377/66 103/376/66 102/378/66
f 230/379/63 102/378/63 101/380/63
f 229/381/60 101/382/60 100/383/60
f 228/384/57 100/383/57 99/385/57
f 227/386/56 99/385/56 98/387/56
f 227/386/54 98/387/54 331/388/54
f 96/389/52 225/390/52 334/391/52
f 224/392/50 96/389/50 95/393/50
f 223/394/48 95/393/48 94/395/48
f 222/396/46 94/395/46 93/348/46
f 93/397/44 349/398/44 348/399/44
f 220/400/42 350/401/42 352/402/42
f 219/406/39 352/402/39 354/407/39
f 319/410/34 318/411/34 219/406/34
f 315/544/99 314/545/99 9/546/99
f 16/547/100 318/548/100 319/549/100
f 9/550/98 314/551/98 316/552/98
f 16/553/101 319/554/101 317/555/101
f 19/556/102 10/557/102 7/558/102
f 10/559/103 324/560/103 322/561/103
f 27/562/104 325/563/104 321/564/104
f 27/565/105 19/566/105 326/567/105
f 21/568/106 5/569/106 26/570/106
f 10/559/106 323/571/106 324/560/106
f 7/572/105 326/567/105 19/566/105
f 5/573/107 19/556/107 3/574/107
f 26/575/108 3/576/108 27/562/108
f 42/577/109 35/578/109 43/579/109
f 33/580/103 332/581/103 330/582/103
f 47/583/110 333/584/110 329/585/110
f 42/586/105 30/587/105 49/588/105
f 47/589/106 43/590/106 334/591/106
f 35/592/106 334/591/106 43/590/106
f 33/593/105 331/594/105 332/595/105
f 42/577/111 31/596/111 30/597/111
f 30/598/112 47/583/112 49/599/112
f 59/63/34 170/140/34 169/64/34
f 12/66/35 1/129/35 89/67/35
f 12/66/35 90/68/35 91/69/35
f 20/71/35 14/70/35 91/69/35
f 20/71/35 92/72/35 93/73/35
f 25/75/35 23/74/35 93/73/35
f 25/75/35 94/76/35 95/77/35
f 34/79/35 29/78/35 95/77/35
f 34/79/35 96/80/35 97/81/35
f 39/83/35 37/82/35 97/81/35
f 39/83/35 98/84/35 99/85/35
f 45/87/35 41/86/35 99/85/35
f 45/87/35 100/88/35 101/89/35
f 51/91/35 48/90/35 101/89/35
f 51/91/35 102/92/35 103/93/35
f 55/95/35 53/94/35 103/93/35
f 55/95/35 104/96/35 105/97/35
f 59/99/35 57/98/35 105/97/35
f 59/99/35 106/100/35 107/101/35
f 63/103/35 61/102/35 107/101/35
f 63/103/35 108/104/35 109/105/35
f 67/107/35 65/106/35 109/105/35
f 67/107/35 110/108/35 111/109/35
f 71/111/35 69/110/35 111/109/35
f 71/111/35 112/112/35 113/113/35
f 75/115/35 73/114/35 113/113/35
f 75/115/35 114/116/35 115/117/35
f 79/119/35 77/118/35 115/117/35
f 79/119/35 116/120/35 117/121/35
f 83/123/35 81/122/35 117/121/35
f 83/123/35 118/124/35 119/125/35
f 87/127/35 85/126/35 119/125/35
f 87/127/35 120/128/35 89/67/35
f 23/133/37 157/633/37 156/134/37
f 87/136/38 184/145/38 183/137/38
f 61/139/39 171/147/39 170/140/39
f 25/141/40 158/149/40 157/142/40
f 1/144/41 153/185/41 184/145/41
f 63/146/42 172/151/42 171/147/42
f 29/148/43 159/153/43 158/149/43
f 65/150/44 173/634/44 172/151/44
f 34/152/45 160/158/45 159/153/45
f 67/154/46 174/160/46 173/155/46
f 37/157/47 161/162/47 160/158/47
f 69/159/48 175/164/48 174/160/48
f 39/161/49 162/166/49 161/162/49
f 71/163/50 176/168/50 175/164/50
f 41/165/51 163/170/51 162/166/51
f 73/167/52 177/172/52 176/168/52
f 45/169/53 164/174/53 163/170/53
f 75/171/54 178/176/54 177/172/54
f 48/173/55 165/635/55 164/174/55
f 77/175/56 179/181/56 178/176/56
f 51/177/31 166/183/31 165/178/31
f 79/180/57 180/187/57 179/181/57
f 53/182/58 167/189/58 166/183/58
f 12/184/59 154/191/59 153/185/59
f 81/186/60 181/178/60 180/187/60
f 55/188/61 168/195/61 167/189/61
f 14/190/62 155/196/62 154/191/62
f 83/192/63 182/197/63 181/193/63
f 57/65/64 169/64/64 168/195/64
f 20/135/65 156/134/65 155/196/65
f 85/138/66 183/137/66 182/197/66
f 249/335/64 218/636/64 314/637/64
f 218/636/64 316/638/64 314/637/64
f 317/639/64 336/640/64 338/334/64
f 249/335/64 314/637/64 315/336/64
f 315/336/64 317/639/64 338/334/64
f 340/337/61 248/341/61 249/335/61
f 342/340/58 247/641/58 248/341/58
f 346/346/31 343/343/31 118/642/31
f 117/344/31 246/643/31 344/644/31
f 246/643/31 247/641/31 344/644/31
f 247/641/31 342/340/31 344/644/31
f 346/346/31 118/642/31 117/344/31
f 117/344/31 344/644/31 345/345/31
f 245/347/55 246/396/55 117/348/55
f 244/350/53 245/347/53 116/349/53
f 243/352/51 244/350/51 115/351/51
f 320/645/49 321/646/49 242/647/49
f 114/353/49 113/648/49 322/649/49
f 114/353/49 322/649/49 324/650/49
f 320/645/49 242/647/49 243/352/49
f 114/353/49 324/650/49 323/354/49
f 323/354/49 320/645/49 243/352/49
f 327/651/47 322/649/47 113/648/47
f 241/356/47 242/647/47 325/652/47
f 242/647/47 321/646/47 325/652/47
f 327/651/47 113/648/47 112/355/47
f 241/356/47 325/652/47 326/357/47
f 326/357/47 327/651/47 112/355/47
f 240/358/45 241/356/45 112/355/45
f 239/360/43 240/358/43 111/359/43
f 238/362/40 239/360/40 110/361/40
f 237/364/37 238/653/37 109/365/37
f 236/367/65 237/364/65 108/366/65
f 235/369/62 236/367/62 107/368/62
f 234/371/59 235/369/59 106/370/59
f 233/373/41 234/371/41 105/372/41
f 232/375/38 233/373/38 104/374/38
f 231/377/66 232/375/66 103/376/66
f 230/379/63 231/377/63 102/378/63
f 229/381/60 230/654/60 101/382/60
f 228/384/57 229/381/57 100/383/57
f 227/386/56 228/384/56 99/385/56
f 328/655/54 329/656/54 226/657/54
f 98/387/54 97/658/54 332/659/54
f 97/658/54 330/660/54 332/659/54
f 328/655/54 226/657/54 227/386/54
f 98/387/54 332/659/54 331/388/54
f 331/388/54 328/655/54 227/386/54
f 335/661/52 330/660/52 96/389/52
f 330/660/52 97/658/52 96/389/52
f 225/390/52 226/657/52 333/662/52
f 226/657/52 329/656/52 333/662/52
f 225/390/52 333/662/52 334/391/52
f 334/391/52 335/661/52 96/389/52
f 224/392/50 225/390/50 96/389/50
f 223/394/48 224/392/48 95/393/48
f 222/396/46 223/394/46 94/395/46
f 348/399/44 350/401/44 221/663/44
f 221/663/44 222/664/44 348/399/44
f 222/664/44 93/397/44 348/399/44
f 93/397/44 92/665/44 351/666/44
f 92/665/44 347/403/44 351/666/44
f 93/397/44 351/666/44 349/398/44
f 220/400/42 221/663/42 350/401/42
f 219/406/39 220/400/39 352/402/39
f 318/411/34 316/638/34 218/636/34
f 354/407/34 336/640/34 317/639/34
f 354/407/34 317/639/34 319/410/34
f 318/411/34 218/636/34 219/406/34
f 354/407/34 319/410/34 219/406/34
f 316/552/98 318/699/98 16/553/98
f 16/553/98 9/550/98 316/552/98
f 317/555/101 315/700/101 9/546/101
f 9/546/101 16/553/101 317/555/101
f 19/556/115 21/701/115 10/557/115
f 322/561/103 327/581/103 7/702/103
f 7/702/103 10/559/103 322/561/103
f 321/564/116 320/703/116 26/575/116
f 26/575/117 27/562/117 321/564/117
f 326/567/105 325/704/105 27/565/105
f 27/565/105 3/705/105 19/566/105
f 320/706/106 323/571/106 26/570/106
f 323/571/106 21/568/106 26/570/106
f 10/559/106 21/568/106 323/571/106
f 7/572/105 327/707/105 326/567/105
f 5/573/107 21/701/107 19/556/107
f 26/575/118 5/708/118 3/576/118
f 42/577/119 33/709/119 35/578/119
f 330/582/103 335/560/103 35/592/103
f 35/592/103 33/580/103 330/582/103
f 329/585/120 328/710/120 49/599/120
f 49/599/121 47/583/121 329/585/121
f 328/711/105 331/594/105 49/588/105
f 331/594/105 42/586/105 49/588/105
f 334/591/106 333/712/106 47/589/106
f 47/589/106 31/713/106 43/590/106
f 35/592/106 335/560/106 334/591/106
f 33/593/105 42/586/105 331/594/105
f 42/577/111 43/579/111 31/596/111
f 30/598/122 31/714/122 47/583/122
usemtl マテリアル.003
f 251/1/1 219/2/1 218/3/1
f 250/4/2 220/5/2 219/2/2
f 252/6/3 221/7/3 220/5/3
f 253/8/4 222/9/4 221/7/4
f 222/10/5 255/11/5 223/12/5
f 255/11/6 224/13/6 223/12/6
f 256/14/7 225/15/7 224/13/7
f 225/15/8 258/16/8 226/17/8
f 258/16/9 227/18/9 226/17/9
f 259/19/10 228/20/10 227/18/10
f 228/20/11 261/21/11 229/22/11
f 261/21/12 230/23/12 229/22/12
f 262/24/13 231/25/13 230/26/13
f 231/25/14 264/27/14 232/28/14
f 232/28/15 265/29/15 233/30/15
f 265/29/16 234/31/16 233/30/16
f 234/31/17 267/32/17 235/33/17
f 267/32/18 236/34/18 235/33/18
f 268/35/19 237/36/19 236/34/19
f 269/37/20 238/38/20 237/36/20
f 238/39/21 271/40/21 239/41/21
f 271/40/22 240/42/22 239/41/22
f 272/43/23 241/44/23 240/42/23
f 241/44/24 274/45/24 242/46/24
f 274/45/25 243/47/25 242/46/25
f 275/48/26 244/49/26 243/47/26
f 276/50/27 245/51/27 244/49/27
f 277/52/28 246/53/28 245/51/28
f 246/54/29 279/55/29 247/56/29
f 279/55/30 248/57/30 247/56/30
f 50/58/31 295/59/31 52/60/31
f 280/61/32 249/62/32 248/57/32
f 249/62/33 251/1/33 218/3/33
f 152/130/36 121/131/36 217/132/36
f 139/294/67 140/295/67 217/296/67
f 126/297/68 127/298/68 217/299/68
f 140/295/69 141/300/69 217/296/69
f 127/298/70 128/301/70 217/299/70
f 141/302/71 142/303/71 217/304/71
f 128/301/72 129/305/72 217/299/72
f 142/303/73 143/306/73 217/304/73
f 129/305/74 130/307/74 217/299/74
f 143/306/75 144/308/75 217/304/75
f 130/307/76 131/309/76 217/299/76
f 144/308/77 145/310/77 217/304/77
f 131/309/78 132/311/78 217/299/78
f 145/310/79 146/312/79 217/304/79
f 132/311/80 133/313/80 217/299/80
f 146/312/81 147/314/81 217/304/81
f 133/315/82 134/316/82 217/296/82
f 147/314/83 148/317/83 217/304/83
f 134/316/84 135/318/84 217/296/84
f 121/131/85 122/319/85 217/132/85
f 148/317/86 149/320/86 217/304/86
f 135/318/87 136/321/87 217/296/87
f 122/319/88 123/322/88 217/132/88
f 149/323/89 150/324/89 217/132/89
f 136/321/90 137/325/90 217/296/90
f 123/322/91 124/326/91 217/132/91
f 150/324/92 151/327/92 217/132/92
f 137/325/93 138/328/93 217/296/93
f 124/326/94 125/329/94 217/132/94
f 151/327/95 152/130/95 217/132/95
f 138/328/96 139/294/96 217/296/96
f 125/330/97 126/297/97 217/299/97
f 13/412/98 251/413/98 4/414/98
f 13/412/98 252/415/98 250/416/98
f 22/417/98 252/415/98 18/418/98
f 22/417/98 254/419/98 253/420/98
f 28/421/98 254/419/98 24/422/98
f 32/423/98 255/424/98 28/421/98
f 36/425/98 256/426/98 32/423/98
f 36/425/98 258/427/98 257/428/98
f 40/429/98 258/427/98 38/430/98
f 40/429/98 260/431/98 259/432/98
f 46/433/98 260/431/98 44/434/98
f 46/433/98 262/435/98 261/436/98
f 50/437/98 263/438/98 262/435/98
f 54/439/98 263/438/98 52/440/98
f 56/441/98 264/442/98 54/439/98
f 56/441/98 266/443/98 265/444/98
f 60/445/98 266/443/98 58/446/98
f 60/445/98 268/447/98 267/448/98
f 62/449/98 269/450/98 268/447/98
f 66/451/98 269/450/98 64/452/98
f 68/453/98 270/454/98 66/451/98
f 68/453/98 272/455/98 271/456/98
f 72/457/98 272/455/98 70/458/98
f 72/457/98 274/459/98 273/460/98
f 76/461/98 274/459/98 74/462/98
f 76/461/98 276/463/98 275/464/98
f 78/465/98 277/466/98 276/463/98
f 80/467/98 278/468/98 277/466/98
f 84/469/98 278/468/98 82/470/98
f 86/471/98 279/472/98 84/469/98
f 88/473/98 280/474/98 86/471/98
f 88/473/98 251/413/98 281/475/98
f 78/479/57 309/480/57 80/481/57
f 52/60/58 296/482/58 54/483/58
f 4/484/59 282/485/59 13/486/59
f 80/481/60 310/487/60 82/488/60
f 54/483/61 297/489/61 56/490/61
f 13/486/62 284/491/62 18/492/62
f 82/493/63 311/494/63 84/495/63
f 56/490/64 298/496/64 58/497/64
f 18/492/65 285/498/65 22/499/65
f 86/500/66 311/494/66 312/501/66
f 58/497/34 299/502/34 60/503/34
f 22/499/37 286/504/37 24/505/37
f 86/500/38 313/506/38 88/507/38
f 60/503/39 300/508/39 62/509/39
f 24/510/40 287/511/40 28/512/40
f 88/507/41 283/513/41 4/484/41
f 62/509/42 301/514/42 64/515/42
f 28/512/43 288/516/43 32/517/43
f 64/515/44 302/518/44 66/519/44
f 32/517/45 289/520/45 36/521/45
f 66/522/46 303/523/46 68/524/46
f 36/521/47 290/525/47 38/526/47
f 70/527/48 303/523/48 304/528/48
f 38/526/49 291/529/49 40/530/49
f 70/527/50 305/531/50 72/532/50
f 40/530/51 292/533/51 44/534/51
f 72/532/52 306/535/52 74/536/52
f 44/534/53 293/537/53 46/538/53
f 76/539/54 306/535/54 307/540/54
f 46/538/55 294/541/55 50/542/55
f 78/479/56 307/540/56 308/543/56
f 251/1/1 250/4/1 219/2/1
f 250/4/2 252/6/2 220/5/2
f 252/6/3 253/8/3 221/7/3
f 253/8/4 254/619/4 222/9/4
f 222/10/5 254/620/5 255/11/5
f 255/11/6 256/14/6 224/13/6
f 256/14/7 257/621/7 225/15/7
f 225/15/8 257/621/8 258/16/8
f 258/16/9 259/19/9 227/18/9
f 259/19/10 260/622/10 228/20/10
f 228/20/11 260/622/11 261/21/11
f 261/21/12 262/623/12 230/23/12
f 262/24/13 263/624/13 231/25/13
f 231/25/14 263/624/14 264/27/14
f 232/28/15 264/27/15 265/29/15
f 265/29/16 266/625/16 234/31/16
f 234/31/17 266/625/17 267/32/17
f 267/32/18 268/35/18 236/34/18
f 268/35/19 269/37/19 237/36/19
f 269/37/20 270/626/20 238/38/20
f 238/39/21 270/627/21 271/40/21
f 271/40/22 272/43/22 240/42/22
f 272/43/23 273/628/23 241/44/23
f 241/44/24 273/628/24 274/45/24
f 274/45/25 275/48/25 243/47/25
f 275/48/26 276/50/26 244/49/26
f 276/50/27 277/52/27 245/51/27
f 277/52/28 278/629/28 246/53/28
f 246/54/29 278/630/29 279/55/29
f 279/55/30 280/61/30 248/57/30
f 50/58/31 294/631/31 295/59/31
f 280/61/32 281/632/32 249/62/32
f 249/62/33 281/632/33 251/1/33
f 13/412/98 250/416/98 251/413/98
f 13/412/98 18/418/98 252/415/98
f 22/417/98 253/420/98 252/415/98
f 22/417/98 24/422/98 254/419/98
f 28/421/98 255/424/98 254/419/98
f 32/423/98 256/426/98 255/424/98
f 36/425/98 257/428/98 256/426/98
f 36/425/98 38/430/98 258/427/98
f 40/429/98 259/432/98 258/427/98
f 40/429/98 44/434/98 260/431/98
f 46/433/98 261/436/98 260/431/98
f 46/433/98 50/437/98 262/435/98
f 50/437/98 52/440/98 263/438/98
f 54/439/98 264/442/98 263/438/98
f 56/441/98 265/444/98 264/442/98
f 56/441/98 58/446/98 266/443/98
f 60/445/98 267/448/98 266/443/98
f 60/445/98 62/449/98 268/447/98
f 62/449/98 64/452/98 269/450/98
f 66/451/98 270/454/98 269/450/98
f 68/453/98 271/456/98 270/454/98
f 68/453/98 70/458/98 272/455/98
f 72/457/98 273/460/98 272/455/98
f 72/457/98 74/462/98 274/459/98
f 76/461/98 275/464/98 274/459/98
f 76/461/98 78/465/98 276/463/98
f 78/465/98 80/467/98 277/466/98
f 80/467/98 82/470/98 278/468/98
f 84/469/98 279/472/98 278/468/98
f 86/471/98 280/474/98 279/472/98
f 88/473/98 281/475/98 280/474/98
f 88/473/98 4/414/98 251/413/98
f 78/479/57 308/543/57 309/480/57
f 52/60/58 295/59/58 296/482/58
f 4/484/59 283/513/59 282/485/59
f 80/481/60 309/480/60 310/487/60
f 54/483/61 296/482/61 297/489/61
f 13/486/62 282/485/62 284/491/62
f 82/493/63 310/696/63 311/494/63
f 56/490/64 297/489/64 298/496/64
f 18/492/65 284/491/65 285/498/65
f 86/500/66 84/495/66 311/494/66
f 58/497/34 298/496/34 299/502/34
f 22/499/37 285/498/37 286/504/37
f 86/500/38 312/501/38 313/506/38
f 60/503/39 299/502/39 300/508/39
f 24/510/40 286/697/40 287/511/40
f 88/507/41 313/506/41 283/513/41
f 62/509/42 300/508/42 301/514/42
f 28/512/43 287/511/43 288/516/43
f 64/515/44 301/514/44 302/518/44
f 32/517/45 288/516/45 289/520/45
f 66/522/46 302/698/46 303/523/46
f 36/521/47 289/520/47 290/525/47
f 70/527/48 68/524/48 303/523/48
f 38/526/49 290/525/49 291/529/49
f 70/527/50 304/528/50 305/531/50
f 40/530/51 291/529/51 292/533/51
f 72/532/52 305/531/52 306/535/52
f 44/534/53 292/533/53 293/537/53
f 76/539/54 74/536/54 306/535/54
f 46/538/55 293/537/55 294/541/55
f 78/479/56 76/539/56 307/540/56
