# Blender 4.4.3
# www.blender.org
mtllib missile.mtl
o 球
v -3.541748 -0.000000 -0.196104
v -3.580006 -0.000000 -0.192336
v -3.650698 -0.000000 -0.163054
v -0.368993 0.000000 0.499683
v -0.368993 0.499683 0.000000
v -0.028522 0.000000 0.499683
v -0.028522 0.499683 0.000000
v -3.541748 -0.038258 -0.192336
v -3.580006 -0.037523 -0.188640
v -0.368993 0.015312 0.499683
v -3.616794 -0.035346 -0.177695
v -0.028522 0.015312 0.499683
v -3.650698 -0.031810 -0.159921
v -0.368993 0.499683 -0.015312
v -3.680415 -0.027052 -0.136002
v -0.368993 0.000000 -0.499683
v -0.028522 0.499683 -0.015312
v -0.028522 0.000000 -0.499683
v -3.704803 -0.021255 -0.106856
v -3.722924 -0.014641 -0.073604
v -3.734084 -0.007464 -0.037523
v -0.368993 0.015312 -0.499683
v -0.028522 0.015312 -0.499683
v -0.368993 -0.499683 0.000000
v -0.028522 -0.499683 0.000000
v -3.541748 -0.075046 -0.181176
v -3.580006 -0.073604 -0.177695
v -3.616794 -0.069333 -0.167385
v -0.368993 -0.499683 -0.015312
v -3.650698 -0.062398 -0.150643
v -0.028522 -0.499683 -0.015312
v -3.680415 -0.053065 -0.128111
v -3.704803 -0.041693 -0.100656
v -3.722924 -0.028719 -0.069333
v -3.734084 -0.014641 -0.035346
v -3.541748 -0.108949 -0.163054
v -3.580006 -0.106856 -0.159921
v -3.616794 -0.100656 -0.150643
v -3.650698 -0.090588 -0.135575
v -3.680415 -0.077039 -0.115297
v -3.704803 -0.060529 -0.090588
v -3.722924 -0.041693 -0.062398
v -3.734084 -0.021255 -0.031810
v -3.541748 -0.138666 -0.138666
v -3.580006 -0.136002 -0.136002
v -3.616794 -0.128111 -0.128111
v -3.650698 -0.115297 -0.115297
v -3.680415 -0.098052 -0.098052
v -3.704803 -0.077039 -0.077039
v -3.722924 -0.053065 -0.053065
v -3.734084 -0.027052 -0.027052
v -3.541748 -0.163054 -0.108949
v -3.580006 -0.159921 -0.106856
v -3.616794 -0.150643 -0.100656
v -3.650698 -0.135575 -0.090588
v -3.680415 -0.115297 -0.077039
v -3.704803 -0.090588 -0.060529
v -3.722924 -0.062398 -0.041693
v -3.734084 -0.031810 -0.021255
v -3.541748 -0.181176 -0.075046
v -3.580006 -0.177695 -0.073604
v -3.616794 -0.167385 -0.069333
v -3.650698 -0.150643 -0.062398
v -3.680415 -0.128111 -0.053065
v -3.704803 -0.100656 -0.041693
v -3.722924 -0.069333 -0.028719
v -3.734084 -0.035346 -0.014641
v -3.541748 -0.192336 -0.038258
v -3.580006 -0.188640 -0.037523
v -3.616794 -0.177695 -0.035346
v -3.650698 -0.159921 -0.031810
v -3.680415 -0.136002 -0.027052
v -3.704803 -0.106856 -0.021255
v -3.722924 -0.073604 -0.014641
v -3.734084 -0.037523 -0.007464
v -3.541748 -0.196104 0.000000
v -3.580006 -0.192336 -0.000000
v -3.616794 -0.181176 -0.000000
v -3.650698 -0.163054 -0.000000
v -3.680415 -0.138666 -0.000000
v -3.704803 -0.108949 -0.000000
v -3.722924 -0.075046 -0.000000
v -3.734084 -0.038258 -0.000000
v -3.541748 -0.192336 0.038258
v -3.580006 -0.188640 0.037523
v -3.616794 -0.177695 0.035346
v -3.650698 -0.159921 0.031810
v -3.680415 -0.136002 0.027052
v -3.704803 -0.106856 0.021255
v -3.722924 -0.073604 0.014641
v -3.734084 -0.037523 0.007464
v -3.541748 -0.181176 0.075046
v -3.580006 -0.177695 0.073604
v -3.616794 -0.167385 0.069333
v -3.650698 -0.150643 0.062398
v -3.680415 -0.128111 0.053065
v -3.704803 -0.100656 0.041693
v -3.722924 -0.069333 0.028719
v -3.734084 -0.035346 0.014641
v -3.541748 -0.163054 0.108949
v -3.580006 -0.159921 0.106856
v -3.616794 -0.150643 0.100656
v -3.650698 -0.135575 0.090588
v -3.680415 -0.115297 0.077039
v -3.704803 -0.090588 0.060529
v -3.722924 -0.062398 0.041693
v -3.734084 -0.031810 0.021255
v -3.541748 -0.138666 0.138666
v -3.580006 -0.136002 0.136002
v -3.616794 -0.128111 0.128111
v -3.650698 -0.115297 0.115297
v -3.680415 -0.098052 0.098052
v -3.704803 -0.077039 0.077039
v -3.722924 -0.053065 0.053065
v -3.734084 -0.027052 0.027052
v -3.541748 -0.108949 0.163054
v -3.580006 -0.106856 0.159921
v -3.616794 -0.100656 0.150642
v -3.650698 -0.090588 0.135575
v -3.680415 -0.077039 0.115297
v -3.704803 -0.060529 0.090588
v -3.722924 -0.041693 0.062398
v -3.734084 -0.021255 0.031810
v -3.541748 -0.075046 0.181176
v -3.580006 -0.073604 0.177695
v -3.616794 -0.069333 0.167385
v -3.650698 -0.062398 0.150642
v -3.680415 -0.053065 0.128111
v -3.704803 -0.041693 0.100656
v -3.722924 -0.028719 0.069333
v -3.734084 -0.014641 0.035346
v -3.541748 -0.038258 0.192336
v -3.580006 -0.037523 0.188640
v -3.616794 -0.035346 0.177695
v -3.650698 -0.031810 0.159921
v -3.680415 -0.027052 0.136002
v -3.704803 -0.021255 0.106856
v -3.722924 -0.014641 0.073604
v -3.734084 -0.007464 0.037523
v -3.541748 0.000000 0.196104
v -3.580006 0.000000 0.192336
v -3.616794 -0.000000 0.181176
v -3.650698 0.000000 0.163054
v -3.680415 0.000000 0.138666
v -3.704803 0.000000 0.108949
v -3.722924 0.000000 0.075046
v -3.734084 0.000000 0.038258
v -3.541748 0.038258 0.192336
v -3.580006 0.037523 0.188640
v -3.616794 0.035346 0.177695
v -3.650698 0.031810 0.159921
v -3.680415 0.027052 0.136002
v -3.704803 0.021255 0.106856
v -3.722924 0.014641 0.073604
v -3.734084 0.007464 0.037523
v -3.541748 0.075046 0.181176
v -3.580006 0.073604 0.177695
v -3.616794 0.069333 0.167385
v -3.650698 0.062398 0.150642
v -3.680415 0.053065 0.128111
v -3.704803 0.041693 0.100656
v -3.722924 0.028719 0.069333
v -3.734084 0.014641 0.035346
v -3.541748 0.108949 0.163054
v -3.580006 0.106856 0.159921
v -3.616794 0.100656 0.150642
v -3.650698 0.090588 0.135575
v -3.680415 0.077039 0.115297
v -3.704803 0.060529 0.090588
v -3.722924 0.041693 0.062398
v -3.734084 0.021255 0.031810
v -3.541748 0.138666 0.138666
v -3.580006 0.136002 0.136002
v -3.616794 0.128111 0.128111
v -3.650698 0.115297 0.115297
v -3.680415 0.098052 0.098052
v -3.704803 0.077039 0.077039
v -3.722924 0.053065 0.053065
v -3.734084 0.027052 0.027052
v -3.737852 0.000000 -0.000000
v -3.541748 0.163054 0.108949
v -3.580006 0.159921 0.106856
v -3.616794 0.150642 0.100656
v -3.650698 0.135575 0.090588
v -3.680415 0.115297 0.077039
v -3.704803 0.090588 0.060529
v -3.722924 0.062398 0.041693
v -3.734084 0.031810 0.021255
v -3.541748 0.181176 0.075045
v -3.580006 0.177695 0.073604
v -3.616794 0.167385 0.069333
v -3.650698 0.150642 0.062398
v -3.680415 0.128111 0.053065
v -3.704803 0.100656 0.041693
v -3.722924 0.069333 0.028719
v -3.734084 0.035346 0.014641
v -3.541748 0.192335 0.038258
v -3.580006 0.188640 0.037523
v -3.616794 0.177695 0.035346
v -3.650698 0.159921 0.031810
v -3.680415 0.136002 0.027052
v -3.704803 0.106856 0.021255
v -3.722924 0.073604 0.014641
v -3.734084 0.037523 0.007464
v -3.541748 0.196104 -0.000000
v -3.580006 0.192336 -0.000000
v -3.616794 0.181176 -0.000000
v -3.650698 0.163054 -0.000000
v -3.680415 0.138666 -0.000000
v -3.704803 0.108949 -0.000000
v -3.722924 0.075046 -0.000000
v -3.734084 0.038258 -0.000000
v -3.541748 0.192335 -0.038258
v -3.580006 0.188640 -0.037523
v -3.616794 0.177695 -0.035346
v -3.650698 0.159921 -0.031810
v -3.680415 0.136002 -0.027052
v -3.704803 0.106856 -0.021255
v -3.722924 0.073604 -0.014641
v -3.734084 0.037523 -0.007464
v -3.541748 0.181176 -0.075046
v -3.580006 0.177695 -0.073604
v -3.616794 0.167385 -0.069333
v -3.650698 0.150642 -0.062398
v -3.680415 0.128111 -0.053065
v -3.704803 0.100656 -0.041693
v -3.722924 0.069333 -0.028719
v -3.734084 0.035346 -0.014641
v -3.541748 0.163054 -0.108949
v -3.580006 0.159921 -0.106856
v -3.616794 0.150642 -0.100656
v -3.650698 0.135575 -0.090588
v -3.680415 0.115297 -0.077039
v -3.704803 0.090588 -0.060529
v -3.722924 0.062398 -0.041693
v -3.734084 0.031810 -0.021255
v -3.541748 0.138666 -0.138666
v -3.580006 0.136002 -0.136002
v -3.616794 0.128111 -0.128111
v -3.650698 0.115297 -0.115297
v -3.680415 0.098052 -0.098052
v -3.704803 0.077039 -0.077039
v -3.722924 0.053065 -0.053065
v -3.734084 0.027052 -0.027052
v -3.541748 0.108949 -0.163054
v -3.580006 0.106856 -0.159921
v -3.616794 0.100656 -0.150642
v -3.650698 0.090588 -0.135575
v -3.680415 0.077039 -0.115297
v -3.704803 0.060529 -0.090588
v -3.722924 0.041693 -0.062398
v -3.734084 0.021255 -0.031810
v -3.541748 0.075045 -0.181176
v -3.580006 0.073604 -0.177695
v -3.616794 0.069333 -0.167385
v -3.650698 0.062398 -0.150642
v -3.680415 0.053065 -0.128111
v -3.704803 0.041693 -0.100656
v -3.722924 0.028719 -0.069333
v -3.734084 0.014641 -0.035346
v -3.541748 0.038258 -0.192335
v -3.580006 0.037523 -0.188640
v -3.616794 0.035346 -0.177695
v -3.650698 0.031810 -0.159921
v -3.680415 0.027052 -0.136002
v -3.704803 0.021255 -0.106856
v -3.722924 0.014641 -0.073604
v -3.734084 0.007464 -0.037523
v -3.616794 -0.000000 -0.181176
v -3.680415 -0.000000 -0.138666
v -3.704803 -0.000000 -0.108949
v -3.722924 -0.000000 -0.075046
v -3.734084 -0.000000 -0.038258
v 0.003925 -0.000000 -0.114531
v 0.003925 -0.022344 -0.112330
v 0.003925 -0.043829 -0.105813
v 0.003925 -0.063630 -0.095229
v 0.003925 -0.080986 -0.080986
v 0.003925 -0.095229 -0.063630
v 0.003925 -0.105813 -0.043829
v 0.003925 -0.112330 -0.022344
v 0.003925 -0.114531 -0.000000
v 0.003925 -0.112330 0.022344
v 0.003925 -0.105813 0.043829
v 0.003925 -0.095229 0.063630
v 0.003925 -0.080986 0.080986
v 0.003925 -0.063630 0.095229
v 0.003925 -0.043829 0.105813
v 0.003925 -0.022344 0.112330
v 0.003925 0.000000 0.114531
v 0.003925 0.022344 0.112330
v 0.003925 0.043829 0.105813
v 0.003925 0.063630 0.095229
v 0.003925 0.080986 0.080986
v 0.003925 0.095229 0.063630
v 0.003925 0.105813 0.043829
v 0.003925 0.112330 0.022344
v 0.003925 0.114531 -0.000000
v 0.003925 0.112330 -0.022344
v 0.003925 0.105813 -0.043829
v 0.003925 0.095229 -0.063630
v 0.003925 0.080986 -0.080986
v 0.003925 0.063630 -0.095229
v 0.003925 0.043829 -0.105813
v 0.003925 0.022344 -0.112330
v -0.573360 0.196104 -0.000000
v -0.573360 0.196104 0.000000
v -0.028522 0.196104 0.000000
v -0.028522 0.196104 -0.000000
v -0.573360 -0.196104 0.000000
v -0.574375 -0.194596 -0.015312
v -0.028522 -0.196104 0.000000
v -0.028522 -0.194596 -0.015312
v -0.574375 0.194595 -0.015312
v -0.028522 0.194595 -0.015312
v -0.573360 0.000000 -0.196104
v -0.574375 0.015312 -0.194596
v -0.028522 0.000000 -0.196104
v -0.028522 0.015312 -0.194596
v -0.573360 0.000000 0.196104
v -0.573360 0.000000 0.196104
v -0.028522 0.000000 0.196104
v -0.028522 0.000000 0.196104
v -0.574375 0.015312 0.194595
v -0.028522 0.015312 0.194595
v 0.003925 0.163054 -0.108949
v 0.003925 0.138666 -0.138666
v 0.003925 0.192335 0.038258
v 0.003925 0.196104 -0.000000
v 0.003925 -0.000000 -0.196104
v 0.003925 0.038258 -0.192335
v 0.003925 -0.108949 0.163054
v 0.003925 -0.075046 0.181176
v 0.003925 0.075045 -0.181176
v 0.003925 -0.108949 -0.163054
v 0.003925 -0.138666 -0.138666
v 0.003925 0.138666 0.138666
v 0.003925 0.163054 0.108949
v 0.003925 -0.181176 -0.075046
v 0.003925 -0.192336 -0.038258
v 0.003925 0.108949 -0.163054
v 0.003925 0.181176 0.075045
v 0.003925 -0.038258 0.192336
v 0.003925 0.000000 0.196104
v 0.003925 -0.196104 0.000000
v 0.003925 -0.192336 0.038258
v 0.003925 -0.163054 -0.108949
v 0.003925 -0.181176 0.075046
v 0.003925 -0.163054 0.108949
v 0.003925 -0.038258 -0.192336
v 0.003925 -0.075046 -0.181176
v 0.003925 0.192335 -0.038258
v 0.003925 0.181176 -0.075046
v 0.003925 0.038258 0.192336
v 0.003925 0.075046 0.181176
v 0.003925 0.108949 0.163054
v 0.003925 -0.138666 0.138666
vn -0.2890 -0.0938 -0.9527
vn -0.4696 -0.0865 -0.8786
vn -0.6326 -0.0759 -0.7708
vn -0.7715 -0.0624 -0.6332
vn -0.8810 -0.0464 -0.4709
vn -0.9565 -0.0286 -0.2902
vn -0.9951 -0.0097 -0.0980
vn -0.0975 -0.0976 -0.9904
vn -0.0975 -0.2889 -0.9524
vn -0.2890 -0.2779 -0.9161
vn -0.4696 -0.2563 -0.8448
vn -0.6326 -0.2248 -0.7412
vn -0.7715 -0.1847 -0.6088
vn -0.8810 -0.1374 -0.4528
vn -0.9565 -0.0846 -0.2790
vn -0.9951 -0.0286 -0.0943
vn -0.7715 -0.2999 -0.5611
vn -0.8810 -0.2231 -0.4173
vn -0.9566 -0.1374 -0.2571
vn -0.9951 -0.0464 -0.0869
vn -0.0975 -0.4692 -0.8777
vn -0.2890 -0.4513 -0.8443
vn -0.4696 -0.4162 -0.7786
vn -0.6326 -0.3651 -0.6831
vn -0.2890 -0.6073 -0.7400
vn -0.4696 -0.5601 -0.6825
vn -0.6326 -0.4913 -0.5987
vn -0.7715 -0.4036 -0.4918
vn -0.8810 -0.3002 -0.3658
vn -0.9566 -0.1850 -0.2254
vn -0.9951 -0.0625 -0.0762
vn -0.0975 -0.6314 -0.7693
vn -0.8810 -0.3658 -0.3002
vn -0.9565 -0.2254 -0.1850
vn -0.9951 -0.0761 -0.0624
vn -0.0975 -0.7693 -0.6314
vn -0.2890 -0.7400 -0.6073
vn -0.4696 -0.6825 -0.5601
vn -0.6326 -0.5987 -0.4913
vn -0.7715 -0.4918 -0.4036
vn -0.2890 -0.8443 -0.4513
vn -0.4696 -0.7786 -0.4162
vn -0.6326 -0.6831 -0.3651
vn -0.7715 -0.5611 -0.2999
vn -0.8810 -0.4173 -0.2230
vn -0.9565 -0.2571 -0.1375
vn -0.9951 -0.0869 -0.0464
vn -0.0975 -0.8777 -0.4691
vn -0.8810 -0.4528 -0.1374
vn -0.9566 -0.2790 -0.0846
vn -0.9951 -0.0942 -0.0287
vn -0.0975 -0.9524 -0.2889
vn -0.2890 -0.9161 -0.2779
vn -0.4696 -0.8448 -0.2563
vn -0.6326 -0.7412 -0.2248
vn -0.7715 -0.6088 -0.1847
vn -0.4696 -0.8786 -0.0865
vn -0.6326 -0.7708 -0.0759
vn -0.7715 -0.6332 -0.0624
vn -0.8810 -0.4709 -0.0464
vn -0.9565 -0.2902 -0.0287
vn -0.9951 -0.0980 -0.0096
vn -0.0975 -0.9904 -0.0975
vn -0.2890 -0.9527 -0.0938
vn -0.9565 -0.2902 0.0286
vn -0.9951 -0.0980 0.0096
vn -0.0975 -0.9904 0.0975
vn -0.2890 -0.9527 0.0938
vn -0.4696 -0.8786 0.0865
vn -0.6326 -0.7708 0.0759
vn -0.7715 -0.6332 0.0624
vn -0.8810 -0.4709 0.0464
vn -0.6326 -0.7412 0.2248
vn -0.7715 -0.6088 0.1847
vn -0.8810 -0.4528 0.1373
vn -0.9566 -0.2790 0.0846
vn -0.9951 -0.0942 0.0287
vn -0.0975 -0.9524 0.2889
vn -0.2890 -0.9161 0.2779
vn -0.4696 -0.8448 0.2563
vn -0.9951 -0.0869 0.0464
vn -0.0975 -0.8777 0.4692
vn -0.2890 -0.8443 0.4513
vn -0.4696 -0.7786 0.4162
vn -0.6326 -0.6831 0.3651
vn -0.7715 -0.5611 0.2999
vn -0.8810 -0.4173 0.2231
vn -0.9565 -0.2571 0.1375
vn -0.6326 -0.5987 0.4913
vn -0.7715 -0.4918 0.4036
vn -0.8810 -0.3658 0.3002
vn -0.9566 -0.2254 0.1850
vn -0.9951 -0.0761 0.0624
vn -0.0975 -0.7693 0.6314
vn -0.2890 -0.7400 0.6073
vn -0.4696 -0.6825 0.5601
vn -0.9951 -0.0625 0.0762
vn -0.0975 -0.6314 0.7693
vn -0.2890 -0.6073 0.7400
vn -0.4696 -0.5601 0.6825
vn -0.6326 -0.4913 0.5987
vn -0.7715 -0.4036 0.4918
vn -0.8810 -0.3002 0.3658
vn -0.9566 -0.1850 0.2254
vn -0.7715 -0.2999 0.5611
vn -0.8810 -0.2230 0.4173
vn -0.9565 -0.1374 0.2571
vn -0.9951 -0.0464 0.0869
vn -0.0975 -0.4691 0.8777
vn -0.2890 -0.4513 0.8443
vn -0.4696 -0.4162 0.7786
vn -0.6326 -0.3651 0.6831
vn -0.0975 -0.2889 0.9524
vn -0.2890 -0.2779 0.9161
vn -0.4696 -0.2563 0.8448
vn -0.6326 -0.2248 0.7412
vn -0.7715 -0.1847 0.6088
vn -0.8810 -0.1374 0.4528
vn -0.9565 -0.0846 0.2790
vn -0.9951 -0.0286 0.0943
vn -0.7715 -0.0624 0.6331
vn -0.8810 -0.0464 0.4709
vn -0.9566 -0.0286 0.2902
vn -0.9951 -0.0097 0.0980
vn -0.0975 -0.0975 0.9904
vn -0.2890 -0.0938 0.9527
vn -0.4696 -0.0865 0.8786
vn -0.6326 -0.0759 0.7708
vn -0.2890 0.0938 0.9527
vn -0.4696 0.0865 0.8786
vn -0.6326 0.0759 0.7708
vn -0.7715 0.0624 0.6331
vn -0.8810 0.0464 0.4709
vn -0.9566 0.0286 0.2902
vn -0.9951 0.0097 0.0980
vn -0.0975 0.0975 0.9904
vn -0.8810 0.1374 0.4528
vn -0.9565 0.0846 0.2790
vn -0.9951 0.0286 0.0943
vn -0.0975 0.2889 0.9524
vn -0.2890 0.2779 0.9161
vn -0.4696 0.2563 0.8448
vn -0.6326 0.2248 0.7412
vn -0.7715 0.1847 0.6088
vn -0.4696 0.4162 0.7786
vn -0.6326 0.3651 0.6831
vn -0.7715 0.2999 0.5611
vn -0.8810 0.2230 0.4173
vn -0.9565 0.1374 0.2571
vn -0.9951 0.0464 0.0869
vn -0.0975 0.4691 0.8777
vn -0.2890 0.4513 0.8443
vn -0.9566 0.1850 0.2254
vn -0.9951 0.0625 0.0761
vn -0.0975 0.6314 0.7693
vn -0.2890 0.6073 0.7400
vn -0.4696 0.5601 0.6825
vn -0.6326 0.4913 0.5987
vn -0.7715 0.4036 0.4918
vn -0.8810 0.3002 0.3658
vn -0.4696 0.6825 0.5601
vn -0.6326 0.5987 0.4913
vn -0.7715 0.4918 0.4036
vn -0.8810 0.3658 0.3002
vn -0.9566 0.2254 0.1850
vn -0.9951 0.0761 0.0625
vn -0.0975 0.7693 0.6314
vn -0.2890 0.7400 0.6073
vn -0.9565 0.2571 0.1375
vn -0.9951 0.0869 0.0465
vn -0.0975 0.8777 0.4691
vn -0.2890 0.8443 0.4513
vn -0.4696 0.7786 0.4162
vn -0.6326 0.6831 0.3651
vn -0.7715 0.5611 0.2999
vn -0.8810 0.4173 0.2231
vn -0.6326 0.7412 0.2248
vn -0.7715 0.6088 0.1847
vn -0.8810 0.4528 0.1374
vn -0.9566 0.2790 0.0846
vn -0.9951 0.0942 0.0285
vn -0.0975 0.9524 0.2889
vn -0.2890 0.9161 0.2779
vn -0.4696 0.8448 0.2563
vn -0.9951 0.0980 0.0097
vn -0.0975 0.9904 0.0975
vn -0.2890 0.9527 0.0938
vn -0.4696 0.8786 0.0865
vn -0.6326 0.7708 0.0759
vn -0.7715 0.6332 0.0623
vn -0.8810 0.4709 0.0464
vn -0.9566 0.2902 0.0286
vn -0.6326 0.7708 -0.0759
vn -0.7715 0.6332 -0.0624
vn -0.8810 0.4709 -0.0464
vn -0.9566 0.2902 -0.0285
vn -0.9951 0.0980 -0.0097
vn -0.0975 0.9904 -0.0975
vn -0.2890 0.9527 -0.0938
vn -0.4696 0.8786 -0.0865
vn -0.9951 0.0942 -0.0285
vn -0.0975 0.9524 -0.2889
vn -0.2890 0.9161 -0.2779
vn -0.4696 0.8448 -0.2563
vn -0.6326 0.7412 -0.2248
vn -0.7715 0.6088 -0.1847
vn -0.8810 0.4528 -0.1374
vn -0.9566 0.2790 -0.0846
vn -0.7715 0.5611 -0.2999
vn -0.8810 0.4173 -0.2231
vn -0.9566 0.2571 -0.1374
vn -0.9951 0.0869 -0.0465
vn -0.0975 0.8777 -0.4691
vn -0.2890 0.8443 -0.4513
vn -0.4696 0.7786 -0.4162
vn -0.6326 0.6831 -0.3651
vn -0.2890 0.7400 -0.6073
vn -0.4696 0.6825 -0.5601
vn -0.6326 0.5987 -0.4913
vn -0.7715 0.4918 -0.4036
vn -0.8810 0.3658 -0.3002
vn -0.9566 0.2254 -0.1850
vn -0.9951 0.0761 -0.0625
vn -0.0975 0.7693 -0.6314
vn -0.8810 0.3002 -0.3658
vn -0.9566 0.1850 -0.2254
vn -0.9951 0.0625 -0.0761
vn -0.0975 0.6314 -0.7693
vn -0.2890 0.6073 -0.7400
vn -0.4696 0.5601 -0.6825
vn -0.6326 0.4913 -0.5987
vn -0.7715 0.4036 -0.4918
vn -0.2890 0.4513 -0.8443
vn -0.4696 0.4162 -0.7786
vn -0.6326 0.3651 -0.6831
vn -0.7715 0.2999 -0.5611
vn -0.8810 0.2231 -0.4173
vn -0.9566 0.1374 -0.2571
vn -0.9951 0.0464 -0.0869
vn -0.0975 0.4692 -0.8777
vn -0.8810 0.1374 -0.4528
vn -0.9565 0.0846 -0.2790
vn -0.9951 0.0286 -0.0943
vn -0.0975 0.2889 -0.9524
vn -0.2890 0.2779 -0.9161
vn -0.4696 0.2563 -0.8448
vn -0.6326 0.2248 -0.7412
vn -0.7715 0.1847 -0.6088
vn -0.4696 0.0865 -0.8786
vn -0.6326 0.0759 -0.7708
vn -0.7715 0.0624 -0.6331
vn -0.8810 0.0464 -0.4709
vn -0.9566 0.0286 -0.2902
vn -0.9951 0.0097 -0.0980
vn -0.0975 0.0976 -0.9904
vn -0.2890 0.0938 -0.9527
vn -0.0000 0.7730 -0.6344
vn -0.0000 0.9952 0.0980
vn -0.0000 0.0980 -0.9952
vn -0.0000 -0.4714 0.8819
vn -0.0000 0.2903 -0.9569
vn -0.0000 -0.6344 -0.7730
vn -0.0000 0.7730 0.6344
vn -0.0000 -0.9569 -0.2903
vn -0.0000 0.4714 -0.8819
vn -0.0000 0.9569 0.2903
vn -0.0000 -0.0980 0.9952
vn -0.0000 -0.9952 0.0980
vn -0.0000 -0.8819 -0.4714
vn -0.0000 -0.8819 0.4714
vn -0.0000 -0.2903 -0.9569
vn -0.0000 0.9569 -0.2903
vn -0.0000 0.2903 0.9569
vn -0.0000 -0.9952 -0.0980
vn -0.0000 0.9952 -0.0980
vn -0.0000 0.0980 0.9952
vn -0.0000 -0.9569 0.2903
vn -0.0000 0.8819 -0.4714
vn -0.0000 0.6344 0.7730
vn -0.0000 -0.0980 -0.9952
vn -0.0000 -0.4714 -0.8819
vn -0.0000 -0.6344 0.7730
vn -0.0000 0.4714 0.8819
vn -0.0000 0.6344 -0.7730
vn -0.0000 -0.7730 0.6344
vn -0.0000 -0.7730 -0.6344
vn -0.0000 0.8819 0.4714
vn -0.0000 -0.2903 0.9569
vn 1.0000 -0.0000 -0.0000
vn -0.0000 -0.0000 1.0000
vn -0.0000 -0.0000 -1.0000
vn 0.9997 -0.0000 -0.0238
vn -0.8295 0.5584 -0.0000
vn -0.0000 1.0000 -0.0000
vn -0.8295 -0.5584 -0.0000
vn -0.0000 -1.0000 -0.0000
vn -0.8295 -0.0000 0.5584
vn -0.8295 -0.0000 -0.5584
vn -0.0975 -0.0975 -0.9904
vn -0.9565 -0.1374 -0.2572
vn -0.9566 -0.2254 -0.1850
vn -0.8810 -0.4173 -0.2231
vn -0.9566 -0.2571 -0.1374
vn -0.8810 -0.4528 -0.1373
vn -0.9566 -0.2902 -0.0285
vn -0.0976 -0.9904 -0.0976
vn -0.9566 -0.2902 0.0285
vn -0.0975 -0.9904 0.0976
vn -0.8810 -0.4528 0.1374
vn -0.9565 -0.2790 0.0847
vn -0.0975 -0.8777 0.4691
vn -0.8810 -0.4173 0.2230
vn -0.9565 -0.2254 0.1850
vn -0.8810 -0.2231 0.4173
vn -0.9565 -0.1374 0.2572
vn -0.0975 -0.4692 0.8777
vn -0.7715 -0.0624 0.6332
vn -0.9565 -0.0286 0.2902
vn -0.7715 0.0624 0.6332
vn -0.0975 0.0976 0.9904
vn -0.8810 0.2231 0.4173
vn -0.9565 0.1374 0.2572
vn -0.9565 0.1850 0.2254
vn -0.9565 0.2254 0.1850
vn -0.8810 0.4173 0.2230
vn -0.9565 0.2790 0.0846
vn -0.7715 0.6332 0.0624
vn -0.9565 0.2902 0.0286
vn -0.9565 0.2902 -0.0286
vn -0.8810 0.4528 -0.1373
vn -0.9565 0.2790 -0.0846
vn -0.9565 0.2571 -0.1374
vn -0.0975 0.8777 -0.4692
vn -0.9565 0.2254 -0.1850
vn -0.9565 0.1850 -0.2254
vn -0.8810 0.2230 -0.4173
vn -0.9565 0.1374 -0.2572
vn -0.0975 0.4691 -0.8777
vn -0.7715 0.0624 -0.6332
vn -0.9565 0.0286 -0.2902
vn -0.0000 0.9921 0.1258
vn -0.0000 0.5419 -0.8405
vn -0.6818 0.4590 0.5697
vt 0.698801 0.238575
vt 0.688733 0.249151
vt 0.688250 0.239788
vt 0.678622 0.250215
vt 0.678187 0.241789
vt 0.669369 0.251665
vt 0.668999 0.244499
vt 0.585673 0.750431
vt 0.577055 0.744314
vt 0.582727 0.742598
vt 0.575375 0.734928
vt 0.579282 0.733746
vt 0.573479 0.724816
vt 0.575471 0.724214
vt 0.571440 0.714368
vt 0.709435 0.238196
vt 0.699314 0.248515
vt 0.709958 0.248330
vt 0.699487 0.258904
vt 0.688896 0.258938
vt 0.678769 0.259023
vt 0.669493 0.259156
vt 0.578454 0.752614
vt 0.571156 0.744889
vt 0.571312 0.735324
vt 0.571408 0.725018
vt 0.570946 0.753346
vt 0.565257 0.744302
vt 0.567249 0.734920
vt 0.569336 0.724812
vt 0.710134 0.258924
vt 0.699314 0.269345
vt 0.688733 0.268773
vt 0.678622 0.267874
vt 0.669369 0.266683
vt 0.688250 0.278278
vt 0.678187 0.276429
vt 0.668999 0.273958
vt 0.563438 0.752599
vt 0.559585 0.742576
vt 0.563342 0.733731
vt 0.567345 0.724206
vt 0.709958 0.269569
vt 0.698802 0.279436
vt 0.554357 0.739777
vt 0.559741 0.731803
vt 0.565509 0.723223
vt 0.709435 0.279857
vt 0.697969 0.288788
vt 0.687466 0.287088
vt 0.677482 0.284357
vt 0.668399 0.280701
vt 0.549566 0.746840
vt 0.686411 0.294864
vt 0.676532 0.291356
vt 0.667591 0.286653
vt 0.543734 0.742048
vt 0.549776 0.736012
vt 0.556585 0.729210
vt 0.563900 0.721901
vt 0.708586 0.289393
vt 0.696848 0.297043
vt 0.546015 0.731427
vt 0.553995 0.726051
vt 0.562580 0.720291
vt 0.670281 0.194078
vt 0.679756 0.185440
vt 0.680877 0.193365
vt 0.690259 0.183698
vt 0.691315 0.191164
vt 0.701194 0.187558
vt 0.700244 0.180840
vt 0.709327 0.176974
vt 0.710134 0.182688
vt 0.538948 0.736212
vt 0.689475 0.175119
vt 0.699538 0.173119
vt 0.708726 0.170408
vt 0.535392 0.729555
vt 0.543221 0.726197
vt 0.552070 0.722448
vt 0.561598 0.718454
vt 0.669139 0.185997
vt 0.678924 0.176332
vt 0.560994 0.716462
vt 0.668290 0.176711
vt 0.678411 0.166393
vt 0.688992 0.165756
vt 0.699103 0.164692
vt 0.708357 0.163242
vt 0.533202 0.722334
vt 0.541500 0.720523
vt 0.550885 0.718540
vt 0.708232 0.155751
vt 0.532462 0.714825
vt 0.540919 0.714624
vt 0.550485 0.714477
vt 0.560790 0.714390
vt 0.667767 0.166577
vt 0.678238 0.156003
vt 0.688829 0.155969
vt 0.698956 0.155884
vt 0.560994 0.712319
vt 0.667591 0.155984
vt 0.678411 0.145562
vt 0.688992 0.146134
vt 0.699103 0.147033
vt 0.708357 0.148224
vt 0.533202 0.707318
vt 0.541500 0.708725
vt 0.550885 0.710414
vt 0.708726 0.140949
vt 0.535392 0.700101
vt 0.543221 0.703055
vt 0.552070 0.706508
vt 0.561598 0.710328
vt 0.667767 0.145338
vt 0.678924 0.135472
vt 0.689475 0.136629
vt 0.699538 0.138479
vt 0.562580 0.708493
vt 0.668290 0.135050
vt 0.679756 0.126119
vt 0.690259 0.127819
vt 0.700244 0.130550
vt 0.709326 0.134206
vt 0.538948 0.693451
vt 0.546015 0.697830
vt 0.553995 0.702909
vt 0.543734 0.687624
vt 0.549776 0.693252
vt 0.556585 0.699755
vt 0.563900 0.706886
vt 0.669139 0.125514
vt 0.680877 0.117864
vt 0.691314 0.120043
vt 0.701193 0.123552
vt 0.710134 0.128255
vt 0.670913 0.090345
vt 0.680243 0.081552
vt 0.681495 0.089457
vt 0.690715 0.079636
vt 0.691894 0.087083
vt 0.701712 0.083315
vt 0.700651 0.076613
vt 0.709669 0.072597
vt 0.710571 0.078296
vt 0.549566 0.682844
vt 0.554357 0.689496
vt 0.559741 0.697168
vt 0.565509 0.705567
vt 0.556219 0.679294
vt 0.559585 0.686707
vt 0.563342 0.695247
vt 0.567345 0.704587
vt 0.669636 0.082285
vt 0.679259 0.072459
vt 0.689789 0.071072
vt 0.699817 0.068905
vt 0.708960 0.066042
vt 0.689151 0.061718
vt 0.699243 0.060487
vt 0.708471 0.058883
vt 0.563438 0.677111
vt 0.565257 0.684991
vt 0.567249 0.694066
vt 0.569336 0.703985
vt 0.668634 0.073015
vt 0.678582 0.062530
vt 0.571312 0.693669
vt 0.571408 0.703783
vt 0.667943 0.062890
vt 0.678237 0.052144
vt 0.688826 0.051935
vt 0.698950 0.051682
vt 0.708222 0.051395
vt 0.570946 0.676379
vt 0.571156 0.684416
vt 0.688825 0.042099
vt 0.698950 0.042830
vt 0.708222 0.043867
vt 0.716285 0.051085
vt 0.716285 0.045170
vt 0.577055 0.685003
vt 0.575375 0.694073
vt 0.573479 0.703989
vt 0.667591 0.052301
vt 0.678237 0.041702
vt 0.579282 0.695262
vt 0.575471 0.704595
vt 0.667591 0.041655
vt 0.678582 0.031604
vt 0.689151 0.032587
vt 0.699243 0.034269
vt 0.708471 0.036587
vt 0.585673 0.679322
vt 0.582727 0.686729
vt 0.689789 0.023765
vt 0.699818 0.026330
vt 0.708960 0.029835
vt 0.592327 0.682885
vt 0.587954 0.689528
vt 0.582883 0.697191
vt 0.577307 0.705578
vt 0.667943 0.031359
vt 0.679259 0.022239
vt 0.586039 0.699784
vt 0.578916 0.706900
vt 0.668634 0.021811
vt 0.680243 0.013967
vt 0.690715 0.015973
vt 0.700651 0.019317
vt 0.709669 0.023871
vt 0.592536 0.693293
vt 0.547665 0.876665
vt 0.539532 0.887249
vt 0.538724 0.881536
vt 0.602944 0.693513
vt 0.596297 0.697878
vt 0.588629 0.702942
vt 0.580236 0.708510
vt 0.578577 0.870146
vt 0.569103 0.878784
vt 0.567982 0.870858
vt 0.558600 0.880525
vt 0.557544 0.873060
vt 0.548615 0.883384
vt 0.581217 0.710347
vt 0.579720 0.878226
vt 0.569935 0.887891
vt 0.559384 0.889104
vt 0.549321 0.891104
vt 0.540133 0.893815
vt 0.606501 0.700169
vt 0.599091 0.703108
vt 0.590554 0.706545
vt 0.540502 0.900981
vt 0.600811 0.708782
vt 0.591739 0.710453
vt 0.581821 0.712339
vt 0.580569 0.887512
vt 0.570448 0.897831
vt 0.559867 0.898467
vt 0.549756 0.899531
vt 0.582025 0.714411
vt 0.581091 0.897646
vt 0.570621 0.908220
vt 0.560030 0.908254
vt 0.549902 0.908339
vt 0.540627 0.908472
vt 0.532462 0.902763
vt 0.532560 0.908648
vt 0.592139 0.714517
vt 0.540502 0.915999
vt 0.532462 0.914562
vt 0.600811 0.720580
vt 0.591739 0.718579
vt 0.581821 0.716482
vt 0.581268 0.908240
vt 0.570448 0.918661
vt 0.559867 0.918089
vt 0.549756 0.917190
vt 0.559384 0.927594
vt 0.549321 0.925744
vt 0.540133 0.923274
vt 0.606501 0.729624
vt 0.599091 0.726250
vt 0.590554 0.722485
vt 0.581217 0.718473
vt 0.581091 0.918885
vt 0.569935 0.928752
vt 0.588629 0.726084
vt 0.580236 0.720308
vt 0.580569 0.929173
vt 0.569103 0.938104
vt 0.558600 0.936404
vt 0.548615 0.933673
vt 0.539532 0.930017
vt 0.602944 0.736273
vt 0.596297 0.731475
vt 0.557544 0.944180
vt 0.547665 0.940671
vt 0.538724 0.935969
vt 0.598158 0.742101
vt 0.592536 0.736053
vt 0.586039 0.729238
vt 0.578916 0.721916
vt 0.579720 0.938709
vt 0.567982 0.946359
vt 0.587954 0.739809
vt 0.582883 0.731825
vt 0.577307 0.723235
vt 0.707444 0.220830
vt 0.697969 0.229468
vt 0.696848 0.221543
vt 0.687466 0.231209
vt 0.686411 0.223744
vt 0.676532 0.227349
vt 0.677482 0.234068
vt 0.668399 0.237933
vt 0.667591 0.232220
vt 0.592327 0.746881
vt 0.708586 0.228910
vt 0.373298 0.983899
vt 0.383589 0.013985
vt 0.383589 0.984378
vt 0.341928 0.172158
vt 0.332646 0.015054
vt 0.341928 0.023045
vt 0.180444 0.976599
vt 0.176729 0.985835
vt 0.176729 0.976955
vt 0.176729 0.015442
vt 0.180444 0.827208
vt 0.176729 0.827842
vt 0.021798 0.014814
vt 0.013376 0.984101
vt 0.013376 0.013708
vt 0.194087 0.013376
vt 0.186011 0.984946
vt 0.186011 0.014553
vt 0.145359 0.016100
vt 0.135068 0.986015
vt 0.135068 0.015622
vt 0.279857 0.984378
vt 0.289397 0.014793
vt 0.289397 0.985186
vt 0.090355 0.013376
vt 0.082280 0.984946
vt 0.082280 0.014553
vt 0.393128 0.985186
vt 0.401550 0.015899
vt 0.401550 0.986292
vt 0.324570 0.986624
vt 0.332646 0.985447
vt 0.228914 0.015054
vt 0.238196 0.023045
vt 0.238196 0.172158
vt 0.072998 0.015442
vt 0.062866 0.986402
vt 0.062866 0.016009
vt 0.125529 0.014814
vt 0.117108 0.984101
vt 0.117108 0.013708
vt 0.052273 0.016231
vt 0.041627 0.986493
vt 0.041627 0.016100
vt 0.166597 0.016009
vt 0.156005 0.986624
vt 0.156005 0.016231
vt 0.352060 0.983991
vt 0.362652 0.013376
vt 0.362652 0.983769
vt 0.248328 0.983991
vt 0.258921 0.013376
vt 0.258921 0.983769
vt 0.076713 0.976599
vt 0.072998 0.985835
vt 0.072998 0.976955
vt 0.076713 0.827208
vt 0.072998 0.827842
vt 0.352060 0.013598
vt 0.345983 0.172209
vt 0.345983 0.022818
vt 0.248328 0.013598
vt 0.242252 0.172209
vt 0.242252 0.022818
vt 0.052273 0.986624
vt 0.373298 0.013507
vt 0.269567 0.983899
vt 0.279857 0.013985
vt 0.166597 0.986402
vt 0.145359 0.986493
vt 0.031337 0.015622
vt 0.021798 0.985207
vt 0.269567 0.013507
vt 0.393128 0.014793
vt 0.031337 0.986015
vt 0.125529 0.985207
vt 0.297818 0.015899
vt 0.297818 0.986292
vt 0.220839 0.986624
vt 0.228914 0.985447
vt 0.594542 0.802515
vt 0.573341 0.842177
vt 0.533679 0.820977
vt 0.428302 0.564683
vt 0.505328 0.652090
vt 0.428302 0.713796
vt 0.505710 0.790955
vt 0.428302 0.889939
vt 0.428302 0.740548
vt 0.747289 0.237390
vt 0.747289 0.321682
vt 0.747288 0.682425
vt 0.747288 0.764765
vt 0.743037 0.764411
vt 0.671476 0.685236
vt 0.667591 0.778708
vt 0.667591 0.685527
vt 0.532462 0.599469
vt 0.609488 0.500513
vt 0.609488 0.649626
vt 0.428302 0.075389
vt 0.505710 0.162767
vt 0.428302 0.168570
vt 0.747289 0.460735
vt 0.743037 0.545027
vt 0.743037 0.460316
vt 0.671842 0.892415
vt 0.667591 0.805846
vt 0.671842 0.805460
vt 0.667591 0.445078
vt 0.671476 0.537968
vt 0.667591 0.538259
vt 0.428302 0.438975
vt 0.505328 0.526382
vt 0.428302 0.532156
vt 0.532462 0.112360
vt 0.609871 0.013376
vt 0.609871 0.162767
vt 0.747289 0.125926
vt 0.747289 0.210219
vt 0.743037 0.655553
vt 0.743037 0.571779
vt 0.747283 0.572313
vt 0.671476 0.565011
vt 0.667591 0.658484
vt 0.667591 0.565302
vt 0.609488 0.374805
vt 0.532462 0.473761
vt 0.532462 0.324648
vt 0.428302 0.201125
vt 0.505710 0.288504
vt 0.428302 0.350516
vt 0.747289 0.349272
vt 0.743037 0.433564
vt 0.743037 0.348853
vt 0.747284 0.099063
vt 0.743037 0.013911
vt 0.747284 0.013376
vt 0.667591 0.324853
vt 0.671476 0.417743
vt 0.667591 0.418034
vt 0.558605 0.228717
vt 0.544560 0.209165
vt 0.562068 0.223533
vt 0.577419 0.213276
vt 0.581313 0.189519
vt 0.583534 0.212060
vt 0.556219 0.252939
vt 0.532462 0.249045
vt 0.555003 0.246825
vt 0.617082 0.252939
vt 0.640839 0.249045
vt 0.638756 0.259514
vt 0.555003 0.240590
vt 0.532462 0.238370
vt 0.566476 0.268290
vt 0.560983 0.291728
vt 0.552108 0.285798
vt 0.595882 0.213276
vt 0.612318 0.195687
vt 0.601641 0.215662
vt 0.583534 0.275355
vt 0.591988 0.297896
vt 0.581313 0.297896
vt 0.534545 0.227901
vt 0.556219 0.234476
vt 0.589768 0.212060
vt 0.591988 0.189519
vt 0.618298 0.240590
vt 0.638756 0.227901
vt 0.640839 0.238370
vt 0.595882 0.274139
vt 0.612318 0.291728
vt 0.602457 0.295813
vt 0.570844 0.295813
vt 0.577419 0.274139
vt 0.606825 0.268290
vt 0.628741 0.278250
vt 0.621193 0.285798
vt 0.562068 0.263882
vt 0.538630 0.269375
vt 0.558605 0.258698
vt 0.566476 0.219125
vt 0.560983 0.195687
vt 0.571660 0.215662
vt 0.614696 0.228717
vt 0.628741 0.209165
vt 0.634671 0.218040
vt 0.589768 0.275355
vt 0.570844 0.191602
vt 0.617082 0.234476
vt 0.601641 0.271753
vt 0.552108 0.201617
vt 0.606825 0.219125
vt 0.621193 0.201617
vt 0.534545 0.259514
vt 0.544560 0.278250
vt 0.614696 0.258698
vt 0.634672 0.269375
vt 0.611233 0.223533
vt 0.538630 0.218040
vt 0.611233 0.263882
vt 0.571660 0.271753
vt 0.602457 0.191602
vt 0.618298 0.246825
vt 0.556219 0.750403
vt 0.707444 0.297810
vt 0.670281 0.117098
vt 0.578454 0.677125
vt 0.669636 0.013376
vt 0.598158 0.687676
vt 0.608691 0.707391
vt 0.601392 0.714682
vt 0.608691 0.722406
vt 0.578577 0.947126
vt 0.341928 0.172158
vt 0.341928 0.984558
vt 0.341928 0.014165
vt 0.341928 0.023045
vt 0.194087 0.983769
vt 0.090355 0.983769
vt 0.324570 0.016231
vt 0.238196 0.984558
vt 0.238196 0.014165
vt 0.238196 0.023045
vt 0.220839 0.016231
vt 0.532462 0.814863
vt 0.536064 0.796755
vt 0.532462 0.808629
vt 0.533679 0.802514
vt 0.539528 0.791572
vt 0.543936 0.787163
vt 0.549119 0.783700
vt 0.554879 0.781314
vt 0.560993 0.780098
vt 0.579101 0.783700
vt 0.567227 0.780098
vt 0.573341 0.781314
vt 0.584284 0.787163
vt 0.588692 0.791572
vt 0.592156 0.796755
vt 0.595758 0.808629
vt 0.595758 0.814863
vt 0.594542 0.820977
vt 0.592156 0.826737
vt 0.588692 0.831920
vt 0.584284 0.836328
vt 0.579101 0.839792
vt 0.567227 0.843394
vt 0.560993 0.843394
vt 0.554879 0.842177
vt 0.549119 0.839792
vt 0.543936 0.836328
vt 0.539528 0.831920
vt 0.536064 0.826737
vt 0.505328 0.558908
vt 0.505710 0.884136
vt 0.743037 0.322101
vt 0.743037 0.237390
vt 0.743037 0.764411
vt 0.743037 0.682478
vt 0.671476 0.778417
vt 0.532462 0.506288
vt 0.505710 0.013376
vt 0.747289 0.545027
vt 0.667591 0.892371
vt 0.671476 0.444787
vt 0.505328 0.377269
vt 0.532462 0.019179
vt 0.743037 0.210638
vt 0.743037 0.125926
vt 0.747283 0.655673
vt 0.671476 0.658192
vt 0.609488 0.467987
vt 0.505710 0.195322
vt 0.747289 0.433564
vt 0.743037 0.099174
vt 0.671476 0.324562
s 0
usemtl マテリアル
f 2/1/1 11/2/1 269/3/1
f 269/3/2 13/4/2 3/5/2
f 3/5/3 15/6/3 270/7/3
f 270/8/4 19/9/4 271/10/4
f 271/10/5 20/11/5 272/12/5
f 272/12/6 21/13/6 273/14/6
f 180/15/7 273/14/7 21/13/7
f 1/16/8 9/17/8 2/1/8
f 8/18/9 27/19/9 9/17/9
f 9/17/10 28/20/10 11/2/10
f 13/4/11 28/20/11 30/21/11
f 15/6/12 30/21/12 32/22/12
f 15/23/13 33/24/13 19/9/13
f 20/11/14 33/24/14 34/25/14
f 20/11/15 35/26/15 21/13/15
f 180/15/16 21/13/16 35/26/16
f 32/27/17 41/28/17 33/24/17
f 34/25/18 41/28/18 42/29/18
f 35/26/19 42/29/19 43/30/19
f 180/15/20 35/26/20 43/30/20
f 26/31/21 37/32/21 27/19/21
f 27/19/22 38/33/22 28/20/22
f 30/21/23 38/33/23 39/34/23
f 30/21/24 40/35/24 32/22/24
f 37/32/25 46/36/25 38/33/25
f 39/34/26 46/36/26 47/37/26
f 39/34/27 48/38/27 40/35/27
f 40/39/28 49/40/28 41/28/28
f 41/28/29 50/41/29 42/29/29
f 43/30/30 50/41/30 51/42/30
f 180/15/31 43/30/31 51/42/31
f 36/43/32 45/44/32 37/32/32
f 50/41/33 57/45/33 58/46/33
f 50/41/34 59/47/34 51/42/34
f 180/15/35 51/42/35 59/47/35
f 44/48/36 53/49/36 45/44/36
f 45/44/37 54/50/37 46/36/37
f 47/37/38 54/50/38 55/51/38
f 47/37/39 56/52/39 48/38/39
f 49/40/40 56/53/40 57/45/40
f 53/49/41 62/54/41 54/50/41
f 55/51/42 62/54/42 63/55/42
f 55/51/43 64/56/43 56/52/43
f 57/45/44 64/57/44 65/58/44
f 57/45/45 66/59/45 58/46/45
f 59/47/46 66/59/46 67/60/46
f 180/15/47 59/47/47 67/60/47
f 52/61/48 61/62/48 53/49/48
f 66/59/49 73/63/49 74/64/49
f 66/59/50 75/65/50 67/60/50
f 180/15/51 67/60/51 75/65/51
f 60/66/52 69/67/52 61/68/52
f 61/68/53 70/69/53 62/70/53
f 63/71/54 70/69/54 71/72/54
f 63/71/55 72/73/55 64/74/55
f 65/58/56 72/75/56 73/63/56
f 71/72/57 78/76/57 79/77/57
f 71/72/58 80/78/58 72/73/58
f 73/63/59 80/79/59 81/80/59
f 74/64/60 81/80/60 82/81/60
f 75/65/61 82/81/61 83/82/61
f 180/15/62 75/65/62 83/82/62
f 68/83/63 77/84/63 69/67/63
f 69/67/64 78/76/64 70/69/64
f 82/81/65 91/85/65 83/82/65
f 180/15/66 83/82/66 91/85/66
f 76/86/67 85/87/67 77/84/67
f 77/84/68 86/88/68 78/76/68
f 79/77/69 86/88/69 87/89/69
f 79/77/70 88/90/70 80/78/70
f 81/80/71 88/91/71 89/92/71
f 81/80/72 90/93/72 82/81/72
f 87/89/73 96/94/73 88/90/73
f 89/92/74 96/95/74 97/96/74
f 90/93/75 97/96/75 98/97/75
f 91/85/76 98/97/76 99/98/76
f 180/15/77 91/85/77 99/98/77
f 84/99/78 93/100/78 85/87/78
f 85/87/79 94/101/79 86/88/79
f 87/89/80 94/101/80 95/102/80
f 180/15/81 99/98/81 107/103/81
f 92/104/82 101/105/82 93/100/82
f 93/100/83 102/106/83 94/101/83
f 95/102/84 102/106/84 103/107/84
f 95/102/85 104/108/85 96/94/85
f 97/96/86 104/109/86 105/110/86
f 98/97/87 105/110/87 106/111/87
f 99/98/88 106/111/88 107/103/88
f 103/107/89 112/112/89 104/108/89
f 105/110/90 112/113/90 113/114/90
f 105/110/91 114/115/91 106/111/91
f 106/111/92 115/116/92 107/103/92
f 180/15/93 107/103/93 115/116/93
f 100/117/94 109/118/94 101/105/94
f 101/105/95 110/119/95 102/106/95
f 103/107/96 110/119/96 111/120/96
f 180/15/97 115/116/97 123/121/97
f 108/122/98 117/123/98 109/118/98
f 109/118/99 118/124/99 110/119/99
f 111/120/100 118/124/100 119/125/100
f 111/120/101 120/126/101 112/112/101
f 113/114/102 120/127/102 121/128/102
f 114/115/103 121/128/103 122/129/103
f 115/116/104 122/129/104 123/121/104
f 121/128/105 128/130/105 129/131/105
f 122/129/106 129/131/106 130/132/106
f 123/121/107 130/132/107 131/133/107
f 180/15/108 123/121/108 131/133/108
f 116/134/109 125/135/109 117/123/109
f 117/123/110 126/136/110 118/124/110
f 119/125/111 126/136/111 127/137/111
f 119/125/112 128/138/112 120/126/112
f 124/139/113 133/140/113 125/141/113
f 125/141/114 134/142/114 126/143/114
f 127/144/115 134/142/115 135/145/115
f 127/144/116 136/146/116 128/147/116
f 129/131/117 136/148/117 137/149/117
f 130/132/118 137/149/118 138/150/118
f 131/133/119 138/150/119 139/151/119
f 180/15/120 131/133/120 139/151/120
f 137/149/121 144/152/121 145/153/121
f 137/149/122 146/154/122 138/150/122
f 139/151/123 146/154/123 147/155/123
f 180/15/124 139/151/124 147/155/124
f 132/156/125 141/157/125 133/140/125
f 133/140/126 142/158/126 134/142/126
f 135/145/127 142/158/127 143/159/127
f 135/145/128 144/160/128 136/146/128
f 141/157/129 150/161/129 142/158/129
f 143/159/130 150/161/130 151/162/130
f 143/159/131 152/163/131 144/160/131
f 145/153/132 152/164/132 153/165/132
f 145/153/133 154/166/133 146/154/133
f 146/154/134 155/167/134 147/155/134
f 180/15/135 147/155/135 155/167/135
f 140/168/136 149/169/136 141/157/136
f 153/165/137 162/170/137 154/166/137
f 154/166/138 163/171/138 155/167/138
f 180/15/139 155/167/139 163/171/139
f 148/172/140 157/173/140 149/169/140
f 149/169/141 158/174/141 150/161/141
f 151/162/142 158/174/142 159/175/142
f 151/162/143 160/176/143 152/163/143
f 153/165/144 160/177/144 161/178/144
f 159/175/145 166/179/145 167/180/145
f 159/175/146 168/181/146 160/176/146
f 161/182/147 168/181/147 169/183/147
f 162/170/148 169/184/148 170/185/148
f 162/170/149 171/186/149 163/171/149
f 180/15/150 163/171/150 171/186/150
f 156/187/151 165/188/151 157/173/151
f 157/173/152 166/179/152 158/174/152
f 171/186/153 178/189/153 179/190/153
f 180/15/154 171/186/154 179/190/154
f 164/191/155 173/192/155 165/188/155
f 165/188/156 174/193/156 166/179/156
f 167/180/157 174/193/157 175/194/157
f 167/180/158 176/195/158 168/181/158
f 169/184/159 176/196/159 177/197/159
f 169/184/160 178/189/160 170/185/160
f 175/194/161 183/198/161 184/199/161
f 175/194/162 185/200/162 176/195/162
f 177/197/163 185/201/163 186/202/163
f 177/197/164 187/203/164 178/189/164
f 178/189/165 188/204/165 179/190/165
f 180/15/166 179/190/166 188/204/166
f 172/205/167 182/206/167 173/192/167
f 173/192/168 183/198/168 174/193/168
f 188/204/169 195/207/169 196/208/169
f 180/15/170 188/204/170 196/208/170
f 181/209/171 190/210/171 182/206/171
f 182/206/172 191/211/172 183/198/172
f 184/199/173 191/211/173 192/212/173
f 184/199/174 193/213/174 185/200/174
f 185/201/175 194/214/175 186/202/175
f 186/202/176 195/207/176 187/203/176
f 192/215/177 201/216/177 193/217/177
f 194/214/178 201/218/178 202/219/178
f 194/214/179 203/220/179 195/207/179
f 196/208/180 203/220/180 204/221/180
f 180/15/181 196/208/181 204/221/181
f 189/222/182 198/223/182 190/224/182
f 190/224/183 199/225/183 191/226/183
f 192/215/184 199/225/184 200/227/184
f 180/15/185 204/221/185 212/228/185
f 197/229/186 206/230/186 198/223/186
f 198/223/187 207/231/187 199/225/187
f 200/227/188 207/231/188 208/232/188
f 200/227/189 209/233/189 201/216/189
f 202/219/190 209/234/190 210/235/190
f 203/220/191 210/235/191 211/236/191
f 204/221/192 211/236/192 212/228/192
f 208/232/193 217/237/193 209/233/193
f 209/234/194 218/238/194 210/235/194
f 210/235/195 219/239/195 211/236/195
f 211/236/196 220/240/196 212/228/196
f 180/15/197 212/228/197 220/240/197
f 205/241/198 214/242/198 206/230/198
f 206/230/199 215/243/199 207/231/199
f 208/232/200 215/243/200 216/244/200
f 180/15/201 220/240/201 228/245/201
f 213/246/202 222/247/202 214/242/202
f 214/242/203 223/248/203 215/243/203
f 216/244/204 223/248/204 224/249/204
f 216/244/205 225/250/205 217/237/205
f 218/251/206 225/250/206 226/252/206
f 218/238/207 227/253/207 219/239/207
f 219/239/208 228/245/208 220/240/208
f 226/252/209 233/254/209 234/255/209
f 227/253/210 234/256/210 235/257/210
f 228/245/211 235/257/211 236/258/211
f 180/15/212 228/245/212 236/258/212
f 221/259/213 230/260/213 222/247/213
f 222/247/214 231/261/214 223/248/214
f 224/249/215 231/261/215 232/262/215
f 224/249/216 233/254/216 225/250/216
f 230/260/217 239/263/217 231/261/217
f 232/262/218 239/263/218 240/264/218
f 233/254/219 240/264/219 241/265/219
f 234/256/220 241/266/220 242/267/220
f 234/256/221 243/268/221 235/257/221
f 236/258/222 243/268/222 244/269/222
f 180/15/223 236/258/223 244/269/223
f 229/270/224 238/271/224 230/260/224
f 242/267/225 251/272/225 243/268/225
f 243/268/226 252/273/226 244/269/226
f 180/15/227 244/269/227 252/273/227
f 237/274/228 246/275/228 238/271/228
f 238/271/229 247/276/229 239/263/229
f 240/264/230 247/276/230 248/277/230
f 240/264/231 249/278/231 241/265/231
f 242/267/232 249/279/232 250/280/232
f 246/275/233 255/281/233 247/276/233
f 248/277/234 255/281/234 256/282/234
f 248/277/235 257/283/235 249/278/235
f 250/280/236 257/284/236 258/285/236
f 250/280/237 259/286/237 251/272/237
f 252/273/238 259/286/238 260/287/238
f 180/15/239 252/273/239 260/287/239
f 245/288/240 254/289/240 246/275/240
f 259/286/241 266/290/241 267/291/241
f 260/287/242 267/291/242 268/292/242
f 180/15/243 260/287/243 268/292/243
f 253/293/244 262/294/244 254/295/244
f 254/295/245 263/296/245 255/297/245
f 256/298/246 263/296/246 264/299/246
f 256/298/247 265/300/247 257/301/247
f 258/285/248 265/302/248 266/290/248
f 263/296/249 3/5/249 264/299/249
f 264/299/250 270/7/250 265/300/250
f 266/290/251 270/8/251 271/10/251
f 266/290/252 272/12/252 267/291/252
f 267/291/253 273/14/253 268/292/253
f 180/15/254 268/292/254 273/14/254
f 261/303/255 2/1/255 262/294/255
f 262/294/256 269/3/256 263/296/256
f 229/304/257 327/305/257 237/306/257
f 307/307/258 328/308/258 308/309/258
f 319/310/259 330/311/259 318/312/259
f 1/313/259 317/314/259 316/315/259
f 116/316/260 333/317/260 124/318/260
f 253/319/261 331/320/261 261/321/261
f 36/322/262 336/323/262 44/324/262
f 172/325/263 338/326/263 181/327/263
f 60/328/264 340/329/264 68/330/264
f 245/331/265 334/332/265 253/333/265
f 189/334/266 328/308/266 197/335/266
f 343/336/267 322/337/267 321/338/267
f 76/339/268 346/340/268 84/341/268
f 52/342/269 339/343/269 60/344/269
f 92/345/270 349/346/270 100/347/270
f 8/348/271 351/349/271 26/350/271
f 213/351/272 353/352/272 221/353/272
f 148/354/273 355/355/273 156/356/273
f 313/357/274 345/358/274 312/359/274
f 76/339/274 311/360/274 310/361/274
f 352/362/275 314/363/275 315/364/275
f 354/365/276 324/366/276 325/367/276
f 84/341/277 348/368/277 92/345/277
f 221/353/278 326/369/278 229/304/278
f 164/370/279 337/371/279 172/325/279
f 1/313/280 350/372/280 8/348/280
f 26/350/281 335/373/281 36/322/281
f 108/374/282 332/375/282 116/316/282
f 156/356/283 356/376/283 164/370/283
f 237/306/284 341/377/284 245/331/284
f 100/347/285 357/378/285 108/374/285
f 44/324/286 347/379/286 52/342/286
f 181/327/287 342/380/287 189/381/287
f 124/382/288 343/336/288 132/383/288
f 290/384/289 282/385/289 274/386/289
f 308/387/290 5/388/290 307/389/290
f 14/390/291 315/391/291 314/392/291
f 7/393/292 308/394/292 309/394/292
f 14/395/293 314/396/293 306/397/293
f 17/398/294 5/399/294 7/400/294
f 24/401/290 312/402/290 310/403/290
f 29/404/291 313/405/291 31/406/291
f 312/407/289 31/408/289 313/409/289
f 29/410/295 310/411/295 311/412/295
f 24/413/296 31/414/296 25/415/296
f 4/416/296 322/417/296 6/418/296
f 10/419/294 325/420/294 324/421/294
f 6/422/289 322/423/289 323/423/289
f 10/424/297 324/425/297 320/426/297
f 12/427/290 4/428/290 6/429/290
f 16/430/296 318/431/296 316/432/296
f 319/433/294 22/434/294 317/435/294
f 318/436/289 23/437/289 319/438/289
f 22/439/298 316/440/298 317/441/298
f 16/442/291 23/443/291 18/444/291
f 302/445/289 326/446/289 301/447/289
f 298/448/289 328/449/289 297/450/289
f 274/451/289 331/452/289 305/453/289
f 287/454/289 333/455/289 332/456/289
f 304/457/289 331/452/289 334/458/289
f 277/459/289 336/460/289 335/461/289
f 295/462/289 337/463/289 294/464/289
f 280/465/289 340/466/289 339/467/289
f 304/457/289 341/468/289 303/469/289
f 296/470/289 328/449/289 342/471/289
f 289/472/289 344/473/289 343/474/289
f 282/475/289 346/476/289 345/477/289
f 280/465/289 347/478/289 279/479/289
f 284/480/289 349/481/289 348/482/289
f 276/483/289 350/484/289 275/485/289
f 300/486/289 352/487/289 299/488/289
f 291/489/289 355/490/289 354/491/289
f 282/475/289 340/466/289 281/492/289
f 298/448/289 352/487/289 329/493/289
f 291/489/289 344/473/289 290/494/289
f 284/480/289 346/476/289 283/495/289
f 300/486/289 326/446/289 353/496/289
f 293/497/289 337/463/289 356/498/289
f 274/451/289 350/484/289 330/499/289
f 277/459/289 351/500/289 276/483/289
f 286/501/289 332/456/289 357/502/289
f 293/497/289 355/490/289 292/503/289
f 303/469/289 327/504/289 302/445/289
f 286/501/289 349/481/289 285/505/289
f 278/506/289 347/478/289 336/460/289
f 296/470/289 338/507/289 295/462/289
f 289/472/289 333/455/289 288/508/289
f 2/1/1 9/17/1 11/2/1
f 269/3/2 11/2/2 13/4/2
f 3/5/3 13/4/3 15/6/3
f 270/8/4 15/23/4 19/9/4
f 271/10/5 19/9/5 20/11/5
f 272/12/6 20/11/6 21/13/6
f 1/16/299 8/18/299 9/17/299
f 8/18/9 26/31/9 27/19/9
f 9/17/10 27/19/10 28/20/10
f 13/4/11 11/2/11 28/20/11
f 15/6/12 13/4/12 30/21/12
f 15/23/13 32/27/13 33/24/13
f 20/11/14 19/9/14 33/24/14
f 20/11/15 34/25/15 35/26/15
f 32/27/17 40/39/17 41/28/17
f 34/25/18 33/24/18 41/28/18
f 35/26/300 34/25/300 42/29/300
f 26/31/21 36/43/21 37/32/21
f 27/19/22 37/32/22 38/33/22
f 30/21/23 28/20/23 38/33/23
f 30/21/24 39/34/24 40/35/24
f 37/32/25 45/44/25 46/36/25
f 39/34/26 38/33/26 46/36/26
f 39/34/27 47/37/27 48/38/27
f 40/39/28 48/509/28 49/40/28
f 41/28/29 49/40/29 50/41/29
f 43/30/30 42/29/30 50/41/30
f 36/43/32 44/48/32 45/44/32
f 50/41/33 49/40/33 57/45/33
f 50/41/301 58/46/301 59/47/301
f 44/48/36 52/61/36 53/49/36
f 45/44/37 53/49/37 54/50/37
f 47/37/38 46/36/38 54/50/38
f 47/37/39 55/51/39 56/52/39
f 49/40/40 48/509/40 56/53/40
f 53/49/41 61/62/41 62/54/41
f 55/51/42 54/50/42 62/54/42
f 55/51/43 63/55/43 64/56/43
f 57/45/44 56/53/44 64/57/44
f 57/45/302 65/58/302 66/59/302
f 59/47/303 58/46/303 66/59/303
f 52/61/48 60/510/48 61/62/48
f 66/59/304 65/58/304 73/63/304
f 66/59/50 74/64/50 75/65/50
f 60/66/52 68/83/52 69/67/52
f 61/68/53 69/67/53 70/69/53
f 63/71/54 62/70/54 70/69/54
f 63/71/55 71/72/55 72/73/55
f 65/58/56 64/57/56 72/75/56
f 71/72/57 70/69/57 78/76/57
f 71/72/58 79/77/58 80/78/58
f 73/63/59 72/75/59 80/79/59
f 74/64/60 73/63/60 81/80/60
f 75/65/305 74/64/305 82/81/305
f 68/83/306 76/86/306 77/84/306
f 69/67/64 77/84/64 78/76/64
f 82/81/307 90/93/307 91/85/307
f 76/86/308 84/99/308 85/87/308
f 77/84/68 85/87/68 86/88/68
f 79/77/69 78/76/69 86/88/69
f 79/77/70 87/89/70 88/90/70
f 81/80/71 80/79/71 88/91/71
f 81/80/72 89/92/72 90/93/72
f 87/89/73 95/102/73 96/94/73
f 89/92/74 88/91/74 96/95/74
f 90/93/309 89/92/309 97/96/309
f 91/85/310 90/93/310 98/97/310
f 84/99/78 92/104/78 93/100/78
f 85/87/79 93/100/79 94/101/79
f 87/89/80 86/88/80 94/101/80
f 92/104/311 100/117/311 101/105/311
f 93/100/83 101/105/83 102/106/83
f 95/102/84 94/101/84 102/106/84
f 95/102/85 103/107/85 104/108/85
f 97/96/86 96/95/86 104/109/86
f 98/97/312 97/96/312 105/110/312
f 99/98/88 98/97/88 106/111/88
f 103/107/89 111/120/89 112/112/89
f 105/110/90 104/109/90 112/113/90
f 105/110/91 113/114/91 114/115/91
f 106/111/313 114/115/313 115/116/313
f 100/117/94 108/122/94 109/118/94
f 101/105/95 109/118/95 110/119/95
f 103/107/96 102/106/96 110/119/96
f 108/122/98 116/134/98 117/123/98
f 109/118/99 117/123/99 118/124/99
f 111/120/100 110/119/100 118/124/100
f 111/120/101 119/125/101 120/126/101
f 113/114/102 112/113/102 120/127/102
f 114/115/103 113/114/103 121/128/103
f 115/116/104 114/115/104 122/129/104
f 121/128/105 120/127/105 128/130/105
f 122/129/314 121/128/314 129/131/314
f 123/121/315 122/129/315 130/132/315
f 116/134/316 124/511/316 125/135/316
f 117/123/110 125/135/110 126/136/110
f 119/125/111 118/124/111 126/136/111
f 119/125/112 127/137/112 128/138/112
f 124/139/113 132/156/113 133/140/113
f 125/141/114 133/140/114 134/142/114
f 127/144/115 126/143/115 134/142/115
f 127/144/116 135/145/116 136/146/116
f 129/131/117 128/130/117 136/148/117
f 130/132/118 129/131/118 137/149/118
f 131/133/119 130/132/119 138/150/119
f 137/149/317 136/148/317 144/152/317
f 137/149/122 145/153/122 146/154/122
f 139/151/318 138/150/318 146/154/318
f 132/156/125 140/168/125 141/157/125
f 133/140/126 141/157/126 142/158/126
f 135/145/127 134/142/127 142/158/127
f 135/145/128 143/159/128 144/160/128
f 141/157/129 149/169/129 150/161/129
f 143/159/130 142/158/130 150/161/130
f 143/159/131 151/162/131 152/163/131
f 145/153/319 144/152/319 152/164/319
f 145/153/133 153/165/133 154/166/133
f 146/154/134 154/166/134 155/167/134
f 140/168/320 148/172/320 149/169/320
f 153/165/137 161/178/137 162/170/137
f 154/166/138 162/170/138 163/171/138
f 148/172/140 156/187/140 157/173/140
f 149/169/141 157/173/141 158/174/141
f 151/162/142 150/161/142 158/174/142
f 151/162/143 159/175/143 160/176/143
f 153/165/144 152/164/144 160/177/144
f 159/175/145 158/174/145 166/179/145
f 159/175/146 167/180/146 168/181/146
f 161/182/147 160/176/147 168/181/147
f 162/170/321 161/178/321 169/184/321
f 162/170/322 170/185/322 171/186/322
f 156/187/151 164/191/151 165/188/151
f 157/173/152 165/188/152 166/179/152
f 171/186/323 170/185/323 178/189/323
f 164/191/155 172/205/155 173/192/155
f 165/188/156 173/192/156 174/193/156
f 167/180/157 166/179/157 174/193/157
f 167/180/158 175/194/158 176/195/158
f 169/184/159 168/512/159 176/196/159
f 169/184/160 177/197/160 178/189/160
f 175/194/161 174/193/161 183/198/161
f 175/194/162 184/199/162 185/200/162
f 177/197/163 176/196/163 185/201/163
f 177/197/164 186/202/164 187/203/164
f 178/189/324 187/203/324 188/204/324
f 172/205/167 181/209/167 182/206/167
f 173/192/168 182/206/168 183/198/168
f 188/204/169 187/203/169 195/207/169
f 181/209/171 189/513/171 190/210/171
f 182/206/172 190/210/172 191/211/172
f 184/199/173 183/198/173 191/211/173
f 184/199/174 192/212/174 193/213/174
f 185/201/175 193/514/175 194/214/175
f 186/202/325 194/214/325 195/207/325
f 192/215/177 200/227/177 201/216/177
f 194/214/178 193/514/178 201/218/178
f 194/214/179 202/219/179 203/220/179
f 196/208/326 195/207/326 203/220/326
f 189/222/182 197/229/182 198/223/182
f 190/224/183 198/223/183 199/225/183
f 192/215/184 191/226/184 199/225/184
f 197/229/186 205/241/186 206/230/186
f 198/223/187 206/230/187 207/231/187
f 200/227/188 199/225/188 207/231/188
f 200/227/189 208/232/189 209/233/189
f 202/219/327 201/218/327 209/234/327
f 203/220/191 202/219/191 210/235/191
f 204/221/328 203/220/328 211/236/328
f 208/232/193 216/244/193 217/237/193
f 209/234/194 217/515/194 218/238/194
f 210/235/195 218/238/195 219/239/195
f 211/236/329 219/239/329 220/240/329
f 205/241/198 213/246/198 214/242/198
f 206/230/199 214/242/199 215/243/199
f 208/232/200 207/231/200 215/243/200
f 213/246/202 221/259/202 222/247/202
f 214/242/203 222/247/203 223/248/203
f 216/244/204 215/243/204 223/248/204
f 216/244/205 224/249/205 225/250/205
f 218/251/206 217/237/206 225/250/206
f 218/238/330 226/516/330 227/253/330
f 219/239/331 227/253/331 228/245/331
f 226/252/209 225/250/209 233/254/209
f 227/253/210 226/516/210 234/256/210
f 228/245/332 227/253/332 235/257/332
f 221/259/333 229/270/333 230/260/333
f 222/247/214 230/260/214 231/261/214
f 224/249/215 223/248/215 231/261/215
f 224/249/216 232/262/216 233/254/216
f 230/260/217 238/271/217 239/263/217
f 232/262/218 231/261/218 239/263/218
f 233/254/219 232/262/219 240/264/219
f 234/256/220 233/517/220 241/266/220
f 234/256/221 242/267/221 243/268/221
f 236/258/334 235/257/334 243/268/334
f 229/270/224 237/274/224 238/271/224
f 242/267/225 250/280/225 251/272/225
f 243/268/335 251/272/335 252/273/335
f 237/274/228 245/288/228 246/275/228
f 238/271/229 246/275/229 247/276/229
f 240/264/230 239/263/230 247/276/230
f 240/264/231 248/277/231 249/278/231
f 242/267/232 241/266/232 249/279/232
f 246/275/233 254/289/233 255/281/233
f 248/277/234 247/276/234 255/281/234
f 248/277/235 256/282/235 257/283/235
f 250/280/236 249/279/236 257/284/236
f 250/280/336 258/285/336 259/286/336
f 252/273/337 251/272/337 259/286/337
f 245/288/338 253/518/338 254/289/338
f 259/286/241 258/285/241 266/290/241
f 260/287/242 259/286/242 267/291/242
f 253/293/244 261/303/244 262/294/244
f 254/295/245 262/294/245 263/296/245
f 256/298/246 255/297/246 263/296/246
f 256/298/247 264/299/247 265/300/247
f 258/285/248 257/284/248 265/302/248
f 263/296/249 269/3/249 3/5/249
f 264/299/250 3/5/250 270/7/250
f 266/290/339 265/302/339 270/8/339
f 266/290/252 271/10/252 272/12/252
f 267/291/340 272/12/340 273/14/340
f 261/303/255 1/16/255 2/1/255
f 262/294/256 2/1/256 269/3/256
f 229/304/257 326/369/257 327/305/257
f 307/307/341 306/519/341 205/520/341
f 205/520/258 197/335/258 307/307/258
f 197/335/258 328/308/258 307/307/258
f 328/308/258 329/521/258 308/309/258
f 329/521/341 309/522/341 308/309/341
f 319/310/259 331/320/259 330/311/259
f 316/315/342 318/312/342 330/311/342
f 1/313/259 261/321/259 317/314/259
f 261/321/259 331/320/259 317/314/259
f 331/320/259 319/310/259 317/314/259
f 316/315/291 330/311/291 1/313/291
f 116/316/260 332/375/260 333/317/260
f 253/319/261 334/523/261 331/320/261
f 36/322/262 335/373/262 336/323/262
f 172/325/263 337/371/263 338/326/263
f 60/328/264 339/524/264 340/329/264
f 245/331/265 341/377/265 334/332/265
f 189/334/266 342/525/266 328/308/266
f 320/338/290 140/526/290 321/338/290
f 140/526/267 132/383/267 321/338/267
f 132/383/267 343/336/267 321/338/267
f 343/336/267 344/527/267 322/337/267
f 344/527/290 323/528/290 322/337/290
f 76/339/268 345/358/268 346/340/268
f 52/342/269 347/379/269 339/343/269
f 92/345/270 348/368/270 349/346/270
f 8/348/271 350/372/271 351/349/271
f 213/351/272 352/362/272 353/352/272
f 148/354/273 354/365/273 355/355/273
f 313/357/274 340/329/274 345/358/274
f 312/359/296 345/358/296 310/361/296
f 345/358/296 76/339/296 310/361/296
f 76/339/274 68/330/274 311/360/274
f 68/330/274 340/329/274 311/360/274
f 340/329/274 313/357/274 311/360/274
f 315/364/275 309/522/275 329/521/275
f 352/362/275 213/351/275 314/363/275
f 213/351/275 205/520/275 314/363/275
f 205/520/275 306/519/275 314/363/275
f 315/364/275 329/521/275 352/362/275
f 323/528/276 344/527/276 325/367/276
f 344/527/276 354/365/276 325/367/276
f 354/365/276 148/354/276 324/366/276
f 148/354/276 140/526/276 324/366/276
f 140/526/276 320/338/276 324/366/276
f 84/341/277 346/340/277 348/368/277
f 221/353/278 353/352/278 326/369/278
f 164/370/279 356/376/279 337/371/279
f 1/313/280 330/311/280 350/372/280
f 26/350/281 351/349/281 335/373/281
f 108/374/282 357/378/282 332/375/282
f 156/356/283 355/355/283 356/376/283
f 237/306/284 327/305/284 341/377/284
f 100/347/285 349/346/285 357/378/285
f 44/324/286 336/323/286 347/379/286
f 181/327/287 338/326/287 342/380/287
f 124/382/288 333/529/288 343/336/288
f 274/386/289 305/530/289 302/531/289
f 305/530/289 304/532/289 302/531/289
f 304/532/289 303/533/289 302/531/289
f 302/531/289 301/534/289 300/535/289
f 300/535/289 299/536/289 302/531/289
f 299/536/289 298/537/289 302/531/289
f 298/537/289 297/538/289 294/539/289
f 297/538/289 296/540/289 294/539/289
f 296/540/289 295/541/289 294/539/289
f 294/539/289 293/542/289 292/543/289
f 292/543/289 291/544/289 290/384/289
f 290/384/289 289/545/289 288/546/289
f 288/546/289 287/547/289 286/548/289
f 286/548/289 285/549/289 284/550/289
f 284/550/289 283/551/289 282/385/289
f 282/385/289 281/552/289 280/553/289
f 280/553/289 279/554/289 278/555/289
f 278/555/289 277/556/289 276/557/289
f 276/557/289 275/558/289 278/555/289
f 275/558/289 274/386/289 278/555/289
f 294/539/289 292/543/289 290/384/289
f 290/384/289 288/546/289 286/548/289
f 286/548/289 284/550/289 290/384/289
f 284/550/289 282/385/289 290/384/289
f 282/385/289 280/553/289 274/386/289
f 280/553/289 278/555/289 274/386/289
f 274/386/289 302/531/289 290/384/289
f 302/531/289 298/537/289 290/384/289
f 298/537/289 294/539/289 290/384/289
f 308/387/290 7/559/290 5/388/290
f 14/390/291 17/560/291 315/391/291
f 309/394/289 315/561/289 17/562/289
f 17/562/289 7/393/289 309/394/289
f 306/397/343 307/563/343 5/564/343
f 5/564/293 14/395/293 306/397/293
f 17/398/294 14/565/294 5/399/294
f 24/401/290 25/566/290 312/402/290
f 29/404/291 311/567/291 313/405/291
f 312/407/289 25/568/289 31/408/289
f 29/410/295 24/569/295 310/411/295
f 24/413/296 29/570/296 31/414/296
f 4/416/296 321/571/296 322/417/296
f 10/419/294 12/572/294 325/420/294
f 325/573/289 12/574/289 323/423/289
f 12/574/289 6/422/289 323/423/289
f 320/426/297 321/426/297 4/575/297
f 4/575/297 10/424/297 320/426/297
f 12/427/290 10/576/290 4/428/290
f 16/430/296 18/577/296 318/431/296
f 319/433/294 23/578/294 22/434/294
f 318/436/289 18/579/289 23/437/289
f 22/439/298 16/580/298 316/440/298
f 16/442/291 22/581/291 23/443/291
f 302/445/289 327/504/289 326/446/289
f 298/448/289 329/493/289 328/449/289
f 274/451/289 330/499/289 331/452/289
f 287/454/289 288/508/289 333/455/289
f 304/457/289 305/453/289 331/452/289
f 277/459/289 278/506/289 336/460/289
f 295/462/289 338/507/289 337/463/289
f 280/465/289 281/492/289 340/466/289
f 304/457/289 334/458/289 341/468/289
f 296/470/289 297/450/289 328/449/289
f 289/472/289 290/494/289 344/473/289
f 282/475/289 283/495/289 346/476/289
f 280/465/289 339/467/289 347/478/289
f 284/480/289 285/505/289 349/481/289
f 276/483/289 351/500/289 350/484/289
f 300/486/289 353/496/289 352/487/289
f 291/489/289 292/503/289 355/490/289
f 282/475/289 345/477/289 340/466/289
f 298/448/289 299/488/289 352/487/289
f 291/489/289 354/491/289 344/473/289
f 284/480/289 348/482/289 346/476/289
f 300/486/289 301/447/289 326/446/289
f 293/497/289 294/464/289 337/463/289
f 274/451/289 275/485/289 350/484/289
f 277/459/289 335/461/289 351/500/289
f 286/501/289 287/454/289 332/456/289
f 293/497/289 356/498/289 355/490/289
f 303/469/289 341/468/289 327/504/289
f 286/501/289 357/502/289 349/481/289
f 278/506/289 279/479/289 347/478/289
f 296/470/289 342/471/289 338/507/289
f 289/472/289 343/474/289 333/455/289
