# Blender 4.5.2 LTS
# www.blender.org
mtllib ball.mtl
o 球
v -0.000017 277.785156 415.734772
v -0.000017 191.341751 461.939758
v -0.000017 -277.785095 415.734833
v 25.246529 490.392639 94.221344
v 49.522865 461.939758 184.821854
v 71.896065 415.734833 268.319794
v 91.506332 353.553406 341.506287
v 107.600067 277.785156 401.568939
v 119.558792 191.341751 446.199524
v 126.922935 97.545197 473.682892
v 129.409500 0.000035 482.962921
v 126.922935 -97.545120 473.682892
v 119.558792 -191.341690 446.199524
v 107.600067 -277.785095 401.569000
v 91.506332 -353.553345 341.506348
v 71.896065 -415.734772 268.319855
v 49.522865 -461.939758 184.821915
v 25.246529 -490.392639 94.221420
v 48.772564 490.392639 84.476547
v 95.670853 461.939758 165.706726
v 138.892548 415.734833 240.568893
v 176.776657 353.553406 306.186157
v 207.867386 277.785156 360.036835
v 230.969864 191.341751 400.051544
v 245.196304 97.545189 424.692413
v 249.999985 0.000032 433.012695
v 245.196304 -97.545128 424.692413
v 230.969864 -191.341690 400.051544
v 207.867386 -277.785095 360.036896
v 176.776657 -353.553345 306.186218
v 138.892548 -415.734772 240.568954
v 95.670853 -461.939758 165.706787
v 48.772564 -490.392639 84.476624
v 68.974831 490.392639 68.974800
v 135.299011 461.939758 135.298965
v 196.423721 415.734802 196.423660
v 249.999954 353.553406 249.999924
v 293.968842 277.785156 293.968811
v 326.640686 191.341751 326.640686
v 346.759888 97.545181 346.759888
v 353.553345 0.000026 353.553345
v 346.759888 -97.545135 346.759888
v 326.640686 -191.341690 326.640686
v 293.968842 -277.785095 293.968872
v 249.999954 -353.553345 249.999985
v 196.423721 -415.734802 196.423721
v 135.299011 -461.939758 135.299026
v 68.974831 -490.392639 68.974876
v 84.476570 490.392639 48.772526
v 165.706772 461.939758 95.670807
v 240.568954 415.734802 138.892487
v 306.186127 353.553375 176.776611
v 360.036865 277.785156 207.867325
v 400.051514 191.341736 230.969803
v 424.692383 97.545174 245.196243
v 433.012634 0.000018 249.999924
v 424.692383 -97.545143 245.196243
v 400.051514 -191.341705 230.969833
v 360.036865 -277.785095 207.867355
v 306.186127 -353.553375 176.776672
v 240.568954 -415.734802 138.892548
v 165.706772 -461.939758 95.670883
v 84.476570 -490.392639 48.772602
v 94.221367 490.392639 25.246494
v 184.821884 461.939758 49.522820
v 268.319794 415.734802 71.896027
v 341.506287 353.553375 91.506310
v 401.568909 277.785126 107.600029
v 446.199463 191.341736 119.558762
v 473.682800 97.545166 126.922882
v 482.962830 0.000009 129.409470
v 473.682800 -97.545151 126.922897
v 446.199463 -191.341705 119.558792
v 401.568909 -277.785126 107.600075
v 341.506287 -353.553375 91.506355
v 268.319794 -415.734802 71.896088
v 184.821884 -461.939758 49.522888
v 94.221367 -490.392639 25.246567
v 97.545143 490.392639 -0.000049
v 191.341690 461.939758 -0.000058
v 277.785065 415.734802 -0.000069
v 353.553284 353.553375 -0.000035
v 415.734741 277.785126 -0.000059
v 461.939667 191.341721 -0.000044
v 490.392487 97.545158 -0.000030
v 499.999878 -0.000001 -0.000030
v 490.392487 -97.545158 -0.000016
v 461.939667 -191.341721 -0.000016
v 415.734741 -277.785126 -0.000017
v 353.553284 -353.553375 0.000019
v 277.785065 -415.734802 -0.000007
v 191.341690 -461.939758 0.000012
v 97.545143 -490.392639 0.000025
v 94.221367 490.392639 -25.246593
v 184.821869 461.939758 -49.522938
v 268.319763 415.734802 -71.896126
v 341.506256 353.553375 -91.506355
v 401.568909 277.785126 -107.600128
v 446.199432 191.341705 -119.558823
v 473.682770 97.545151 -126.922958
v 482.962799 -0.000011 -129.409531
v 473.682770 -97.545166 -126.922943
v 446.199432 -191.341736 -119.558792
v 401.568909 -277.785126 -107.600082
v 341.506256 -353.553375 -91.506310
v 268.319763 -415.734802 -71.896065
v 184.821869 -461.939758 -49.522869
v 94.221367 -490.392639 -25.246521
v 84.476570 490.392639 -48.772629
v 165.706741 461.939758 -95.670898
v 240.568909 415.734802 -138.892624
v 306.186096 353.553375 -176.776703
v 360.036835 277.785095 -207.867462
v 400.051453 191.341705 -230.969910
v 424.692352 97.545143 -245.196289
v 433.012573 -0.000020 -250.000000
v 424.692352 -97.545174 -245.196289
v 400.051453 -191.341736 -230.969879
v 360.036835 -277.785156 -207.867432
v 306.186096 -353.553375 -176.776642
v 240.568909 -415.734802 -138.892563
v 165.706741 -461.939758 -95.670822
v 84.476570 -490.392639 -48.772552
v 68.974823 490.392639 -68.974884
v 135.298981 461.939758 -135.299072
v 196.423676 415.734802 -196.423782
v 249.999908 353.553345 -249.999985
v 293.968811 277.785095 -293.968933
v 326.640594 191.341690 -326.640686
v 346.759857 97.545135 -346.759857
v 353.553253 -0.000028 -353.553314
v 346.759857 -97.545181 -346.759857
v 326.640594 -191.341751 -326.640686
v 293.968811 -277.785156 -293.968872
v 249.999908 -353.553406 -249.999924
v 196.423676 -415.734802 -196.423721
v 135.298981 -461.939758 -135.299011
v 68.974823 -490.392639 -68.974808
v 48.772556 490.392639 -84.476624
v 95.670815 461.939758 -165.706818
v 138.892502 415.734772 -240.569000
v 176.776627 353.553345 -306.186127
v 207.867310 277.785095 -360.036926
v 230.969788 191.341690 -400.051514
v 245.196274 97.545128 -424.692352
v 249.999893 -0.000034 -433.012604
v 245.196274 -97.545189 -424.692352
v 230.969788 -191.341751 -400.051514
v 207.867310 -277.785156 -360.036865
v 176.776627 -353.553406 -306.186066
v 138.892502 -415.734833 -240.568939
v 95.670815 -461.939758 -165.706757
v 48.772556 -490.392639 -84.476547
v 25.246525 490.392639 -94.221420
v 49.522839 461.939758 -184.821930
v 71.896034 415.734772 -268.319824
v 91.506310 353.553345 -341.506256
v 107.599991 277.785095 -401.568970
v 119.558731 191.341690 -446.199432
v 126.922951 97.545120 -473.682770
v 129.409454 -0.000037 -482.962799
v 126.922951 -97.545197 -473.682770
v 119.558731 -191.341751 -446.199432
v 107.599991 -277.785156 -401.568909
v 91.506310 -353.553406 -341.506195
v 71.896034 -415.734833 -268.319763
v 49.522839 -461.939758 -184.821869
v 25.246525 -490.392639 -94.221344
v -0.000017 490.392639 -97.545189
v -0.000032 461.939758 -191.341751
v -0.000047 415.734772 -277.785095
v -0.000003 353.553345 -353.553253
v -0.000092 277.785095 -415.734772
v -0.000055 191.341690 -461.939636
v 0.000035 97.545120 -490.392517
v -0.000047 -0.000039 -499.999847
v 0.000035 -97.545197 -490.392517
v -0.000055 -191.341751 -461.939636
v -0.000092 -277.785156 -415.734711
v -0.000003 -353.553406 -353.553192
v -0.000047 -415.734833 -277.785034
v -0.000032 -461.939758 -191.341690
v -0.000017 -490.392639 -97.545113
v -25.246559 490.392639 -94.221420
v -49.522907 461.939758 -184.821930
v -71.896103 415.734772 -268.319794
v -91.506310 353.553345 -341.506226
v -107.600159 277.785095 -401.568909
v -119.558823 191.341690 -446.199402
v -126.922890 97.545120 -473.682800
v -129.409515 -0.000037 -482.962769
v -126.922890 -97.545197 -473.682800
v -119.558823 -191.341751 -446.199402
v -107.600159 -277.785156 -401.568848
v -91.506310 -353.553406 -341.506165
v -71.896103 -415.734833 -268.319733
v -49.522907 -461.939758 -184.821869
v -25.246559 -490.392639 -94.221344
v -0.000017 500.000000 -0.000053
v -48.772591 490.392639 -84.476624
v -95.670868 461.939758 -165.706818
v -138.892578 415.734772 -240.568954
v -176.776596 353.553345 -306.186066
v -207.867462 277.785095 -360.036835
v -230.969864 191.341690 -400.051422
v -245.196228 97.545128 -424.692383
v -249.999954 -0.000034 -433.012543
v -245.196228 -97.545189 -424.692383
v -230.969864 -191.341751 -400.051422
v -207.867462 -277.785156 -360.036774
v -176.776596 -353.553406 -306.186005
v -138.892578 -415.734833 -240.568893
v -95.670868 -461.939758 -165.706757
v -48.772591 -490.392639 -84.476547
v -0.000017 -500.000000 0.000023
v -68.974854 490.392639 -68.974876
v -135.299026 461.939758 -135.299057
v -196.423721 415.734802 -196.423721
v -249.999863 353.553345 -249.999908
v -293.968933 277.785095 -293.968842
v -326.640686 191.341690 -326.640564
v -346.759857 97.545135 -346.759888
v -353.553314 -0.000028 -353.553223
v -346.759857 -97.545181 -346.759888
v -326.640686 -191.341751 -326.640564
v -293.968933 -277.785156 -293.968781
v -249.999863 -353.553406 -249.999847
v -196.423721 -415.734802 -196.423660
v -135.299026 -461.939758 -135.298996
v -68.974854 -490.392639 -68.974800
v -84.476593 490.392639 -48.772621
v -165.706772 461.939758 -95.670876
v -240.568939 415.734802 -138.892563
v -306.186035 353.553375 -176.776642
v -360.036926 277.785095 -207.867340
v -400.051514 191.341705 -230.969803
v -424.692352 97.545143 -245.196320
v -433.012573 -0.000020 -249.999878
v -424.692352 -97.545174 -245.196320
v -400.051514 -191.341736 -230.969772
v -360.036926 -277.785156 -207.867310
v -306.186035 -353.553375 -176.776581
v -240.568939 -415.734802 -138.892502
v -165.706772 -461.939758 -95.670799
v -84.476593 -490.392639 -48.772545
v -94.221382 490.392639 -25.246588
v -184.821884 461.939758 -49.522911
v -268.319794 415.734802 -71.896072
v -341.506165 353.553375 -91.506332
v -401.568970 277.785126 -107.600006
v -446.199432 191.341705 -119.558731
v -473.682800 97.545151 -126.923004
v -482.962738 -0.000011 -129.409439
v -473.682800 -97.545166 -126.922989
v -446.199432 -191.341736 -119.558701
v -401.568970 -277.785126 -107.599960
v -341.506165 -353.553375 -91.506287
v -268.319794 -415.734802 -71.896011
v -184.821884 -461.939758 -49.522842
v -94.221382 -490.392639 -25.246515
v -97.545151 490.392639 -0.000047
v -191.341705 461.939758 -0.000036
v -277.785065 415.734802 -0.000017
v -353.553162 353.553375 -0.000057
v -415.734772 277.785126 0.000060
v -461.939636 191.341721 0.000038
v -490.392548 97.545158 -0.000075
v -499.999756 -0.000001 0.000044
v -490.392548 -97.545158 -0.000061
v -461.939636 -191.341721 0.000066
v -415.734772 -277.785126 0.000102
v -353.553162 -353.553375 -0.000003
v -277.785065 -415.734802 0.000045
v -191.341705 -461.939758 0.000034
v -97.545151 -490.392639 0.000027
v -94.221382 490.392639 25.246492
v -184.821884 461.939758 49.522835
v -268.319763 415.734802 71.896042
v -341.506165 353.553375 91.506241
v -401.568909 277.785126 107.600136
v -446.199402 191.341736 119.558807
v -473.682831 97.545166 126.922836
v -482.962646 0.000009 129.409470
v -473.682831 -97.545151 126.922852
v -446.199402 -191.341705 119.558838
v -401.568909 -277.785126 107.600182
v -341.506165 -353.553375 91.506287
v -268.319763 -415.734802 71.896103
v -184.821884 -461.939758 49.522903
v -94.221382 -490.392639 25.246565
v -84.476585 490.392639 48.772518
v -165.706772 461.939758 95.670815
v -240.568878 415.734802 138.892471
v -306.186035 353.553375 176.776505
v -360.036835 277.785156 207.867416
v -400.051392 191.341736 230.969803
v -424.692413 97.545174 245.196182
v -433.012451 0.000018 249.999878
v -424.692413 -97.545143 245.196182
v -400.051392 -191.341705 230.969833
v -360.036835 -277.785095 207.867447
v -306.186035 -353.553375 176.776566
v -240.568878 -415.734802 138.892532
v -165.706772 -461.939758 95.670891
v -84.476585 -490.392639 48.772594
v -68.974838 490.392639 68.974785
v -135.299011 461.939758 135.298950
v -196.423660 415.734802 196.423615
v -249.999817 353.553406 249.999756
v -293.968842 277.785156 293.968872
v -326.640533 191.341751 326.640656
v -346.759918 97.545181 346.759827
v -353.553162 0.000026 353.553223
v -346.759918 -97.545135 346.759827
v -326.640533 -191.341690 326.640656
v -293.968842 -277.785095 293.968933
v -249.999817 -353.553345 249.999817
v -196.423660 -415.734802 196.423676
v -135.299011 -461.939758 135.299011
v -68.974838 -490.392639 68.974861
v -48.772575 490.392639 84.476517
v -95.670845 461.939758 165.706696
v -138.892502 415.734833 240.568817
v -176.776566 353.553406 306.185974
v -207.867310 277.785156 360.036865
v -230.969711 191.341751 400.051453
v -245.196304 97.545189 424.692322
v -249.999832 0.000032 433.012482
v -245.196304 -97.545128 424.692322
v -230.969711 -191.341690 400.051453
v -207.867310 -277.785095 360.036926
v -176.776566 -353.553345 306.186035
v -138.892502 -415.734772 240.568878
v -95.670845 -461.939758 165.706757
v -48.772575 -490.392639 84.476593
v -25.246548 490.392639 94.221306
v -49.522877 461.939758 184.821808
v -71.896049 415.734833 268.319672
v -91.506279 353.553406 341.506042
v -107.599991 277.785156 401.568909
v -119.558670 191.341751 446.199371
v -126.922981 97.545197 473.682770
v -129.409424 0.000035 482.962677
v -126.922981 -97.545120 473.682770
v -119.558670 -191.341690 446.199371
v -107.599991 -277.785095 401.568970
v -91.506279 -353.553345 341.506104
v -71.896049 -415.734772 268.319733
v -49.522877 -461.939758 184.821869
v -25.246548 -490.392639 94.221382
v -0.000012 490.392639 97.545082
v -0.000003 461.939758 191.341629
v -0.000003 415.734833 277.784943
v -0.000010 353.553406 353.553070
v -0.000070 97.545197 490.392517
v 0.000035 0.000037 499.999695
v -0.000070 -97.545120 490.392517
v 0.000087 -191.341690 461.939514
v -0.000010 -353.553345 353.553131
v -0.000003 -415.734772 277.785004
v -0.000003 -461.939758 191.341690
v -0.000012 -490.392639 97.545158
vn -0.1012 0.6311 -0.7690
vn -0.1012 -0.6311 -0.7690
vn -0.0832 0.7703 -0.6322
vn -0.1153 -0.4683 -0.8760
vn -0.0619 0.8802 -0.4705
vn -0.1250 -0.2880 -0.9494
vn -0.0382 0.9562 -0.2901
vn -0.1299 -0.0972 -0.9868
vn -0.0129 -0.9951 -0.0980
vn -0.0129 0.9951 -0.0980
vn -0.1299 0.0972 -0.9868
vn -0.0382 -0.9562 -0.2901
vn -0.1250 0.2880 -0.9494
vn -0.0619 -0.8802 -0.4705
vn -0.1153 0.4683 -0.8760
vn -0.1153 0.4682 -0.8760
vn -0.0832 -0.7703 -0.6322
vn -0.3381 0.4683 -0.8163
vn -0.2440 -0.7703 -0.5891
vn -0.2968 0.6311 -0.7166
vn -0.2968 -0.6311 -0.7166
vn -0.2440 0.7703 -0.5891
vn -0.3381 -0.4683 -0.8163
vn -0.1816 0.8802 -0.4384
vn -0.3665 -0.2880 -0.8847
vn -0.1120 0.9562 -0.2703
vn -0.3809 -0.0972 -0.9195
vn -0.0378 -0.9951 -0.0913
vn -0.0378 0.9951 -0.0913
vn -0.3809 0.0972 -0.9195
vn -0.1120 -0.9562 -0.2703
vn -0.3665 0.2880 -0.8847
vn -0.1816 -0.8802 -0.4384
vn -0.1781 0.9562 -0.2321
vn -0.6059 -0.0972 -0.7896
vn -0.0602 -0.9951 -0.0784
vn -0.0602 0.9951 -0.0784
vn -0.6059 0.0972 -0.7896
vn -0.1781 -0.9562 -0.2321
vn -0.5830 0.2880 -0.7597
vn -0.2889 -0.8802 -0.3765
vn -0.5379 0.4683 -0.7010
vn -0.3882 -0.7703 -0.5059
vn -0.4722 0.6311 -0.6154
vn -0.4722 -0.6311 -0.6154
vn -0.3882 0.7703 -0.5059
vn -0.5379 -0.4683 -0.7010
vn -0.2889 0.8802 -0.3765
vn -0.5830 -0.2880 -0.7597
vn -0.5059 -0.7703 -0.3882
vn -0.6154 0.6311 -0.4722
vn -0.6154 -0.6311 -0.4722
vn -0.5059 0.7703 -0.3882
vn -0.7010 -0.4683 -0.5379
vn -0.3765 0.8802 -0.2889
vn -0.7597 -0.2880 -0.5830
vn -0.2321 0.9562 -0.1781
vn -0.7896 -0.0972 -0.6059
vn -0.0784 -0.9951 -0.0602
vn -0.0784 0.9951 -0.0602
vn -0.7896 0.0972 -0.6059
vn -0.2321 -0.9562 -0.1781
vn -0.7597 0.2880 -0.5830
vn -0.3765 -0.8802 -0.2889
vn -0.7010 0.4683 -0.5379
vn -0.9195 -0.0972 -0.3809
vn -0.0913 -0.9951 -0.0378
vn -0.0913 0.9951 -0.0378
vn -0.9195 0.0972 -0.3809
vn -0.2703 -0.9562 -0.1120
vn -0.8847 0.2880 -0.3665
vn -0.4384 -0.8802 -0.1816
vn -0.8163 0.4683 -0.3381
vn -0.5891 -0.7703 -0.2440
vn -0.7166 0.6311 -0.2968
vn -0.7166 -0.6311 -0.2968
vn -0.5891 0.7703 -0.2440
vn -0.8163 -0.4683 -0.3381
vn -0.4384 0.8802 -0.1816
vn -0.8847 -0.2880 -0.3665
vn -0.2703 0.9562 -0.1120
vn -0.7690 0.6311 -0.1012
vn -0.7690 -0.6311 -0.1012
vn -0.6322 0.7703 -0.0832
vn -0.8760 -0.4683 -0.1153
vn -0.4705 0.8802 -0.0619
vn -0.9494 -0.2880 -0.1250
vn -0.2901 0.9562 -0.0382
vn -0.9868 -0.0972 -0.1299
vn -0.0980 -0.9951 -0.0129
vn -0.0980 0.9951 -0.0129
vn -0.9868 0.0972 -0.1299
vn -0.2901 -0.9562 -0.0382
vn -0.9494 0.2880 -0.1250
vn -0.4705 -0.8802 -0.0619
vn -0.8760 0.4683 -0.1153
vn -0.6322 -0.7703 -0.0832
vn -0.0980 0.9951 0.0129
vn -0.9868 0.0972 0.1299
vn -0.2901 -0.9562 0.0382
vn -0.9494 0.2880 0.1250
vn -0.4705 -0.8802 0.0619
vn -0.8760 0.4683 0.1153
vn -0.6322 -0.7703 0.0832
vn -0.7690 0.6311 0.1012
vn -0.7690 -0.6311 0.1012
vn -0.6322 0.7703 0.0832
vn -0.8760 -0.4683 0.1153
vn -0.4705 0.8802 0.0619
vn -0.9494 -0.2880 0.1250
vn -0.2901 0.9562 0.0382
vn -0.9868 -0.0972 0.1299
vn -0.0980 -0.9951 0.0129
vn -0.5891 0.7703 0.2440
vn -0.8163 -0.4683 0.3381
vn -0.4384 0.8802 0.1816
vn -0.8847 -0.2880 0.3665
vn -0.2703 0.9562 0.1120
vn -0.9195 -0.0972 0.3809
vn -0.0913 -0.9951 0.0378
vn -0.0913 0.9951 0.0378
vn -0.9195 0.0972 0.3809
vn -0.2703 -0.9562 0.1120
vn -0.8847 0.2880 0.3665
vn -0.4384 -0.8802 0.1816
vn -0.8163 0.4683 0.3381
vn -0.5891 -0.7703 0.2440
vn -0.7166 0.6311 0.2968
vn -0.7166 -0.6311 0.2968
vn -0.2321 -0.9562 0.1781
vn -0.7597 0.2880 0.5830
vn -0.3765 -0.8802 0.2889
vn -0.7010 0.4683 0.5379
vn -0.5059 -0.7703 0.3882
vn -0.6154 0.6311 0.4722
vn -0.6154 -0.6311 0.4722
vn -0.5059 0.7703 0.3882
vn -0.7010 -0.4683 0.5379
vn -0.3765 0.8802 0.2889
vn -0.7597 -0.2880 0.5830
vn -0.2321 0.9562 0.1781
vn -0.7896 -0.0972 0.6059
vn -0.0784 -0.9951 0.0602
vn -0.0784 0.9951 0.0602
vn -0.7896 0.0972 0.6059
vn -0.5379 -0.4683 0.7010
vn -0.2889 0.8802 0.3765
vn -0.5830 -0.2880 0.7597
vn -0.1781 0.9562 0.2321
vn -0.6059 -0.0972 0.7896
vn -0.0602 -0.9951 0.0784
vn -0.0602 0.9951 0.0784
vn -0.6059 0.0972 0.7896
vn -0.1781 -0.9562 0.2321
vn -0.5830 0.2880 0.7597
vn -0.2889 -0.8802 0.3765
vn -0.5379 0.4683 0.7010
vn -0.3882 -0.7703 0.5059
vn -0.4722 0.6311 0.6154
vn -0.4722 -0.6311 0.6154
vn -0.3882 0.7703 0.5059
vn -0.3665 0.2880 0.8847
vn -0.1816 -0.8802 0.4384
vn -0.3381 0.4683 0.8163
vn -0.2440 -0.7703 0.5891
vn -0.2968 0.6311 0.7166
vn -0.2968 -0.6311 0.7166
vn -0.2440 0.7703 0.5891
vn -0.3381 -0.4683 0.8163
vn -0.1816 0.8802 0.4384
vn -0.3665 -0.2880 0.8847
vn -0.1120 0.9562 0.2703
vn -0.3809 -0.0972 0.9195
vn -0.0378 -0.9951 0.0913
vn -0.0378 0.9951 0.0913
vn -0.3809 0.0972 0.9195
vn -0.1120 -0.9562 0.2703
vn -0.0619 0.8802 0.4705
vn -0.1250 -0.2880 0.9494
vn -0.0382 0.9562 0.2901
vn -0.1299 -0.0972 0.9868
vn -0.0129 -0.9951 0.0980
vn -0.0129 0.9951 0.0980
vn -0.1299 0.0972 0.9868
vn -0.0382 -0.9562 0.2901
vn -0.1250 0.2880 0.9494
vn -0.0619 -0.8802 0.4705
vn -0.1153 0.4683 0.8760
vn -0.0832 -0.7703 0.6322
vn -0.1012 0.6311 0.7690
vn -0.1012 -0.6311 0.7690
vn -0.0832 0.7703 0.6322
vn -0.1153 -0.4683 0.8760
vn 0.0619 -0.8802 0.4705
vn 0.1153 0.4683 0.8760
vn 0.0832 -0.7703 0.6322
vn 0.1012 0.6311 0.7690
vn 0.1012 -0.6311 0.7690
vn 0.0832 0.7703 0.6322
vn 0.1153 -0.4683 0.8760
vn 0.0619 0.8802 0.4705
vn 0.1250 -0.2880 0.9494
vn 0.0382 0.9562 0.2901
vn 0.1299 -0.0972 0.9868
vn 0.0129 -0.9951 0.0980
vn 0.0129 0.9951 0.0980
vn 0.1299 0.0972 0.9868
vn 0.0382 -0.9562 0.2901
vn 0.1250 0.2880 0.9494
vn 0.3665 -0.2880 0.8847
vn 0.1120 0.9562 0.2703
vn 0.3809 -0.0972 0.9195
vn 0.0378 -0.9951 0.0913
vn 0.0378 0.9951 0.0913
vn 0.3809 0.0972 0.9195
vn 0.1120 -0.9562 0.2703
vn 0.3665 0.2880 0.8847
vn 0.1816 -0.8802 0.4384
vn 0.3381 0.4683 0.8163
vn 0.2440 -0.7703 0.5891
vn 0.2968 0.6311 0.7166
vn 0.2968 -0.6311 0.7166
vn 0.2440 0.7703 0.5891
vn 0.3381 -0.4683 0.8163
vn 0.1816 0.8802 0.4384
vn 0.5379 0.4683 0.7010
vn 0.3882 -0.7703 0.5059
vn 0.4722 0.6311 0.6154
vn 0.4722 -0.6311 0.6154
vn 0.3882 0.7703 0.5059
vn 0.5379 -0.4683 0.7010
vn 0.2889 0.8802 0.3765
vn 0.5830 -0.2880 0.7597
vn 0.1781 0.9562 0.2321
vn 0.6059 -0.0972 0.7896
vn 0.0602 -0.9951 0.0784
vn 0.0602 0.9951 0.0784
vn 0.6059 0.0972 0.7896
vn 0.1781 -0.9562 0.2321
vn 0.5830 0.2880 0.7597
vn 0.2889 -0.8802 0.3765
vn 0.2321 0.9562 0.1781
vn 0.7896 -0.0972 0.6059
vn 0.0784 -0.9951 0.0602
vn 0.0784 0.9951 0.0602
vn 0.7896 0.0972 0.6059
vn 0.2321 -0.9562 0.1781
vn 0.7597 0.2880 0.5830
vn 0.3765 -0.8802 0.2889
vn 0.7010 0.4683 0.5379
vn 0.7010 0.4682 0.5379
vn 0.5059 -0.7703 0.3882
vn 0.6154 0.6311 0.4722
vn 0.6154 -0.6311 0.4722
vn 0.5059 0.7703 0.3882
vn 0.7010 -0.4683 0.5379
vn 0.3765 0.8802 0.2889
vn 0.7597 -0.2880 0.5830
vn 0.7166 0.6311 0.2968
vn 0.7166 -0.6311 0.2968
vn 0.5891 0.7703 0.2440
vn 0.8163 -0.4683 0.3381
vn 0.4384 0.8802 0.1816
vn 0.8847 -0.2880 0.3665
vn 0.2703 0.9562 0.1120
vn 0.9195 -0.0972 0.3809
vn 0.0913 -0.9951 0.0378
vn 0.0913 0.9951 0.0378
vn 0.9195 0.0972 0.3809
vn 0.2703 -0.9562 0.1120
vn 0.8847 0.2880 0.3665
vn 0.4384 -0.8802 0.1816
vn 0.8163 0.4683 0.3381
vn 0.5891 -0.7703 0.2440
vn 0.0980 -0.9951 0.0129
vn 0.0980 0.9951 0.0129
vn 0.9868 0.0972 0.1299
vn 0.2901 -0.9562 0.0382
vn 0.9494 0.2880 0.1250
vn 0.4705 -0.8802 0.0619
vn 0.8760 0.4683 0.1153
vn 0.6322 -0.7703 0.0832
vn 0.7690 0.6311 0.1012
vn 0.7690 -0.6311 0.1012
vn 0.6322 0.7703 0.0832
vn 0.8760 -0.4683 0.1153
vn 0.4705 0.8802 0.0619
vn 0.9494 -0.2880 0.1250
vn 0.2901 0.9562 0.0382
vn 0.9868 -0.0972 0.1299
vn 0.7690 -0.6311 -0.1012
vn 0.6322 0.7703 -0.0832
vn 0.8760 -0.4683 -0.1153
vn 0.4705 0.8802 -0.0619
vn 0.9494 -0.2880 -0.1250
vn 0.2901 0.9562 -0.0382
vn 0.9868 -0.0972 -0.1299
vn 0.0980 -0.9951 -0.0129
vn 0.0980 0.9951 -0.0129
vn 0.9868 0.0972 -0.1299
vn 0.2901 -0.9562 -0.0382
vn 0.9494 0.2880 -0.1250
vn 0.4705 -0.8802 -0.0619
vn 0.8760 0.4683 -0.1153
vn 0.6322 -0.7703 -0.0832
vn 0.7690 0.6311 -0.1012
vn 0.9195 0.0972 -0.3809
vn 0.2703 -0.9562 -0.1120
vn 0.8847 0.2880 -0.3665
vn 0.4384 -0.8802 -0.1816
vn 0.8163 0.4683 -0.3381
vn 0.5891 -0.7703 -0.2440
vn 0.7166 0.6311 -0.2968
vn 0.7166 -0.6311 -0.2968
vn 0.5891 0.7703 -0.2440
vn 0.8163 -0.4683 -0.3381
vn 0.4384 0.8802 -0.1816
vn 0.8847 -0.2880 -0.3665
vn 0.2703 0.9562 -0.1120
vn 0.9195 -0.0972 -0.3809
vn 0.0913 -0.9951 -0.0378
vn 0.0913 0.9951 -0.0378
vn 0.5059 0.7703 -0.3882
vn 0.7010 -0.4682 -0.5379
vn 0.3765 0.8802 -0.2889
vn 0.7597 -0.2880 -0.5830
vn 0.2321 0.9562 -0.1781
vn 0.7896 -0.0972 -0.6059
vn 0.0784 -0.9951 -0.0602
vn 0.0784 0.9951 -0.0602
vn 0.7896 0.0972 -0.6059
vn 0.2321 -0.9562 -0.1781
vn 0.7597 0.2880 -0.5830
vn 0.3765 -0.8802 -0.2889
vn 0.7010 0.4682 -0.5379
vn 0.5059 -0.7703 -0.3882
vn 0.6154 0.6311 -0.4722
vn 0.6154 -0.6311 -0.4722
vn 0.1781 -0.9562 -0.2321
vn 0.5830 0.2880 -0.7597
vn 0.2889 -0.8802 -0.3765
vn 0.5379 0.4682 -0.7010
vn 0.3882 -0.7703 -0.5059
vn 0.4722 0.6311 -0.6154
vn 0.4722 -0.6311 -0.6154
vn 0.3882 0.7703 -0.5059
vn 0.5379 -0.4683 -0.7010
vn 0.5379 -0.4682 -0.7010
vn 0.2889 0.8802 -0.3765
vn 0.5830 -0.2880 -0.7597
vn 0.1781 0.9562 -0.2321
vn 0.6059 -0.0972 -0.7896
vn 0.0602 -0.9951 -0.0784
vn 0.0602 0.9951 -0.0784
vn 0.6059 0.0972 -0.7896
vn 0.3381 -0.4683 -0.8163
vn 0.1816 0.8802 -0.4384
vn 0.3665 -0.2880 -0.8847
vn 0.1120 0.9562 -0.2703
vn 0.3809 -0.0972 -0.9195
vn 0.0378 -0.9951 -0.0913
vn 0.0378 0.9951 -0.0913
vn 0.3809 0.0972 -0.9195
vn 0.1120 -0.9562 -0.2703
vn 0.3665 0.2880 -0.8847
vn 0.1816 -0.8802 -0.4384
vn 0.3381 0.4682 -0.8163
vn 0.3381 0.4683 -0.8163
vn 0.2440 -0.7703 -0.5891
vn 0.2968 0.6311 -0.7166
vn 0.2968 -0.6311 -0.7166
vn 0.2440 0.7703 -0.5891
vn 0.1250 0.2880 -0.9494
vn 0.0619 -0.8802 -0.4705
vn 0.1153 0.4682 -0.8760
vn 0.0832 -0.7703 -0.6322
vn 0.1012 0.6311 -0.7690
vn 0.1012 -0.6311 -0.7690
vn 0.0832 0.7703 -0.6322
vn 0.1153 -0.4683 -0.8760
vn 0.0619 0.8802 -0.4705
vn 0.1250 -0.2880 -0.9494
vn 0.0382 0.9562 -0.2901
vn 0.1299 -0.0972 -0.9868
vn 0.0129 -0.9951 -0.0980
vn 0.0129 0.9951 -0.0980
vn 0.1299 0.0972 -0.9868
vn 0.0382 -0.9562 -0.2901
vn 0.8760 -0.4682 0.1153
vt 0.708333 0.250000
vt 0.750000 0.250000
vt 0.750000 0.312500
vt 0.750000 0.687500
vt 0.750000 0.750000
vt 0.708333 0.750000
vt 0.708333 0.187500
vt 0.750000 0.187500
vt 0.750000 0.625000
vt 0.708333 0.687500
vt 0.708333 0.125000
vt 0.750000 0.125000
vt 0.750000 0.562500
vt 0.708333 0.625000
vt 0.708333 0.062500
vt 0.750000 0.062500
vt 0.750000 0.500000
vt 0.708333 0.562500
vt 0.750000 0.937500
vt 0.729167 1.000000
vt 0.708333 0.937500
vt 0.729167 0.000000
vt 0.708333 0.437500
vt 0.750000 0.437500
vt 0.750000 0.875000
vt 0.750000 0.375000
vt 0.750000 0.812500
vt 0.708333 0.875000
vt 0.708333 0.312500
vt 0.708333 0.812500
vt 0.666667 0.312500
vt 0.708333 0.375000
vt 0.666667 0.750000
vt 0.666667 0.250000
vt 0.666667 0.625000
vt 0.666667 0.187500
vt 0.666667 0.562500
vt 0.666667 0.062500
vt 0.666667 0.500000
vt 0.708333 0.500000
vt 0.687500 1.000000
vt 0.666667 0.937500
vt 0.687500 0.000000
vt 0.666667 0.437500
vt 0.666667 0.375000
vt 0.666667 0.812500
vt 0.625000 0.062500
vt 0.666667 0.125000
vt 0.625000 0.500000
vt 0.645833 1.000000
vt 0.625000 0.937500
vt 0.645833 0.000000
vt 0.666667 0.875000
vt 0.625000 0.375000
vt 0.625000 0.812500
vt 0.625000 0.750000
vt 0.625000 0.250000
vt 0.666667 0.687500
vt 0.625000 0.625000
vt 0.625000 0.125000
vt 0.583333 0.750000
vt 0.583333 0.250000
vt 0.625000 0.312500
vt 0.625000 0.687500
vt 0.625000 0.187500
vt 0.583333 0.687500
vt 0.583333 0.125000
vt 0.583333 0.562500
vt 0.625000 0.562500
vt 0.583333 0.500000
vt 0.604167 1.000000
vt 0.583333 0.937500
vt 0.604167 0.000000
vt 0.583333 0.062500
vt 0.583333 0.437500
vt 0.625000 0.437500
vt 0.625000 0.875000
vt 0.583333 0.875000
vt 0.583333 0.312500
vt 0.541667 0.562500
vt 0.562500 1.000000
vt 0.541667 0.937500
vt 0.562500 0.000000
vt 0.541667 0.062500
vt 0.541667 0.437500
vt 0.583333 0.375000
vt 0.541667 0.812500
vt 0.583333 0.812500
vt 0.541667 0.312500
vt 0.541667 0.250000
vt 0.541667 0.750000
vt 0.541667 0.187500
vt 0.583333 0.187500
vt 0.541667 0.625000
vt 0.583333 0.625000
vt 0.541667 0.125000
vt 0.500000 0.250000
vt 0.541667 0.687500
vt 0.500000 0.750000
vt 0.500000 0.625000
vt 0.500000 0.187500
vt 0.500000 0.562500
vt 0.500000 0.062500
vt 0.500000 0.500000
vt 0.541667 0.500000
vt 0.520833 1.000000
vt 0.500000 0.937500
vt 0.520833 0.000000
vt 0.500000 0.437500
vt 0.541667 0.875000
vt 0.500000 0.375000
vt 0.541667 0.375000
vt 0.500000 0.812500
vt 0.479167 0.000000
vt 0.458333 0.062500
vt 0.458333 0.437500
vt 0.458333 0.875000
vt 0.500000 0.875000
vt 0.458333 0.375000
vt 0.458333 0.812500
vt 0.458333 0.312500
vt 0.500000 0.312500
vt 0.458333 0.750000
vt 0.458333 0.250000
vt 0.458333 0.687500
vt 0.500000 0.687500
vt 0.458333 0.625000
vt 0.458333 0.125000
vt 0.500000 0.125000
vt 0.458333 0.562500
vt 0.479167 1.000000
vt 0.458333 0.937500
vt 0.416667 0.187500
vt 0.458333 0.187500
vt 0.416667 0.625000
vt 0.416667 0.125000
vt 0.416667 0.562500
vt 0.416667 0.500000
vt 0.458333 0.500000
vt 0.437500 1.000000
vt 0.416667 0.937500
vt 0.437500 0.000000
vt 0.416667 0.062500
vt 0.416667 0.437500
vt 0.416667 0.875000
vt 0.416667 0.375000
vt 0.416667 0.812500
vt 0.416667 0.312500
vt 0.416667 0.750000
vt 0.416667 0.250000
vt 0.375000 0.875000
vt 0.375000 0.437500
vt 0.375000 0.375000
vt 0.375000 0.750000
vt 0.375000 0.250000
vt 0.375000 0.687500
vt 0.416667 0.687500
vt 0.375000 0.625000
vt 0.375000 0.125000
vt 0.375000 0.562500
vt 0.375000 0.062500
vt 0.395833 1.000000
vt 0.375000 0.937500
vt 0.395833 0.000000
vt 0.333333 0.625000
vt 0.333333 0.125000
vt 0.375000 0.187500
vt 0.333333 0.562500
vt 0.333333 0.062500
vt 0.375000 0.500000
vt 0.354167 1.000000
vt 0.333333 0.937500
vt 0.354167 0.000000
vt 0.333333 0.437500
vt 0.333333 0.875000
vt 0.375000 0.812500
vt 0.333333 0.312500
vt 0.375000 0.312500
vt 0.333333 0.750000
vt 0.333333 0.250000
vt 0.333333 0.375000
vt 0.291667 0.437500
vt 0.291667 0.812500
vt 0.333333 0.812500
vt 0.291667 0.375000
vt 0.291667 0.750000
vt 0.291667 0.250000
vt 0.333333 0.687500
vt 0.333333 0.187500
vt 0.291667 0.625000
vt 0.291667 0.125000
vt 0.291667 0.562500
vt 0.291667 0.062500
vt 0.333333 0.500000
vt 0.312500 1.000000
vt 0.291667 0.937500
vt 0.312500 0.000000
vt 0.291667 0.875000
vt 0.250000 0.125000
vt 0.291667 0.187500
vt 0.250000 0.562500
vt 0.250000 0.062500
vt 0.291667 0.500000
vt 0.270833 1.000000
vt 0.250000 0.937500
vt 0.270833 0.000000
vt 0.250000 0.437500
vt 0.250000 0.875000
vt 0.250000 0.812500
vt 0.291667 0.312500
vt 0.250000 0.375000
vt 0.250000 0.750000
vt 0.250000 0.250000
vt 0.291667 0.687500
vt 0.250000 0.625000
vt 0.208333 0.875000
vt 0.250000 0.312500
vt 0.208333 0.375000
vt 0.208333 0.750000
vt 0.208333 0.250000
vt 0.250000 0.687500
vt 0.250000 0.187500
vt 0.208333 0.625000
vt 0.208333 0.125000
vt 0.208333 0.562500
vt 0.208333 0.062500
vt 0.250000 0.500000
vt 0.229167 1.000000
vt 0.208333 0.937500
vt 0.229167 0.000000
vt 0.208333 0.437500
vt 0.166667 0.562500
vt 0.166667 0.062500
vt 0.208333 0.500000
vt 0.187500 1.000000
vt 0.166667 0.937500
vt 0.187500 0.000000
vt 0.166667 0.437500
vt 0.166667 0.875000
vt 0.166667 0.812500
vt 0.208333 0.812500
vt 0.208333 0.312500
vt 0.166667 0.375000
vt 0.166667 0.750000
vt 0.166667 0.250000
vt 0.208333 0.687500
vt 0.208333 0.187500
vt 0.166667 0.625000
vt 0.166667 0.125000
vt 0.125000 0.312500
vt 0.166667 0.312500
vt 0.125000 0.750000
vt 0.125000 0.250000
vt 0.166667 0.687500
vt 0.125000 0.187500
vt 0.166667 0.187500
vt 0.125000 0.625000
vt 0.125000 0.562500
vt 0.125000 0.062500
vt 0.166667 0.500000
vt 0.145833 1.000000
vt 0.125000 0.937500
vt 0.145833 0.000000
vt 0.125000 0.437500
vt 0.125000 0.875000
vt 0.125000 0.812500
vt 0.125000 0.125000
vt 0.083333 0.125000
vt 0.125000 0.500000
vt 0.083333 0.562500
vt 0.104167 1.000000
vt 0.083333 0.937500
vt 0.104167 0.000000
vt 0.083333 0.062500
vt 0.083333 0.437500
vt 0.083333 0.875000
vt 0.125000 0.375000
vt 0.083333 0.812500
vt 0.083333 0.375000
vt 0.083333 0.750000
vt 0.083333 0.250000
vt 0.125000 0.687500
vt 0.083333 0.625000
vt 0.083333 0.187500
vt 0.041667 0.250000
vt 0.083333 0.312500
vt 0.083333 0.687500
vt 0.041667 0.750000
vt 0.041667 0.625000
vt 0.041667 0.187500
vt 0.041667 0.562500
vt 0.041667 0.062500
vt 0.083333 0.500000
vt 0.062500 1.000000
vt 0.041667 0.937500
vt 0.062500 0.000000
vt 0.041667 0.437500
vt 0.041667 0.875000
vt 0.041667 0.812500
vt 0.041667 0.375000
vt 0.020833 1.000000
vt 0.000000 0.937500
vt 0.020833 0.000000
vt 0.000000 0.062500
vt 0.000000 0.437500
vt 0.041667 0.500000
vt 0.000000 0.812500
vt 0.041667 0.312500
vt 0.000000 0.375000
vt 0.000000 0.750000
vt 0.000000 0.250000
vt 0.041667 0.687500
vt 0.000000 0.625000
vt 0.000000 0.125000
vt 0.041667 0.125000
vt 0.000000 0.562500
vt 1.000000 0.687500
vt 1.000000 0.750000
vt 0.958333 0.750000
vt 1.000000 0.187500
vt 1.000000 0.250000
vt 0.958333 0.250000
vt 0.958333 0.625000
vt 1.000000 0.625000
vt 0.958333 0.125000
vt 1.000000 0.125000
vt 0.958333 0.562500
vt 1.000000 0.562500
vt 1.000000 0.062500
vt 1.000000 0.500000
vt 1.000000 0.937500
vt 0.979167 1.000000
vt 0.958333 0.937500
vt 0.979167 0.000000
vt 0.958333 0.062500
vt 0.958333 0.437500
vt 1.000000 0.437500
vt 1.000000 0.875000
vt 1.000000 0.375000
vt 1.000000 0.812500
vt 0.958333 0.875000
vt 1.000000 0.312500
vt 0.958333 0.375000
vt 0.916667 0.437500
vt 0.958333 0.500000
vt 0.916667 0.937500
vt 0.916667 0.812500
vt 0.958333 0.812500
vt 0.958333 0.312500
vt 0.916667 0.375000
vt 0.916667 0.750000
vt 0.916667 0.250000
vt 0.958333 0.687500
vt 0.958333 0.187500
vt 0.916667 0.625000
vt 0.916667 0.125000
vt 0.916667 0.562500
vt 0.916667 0.062500
vt 0.937500 1.000000
vt 0.937500 0.000000
vt 0.916667 0.187500
vt 0.875000 0.250000
vt 0.875000 0.625000
vt 0.916667 0.687500
vt 0.875000 0.125000
vt 0.875000 0.562500
vt 0.875000 0.062500
vt 0.916667 0.500000
vt 0.895833 1.000000
vt 0.875000 0.937500
vt 0.895833 0.000000
vt 0.875000 0.437500
vt 0.875000 0.875000
vt 0.916667 0.875000
vt 0.875000 0.812500
vt 0.875000 0.312500
vt 0.916667 0.312500
vt 0.875000 0.750000
vt 0.833333 0.875000
vt 0.875000 0.375000
vt 0.833333 0.437500
vt 0.833333 0.812500
vt 0.833333 0.312500
vt 0.833333 0.750000
vt 0.833333 0.250000
vt 0.875000 0.687500
vt 0.833333 0.187500
vt 0.875000 0.187500
vt 0.833333 0.625000
vt 0.833333 0.125000
vt 0.833333 0.562500
vt 0.875000 0.500000
vt 0.854167 1.000000
vt 0.833333 0.937500
vt 0.854167 0.000000
vt 0.833333 0.062500
vt 0.833333 0.687500
vt 0.791667 0.687500
vt 0.791667 0.125000
vt 0.791667 0.562500
vt 0.791667 0.062500
vt 0.833333 0.500000
vt 0.812500 1.000000
vt 0.791667 0.937500
vt 0.812500 0.000000
vt 0.791667 0.437500
vt 0.791667 0.875000
vt 0.833333 0.375000
vt 0.791667 0.312500
vt 0.791667 0.750000
vt 0.791667 0.250000
vt 0.791667 0.187500
vt 0.791667 0.375000
vt 0.791667 0.812500
vt 0.791667 0.625000
vt 0.791667 0.500000
vt 0.770833 1.000000
vt 0.770833 0.000000
vt 0.000000 0.500000
vt 0.000000 0.875000
vt 0.000000 0.312500
vt 0.000000 0.687500
vt 0.000000 0.187500
s 1
usemtl マテリアル
f 15/1/1 359/2/1 3/3/1
f 1/4/2 354/5/2 7/6/2
f 16/7/3 360/8/3 359/2/3
f 2/9/4 1/4/4 8/10/4
f 17/11/5 361/12/5 360/8/5
f 355/13/6 2/9/6 9/14/6
f 18/15/7 362/16/7 361/12/7
f 356/17/8 355/13/8 10/18/8
f 351/19/9 199/20/9 4/21/9
f 215/22/10 362/16/10 18/15/10
f 12/23/11 357/24/11 356/17/11
f 352/25/12 351/19/12 4/21/12
f 358/26/13 357/24/13 12/23/13
f 353/27/14 352/25/14 5/28/14
f 14/29/15 3/3/16 358/26/16
f 354/5/17 353/27/17 6/30/17
f 29/31/18 14/29/18 13/32/18
f 22/33/19 7/6/19 6/30/19
f 15/1/20 14/29/20 29/31/20
f 8/10/21 7/6/21 22/33/21
f 16/7/22 15/1/22 30/34/22
f 24/35/23 9/14/23 8/10/23
f 17/11/24 16/7/24 31/36/24
f 25/37/25 10/18/25 9/14/25
f 33/38/26 18/15/26 17/11/26
f 26/39/27 11/40/27 10/18/27
f 4/21/28 199/41/28 19/42/28
f 215/43/29 18/15/29 33/38/29
f 27/44/30 12/23/30 11/40/30
f 5/28/31 4/21/31 19/42/31
f 28/45/32 13/32/32 12/23/32
f 21/46/33 6/30/33 5/28/33
f 48/47/34 33/38/34 32/48/34
f 41/49/35 26/39/35 25/37/35
f 19/42/36 199/50/36 34/51/36
f 215/52/37 33/38/37 48/47/37
f 27/44/38 26/39/38 41/49/38
f 20/53/39 19/42/39 34/51/39
f 43/54/40 28/45/40 27/44/40
f 36/55/41 21/46/41 20/53/41
f 29/31/42 28/45/42 43/54/42
f 37/56/43 22/33/43 21/46/43
f 45/57/44 30/34/44 29/31/44
f 23/58/45 22/33/45 37/56/45
f 31/36/46 30/34/46 45/57/46
f 39/59/47 24/35/47 23/58/47
f 47/60/48 32/48/48 31/36/48
f 25/37/49 24/35/49 39/59/49
f 52/61/50 37/56/50 36/55/50
f 60/62/51 45/57/51 44/63/51
f 38/64/52 37/56/52 52/61/52
f 46/65/53 45/57/53 60/62/53
f 39/59/54 38/64/54 53/66/54
f 62/67/55 47/60/55 46/65/55
f 55/68/56 40/69/56 39/59/56
f 48/47/57 47/60/57 62/67/57
f 56/70/58 41/49/58 40/69/58
f 34/51/59 199/71/59 49/72/59
f 215/73/60 48/47/60 63/74/60
f 57/75/61 42/76/61 41/49/61
f 35/77/62 34/51/62 49/72/62
f 43/54/63 42/76/63 57/75/63
f 36/55/64 35/77/64 50/78/64
f 59/79/65 44/63/65 43/54/65
f 56/70/66 55/68/66 70/80/66
f 49/72/67 199/81/67 64/82/67
f 215/83/68 63/74/68 78/84/68
f 72/85/69 57/75/69 56/70/69
f 50/78/70 49/72/70 64/82/70
f 58/86/71 57/75/71 72/85/71
f 66/87/72 51/88/72 50/78/72
f 74/89/73 59/79/73 58/86/73
f 52/61/74 51/88/74 66/87/74
f 75/90/75 60/62/75 59/79/75
f 53/66/76 52/61/76 67/91/76
f 76/92/77 61/93/77 60/62/77
f 69/94/78 54/95/78 53/66/78
f 77/96/79 62/67/79 61/93/79
f 70/80/80 55/68/80 54/95/80
f 78/84/81 63/74/81 62/67/81
f 90/97/82 75/90/82 74/89/82
f 68/98/83 67/91/83 82/99/83
f 76/92/84 75/90/84 90/97/84
f 84/100/85 69/94/85 68/98/85
f 77/96/86 76/92/86 91/101/86
f 85/102/87 70/80/87 69/94/87
f 93/103/88 78/84/88 77/96/88
f 86/104/89 71/105/89 70/80/89
f 64/82/90 199/106/90 79/107/90
f 215/108/91 78/84/91 93/103/91
f 87/109/92 72/85/92 71/105/92
f 65/110/93 64/82/93 79/107/93
f 88/111/94 73/112/94 72/85/94
f 81/113/95 66/87/95 65/110/95
f 74/89/96 73/112/96 88/111/96
f 82/99/97 67/91/97 66/87/97
f 215/114/98 93/103/98 108/115/98
f 102/116/99 87/109/99 86/104/99
f 95/117/100 80/118/100 79/107/100
f 103/119/101 88/111/101 87/109/101
f 96/120/102 81/113/102 80/118/102
f 104/121/103 89/122/103 88/111/103
f 97/123/104 82/99/104 81/113/104
f 105/124/105 90/97/105 89/122/105
f 98/125/106 83/126/106 82/99/106
f 91/101/107 90/97/107 105/124/107
f 99/127/108 84/100/108 83/126/108
f 107/128/109 92/129/109 91/101/109
f 85/102/110 84/100/110 99/127/110
f 108/115/111 93/103/111 92/129/111
f 86/104/112 85/102/112 100/130/112
f 79/107/113 199/131/113 94/132/113
f 121/133/114 106/134/114 105/124/114
f 114/135/115 99/127/115 98/125/115
f 122/136/116 107/128/116 106/134/116
f 115/137/117 100/130/117 99/127/117
f 108/115/118 107/128/118 122/136/118
f 116/138/119 101/139/119 100/130/119
f 94/132/120 199/140/120 109/141/120
f 215/142/121 108/115/121 123/143/121
f 117/144/122 102/116/122 101/139/122
f 110/145/123 95/117/123 94/132/123
f 118/146/124 103/119/124 102/116/124
f 111/147/125 96/120/125 95/117/125
f 119/148/126 104/121/126 103/119/126
f 112/149/127 97/123/127 96/120/127
f 120/150/128 105/124/128 104/121/128
f 98/125/129 97/123/129 112/149/129
f 125/151/130 110/145/130 109/141/130
f 118/146/131 117/144/131 132/152/131
f 111/147/132 110/145/132 125/151/132
f 119/148/133 118/146/133 133/153/133
f 127/154/134 112/149/134 111/147/134
f 135/155/135 120/150/135 119/148/135
f 128/156/136 113/157/136 112/149/136
f 121/133/137 120/150/137 135/155/137
f 129/158/138 114/135/138 113/157/138
f 137/159/139 122/136/139 121/133/139
f 130/160/140 115/137/140 114/135/140
f 138/161/141 123/143/141 122/136/141
f 116/138/142 115/137/142 130/160/142
f 109/141/143 199/162/143 124/163/143
f 215/164/144 123/143/144 138/161/144
f 132/152/145 117/144/145 116/138/145
f 144/165/146 129/158/146 128/156/146
f 152/166/147 137/159/147 136/167/147
f 145/168/148 130/160/148 129/158/148
f 153/169/149 138/161/149 137/159/149
f 131/170/150 130/160/150 145/168/150
f 124/163/151 199/171/151 139/172/151
f 215/173/152 138/161/152 153/169/152
f 147/174/153 132/152/153 131/170/153
f 140/175/154 125/151/154 124/163/154
f 133/153/155 132/152/155 147/174/155
f 126/176/156 125/151/156 140/175/156
f 149/177/157 134/178/157 133/153/157
f 142/179/158 127/154/158 126/176/158
f 150/180/159 135/155/159 134/178/159
f 128/156/160 127/154/160 142/179/160
f 136/167/161 135/155/161 150/180/161
f 148/181/162 147/174/162 162/182/162
f 156/183/163 141/184/163 140/175/163
f 149/177/164 148/181/164 163/185/164
f 157/186/165 142/179/165 141/184/165
f 165/187/166 150/180/166 149/177/166
f 143/188/167 142/179/167 157/186/167
f 151/189/168 150/180/168 165/187/168
f 159/190/169 144/165/169 143/188/169
f 167/191/170 152/166/170 151/189/170
f 160/192/171 145/168/171 144/165/171
f 168/193/172 153/169/172 152/166/172
f 146/194/173 145/168/173 160/192/173
f 139/172/174 199/195/174 154/196/174
f 215/197/175 153/169/175 168/193/175
f 162/182/176 147/174/176 146/194/176
f 155/198/177 140/175/177 139/172/177
f 182/199/178 167/191/178 166/200/178
f 175/201/179 160/192/179 159/190/179
f 183/202/180 168/193/180 167/191/180
f 161/203/181 160/192/181 175/201/181
f 154/196/182 199/204/182 169/205/182
f 215/206/183 168/193/183 183/202/183
f 177/207/184 162/182/184 161/203/184
f 170/208/185 155/198/185 154/196/185
f 163/185/186 162/182/186 177/207/186
f 171/209/187 156/183/187 155/198/187
f 164/210/188 163/185/188 178/211/188
f 172/212/189 157/186/189 156/183/189
f 180/213/190 165/187/190 164/210/190
f 158/214/191 157/186/191 172/212/191
f 166/200/192 165/187/192 180/213/192
f 174/215/193 159/190/193 158/214/193
f 171/209/194 170/208/194 185/216/194
f 179/217/195 178/211/195 193/218/195
f 187/219/196 172/212/196 171/209/196
f 195/220/197 180/213/197 179/217/197
f 173/221/198 172/212/198 187/219/198
f 181/222/199 180/213/199 195/220/199
f 189/223/200 174/215/200 173/221/200
f 197/224/201 182/199/201 181/222/201
f 190/225/202 175/201/202 174/215/202
f 198/226/203 183/202/203 182/199/203
f 176/227/204 175/201/204 190/225/204
f 169/205/205 199/228/205 184/229/205
f 215/230/206 183/202/206 198/226/206
f 192/231/207 177/207/207 176/227/207
f 170/208/208 169/205/208 184/229/208
f 178/211/209 177/207/209 192/231/209
f 206/232/210 190/225/210 189/223/210
f 214/233/211 198/226/211 197/224/211
f 191/234/212 190/225/212 206/232/212
f 184/229/213 199/235/213 200/236/213
f 215/237/214 198/226/214 214/233/214
f 208/238/215 192/231/215 191/234/215
f 201/239/216 185/216/216 184/229/216
f 193/218/217 192/231/217 208/238/217
f 202/240/218 186/241/218 185/216/218
f 194/242/219 193/218/219 209/243/219
f 203/244/220 187/219/220 186/241/220
f 211/245/221 195/220/221 194/242/221
f 188/246/222 187/219/222 203/244/222
f 196/247/223 195/220/223 211/245/223
f 205/248/224 189/223/224 188/246/224
f 213/249/225 197/224/225 196/247/225
f 226/250/226 210/251/226 209/243/226
f 219/252/227 203/244/227 202/240/227
f 227/253/228 211/245/228 210/251/228
f 204/254/229 203/244/229 219/252/229
f 228/255/230 212/256/230 211/245/230
f 221/257/231 205/248/231 204/254/231
f 213/249/232 212/256/232 228/255/232
f 222/258/233 206/232/233 205/248/233
f 230/259/234 214/233/234 213/249/234
f 207/260/235 206/232/235 222/258/235
f 200/236/236 199/261/236 216/262/236
f 215/263/237 214/233/237 230/259/237
f 224/264/238 208/238/238 207/260/238
f 217/265/239 201/239/239 200/236/239
f 209/243/240 208/238/240 224/264/240
f 218/266/241 202/240/241 201/239/241
f 230/259/242 229/267/242 244/268/242
f 223/269/243 222/258/243 237/270/243
f 216/262/244 199/271/244 231/272/244
f 215/273/245 230/259/245 245/274/245
f 239/275/246 224/264/246 223/269/246
f 232/276/247 217/265/247 216/262/247
f 225/277/248 224/264/248 239/275/248
f 233/278/249 218/266/249 217/265/249
f 226/250/250 225/277/251 240/279/250
f 234/280/252 219/252/252 218/266/252
f 242/281/253 227/253/253 226/250/253
f 220/282/254 219/252/254 234/280/254
f 228/255/255 227/253/255 242/281/255
f 236/283/256 221/257/256 220/282/256
f 229/267/257 228/255/257 243/284/257
f 237/270/258 222/258/258 221/257/258
f 257/285/259 242/281/259 241/286/259
f 235/287/260 234/280/260 249/288/260
f 243/284/261 242/281/261 257/285/261
f 251/289/262 236/283/262 235/287/262
f 244/268/263 243/284/263 258/290/263
f 252/291/264 237/270/264 236/283/264
f 260/292/265 245/274/265 244/268/265
f 238/293/266 237/270/266 252/291/266
f 231/272/267 199/294/267 246/295/267
f 215/296/268 245/274/268 260/292/268
f 254/297/269 239/275/269 238/293/269
f 247/298/270 232/276/270 231/272/270
f 240/279/271 239/275/271 254/297/271
f 248/299/272 233/278/272 232/276/272
f 241/286/273 240/279/273 255/300/273
f 249/288/274 234/280/274 233/278/274
f 246/295/275 199/301/275 261/302/275
f 215/303/276 260/292/276 275/304/276
f 269/305/277 254/297/277 253/306/277
f 247/298/278 246/295/278 261/302/278
f 255/300/279 254/297/279 269/305/279
f 263/307/280 248/299/280 247/298/280
f 256/308/281 255/300/281 270/309/281
f 264/310/282 249/288/282 248/299/282
f 272/311/283 257/285/283 256/308/283
f 250/312/284 249/288/284 264/310/284
f 258/290/285 257/285/285 272/311/285
f 266/313/286 251/289/286 250/312/286
f 274/314/287 259/315/287 258/290/287
f 267/316/288 252/291/288 251/289/288
f 275/304/289 260/292/289 259/315/289
f 253/306/290 252/291/290 267/316/290
f 265/317/291 264/318/291 279/319/291
f 273/320/292 272/321/292 287/322/292
f 281/323/293 266/324/293 265/317/293
f 289/325/294 274/326/294 273/320/294
f 282/327/295 267/328/295 266/324/295
f 275/329/296 274/326/296 289/325/296
f 268/330/297 267/328/297 282/327/297
f 261/331/298 199/332/298 276/333/298
f 215/334/299 275/329/299 290/335/299
f 284/336/300 269/337/300 268/330/300
f 262/338/301 261/331/301 276/333/301
f 270/339/302 269/337/302 284/336/302
f 263/340/303 262/338/303 277/341/303
f 271/342/304 270/339/304 285/343/304
f 279/319/305 264/318/305 263/340/305
f 287/322/306 272/321/306 271/342/306
f 299/344/307 284/336/307 283/345/307
f 277/341/308 276/333/308 291/346/308
f 285/343/309 284/336/309 299/344/309
f 293/347/310 278/348/310 277/341/310
f 286/349/311 285/343/311 300/350/311
f 294/351/312 279/319/312 278/348/312
f 302/352/313 287/322/313 286/349/313
f 280/353/314 279/319/314 294/351/314
f 288/354/315 287/322/315 302/352/315
f 296/355/316 281/323/316 280/353/316
f 304/356/317 289/325/317 288/354/317
f 297/357/318 282/327/318 281/323/318
f 305/358/319 290/335/319 289/325/319
f 283/345/320 282/327/320 297/357/320
f 276/333/321 199/359/321 291/346/321
f 215/360/322 290/335/322 305/358/322
f 303/361/323 302/352/323 317/362/323
f 311/363/324 296/355/324 295/364/324
f 319/365/325 304/356/325 303/361/325
f 312/366/326 297/357/326 296/355/326
f 320/367/327 305/358/327 304/356/327
f 298/368/328 297/357/328 312/366/328
f 291/346/329 199/369/329 306/370/329
f 215/371/330 305/358/330 320/367/330
f 314/372/331 299/344/331 298/368/331
f 307/373/332 292/374/332 291/346/332
f 300/350/333 299/344/333 314/372/333
f 308/375/334 293/347/334 292/374/334
f 316/376/335 301/377/335 300/350/335
f 309/378/336 294/351/336 293/347/336
f 317/362/337 302/352/337 301/377/337
f 295/364/338 294/351/338 309/378/338
f 322/379/339 307/373/339 306/370/339
f 315/380/340 314/372/340 329/381/340
f 323/382/341 308/375/341 307/373/341
f 331/383/342 316/376/342 315/380/342
f 324/384/343 309/378/343 308/375/343
f 332/385/344 317/362/344 316/376/344
f 310/386/345 309/378/345 324/384/345
f 333/387/346 318/388/346 317/362/346
f 326/389/347 311/363/348 310/386/347
f 334/390/349 319/365/349 318/388/349
f 327/391/350 312/366/350 311/363/350
f 320/367/351 319/365/351 334/390/351
f 313/392/352 312/366/352 327/391/352
f 306/370/353 199/393/353 321/394/353
f 215/395/354 320/367/354 335/396/354
f 329/381/355 314/372/355 313/392/355
f 326/389/356 325/397/356 340/398/356
f 349/399/357 334/390/357 333/387/357
f 342/400/358 327/391/358 326/389/358
f 350/401/359 335/396/359 334/390/359
f 328/402/360 327/391/360 342/400/360
f 321/394/361 199/403/361 336/404/361
f 215/405/362 335/396/362 350/401/362
f 344/406/363 329/381/363 328/402/363
f 337/407/364 322/379/364 321/394/364
f 330/408/365 329/381/365 344/406/365
f 323/382/366 322/379/366 337/407/366
f 346/409/367 331/383/368 330/408/367
f 339/410/369 324/384/369 323/382/369
f 347/411/370 332/385/370 331/383/370
f 325/397/371 324/384/371 339/410/371
f 348/412/372 333/387/372 332/385/372
f 345/413/373 344/406/373 357/24/373
f 353/27/374 338/414/374 337/407/374
f 3/3/375 346/409/375 345/413/375
f 354/5/376 339/410/376 338/414/376
f 359/2/377 347/411/377 346/409/377
f 340/398/378 339/410/378 354/5/378
f 348/412/379 347/411/379 359/2/379
f 341/415/380 340/398/380 1/4/380
f 349/399/381 348/412/381 360/8/381
f 355/13/382 342/400/382 341/415/382
f 362/16/383 350/401/383 349/399/383
f 343/416/384 342/400/384 355/13/384
f 336/404/385 199/417/385 351/19/385
f 215/418/386 350/401/386 362/16/386
f 357/24/387 344/406/387 343/416/387
f 337/407/388 336/404/388 351/19/388
f 15/1/1 3/3/1 14/29/1
f 1/4/2 7/6/2 8/10/2
f 16/7/3 359/2/3 15/1/3
f 2/9/4 8/10/4 9/14/4
f 17/11/5 360/8/5 16/7/5
f 355/13/6 9/14/6 10/18/6
f 18/15/7 361/12/7 17/11/7
f 356/17/8 10/18/8 11/40/8
f 12/23/11 356/17/11 11/40/11
f 352/25/12 4/21/12 5/28/12
f 358/26/13 12/23/13 13/32/13
f 353/27/14 5/28/14 6/30/14
f 14/29/15 358/26/16 13/32/15
f 354/5/17 6/30/17 7/6/17
f 29/31/18 13/32/18 28/45/18
f 22/33/19 6/30/19 21/46/19
f 15/1/20 29/31/20 30/34/20
f 8/10/21 22/33/21 23/58/21
f 16/7/22 30/34/22 31/36/22
f 24/35/23 8/10/23 23/58/23
f 17/11/24 31/36/24 32/48/24
f 25/37/25 9/14/25 24/35/25
f 33/38/26 17/11/26 32/48/26
f 26/39/27 10/18/27 25/37/27
f 27/44/30 11/40/30 26/39/30
f 5/28/31 19/42/31 20/53/31
f 28/45/32 12/23/32 27/44/32
f 21/46/33 5/28/33 20/53/33
f 48/47/34 32/48/34 47/60/34
f 41/49/35 25/37/35 40/69/35
f 27/44/38 41/49/38 42/76/38
f 20/53/39 34/51/39 35/77/39
f 43/54/40 27/44/40 42/76/40
f 36/55/41 20/53/41 35/77/41
f 29/31/42 43/54/42 44/63/42
f 37/56/43 21/46/43 36/55/43
f 45/57/44 29/31/44 44/63/44
f 23/58/45 37/56/45 38/64/45
f 31/36/46 45/57/46 46/65/46
f 39/59/47 23/58/47 38/64/47
f 47/60/48 31/36/48 46/65/48
f 25/37/49 39/59/49 40/69/49
f 52/61/50 36/55/50 51/88/50
f 60/62/51 44/63/51 59/79/51
f 38/64/52 52/61/52 53/66/52
f 46/65/53 60/62/53 61/93/53
f 39/59/54 53/66/54 54/95/54
f 62/67/55 46/65/55 61/93/55
f 55/68/56 39/59/56 54/95/56
f 48/47/57 62/67/57 63/74/57
f 56/70/58 40/69/58 55/68/58
f 57/75/61 41/49/61 56/70/61
f 35/77/62 49/72/62 50/78/62
f 43/54/63 57/75/63 58/86/63
f 36/55/64 50/78/64 51/88/64
f 59/79/65 43/54/65 58/86/65
f 56/70/66 70/80/66 71/105/66
f 72/85/69 56/70/69 71/105/69
f 50/78/70 64/82/70 65/110/70
f 58/86/71 72/85/71 73/112/71
f 66/87/72 50/78/72 65/110/72
f 74/89/73 58/86/73 73/112/73
f 52/61/74 66/87/74 67/91/74
f 75/90/75 59/79/75 74/89/75
f 53/66/76 67/91/76 68/98/76
f 76/92/77 60/62/77 75/90/77
f 69/94/78 53/66/78 68/98/78
f 77/96/79 61/93/79 76/92/79
f 70/80/80 54/95/80 69/94/80
f 78/84/81 62/67/81 77/96/81
f 90/97/82 74/89/82 89/122/82
f 68/98/83 82/99/83 83/126/83
f 76/92/84 90/97/84 91/101/84
f 84/100/85 68/98/85 83/126/85
f 77/96/86 91/101/86 92/129/86
f 85/102/87 69/94/87 84/100/87
f 93/103/88 77/96/88 92/129/88
f 86/104/89 70/80/89 85/102/89
f 87/109/92 71/105/92 86/104/92
f 65/110/93 79/107/93 80/118/93
f 88/111/94 72/85/94 87/109/94
f 81/113/95 65/110/95 80/118/95
f 74/89/96 88/111/96 89/122/96
f 82/99/97 66/87/97 81/113/97
f 102/116/99 86/104/99 101/139/99
f 95/117/100 79/107/100 94/132/100
f 103/119/101 87/109/101 102/116/101
f 96/120/102 80/118/102 95/117/102
f 104/121/103 88/111/103 103/119/103
f 97/123/104 81/113/104 96/120/104
f 105/124/105 89/122/105 104/121/105
f 98/125/106 82/99/106 97/123/106
f 91/101/107 105/124/107 106/134/107
f 99/127/108 83/126/108 98/125/108
f 107/128/109 91/101/109 106/134/109
f 85/102/110 99/127/110 100/130/110
f 108/115/111 92/129/111 107/128/111
f 86/104/112 100/130/112 101/139/112
f 121/133/114 105/124/114 120/150/114
f 114/135/115 98/125/115 113/157/115
f 122/136/116 106/134/116 121/133/116
f 115/137/117 99/127/117 114/135/117
f 108/115/118 122/136/118 123/143/118
f 116/138/119 100/130/119 115/137/119
f 117/144/122 101/139/122 116/138/122
f 110/145/123 94/132/123 109/141/123
f 118/146/124 102/116/124 117/144/124
f 111/147/125 95/117/125 110/145/125
f 119/148/126 103/119/126 118/146/126
f 112/149/127 96/120/127 111/147/127
f 120/150/128 104/121/128 119/148/128
f 98/125/129 112/149/129 113/157/129
f 125/151/130 109/141/130 124/163/130
f 118/146/131 132/152/131 133/153/131
f 111/147/132 125/151/132 126/176/132
f 119/148/133 133/153/133 134/178/133
f 127/154/134 111/147/134 126/176/134
f 135/155/135 119/148/135 134/178/135
f 128/156/136 112/149/136 127/154/136
f 121/133/137 135/155/137 136/167/137
f 129/158/138 113/157/138 128/156/138
f 137/159/139 121/133/139 136/167/139
f 130/160/140 114/135/140 129/158/140
f 138/161/141 122/136/141 137/159/141
f 116/138/142 130/160/142 131/170/142
f 132/152/145 116/138/145 131/170/145
f 144/165/146 128/156/146 143/188/146
f 152/166/147 136/167/147 151/189/147
f 145/168/148 129/158/148 144/165/148
f 153/169/149 137/159/149 152/166/149
f 131/170/150 145/168/150 146/194/150
f 147/174/153 131/170/153 146/194/153
f 140/175/154 124/163/154 139/172/154
f 133/153/155 147/174/155 148/181/155
f 126/176/156 140/175/156 141/184/156
f 149/177/157 133/153/157 148/181/157
f 142/179/158 126/176/158 141/184/158
f 150/180/159 134/178/159 149/177/159
f 128/156/160 142/179/160 143/188/160
f 136/167/161 150/180/161 151/189/161
f 148/181/162 162/182/162 163/185/162
f 156/183/163 140/175/163 155/198/163
f 149/177/164 163/185/164 164/210/164
f 157/186/165 141/184/165 156/183/165
f 165/187/166 149/177/166 164/210/166
f 143/188/167 157/186/167 158/214/167
f 151/189/168 165/187/168 166/200/168
f 159/190/169 143/188/169 158/214/169
f 167/191/170 151/189/170 166/200/170
f 160/192/171 144/165/171 159/190/171
f 168/193/172 152/166/172 167/191/172
f 146/194/173 160/192/173 161/203/173
f 162/182/176 146/194/176 161/203/176
f 155/198/177 139/172/177 154/196/177
f 182/199/178 166/200/178 181/222/178
f 175/201/179 159/190/179 174/215/179
f 183/202/180 167/191/180 182/199/180
f 161/203/181 175/201/181 176/227/181
f 177/207/184 161/203/184 176/227/184
f 170/208/185 154/196/185 169/205/185
f 163/185/186 177/207/186 178/211/186
f 171/209/187 155/198/187 170/208/187
f 164/210/188 178/211/188 179/217/188
f 172/212/189 156/183/189 171/209/189
f 180/213/190 164/210/190 179/217/190
f 158/214/191 172/212/191 173/221/191
f 166/200/192 180/213/192 181/222/192
f 174/215/193 158/214/193 173/221/193
f 171/209/194 185/216/194 186/241/194
f 179/217/195 193/218/195 194/242/195
f 187/219/196 171/209/196 186/241/196
f 195/220/197 179/217/197 194/242/197
f 173/221/198 187/219/198 188/246/198
f 181/222/199 195/220/199 196/247/199
f 189/223/200 173/221/200 188/246/200
f 197/224/201 181/222/201 196/247/201
f 190/225/202 174/215/202 189/223/202
f 198/226/203 182/199/203 197/224/203
f 176/227/204 190/225/204 191/234/204
f 192/231/207 176/227/207 191/234/207
f 170/208/208 184/229/208 185/216/208
f 178/211/209 192/231/209 193/218/209
f 206/232/210 189/223/210 205/248/210
f 214/233/211 197/224/211 213/249/211
f 191/234/212 206/232/212 207/260/212
f 208/238/215 191/234/215 207/260/215
f 201/239/216 184/229/216 200/236/216
f 193/218/217 208/238/217 209/243/217
f 202/240/218 185/216/218 201/239/218
f 194/242/219 209/243/219 210/251/219
f 203/244/220 186/241/220 202/240/220
f 211/245/221 194/242/221 210/251/221
f 188/246/222 203/244/222 204/254/222
f 196/247/223 211/245/223 212/256/223
f 205/248/224 188/246/224 204/254/224
f 213/249/225 196/247/225 212/256/225
f 226/250/226 209/243/226 225/277/226
f 219/252/227 202/240/227 218/266/227
f 227/253/228 210/251/228 226/250/228
f 204/254/229 219/252/229 220/282/229
f 228/255/230 211/245/230 227/253/230
f 221/257/231 204/254/231 220/282/231
f 213/249/232 228/255/232 229/267/232
f 222/258/233 205/248/233 221/257/233
f 230/259/234 213/249/234 229/267/234
f 207/260/235 222/258/235 223/269/235
f 224/264/238 207/260/238 223/269/238
f 217/265/239 200/236/239 216/262/239
f 209/243/240 224/264/240 225/277/240
f 218/266/241 201/239/241 217/265/241
f 230/259/242 244/268/242 245/274/242
f 223/269/243 237/270/243 238/293/243
f 239/275/246 223/269/246 238/293/246
f 232/276/247 216/262/247 231/272/247
f 225/277/248 239/275/248 240/279/248
f 233/278/249 217/265/249 232/276/249
f 226/250/250 240/279/250 241/286/250
f 234/280/252 218/266/252 233/278/252
f 242/281/253 226/250/253 241/286/253
f 220/282/254 234/280/254 235/287/254
f 228/255/255 242/281/255 243/284/255
f 236/283/256 220/282/256 235/287/256
f 229/267/257 243/284/257 244/268/257
f 237/270/258 221/257/258 236/283/258
f 257/285/259 241/286/259 256/308/259
f 235/287/260 249/288/260 250/312/260
f 243/284/261 257/285/261 258/290/261
f 251/289/262 235/287/262 250/312/262
f 244/268/263 258/290/263 259/315/263
f 252/291/264 236/283/264 251/289/264
f 260/292/265 244/268/265 259/315/265
f 238/293/266 252/291/266 253/306/266
f 254/297/269 238/293/269 253/306/269
f 247/298/270 231/272/270 246/295/270
f 240/279/271 254/297/271 255/300/271
f 248/299/272 232/276/272 247/298/272
f 241/286/273 255/300/273 256/308/273
f 249/288/274 233/278/274 248/299/274
f 269/305/277 253/306/277 268/419/277
f 247/298/278 261/302/278 262/420/278
f 255/300/279 269/305/279 270/309/279
f 263/307/280 247/298/280 262/420/280
f 256/308/281 270/309/281 271/421/281
f 264/310/282 248/299/282 263/307/282
f 272/311/283 256/308/283 271/421/283
f 250/312/284 264/310/284 265/422/284
f 258/290/285 272/311/285 273/423/285
f 266/313/286 250/312/286 265/422/389
f 274/314/287 258/290/287 273/423/287
f 267/316/288 251/289/288 266/313/288
f 275/304/289 259/315/289 274/314/289
f 253/306/290 267/316/290 268/419/290
f 265/317/291 279/319/291 280/353/291
f 273/320/292 287/322/292 288/354/292
f 281/323/293 265/317/293 280/353/293
f 289/325/294 273/320/294 288/354/294
f 282/327/295 266/324/295 281/323/295
f 275/329/296 289/325/296 290/335/296
f 268/330/297 282/327/297 283/345/297
f 284/336/300 268/330/300 283/345/300
f 262/338/301 276/333/301 277/341/301
f 270/339/302 284/336/302 285/343/302
f 263/340/303 277/341/303 278/348/303
f 271/342/304 285/343/304 286/349/304
f 279/319/305 263/340/305 278/348/305
f 287/322/306 271/342/306 286/349/306
f 299/344/307 283/345/307 298/368/307
f 277/341/308 291/346/308 292/374/308
f 285/343/309 299/344/309 300/350/309
f 293/347/310 277/341/310 292/374/310
f 286/349/311 300/350/311 301/377/311
f 294/351/312 278/348/312 293/347/312
f 302/352/313 286/349/313 301/377/313
f 280/353/314 294/351/314 295/364/314
f 288/354/315 302/352/315 303/361/315
f 296/355/316 280/353/316 295/364/316
f 304/356/317 288/354/317 303/361/317
f 297/357/318 281/323/318 296/355/318
f 305/358/319 289/325/319 304/356/319
f 283/345/320 297/357/320 298/368/320
f 303/361/323 317/362/323 318/388/323
f 311/363/324 295/364/324 310/386/324
f 319/365/325 303/361/325 318/388/325
f 312/366/326 296/355/326 311/363/326
f 320/367/327 304/356/327 319/365/327
f 298/368/328 312/366/328 313/392/328
f 314/372/331 298/368/331 313/392/331
f 307/373/332 291/346/332 306/370/332
f 300/350/333 314/372/333 315/380/333
f 308/375/334 292/374/334 307/373/334
f 316/376/335 300/350/335 315/380/335
f 309/378/336 293/347/336 308/375/336
f 317/362/337 301/377/337 316/376/337
f 295/364/338 309/378/338 310/386/338
f 322/379/339 306/370/339 321/394/339
f 315/380/340 329/381/340 330/408/340
f 323/382/341 307/373/341 322/379/341
f 331/383/342 315/380/342 330/408/342
f 324/384/343 308/375/343 323/382/343
f 332/385/344 316/376/344 331/383/344
f 310/386/345 324/384/345 325/397/345
f 333/387/346 317/362/346 332/385/346
f 326/389/347 310/386/347 325/397/347
f 334/390/349 318/388/349 333/387/349
f 327/391/350 311/363/350 326/389/350
f 320/367/351 334/390/351 335/396/351
f 313/392/352 327/391/352 328/402/352
f 329/381/355 313/392/355 328/402/355
f 326/389/356 340/398/356 341/415/356
f 349/399/357 333/387/357 348/412/357
f 342/400/358 326/389/358 341/415/358
f 350/401/359 334/390/359 349/399/359
f 328/402/360 342/400/360 343/416/360
f 344/406/363 328/402/363 343/416/363
f 337/407/364 321/394/364 336/404/364
f 330/408/365 344/406/365 345/413/365
f 323/382/366 337/407/366 338/414/366
f 346/409/367 330/408/367 345/413/367
f 339/410/369 323/382/369 338/414/369
f 347/411/370 331/383/370 346/409/370
f 325/397/371 339/410/371 340/398/371
f 348/412/372 332/385/372 347/411/372
f 345/413/373 357/24/373 358/26/373
f 353/27/374 337/407/374 352/25/374
f 3/3/375 345/413/375 358/26/375
f 354/5/376 338/414/376 353/27/376
f 359/2/377 346/409/377 3/3/377
f 340/398/378 354/5/378 1/4/378
f 348/412/379 359/2/379 360/8/379
f 341/415/380 1/4/380 2/9/380
f 349/399/381 360/8/381 361/12/381
f 355/13/382 341/415/382 2/9/382
f 362/16/383 349/399/383 361/12/383
f 343/416/384 355/13/384 356/17/384
f 357/24/387 343/416/387 356/17/387
f 337/407/388 351/19/388 352/25/388
