# Blender 4.4.3
# www.blender.org
mtllib enemy.mtl
o 円柱
v -0.000000 0.453991 -0.599334
v -0.036663 1.057283 3.321183
v -2.194246 -0.082825 2.571090
v -0.300785 0.645180 0.545555
v -0.000000 0.453991 3.003529
v -0.036663 1.057283 2.486709
v -0.300785 0.645180 0.141382
v -2.194246 -0.012150 2.571090
v 0.036663 1.057283 3.321183
v 0.088569 0.445268 -0.599334
v -1.483392 -0.080930 0.357809
v 0.036663 1.057283 2.486709
v -0.036663 0.979526 3.279358
v 0.300785 0.645180 0.545555
v 0.088569 0.445268 3.003529
v -0.036663 0.979526 2.444884
v 0.036663 0.979526 2.444884
v -1.483392 -0.048630 0.357809
v 0.300785 0.645180 0.141382
v 0.036663 0.979526 3.279358
v -0.690856 0.979526 3.279358
v 0.173735 0.419433 -0.599334
v 0.173735 0.419433 3.003529
v -0.690856 1.057283 3.321183
v -0.100262 0.645180 -0.003130
v -0.690856 1.057283 2.486709
v 0.252224 0.377480 -0.599334
v 0.690856 1.057283 2.486709
v 0.252224 0.377480 3.003529
v 0.690856 1.057283 3.321183
v -0.690856 0.979526 2.444884
v 0.100262 0.645180 -0.003130
v 0.321020 0.321020 -0.599334
v 0.690856 0.979526 2.444884
v 0.690856 0.979526 3.279358
v 0.321020 0.321020 3.003529
v 0.100262 0.645180 0.545555
v -0.100262 0.645180 0.545555
v 0.377480 0.252224 -0.599334
v 0.377480 0.252224 3.003529
v 0.419433 0.173735 -0.599334
v 0.419433 0.173735 3.003529
v 0.445268 0.088569 -0.599334
v 0.445268 0.088569 3.003529
v 0.453991 0.000000 -0.599334
v 0.453991 0.000000 3.003529
v 2.194246 -0.082825 2.571090
v 0.445268 -0.088569 -0.599334
v 0.445268 -0.088569 3.003529
v 2.194246 -0.012150 2.571090
v 0.419433 -0.173735 -0.599334
v 1.483392 -0.080930 0.357809
v 1.483392 -0.048630 0.357809
v 0.419433 -0.173735 3.003529
v 0.377480 -0.252224 -0.599334
v 0.377480 -0.252224 3.003529
v 0.321020 -0.321020 -0.599334
v 0.321020 -0.321020 3.003529
v 0.252224 -0.377480 -0.599334
v 0.252224 -0.377480 3.003529
v 0.173735 -0.419433 -0.599334
v 0.173735 -0.419433 3.003529
v 0.088569 -0.445268 -0.599334
v 0.088569 -0.445268 3.003529
v -0.000000 -0.453991 -0.599334
v -0.000000 -0.453991 3.003529
v -0.088569 -0.445268 -0.599334
v -0.088569 -0.445268 3.003529
v -0.173735 -0.419433 -0.599334
v -0.173735 -0.419433 3.003529
v -0.252224 -0.377480 -0.599334
v -0.252224 -0.377480 3.003529
v -0.321020 -0.321020 -0.599334
v -0.321020 -0.321020 3.003529
v -0.377480 -0.252224 -0.599334
v -0.377480 -0.252224 3.003529
v -0.419433 -0.173735 -0.599334
v -0.419433 -0.173735 3.003529
v -0.445268 -0.088569 -0.599334
v -0.445268 -0.088569 3.003529
v -0.453991 0.000000 -0.599334
v -0.453991 0.000000 3.003529
v -0.445268 0.088569 -0.599334
v -0.445268 0.088569 3.003529
v -0.419433 0.173735 -0.599334
v -0.419433 0.173735 3.003529
v -0.377480 0.252224 -0.599334
v -0.377480 0.252224 3.003529
v -0.321020 0.321020 -0.599334
v -0.321020 0.321020 3.003529
v -0.252224 0.377480 -0.599334
v -0.252224 0.377480 3.003529
v -0.173735 0.419433 -0.599334
v -0.173735 0.419433 3.003529
v -0.088569 0.445268 -0.599334
v -0.088569 0.445268 3.003529
v 0.000000 0.000000 -2.054897
v 0.072154 0.362745 3.425132
v -0.000000 0.369852 3.425132
v 0.141536 0.341698 3.425132
v 0.205479 0.307520 3.425132
v 0.261525 0.261524 3.425132
v 0.307520 0.205478 3.425132
v 0.341698 0.141536 3.425132
v 0.362745 0.072154 3.425132
v 0.369852 -0.000000 3.425132
v 0.362745 -0.072155 3.425132
v 0.341698 -0.141536 3.425132
v 0.307520 -0.205479 3.425132
v 0.261525 -0.261525 3.425132
v 0.205479 -0.307520 3.425132
v 0.141536 -0.341698 3.425132
v 0.072154 -0.362745 3.425132
v -0.000000 -0.369852 3.425132
v -0.072154 -0.362745 3.425132
v -0.141536 -0.341698 3.425132
v -0.205479 -0.307520 3.425132
v -0.261525 -0.261525 3.425132
v -0.307520 -0.205479 3.425132
v -0.341698 -0.141536 3.425132
v -0.362745 -0.072155 3.425132
v -0.369852 -0.000000 3.425132
v -0.362745 0.072154 3.425132
v -0.341698 0.141536 3.425132
v -0.307520 0.205478 3.425132
v -0.261525 0.261524 3.425132
v -0.205479 0.307520 3.425132
v -0.141536 0.341698 3.425132
v -0.072154 0.362745 3.425132
v 0.075734 0.380738 3.425132
v -0.000000 0.388198 3.425132
v 0.148557 0.358648 3.425132
v 0.215671 0.322774 3.425132
v 0.274497 0.274497 3.425132
v 0.322774 0.215671 3.425132
v 0.358648 0.148557 3.425132
v 0.380738 0.075734 3.425132
v 0.388198 -0.000000 3.425132
v 0.380738 -0.075734 3.425132
v 0.358648 -0.148557 3.425132
v 0.322774 -0.215671 3.425132
v 0.274497 -0.274497 3.425132
v 0.215671 -0.322775 3.425132
v 0.148557 -0.358648 3.425132
v 0.075734 -0.380739 3.425132
v -0.000000 -0.388198 3.425132
v -0.075734 -0.380739 3.425132
v -0.148557 -0.358648 3.425132
v -0.215671 -0.322775 3.425132
v -0.274497 -0.274497 3.425132
v -0.322774 -0.215671 3.425132
v -0.358648 -0.148557 3.425132
v -0.380738 -0.075734 3.425132
v -0.388198 -0.000000 3.425132
v -0.380738 0.075734 3.425132
v -0.358648 0.148557 3.425132
v -0.322774 0.215671 3.425132
v -0.274497 0.274497 3.425132
v -0.215671 0.322774 3.425132
v -0.148557 0.358648 3.425132
v -0.075734 0.380738 3.425132
v 0.072154 0.362745 3.010045
v -0.000000 0.369851 3.010045
v 0.141536 0.341698 3.010045
v 0.205479 0.307520 3.010045
v 0.261525 0.261524 3.010045
v 0.307520 0.205478 3.010045
v 0.341698 0.141536 3.010045
v 0.362745 0.072154 3.010045
v 0.369852 -0.000000 3.010045
v 0.362745 -0.072155 3.010045
v 0.341698 -0.141536 3.010045
v 0.307520 -0.205479 3.010045
v 0.261525 -0.261525 3.010045
v 0.205479 -0.307520 3.010045
v 0.141536 -0.341698 3.010045
v 0.072154 -0.362745 3.010045
v -0.000000 -0.369852 3.010045
v -0.072154 -0.362745 3.010045
v -0.141536 -0.341698 3.010045
v -0.205479 -0.307520 3.010045
v -0.261525 -0.261525 3.010045
v -0.307520 -0.205479 3.010045
v -0.341698 -0.141536 3.010045
v -0.362745 -0.072155 3.010045
v -0.369852 -0.000000 3.010045
v -0.362745 0.072154 3.010045
v -0.341698 0.141536 3.010045
v -0.307520 0.205478 3.010045
v -0.261525 0.261524 3.010045
v -0.205479 0.307520 3.010045
v -0.141536 0.341698 3.010045
v -0.072154 0.362745 3.010045
v 0.452795 -0.012150 2.571090
v 0.445834 -0.082825 2.571090
v 0.446020 -0.080930 0.357809
v 0.449202 -0.048630 0.357809
v -0.445834 -0.082825 2.571090
v -0.452795 -0.012150 2.571090
v -0.446020 -0.080930 0.357809
v -0.449202 -0.048630 0.357809
v -0.000000 0.453991 0.788796
v -0.000000 0.453991 -0.097729
v 0.088569 0.445268 0.799894
v 0.088569 0.445268 -0.102045
v 0.100262 0.441721 0.804407
v 0.100262 0.441721 -0.103800
v 0.173735 0.419433 0.832762
v 0.173735 0.419433 -0.061878
v 0.252224 0.377480 0.886138
v 0.252224 0.377480 -0.026071
v 0.300785 0.337627 -0.010794
v 0.300785 0.337627 0.936841
v -0.300785 0.337627 0.936841
v -0.300785 0.337627 -0.010794
v -0.252224 0.377480 0.886138
v -0.252224 0.377480 -0.026071
v -0.173735 0.419433 0.832762
v -0.173735 0.419433 -0.061878
v -0.100262 0.441721 0.804407
v -0.088569 0.445268 -0.102045
v -0.100262 0.441721 -0.103800
v -0.088569 0.445268 0.799894
v 0.036663 0.450380 2.160261
v 0.036663 0.450380 2.994736
v -0.000000 0.453991 2.996678
v -0.000000 0.453991 2.162204
v -0.036663 0.450380 2.994736
v -0.036663 0.450380 2.160261
vn 0.0980 0.9952 -0.0000
vn 0.2903 0.9569 -0.0000
vn 0.4714 0.8819 -0.0000
vn 0.6344 0.7730 -0.0000
vn 0.7730 0.6344 -0.0000
vn 0.8819 0.4714 -0.0000
vn 0.9569 0.2903 -0.0000
vn 0.9952 0.0980 -0.0000
vn 0.9952 -0.0980 -0.0000
vn 0.9569 -0.2903 -0.0000
vn 0.8819 -0.4714 -0.0000
vn 0.7730 -0.6344 -0.0000
vn 0.6344 -0.7730 -0.0000
vn 0.4714 -0.8819 -0.0000
vn 0.2903 -0.9569 -0.0000
vn 0.0980 -0.9952 -0.0000
vn -0.0980 -0.9952 -0.0000
vn -0.2903 -0.9569 -0.0000
vn -0.4714 -0.8819 -0.0000
vn -0.6344 -0.7730 -0.0000
vn -0.7730 -0.6344 -0.0000
vn -0.8819 -0.4714 -0.0000
vn -0.9569 -0.2903 -0.0000
vn -0.9952 -0.0980 -0.0000
vn -0.9952 0.0980 -0.0000
vn -0.9569 0.2903 -0.0000
vn -0.8819 0.4714 -0.0000
vn -0.7730 0.6344 -0.0000
vn -0.6344 0.7730 -0.0000
vn -0.4714 0.8819 -0.0000
vn 0.9834 0.0969 0.1535
vn -0.2903 0.9569 -0.0000
vn -0.0980 0.9952 -0.0000
vn 0.7383 0.6059 -0.2964
vn 0.4502 -0.8423 -0.2964
vn -0.9139 -0.2772 -0.2964
vn 0.0936 0.9505 -0.2964
vn -0.0936 0.9505 -0.2964
vn 0.9139 -0.2772 -0.2964
vn -0.4502 -0.8423 -0.2964
vn -0.7383 0.6059 -0.2964
vn 0.8423 0.4502 -0.2964
vn 0.2772 -0.9139 -0.2964
vn -0.9505 -0.0936 -0.2964
vn 0.2772 0.9139 -0.2964
vn 0.8423 -0.4502 -0.2964
vn -0.6059 -0.7383 -0.2964
vn -0.6059 0.7383 -0.2964
vn 0.9139 0.2772 -0.2964
vn 0.0936 -0.9505 -0.2964
vn -0.9505 0.0936 -0.2964
vn 0.4502 0.8423 -0.2964
vn 0.7383 -0.6059 -0.2964
vn -0.7383 -0.6059 -0.2964
vn -0.4502 0.8423 -0.2964
vn 0.9505 0.0936 -0.2964
vn -0.0936 -0.9505 -0.2964
vn -0.9139 0.2772 -0.2964
vn 0.6059 0.7383 -0.2964
vn 0.6059 -0.7383 -0.2964
vn -0.8423 -0.4502 -0.2964
vn -0.2772 0.9139 -0.2964
vn 0.9505 -0.0936 -0.2964
vn -0.2772 -0.9139 -0.2964
vn -0.8423 0.4502 -0.2964
vn -0.0969 -0.9834 0.1535
vn -0.9456 0.2868 0.1535
vn 0.6269 0.7639 0.1535
vn 0.6269 -0.7639 0.1535
vn -0.8715 -0.4658 0.1535
vn -0.2868 0.9456 0.1535
vn 0.9834 -0.0969 0.1535
vn -0.2868 -0.9456 0.1535
vn -0.8715 0.4658 0.1535
vn 0.7639 0.6269 0.1535
vn 0.4658 -0.8715 0.1535
vn 0.0969 0.9834 0.1535
vn -0.9456 -0.2868 0.1535
vn -0.0969 0.9834 0.1535
vn 0.9456 -0.2868 0.1535
vn -0.4658 -0.8715 0.1535
vn -0.7639 0.6269 0.1535
vn 0.8715 0.4658 0.1535
vn 0.2868 -0.9456 0.1535
vn -0.9834 -0.0969 0.1535
vn 0.2868 0.9456 0.1535
vn 0.8715 -0.4658 0.1535
vn -0.6269 -0.7639 0.1535
vn -0.6269 0.7639 0.1535
vn 0.9456 0.2868 0.1535
vn 0.0969 -0.9834 0.1535
vn -0.9834 0.0969 0.1535
vn 0.4658 0.8715 0.1535
vn 0.7639 -0.6269 0.1535
vn -0.7639 -0.6269 0.1535
vn -0.4658 0.8715 0.1535
vn -0.0000 -0.0000 1.0000
vn -0.0000 -1.0000 -0.0009
vn -0.0000 0.9999 -0.0165
vn -0.0000 -0.0000 -1.0000
vn -0.9521 -0.0000 -0.3058
vn 0.9521 -0.0000 -0.3058
vn -1.0000 -0.0000 -0.0000
vn 0.5426 0.3725 -0.7529
vn 1.0000 -0.0000 -0.0000
vn -0.0000 0.7862 0.6180
vn -0.0000 1.0000 -0.0000
vn -0.5426 0.3725 -0.7529
vn -0.0000 0.4435 -0.8963
vn -0.0000 -1.0000 -0.0000
vn -0.0000 0.4737 -0.8807
vn -0.0000 -0.4737 0.8807
vn -0.0000 -0.0001 1.0000
vt 0.890959 0.000033
vt 0.883030 0.128789
vt 0.883030 0.001356
vt 0.890959 0.474286
vt 0.877430 0.550194
vt 0.877430 0.473594
vt 0.903969 0.000131
vt 0.903969 0.331629
vt 0.890959 0.550227
vt 0.892745 0.474567
vt 0.915959 0.323636
vt 0.915959 0.550483
vt 0.903969 0.468250
vt 0.915959 0.462940
vt 0.923377 0.316044
vt 0.926468 0.000502
vt 0.926468 0.550696
vt 0.632240 0.774090
vt 0.621762 0.224596
vt 0.632240 0.224227
vt 0.621762 0.774458
vt 0.609795 0.224870
vt 0.609795 0.774733
vt 0.596800 0.225040
vt 0.596800 0.774903
vt 0.583275 0.225099
vt 0.581418 0.708957
vt 0.569741 0.774907
vt 0.570618 0.708913
vt 0.575844 0.371147
vt 0.570908 0.371127
vt 0.569741 0.225045
vt 0.556717 0.224878
vt 0.556717 0.774741
vt 0.544704 0.224607
vt 0.544704 0.774470
vt 0.534164 0.224242
vt 0.828392 0.773898
vt 0.817882 0.224109
vt 0.828392 0.223828
vt 0.817882 0.774179
vt 0.805893 0.224318
vt 0.805893 0.774388
vt 0.792883 0.224447
vt 0.792883 0.774516
vt 0.779353 0.224490
vt 0.779353 0.774560
vt 0.765824 0.224447
vt 0.765824 0.774516
vt 0.752814 0.224318
vt 0.752814 0.774388
vt 0.740824 0.224109
vt 0.740824 0.774179
vt 0.730315 0.223828
vt 0.730315 0.774105
vt 0.719775 0.224607
vt 0.730315 0.224242
vt 0.719775 0.774470
vt 0.707763 0.224878
vt 0.707763 0.774741
vt 0.694739 0.225045
vt 0.683061 0.708957
vt 0.694739 0.774907
vt 0.681205 0.774962
vt 0.688636 0.371147
vt 0.681205 0.225099
vt 0.667680 0.225040
vt 0.667680 0.774903
vt 0.654684 0.224870
vt 0.654684 0.774733
vt 0.642718 0.224596
vt 0.642718 0.774458
vt 0.831483 0.316044
vt 0.831483 0.460757
vt 0.828392 0.550696
vt 0.838901 0.323636
vt 0.850890 0.000131
vt 0.850890 0.331629
vt 0.850890 0.468250
vt 0.838901 0.550483
vt 0.838901 0.462940
vt 0.445353 0.882707
vt 0.509326 0.896278
vt 0.445409 0.896232
vt 0.863900 0.000033
vt 0.850890 0.550325
vt 0.862114 0.474567
vt 0.871829 0.001356
vt 0.871829 0.128789
vt 0.863900 0.474286
vt 0.583026 0.000000
vt 0.779353 0.000000
vt 0.681454 -0.000000
vt 0.877430 0.774188
vt 0.863900 0.550227
vt 0.903969 0.550325
vt 0.534564 0.963937
vt 0.597767 0.973704
vt 0.534393 0.973704
vt 0.909884 0.921302
vt 0.973888 0.932871
vt 0.909840 0.934831
vt 0.973195 0.809628
vt 0.909414 0.800522
vt 0.973363 0.796633
vt 0.112319 0.985627
vt 0.176709 0.969534
vt 0.176526 0.978520
vt 0.909503 0.882773
vt 0.973358 0.879370
vt 0.973599 0.888356
vt 0.973636 0.861724
vt 0.909414 0.845908
vt 0.973363 0.849711
vt 0.112691 0.910049
vt 0.176927 0.925020
vt 0.112788 0.923059
vt 0.445353 0.909766
vt 0.509277 0.907850
vt 0.973778 0.943995
vt 0.909712 0.947841
vt 0.973636 0.784666
vt 0.909647 0.790290
vt 0.444912 0.857745
vt 0.508586 0.854409
vt 0.508900 0.863368
vt 0.973778 0.898609
vt 0.909712 0.894762
vt 0.112821 0.936589
vt 0.176927 0.948158
vt 0.112788 0.950118
vt 0.909270 0.834772
vt 0.973195 0.836687
vt 0.176956 0.936589
vt 0.509133 0.918987
vt 0.445184 0.922790
vt 0.973599 0.954247
vt 0.909503 0.959831
vt 0.909961 0.781330
vt 0.974003 0.774188
vt 0.509133 0.873601
vt 0.445184 0.869712
vt 0.973888 0.909733
vt 0.909840 0.907772
vt 0.909222 0.823199
vt 0.973138 0.823153
vt 0.176844 0.959282
vt 0.112691 0.963128
vt 0.444912 0.934802
vt 0.508900 0.929258
vt 0.973358 0.963233
vt 0.909222 0.970340
vt 0.112319 0.887551
vt 0.176709 0.903643
vt 0.112532 0.898060
vt 0.509277 0.884713
vt 0.973925 0.921302
vt 0.909270 0.811634
vt 0.112532 0.975118
vt 0.508586 0.938271
vt 0.444544 0.945342
vt 0.974003 0.872264
vt 0.909647 0.856180
vt 0.176844 0.913896
vt 0.441758 0.729975
vt 0.442279 0.718299
vt 0.444544 0.729701
vt 0.435367 0.708879
vt 0.439600 0.719112
vt 0.431385 0.697891
vt 0.437836 0.707558
vt 0.421399 0.691835
vt 0.429221 0.699669
vt 0.413521 0.683209
vt 0.423175 0.689669
vt 0.401981 0.681439
vt 0.412201 0.685680
vt 0.391406 0.676487
vt 0.402794 0.678758
vt 0.380069 0.679273
vt 0.391131 0.679276
vt 0.368407 0.678750
vt 0.379795 0.676484
vt 0.359000 0.685668
vt 0.369220 0.681432
vt 0.348026 0.689652
vt 0.357680 0.683196
vt 0.341980 0.699648
vt 0.349802 0.691818
vt 0.333365 0.707534
vt 0.339816 0.697870
vt 0.331600 0.719087
vt 0.335834 0.708855
vt 0.326657 0.729673
vt 0.328922 0.718273
vt 0.329442 0.729949
vt 0.326657 0.741298
vt 0.331600 0.751887
vt 0.329442 0.741024
vt 0.335834 0.762120
vt 0.328922 0.752700
vt 0.339816 0.773108
vt 0.333365 0.763441
vt 0.349802 0.779164
vt 0.341980 0.771330
vt 0.357680 0.787790
vt 0.348026 0.781330
vt 0.369220 0.789560
vt 0.359000 0.785319
vt 0.380069 0.791723
vt 0.368407 0.792241
vt 0.391131 0.791725
vt 0.379795 0.794512
vt 0.402794 0.792249
vt 0.391406 0.794514
vt 0.412201 0.785331
vt 0.401981 0.789567
vt 0.423175 0.781347
vt 0.413521 0.787803
vt 0.429221 0.771351
vt 0.421399 0.779180
vt 0.437836 0.763465
vt 0.431385 0.773129
vt 0.439600 0.751912
vt 0.435367 0.762144
vt 0.444544 0.741326
vt 0.442279 0.752726
vt 0.441758 0.741050
vt 0.099772 0.979617
vt 0.020350 0.987448
vt 0.012547 0.907934
vt 0.534393 0.910928
vt 0.597937 0.920695
vt 0.534564 0.920695
vt 0.926877 0.039950
vt 0.990238 0.050972
vt 0.926850 0.050972
vt 0.534164 0.982266
vt 0.597538 0.982266
vt 0.598042 0.931294
vt 0.534668 0.931294
vt 0.990158 0.061570
vt 0.926771 0.061570
vt 0.241327 0.896137
vt 0.304378 0.887551
vt 0.304676 0.896137
vt 0.598077 0.942316
vt 0.534704 0.942316
vt 0.990029 0.071338
vt 0.926641 0.071338
vt 0.241547 0.905924
vt 0.304897 0.905924
vt 0.989856 0.079899
vt 0.926468 0.079899
vt 0.241683 0.916534
vt 0.305033 0.916534
vt 0.241016 0.967450
vt 0.177366 0.958913
vt 0.240716 0.958913
vt 0.241727 0.927559
vt 0.305077 0.927559
vt 0.177142 0.949165
vt 0.240492 0.949165
vt 0.305029 0.938578
vt 0.241679 0.938578
vt 0.177004 0.938578
vt 0.240353 0.938578
vt 0.304891 0.949165
vt 0.241541 0.949165
vt 0.176956 0.927560
vt 0.240306 0.927560
vt 0.304667 0.958913
vt 0.241317 0.958913
vt 0.177000 0.916534
vt 0.240350 0.916534
vt 0.304366 0.967450
vt 0.177135 0.905924
vt 0.240485 0.905924
vt 0.926641 0.008561
vt 0.989856 0.000000
vt 0.990029 0.008561
vt 0.177356 0.896137
vt 0.240706 0.896137
vt 0.990158 0.018329
vt 0.926771 0.018329
vt 0.598042 0.953338
vt 0.534668 0.953338
vt 0.177654 0.887551
vt 0.241004 0.887551
vt 0.990238 0.028928
vt 0.926850 0.028928
vt 0.597937 0.963937
vt 0.534164 0.902366
vt 0.597767 0.910928
vt 0.990265 0.039950
vt 0.958843 0.171793
vt 0.948060 0.437812
vt 0.948060 0.171793
vt 0.267082 0.337924
vt 0.108588 0.000000
vt 0.267054 0.000000
vt 0.374057 0.676228
vt 0.532037 0.338356
vt 0.532037 0.676484
vt 0.530010 0.834950
vt 0.525374 0.676970
vt 0.530010 0.676484
vt 0.926468 0.171795
vt 0.931402 0.514206
vt 0.926468 0.514207
vt 0.958843 0.705958
vt 0.948060 0.439939
vt 0.958843 0.438875
vt 0.425576 -0.000000
vt 0.267082 0.337924
vt 0.267111 0.000000
vt 0.000000 0.338356
vt 0.157980 0.676228
vt 0.000000 0.676484
vt 0.822209 0.932540
vt 0.826845 0.774560
vt 0.826845 0.933026
vt 0.943126 0.514206
vt 0.948060 0.171795
vt 0.948060 0.514207
vt 0.634097 0.859864
vt 0.681077 0.774962
vt 0.681077 0.919589
vt 0.973646 0.087317
vt 0.969497 0.099307
vt 0.926468 0.079899
vt 0.681077 0.774962
vt 0.728058 0.859864
vt 0.681077 0.919589
vt 0.737733 0.782152
vt 0.749723 0.790145
vt 0.730315 0.833152
vt 0.730315 0.894873
vt 0.760947 0.833152
vt 0.760947 0.916941
vt 0.822209 0.894873
vt 0.791578 0.833152
vt 0.822209 0.833152
vt 0.791578 0.916941
vt 0.791578 0.794391
vt 0.802802 0.790145
vt 0.776262 0.796728
vt 0.789792 0.795067
vt 0.969497 0.152386
vt 0.973646 0.164375
vt 0.926468 0.171793
vt 0.966411 0.125846
vt 0.967889 0.139376
vt 0.934024 0.141162
vt 0.634097 0.902366
vt 0.534164 0.774962
vt 0.634097 0.774962
vt 0.127433 0.787618
vt 0.140780 0.776417
vt 0.140780 0.787618
vt 0.231610 0.776417
vt 0.243788 0.676484
vt 0.243788 0.776417
vt 0.231610 0.787618
vt 0.243788 0.787618
vt 0.000000 0.776417
vt 0.127433 0.787618
vt 0.000000 0.787618
vt 0.326657 0.776417
vt 0.326091 0.782018
vt 0.525374 0.719911
vt 0.444544 0.803841
vt 0.444544 0.676484
vt 0.231610 0.776417
vt 0.230990 0.782018
vt 0.828392 0.817614
vt 0.909222 0.901544
vt 0.828392 0.944971
vt 0.438467 0.921871
vt 0.426589 0.800896
vt 0.438467 0.794514
vt 0.938346 0.520588
vt 0.926468 0.641563
vt 0.926468 0.514207
vt -0.000000 0.887551
vt 0.326657 0.794514
vt 0.426589 0.921918
vt 0.326657 0.921918
vt 0.231610 0.887551
vt 0.127433 0.676484
vt 0.127433 0.776417
vt 0.127433 0.887551
vt 0.127433 0.776417
vt 0.140780 0.676484
vt 0.877430 0.001046
vt 0.877430 0.000000
vt 0.890959 0.336551
vt 0.877430 0.338212
vt 0.877430 0.128479
vt 0.892745 0.335875
vt 0.915959 0.000289
vt 0.923377 0.460757
vt 0.583275 0.774962
vt 0.534164 0.774105
vt 0.730315 0.773898
vt 0.693861 0.708913
vt 0.693572 0.371127
vt 0.828392 0.000502
vt 0.838901 0.000289
vt 0.863900 0.336551
vt 0.862114 0.335875
vt 0.909222 0.872264
vt 0.444544 0.847267
vt 0.176526 0.894657
vt 0.909961 0.865192
vt 0.020371 0.900103
vt 0.050642 0.887551
vt 0.029570 0.893950
vt 0.039791 0.889711
vt 0.061704 0.887551
vt 0.072553 0.889711
vt 0.082772 0.893950
vt 0.091968 0.900103
vt 0.099789 0.907934
vt 0.112319 0.938238
vt 0.105932 0.917143
vt 0.110163 0.927375
vt 0.112316 0.949313
vt 0.110156 0.960176
vt 0.105920 0.970408
vt 0.091948 0.987448
vt 0.061677 1.000000
vt 0.082748 0.993601
vt 0.072527 0.997839
vt 0.050615 1.000000
vt 0.039766 0.997839
vt 0.029547 0.993601
vt 0.012530 0.979617
vt -0.000000 0.949313
vt 0.006386 0.970408
vt 0.002156 0.960176
vt 0.000003 0.938238
vt 0.002163 0.927375
vt 0.006399 0.917143
vt 0.241029 0.887551
vt 0.177667 0.967450
vt 0.926468 0.000000
vt 0.597538 0.902366
vt -0.000000 0.337924
vt 0.266018 0.337924
vt 0.525374 0.834950
vt 0.937264 0.171793
vt 0.948060 0.705958
vt 0.534164 0.337924
vt 0.266018 0.337924
vt 0.822209 0.774560
vt 0.937264 0.171793
vt 0.634097 0.798180
vt 0.968490 0.110531
vt 0.934024 0.110531
vt 0.978567 0.079899
vt 0.728058 0.798180
vt 0.760947 0.794391
vt 0.730315 0.774560
vt 0.814791 0.782152
vt 0.822209 0.774560
vt 0.762733 0.795067
vt 0.978567 0.171793
vt 0.968490 0.141162
vt 0.967889 0.112317
vt 0.534164 0.902366
vt 0.231610 0.676484
vt 0.326657 0.787618
vt 0.525374 0.847267
vt 0.231610 0.787618
vt 0.909222 0.774188
vt 0.426589 0.928252
vt 0.938346 0.647945
vt 0.127433 0.887551
vt 0.426589 0.794514
vt 0.243788 0.887551
vt 0.000000 0.676484
vt 0.140780 0.887551
vt 0.127433 0.676484
s 0
usemtl マテリアル.006
f 15/1/1 224/2/1 225/3/1
f 205/4/1 1/5/1 203/6/1
f 15/1/2 23/7/2 208/8/2
f 10/9/2 205/4/2 207/10/2
f 23/7/3 210/11/3 208/8/3
f 27/12/3 209/13/3 211/14/3
f 213/15/4 36/16/4 33/17/4
f 36/18/5 39/19/5 33/20/5
f 40/21/6 41/22/6 39/19/6
f 42/23/7 43/24/7 41/22/7
f 44/25/8 45/26/8 43/24/8
f 194/27/9 49/28/9 195/29/9
f 197/30/9 196/31/9 48/32/9
f 49/28/10 51/33/10 48/32/10
f 54/34/11 55/35/11 51/33/11
f 56/36/12 57/37/12 55/35/12
f 58/38/13 59/39/13 57/40/13
f 60/41/14 61/42/14 59/39/14
f 62/43/15 63/44/15 61/42/15
f 64/45/16 65/46/16 63/44/16
f 66/47/17 67/48/17 65/46/17
f 68/49/18 69/50/18 67/48/18
f 70/51/19 71/52/19 69/50/19
f 72/53/20 73/54/20 71/52/20
f 74/55/21 75/56/21 73/57/21
f 76/58/22 77/59/22 75/56/22
f 78/60/23 79/61/23 77/59/23
f 199/62/24 80/63/24 82/64/24
f 201/65/24 81/66/24 79/61/24
f 82/64/25 83/67/25 81/66/25
f 84/68/26 85/69/26 83/67/26
f 86/70/27 87/71/27 85/69/27
f 88/72/28 89/20/28 87/71/28
f 214/73/29 215/74/29 89/75/29
f 216/76/30 94/77/30 218/78/30
f 219/79/30 91/80/30 217/81/30
f 44/82/31 138/83/31 46/84/31
f 218/78/32 94/77/32 96/85/32
f 93/86/32 219/79/32 222/87/32
f 96/85/33 228/88/33 229/89/33
f 1/5/33 221/90/33 203/6/33
f 33/20/34 39/19/34 97/91/34
f 59/39/35 61/42/35 97/92/35
f 77/59/36 79/61/36 97/93/36
f 1/5/37 10/9/37 97/94/37
f 95/95/38 1/5/38 97/94/38
f 48/32/39 51/33/39 97/91/39
f 69/50/40 71/52/40 97/92/40
f 87/71/41 89/20/41 97/93/41
f 39/19/42 41/22/42 97/91/42
f 61/42/43 63/44/43 97/92/43
f 79/61/44 81/66/44 97/93/44
f 10/9/45 22/96/45 97/94/45
f 51/33/46 55/35/46 97/91/46
f 71/52/47 73/54/47 97/92/47
f 89/75/48 91/80/48 97/94/48
f 41/22/49 43/24/49 97/91/49
f 63/44/50 65/46/50 97/92/50
f 81/66/51 83/67/51 97/93/51
f 22/96/52 27/12/52 97/94/52
f 55/35/53 57/37/53 97/91/53
f 73/57/54 75/56/54 97/93/54
f 91/80/55 93/86/55 97/94/55
f 43/24/56 45/26/56 97/91/56
f 65/46/57 67/48/57 97/92/57
f 83/67/58 85/69/58 97/93/58
f 27/12/59 33/17/59 97/94/59
f 57/40/60 59/39/60 97/92/60
f 75/56/61 77/59/61 97/93/61
f 93/86/62 95/95/62 97/94/62
f 45/26/63 48/32/63 97/91/63
f 67/48/64 69/50/64 97/92/64
f 85/69/65 87/71/65 97/93/65
f 100/97/19 165/98/19 101/99/19
f 66/100/66 147/101/66 68/102/66
f 84/103/67 156/104/67 86/105/67
f 36/106/68 133/107/68 134/108/68
f 60/109/69 142/110/69 143/111/69
f 76/112/70 152/113/70 78/114/70
f 94/115/71 161/116/71 96/117/71
f 49/118/72 138/83/72 139/119/72
f 68/102/73 148/120/73 70/121/73
f 88/122/74 156/104/74 157/123/74
f 40/124/75 134/125/75 135/126/75
f 60/109/76 144/127/76 62/128/76
f 5/129/77 130/130/77 15/131/77
f 78/114/78 153/132/78 80/133/78
f 96/117/79 131/134/79 5/129/79
f 49/118/80 140/135/80 54/136/80
f 70/121/81 149/137/81 72/138/81
f 88/122/82 158/139/82 90/140/82
f 40/124/83 136/141/83 42/142/83
f 62/128/84 145/143/84 64/144/84
f 80/133/85 154/145/85 82/146/85
f 15/131/86 132/147/86 23/148/86
f 56/149/87 140/135/87 141/150/87
f 72/138/88 150/151/88 74/152/88
f 90/153/89 159/154/89 92/155/89
f 44/82/90 136/141/90 137/156/90
f 66/100/91 145/143/91 146/157/91
f 82/146/92 155/158/92 84/103/92
f 29/159/93 132/147/93 133/107/93
f 56/149/94 142/160/94 58/161/94
f 74/162/95 151/163/95 76/112/95
f 92/155/96 160/164/96 94/115/96
f 99/165/97 130/166/97 131/167/97
f 100/168/97 130/166/97 98/169/97
f 100/168/97 133/170/97 132/171/97
f 102/172/97 133/170/97 101/173/97
f 102/172/97 135/174/97 134/175/97
f 104/176/97 135/174/97 103/177/97
f 104/176/97 137/178/97 136/179/97
f 106/180/97 137/178/97 105/181/97
f 106/180/97 139/182/97 138/183/97
f 108/184/97 139/182/97 107/185/97
f 108/184/97 141/186/97 140/187/97
f 110/188/97 141/186/97 109/189/97
f 110/188/97 143/190/97 142/191/97
f 112/192/97 143/190/97 111/193/97
f 112/192/97 145/194/97 144/195/97
f 113/196/97 146/197/97 145/194/97
f 115/198/97 146/197/97 114/199/97
f 116/200/97 147/201/97 115/198/97
f 116/200/97 149/202/97 148/203/97
f 118/204/97 149/202/97 117/205/97
f 118/204/97 151/206/97 150/207/97
f 120/208/97 151/206/97 119/209/97
f 121/210/97 152/211/97 120/208/97
f 122/212/97 153/213/97 121/210/97
f 122/212/97 155/214/97 154/215/97
f 124/216/97 155/214/97 123/217/97
f 124/216/97 157/218/97 156/219/97
f 126/220/97 157/218/97 125/221/97
f 126/220/97 159/222/97 158/223/97
f 128/224/97 159/222/97 127/225/97
f 128/224/97 161/226/97 160/227/97
f 99/165/97 161/226/97 129/228/97
f 175/229/97 167/230/97 191/231/97
f 127/232/14 192/233/14 128/234/14
f 114/235/1 179/236/1 115/237/1
f 102/238/20 165/98/20 166/239/20
f 128/234/15 193/240/15 129/241/15
f 115/237/2 180/242/2 116/243/2
f 103/244/21 166/245/21 167/246/21
f 129/241/16 163/247/16 99/248/16
f 116/243/3 181/249/3 117/250/3
f 104/251/22 167/246/22 168/252/22
f 117/250/4 182/253/4 118/254/4
f 105/255/23 168/252/23 169/256/23
f 118/257/5 183/258/5 119/259/5
f 106/260/24 169/256/24 170/261/24
f 119/259/6 184/262/6 120/263/6
f 106/260/25 171/264/25 107/265/25
f 120/263/7 185/266/7 121/267/7
f 107/265/26 172/268/26 108/269/26
f 121/267/8 186/270/8 122/271/8
f 108/269/27 173/272/27 109/273/27
f 122/271/9 187/274/9 123/275/9
f 110/257/28 173/272/28 174/276/28
f 123/275/10 188/277/10 124/278/10
f 111/279/29 174/280/29 175/281/29
f 124/278/11 189/282/11 125/283/11
f 111/279/30 176/284/30 112/285/30
f 99/248/17 162/286/17 98/287/17
f 125/283/12 190/288/12 126/289/12
f 112/285/32 177/290/32 113/291/32
f 98/287/18 164/292/18 100/97/18
f 126/293/13 191/294/13 127/232/13
f 113/291/33 178/295/33 114/235/33
f 3/296/97 199/297/97 8/298/97
f 198/299/98 11/300/98 200/301/98
f 18/302/99 199/303/99 201/304/99
f 11/305/100 201/306/100 200/307/100
f 3/308/101 18/309/101 11/310/101
f 47/311/97 194/312/97 195/313/97
f 52/314/98 195/315/98 196/316/98
f 194/317/99 53/318/99 197/319/99
f 197/320/100 52/321/100 196/322/100
f 53/323/102 47/324/102 52/325/102
f 4/326/103 215/327/103 214/328/103
f 211/329/104 209/330/104 19/331/104
f 212/332/105 14/333/105 213/334/105
f 216/335/106 218/336/106 4/337/106
f 7/338/107 38/339/107 25/340/107
f 19/341/107 37/342/107 14/343/107
f 25/340/107 37/342/107 32/344/107
f 14/343/106 206/345/106 208/346/106
f 202/347/106 204/348/106 37/342/106
f 219/349/108 217/350/108 7/351/108
f 203/352/109 221/353/109 25/354/109
f 13/355/110 31/356/110 16/357/110
f 6/358/111 17/359/111 16/360/111
f 2/361/112 21/362/112 13/363/112
f 9/364/112 13/363/112 20/365/112
f 6/366/107 9/367/107 12/368/107
f 13/363/112 228/369/112 226/370/112
f 17/371/105 225/372/105 224/373/105
f 17/359/111 224/374/111 227/375/111
f 16/376/103 228/377/103 13/378/103
f 21/379/103 26/380/103 31/381/103
f 28/382/105 35/383/105 34/384/105
f 9/367/107 28/385/107 12/368/107
f 17/386/110 35/387/110 20/388/110
f 20/365/112 30/389/112 9/364/112
f 6/366/107 24/390/107 2/391/107
f 16/360/111 26/392/111 6/358/111
f 12/393/111 34/394/111 17/359/111
f 225/3/1 226/395/1 5/396/1
f 15/1/1 204/397/1 224/2/1
f 204/397/1 202/398/1 227/399/1
f 224/2/1 204/397/1 227/399/1
f 225/3/1 5/396/1 15/1/1
f 205/4/1 10/9/1 1/5/1
f 208/8/2 206/400/2 15/1/2
f 206/400/2 204/397/2 15/1/2
f 207/10/2 209/13/2 22/96/2
f 22/96/2 10/9/2 207/10/2
f 23/7/3 29/401/3 210/11/3
f 27/12/3 22/96/3 209/13/3
f 213/15/4 210/11/4 29/401/4
f 33/17/4 27/12/4 211/14/4
f 33/17/4 211/14/4 212/402/4
f 213/15/4 29/401/4 36/16/4
f 33/17/4 212/402/4 213/15/4
f 36/18/5 40/21/5 39/19/5
f 40/21/6 42/23/6 41/22/6
f 42/23/7 44/25/7 43/24/7
f 44/25/8 46/403/8 45/26/8
f 194/27/9 46/403/9 49/28/9
f 196/31/9 195/29/9 49/28/9
f 45/26/9 46/403/9 194/27/9
f 45/26/9 194/27/9 197/30/9
f 196/31/9 49/28/9 48/32/9
f 45/26/9 197/30/9 48/32/9
f 49/28/10 54/34/10 51/33/10
f 54/34/11 56/36/11 55/35/11
f 56/36/12 58/404/12 57/37/12
f 58/38/13 60/41/13 59/39/13
f 60/41/14 62/43/14 61/42/14
f 62/43/15 64/45/15 63/44/15
f 64/45/16 66/47/16 65/46/16
f 66/47/17 68/49/17 67/48/17
f 68/49/18 70/51/18 69/50/18
f 70/51/19 72/53/19 71/52/19
f 72/53/20 74/405/20 73/54/20
f 74/55/21 76/58/21 75/56/21
f 76/58/22 78/60/22 77/59/22
f 78/60/23 80/63/23 79/61/23
f 199/62/24 198/406/24 80/63/24
f 201/65/24 199/62/24 81/66/24
f 199/62/24 82/64/24 81/66/24
f 79/61/24 80/63/24 200/407/24
f 80/63/24 198/406/24 200/407/24
f 79/61/24 200/407/24 201/65/24
f 82/64/25 84/68/25 83/67/25
f 84/68/26 86/70/26 85/69/26
f 86/70/27 88/72/27 87/71/27
f 88/72/28 90/18/28 89/20/28
f 215/74/29 217/81/29 89/75/29
f 217/81/29 91/80/29 89/75/29
f 90/408/29 92/409/29 214/73/29
f 92/409/29 216/76/29 214/73/29
f 90/408/29 214/73/29 89/75/29
f 216/76/30 92/409/30 94/77/30
f 219/79/30 93/86/30 91/80/30
f 44/82/31 137/156/31 138/83/31
f 223/410/32 220/411/32 96/85/32
f 220/411/32 218/78/32 96/85/32
f 222/87/32 221/90/32 95/95/32
f 95/95/32 93/86/32 222/87/32
f 229/89/33 227/399/33 223/410/33
f 227/399/33 202/398/33 223/410/33
f 223/410/33 96/85/33 229/89/33
f 96/85/33 5/396/33 228/88/33
f 5/396/33 226/395/33 228/88/33
f 1/5/33 95/95/33 221/90/33
f 100/97/19 164/292/19 165/98/19
f 66/100/66 146/157/66 147/101/66
f 84/103/67 155/158/67 156/104/67
f 36/106/68 29/159/68 133/107/68
f 60/109/69 58/412/69 142/110/69
f 76/112/70 151/163/70 152/113/70
f 94/115/71 160/164/71 161/116/71
f 49/118/72 46/84/72 138/83/72
f 68/102/73 147/101/73 148/120/73
f 88/122/74 86/105/74 156/104/74
f 40/124/75 36/413/75 134/125/75
f 60/109/76 143/111/76 144/127/76
f 5/129/77 131/134/77 130/130/77
f 78/114/78 152/113/78 153/132/78
f 96/117/79 161/116/79 131/134/79
f 49/118/80 139/119/80 140/135/80
f 70/121/81 148/120/81 149/137/81
f 88/122/82 157/123/82 158/139/82
f 40/124/83 135/126/83 136/141/83
f 62/128/84 144/127/84 145/143/84
f 80/133/85 153/132/85 154/145/85
f 15/131/86 130/130/86 132/147/86
f 56/149/87 54/136/87 140/135/87
f 72/138/88 149/137/88 150/151/88
f 90/153/89 158/414/89 159/154/89
f 44/82/90 42/142/90 136/141/90
f 66/100/91 64/144/91 145/143/91
f 82/146/92 154/145/92 155/158/92
f 29/159/93 23/148/93 132/147/93
f 56/149/94 141/150/94 142/160/94
f 74/162/95 150/415/95 151/163/95
f 92/155/96 159/154/96 160/164/96
f 99/165/97 98/169/97 130/166/97
f 100/168/97 132/171/97 130/166/97
f 100/168/97 101/173/97 133/170/97
f 102/172/97 134/175/97 133/170/97
f 102/172/97 103/177/97 135/174/97
f 104/176/97 136/179/97 135/174/97
f 104/176/97 105/181/97 137/178/97
f 106/180/97 138/183/97 137/178/97
f 106/180/97 107/185/97 139/182/97
f 108/184/97 140/187/97 139/182/97
f 108/184/97 109/189/97 141/186/97
f 110/188/97 142/191/97 141/186/97
f 110/188/97 111/193/97 143/190/97
f 112/192/97 144/195/97 143/190/97
f 112/192/97 113/196/97 145/194/97
f 113/196/97 114/199/97 146/197/97
f 115/198/97 147/201/97 146/197/97
f 116/200/97 148/203/97 147/201/97
f 116/200/97 117/205/97 149/202/97
f 118/204/97 150/207/97 149/202/97
f 118/204/97 119/209/97 151/206/97
f 120/208/97 152/211/97 151/206/97
f 121/210/97 153/213/97 152/211/97
f 122/212/97 154/215/97 153/213/97
f 122/212/97 123/217/97 155/214/97
f 124/216/97 156/219/97 155/214/97
f 124/216/97 125/221/97 157/218/97
f 126/220/97 158/223/97 157/218/97
f 126/220/97 127/225/97 159/222/97
f 128/224/97 160/227/97 159/222/97
f 128/224/97 129/228/97 161/226/97
f 99/165/97 131/167/97 161/226/97
f 191/231/97 190/416/97 187/417/97
f 190/416/97 189/418/97 187/417/97
f 189/418/97 188/419/97 187/417/97
f 187/417/97 186/420/97 185/421/97
f 185/421/97 184/422/97 183/423/97
f 183/423/97 182/424/97 179/425/97
f 182/424/97 181/426/97 179/425/97
f 181/426/97 180/427/97 179/425/97
f 179/425/97 178/428/97 175/229/97
f 178/428/97 177/429/97 175/229/97
f 177/429/97 176/430/97 175/229/97
f 175/229/97 174/431/97 171/432/97
f 174/431/97 173/433/97 171/432/97
f 173/433/97 172/434/97 171/432/97
f 171/432/97 170/435/97 169/436/97
f 169/436/97 168/437/97 167/230/97
f 167/230/97 166/438/97 162/439/97
f 166/438/97 165/440/97 162/439/97
f 165/440/97 164/441/97 162/439/97
f 162/439/113 163/442/113 193/443/113
f 193/443/97 192/444/97 191/231/97
f 187/417/97 185/421/97 191/231/97
f 185/421/97 183/423/97 191/231/97
f 171/432/97 169/436/97 167/230/97
f 162/439/97 193/443/97 191/231/97
f 183/423/97 179/425/97 175/229/97
f 175/229/97 171/432/97 167/230/97
f 167/230/97 162/439/97 191/231/97
f 191/231/97 183/423/97 175/229/97
f 127/232/14 191/294/14 192/233/14
f 114/235/1 178/295/1 179/236/1
f 102/238/20 101/99/20 165/98/20
f 128/234/15 192/233/15 193/240/15
f 115/237/2 179/236/2 180/242/2
f 103/244/21 102/445/21 166/245/21
f 129/241/16 193/240/16 163/247/16
f 116/243/3 180/242/3 181/249/3
f 104/251/22 103/244/22 167/246/22
f 117/250/4 181/249/4 182/253/4
f 105/255/23 104/251/23 168/252/23
f 118/257/5 182/446/5 183/258/5
f 106/260/24 105/255/24 169/256/24
f 119/259/6 183/258/6 184/262/6
f 106/260/25 170/261/25 171/264/25
f 120/263/7 184/262/7 185/266/7
f 107/265/26 171/264/26 172/268/26
f 121/267/8 185/266/8 186/270/8
f 108/269/27 172/268/27 173/272/27
f 122/271/9 186/270/9 187/274/9
f 110/257/28 109/273/28 173/272/28
f 123/275/10 187/274/10 188/277/10
f 111/279/29 110/447/29 174/280/29
f 124/278/11 188/277/11 189/282/11
f 111/279/30 175/281/30 176/284/30
f 99/248/17 163/247/17 162/286/17
f 125/283/12 189/282/12 190/288/12
f 112/285/32 176/284/32 177/290/32
f 98/287/18 162/286/18 164/292/18
f 126/293/13 190/448/13 191/294/13
f 113/291/33 177/290/33 178/295/33
f 3/296/97 198/313/97 199/297/97
f 198/299/98 3/449/98 11/300/98
f 18/302/99 8/450/99 199/303/99
f 11/305/100 18/451/100 201/306/100
f 3/308/101 8/452/101 18/309/101
f 47/311/97 50/453/97 194/312/97
f 52/314/98 47/454/98 195/315/98
f 194/317/99 50/455/99 53/318/99
f 197/320/100 53/456/100 52/321/100
f 53/323/102 50/457/102 47/324/102
f 4/326/103 7/458/103 215/327/103
f 209/330/104 207/459/104 32/460/104
f 32/460/104 19/331/104 209/330/104
f 19/331/104 212/461/104 211/329/104
f 212/332/105 19/462/105 14/333/105
f 218/336/106 220/463/106 4/337/106
f 220/463/106 38/339/106 4/337/106
f 4/337/106 214/464/106 216/335/106
f 7/338/107 4/337/107 38/339/107
f 19/341/107 32/344/107 37/342/107
f 25/340/107 38/339/107 37/342/107
f 210/465/106 213/466/106 14/343/106
f 14/343/106 37/342/106 206/345/106
f 208/346/106 210/465/106 14/343/106
f 204/348/106 206/345/106 37/342/106
f 37/342/106 38/339/106 202/347/106
f 38/339/106 220/463/106 223/467/106
f 38/339/106 223/467/106 202/347/106
f 217/350/108 215/468/108 7/351/108
f 7/351/108 25/354/108 219/349/108
f 25/354/108 222/469/108 219/349/108
f 221/353/109 222/469/109 25/354/109
f 25/354/109 32/460/109 203/352/109
f 32/460/109 207/459/109 205/470/109
f 32/460/109 205/470/109 203/352/109
f 13/355/110 21/471/110 31/356/110
f 6/358/111 12/393/111 17/359/111
f 2/361/112 24/472/112 21/362/112
f 9/364/112 2/361/112 13/363/112
f 6/366/107 2/391/107 9/367/107
f 226/370/112 225/473/112 20/365/112
f 20/365/112 13/363/112 226/370/112
f 17/371/105 20/474/105 225/372/105
f 229/475/111 16/360/111 227/375/111
f 16/360/111 17/359/111 227/375/111
f 16/376/103 229/476/103 228/377/103
f 21/379/103 24/477/103 26/380/103
f 28/382/105 30/478/105 35/383/105
f 9/367/107 30/479/107 28/385/107
f 17/386/110 34/480/110 35/387/110
f 20/365/112 35/481/112 30/389/112
f 6/366/107 26/482/107 24/390/107
f 16/360/111 31/483/111 26/392/111
f 12/393/111 28/484/111 34/394/111
