# Blender 4.4.3
# www.blender.org
mtllib title.mtl
o テキストa
v 0.453862 -0.380106 -0.473106
v 0.714862 -0.380106 -0.473106
v 0.678761 -0.336628 -0.473106
v 0.646381 -0.296449 -0.473106
v 0.617612 -0.259200 -0.473106
v 0.592344 -0.224513 -0.473106
v 0.570464 -0.192021 -0.473106
v 0.551862 -0.161356 -0.473106
v 0.536427 -0.132149 -0.473106
v 0.524047 -0.104032 -0.473106
v 0.514612 -0.076637 -0.473105
v 0.508010 -0.049597 -0.473105
v 0.504131 -0.022542 -0.473105
v 0.502862 0.004894 -0.473105
v 0.504606 0.035554 -0.473105
v 0.509728 0.064422 -0.473105
v 0.518065 0.091332 -0.473105
v 0.529455 0.116116 -0.473105
v 0.543733 0.138609 -0.473105
v 0.560737 0.158644 -0.473105
v 0.580304 0.176054 -0.473105
v 0.602270 0.190672 -0.473105
v 0.626472 0.202332 -0.473105
v 0.652746 0.210866 -0.473105
v 0.680931 0.216109 -0.473105
v 0.710862 0.217894 -0.473105
v 0.724534 0.217455 -0.473105
v 0.738066 0.216135 -0.473105
v 0.751487 0.213925 -0.473105
v 0.764825 0.210820 -0.473105
v 0.778108 0.206812 -0.473105
v 0.791363 0.201894 -0.473105
v 0.804617 0.196060 -0.473105
v 0.817899 0.189301 -0.473105
v 0.831237 0.181613 -0.473105
v 0.844659 0.172987 -0.473105
v 0.858191 0.163416 -0.473105
v 0.871862 0.152894 -0.473105
v 0.871862 0.029894 -0.473105
v 0.858214 0.046409 -0.473105
v 0.844760 0.061014 -0.473105
v 0.831487 0.073800 -0.473105
v 0.818381 0.084857 -0.473105
v 0.805427 0.094275 -0.473105
v 0.792612 0.102144 -0.473105
v 0.779922 0.108555 -0.473105
v 0.767344 0.113598 -0.473105
v 0.754862 0.117363 -0.473105
v 0.742464 0.119940 -0.473105
v 0.730135 0.121421 -0.473105
v 0.717862 0.121894 -0.473105
v 0.701486 0.120808 -0.473105
v 0.685932 0.117621 -0.473105
v 0.671315 0.112441 -0.473105
v 0.657751 0.105375 -0.473105
v 0.645354 0.096532 -0.473105
v 0.634237 0.086019 -0.473105
v 0.624517 0.073943 -0.473105
v 0.616307 0.060412 -0.473105
v 0.609721 0.045535 -0.473105
v 0.604876 0.029417 -0.473105
v 0.601885 0.012168 -0.473105
v 0.600862 -0.006106 -0.473105
v 0.601196 -0.019902 -0.473105
v 0.602196 -0.032893 -0.473105
v 0.603862 -0.045231 -0.473105
v 0.606196 -0.057069 -0.473105
v 0.609196 -0.068560 -0.473105
v 0.612862 -0.079856 -0.473105
v 0.617196 -0.091111 -0.473105
v 0.622195 -0.102476 -0.473106
v 0.627862 -0.114106 -0.473106
v 0.634196 -0.126152 -0.473106
v 0.641196 -0.138768 -0.473106
v 0.648862 -0.152106 -0.473106
v 0.664277 -0.177343 -0.473106
v 0.681348 -0.203421 -0.473106
v 0.699815 -0.230137 -0.473106
v 0.719418 -0.257291 -0.473106
v 0.739895 -0.284681 -0.473106
v 0.760987 -0.312106 -0.473106
v 0.782434 -0.339364 -0.473106
v 0.803973 -0.366254 -0.473106
v 0.825347 -0.392575 -0.473106
v 0.846293 -0.418125 -0.473106
v 0.866552 -0.442702 -0.473106
v 0.885862 -0.466106 -0.473106
v 0.885862 -0.473106 -0.473106
v 0.453862 -0.473106 -0.473106
v 1.218862 0.208894 -0.473105
v 1.336862 0.208894 -0.473105
v 1.549862 -0.051106 -0.473105
v 1.763862 0.208894 -0.473105
v 1.882862 0.208894 -0.473105
v 1.609862 -0.120106 -0.473106
v 1.903862 -0.473106 -0.473106
v 1.784862 -0.473106 -0.473106
v 1.549862 -0.191106 -0.473106
v 1.317862 -0.473106 -0.473106
v 1.199862 -0.473106 -0.473106
v 1.490862 -0.120106 -0.473106
v 2.683862 -0.132106 -0.473106
v 2.680959 -0.177855 -0.473106
v 2.672386 -0.222268 -0.473106
v 2.658347 -0.264840 -0.473106
v 2.639048 -0.305069 -0.473106
v 2.614693 -0.342450 -0.473106
v 2.585487 -0.376481 -0.473106
v 2.551636 -0.406658 -0.473106
v 2.513344 -0.432476 -0.473106
v 2.470815 -0.453434 -0.473106
v 2.424256 -0.469027 -0.473106
v 2.373870 -0.478752 -0.473106
v 2.319862 -0.482106 -0.473106
v 2.264076 -0.478733 -0.473106
v 2.212321 -0.468958 -0.473106
v 2.164753 -0.453294 -0.473106
v 2.121529 -0.432254 -0.473106
v 2.082805 -0.406354 -0.473106
v 2.048737 -0.376106 -0.473106
v 2.019482 -0.342025 -0.473106
v 1.995196 -0.304625 -0.473106
v 1.976034 -0.264418 -0.473106
v 1.962154 -0.221921 -0.473106
v 1.953711 -0.177645 -0.473106
v 1.950862 -0.132106 -0.473106
v 1.953786 -0.085306 -0.473106
v 1.962422 -0.040208 -0.473106
v 1.976565 0.002738 -0.473105
v 1.996011 0.043079 -0.473105
v 2.020553 0.080365 -0.473105
v 2.049987 0.114144 -0.473105
v 2.084109 0.143965 -0.473105
v 2.122714 0.169376 -0.473105
v 2.165597 0.189925 -0.473105
v 2.212552 0.205163 -0.473105
v 2.263376 0.214636 -0.473105
v 2.317863 0.217894 -0.473105
v 2.371489 0.214617 -0.473105
v 2.421710 0.205093 -0.473105
v 2.468284 0.189785 -0.473105
v 2.510973 0.169153 -0.473105
v 2.549538 0.143661 -0.473105
v 2.583737 0.113769 -0.473105
v 2.613333 0.079940 -0.473105
v 2.638085 0.042635 -0.473105
v 2.657753 0.002316 -0.473105
v 2.672099 -0.040555 -0.473106
v 2.680882 -0.085516 -0.473106
v 2.582862 -0.132106 -0.473106
v 2.580551 -0.095480 -0.473106
v 2.573788 -0.060763 -0.473106
v 2.562831 -0.028200 -0.473106
v 2.547936 0.001968 -0.473105
v 2.529361 0.029497 -0.473105
v 2.507362 0.054144 -0.473105
v 2.482197 0.075666 -0.473105
v 2.454122 0.093820 -0.473105
v 2.423394 0.108363 -0.473105
v 2.390270 0.119051 -0.473105
v 2.355007 0.125643 -0.473105
v 2.317863 0.127894 -0.473105
v 2.280488 0.125643 -0.473105
v 2.245034 0.119051 -0.473105
v 2.211753 0.108363 -0.473105
v 2.180899 0.093820 -0.473105
v 2.152726 0.075666 -0.473105
v 2.127487 0.054144 -0.473105
v 2.105436 0.029497 -0.473105
v 2.086825 0.001968 -0.473105
v 2.071909 -0.028200 -0.473105
v 2.060941 -0.060763 -0.473106
v 2.054174 -0.095480 -0.473106
v 2.051862 -0.132106 -0.473106
v 2.054174 -0.168522 -0.473106
v 2.060941 -0.203101 -0.473106
v 2.071909 -0.235590 -0.473106
v 2.086825 -0.265736 -0.473106
v 2.105436 -0.293284 -0.473106
v 2.127487 -0.317981 -0.473106
v 2.152726 -0.339574 -0.473106
v 2.180899 -0.357810 -0.473106
v 2.211753 -0.372434 -0.473106
v 2.245034 -0.383194 -0.473106
v 2.280488 -0.389836 -0.473106
v 2.317863 -0.392106 -0.473106
v 2.355007 -0.389836 -0.473106
v 2.390270 -0.383194 -0.473106
v 2.423394 -0.372434 -0.473106
v 2.454122 -0.357810 -0.473106
v 2.482197 -0.339574 -0.473106
v 2.507362 -0.317981 -0.473106
v 2.529361 -0.293284 -0.473106
v 2.547936 -0.265736 -0.473106
v 2.562831 -0.235590 -0.473106
v 2.573788 -0.203101 -0.473106
v 2.580551 -0.168522 -0.473106
v 2.757862 0.208894 -0.473105
v 3.121862 0.208894 -0.473105
v 3.121862 -0.473106 -0.473107
v 3.023862 -0.473106 -0.473106
v 3.023862 -0.156106 -0.473106
v 2.757862 -0.156106 -0.473106
v 2.757862 -0.068106 -0.473106
v 3.023862 -0.068106 -0.473106
v 3.023862 0.120894 -0.473105
v 2.757862 0.120894 -0.473105
v 0.453862 -0.380106 -0.306878
v 0.714862 -0.380106 -0.306878
v 0.678761 -0.336628 -0.306878
v 0.646381 -0.296449 -0.306878
v 0.617612 -0.259200 -0.306878
v 0.592344 -0.224514 -0.306878
v 0.570464 -0.192022 -0.306878
v 0.551862 -0.161356 -0.306878
v 0.536427 -0.132149 -0.306878
v 0.524047 -0.104032 -0.306878
v 0.514612 -0.076638 -0.306878
v 0.508010 -0.049597 -0.306878
v 0.504131 -0.022543 -0.306877
v 0.502862 0.004894 -0.306877
v 0.504606 0.035553 -0.306877
v 0.509728 0.064421 -0.306877
v 0.518065 0.091331 -0.306877
v 0.529455 0.116116 -0.306877
v 0.543733 0.138609 -0.306877
v 0.560737 0.158644 -0.306877
v 0.580304 0.176053 -0.306877
v 0.602270 0.190671 -0.306877
v 0.626472 0.202331 -0.306877
v 0.652746 0.210866 -0.306877
v 0.680931 0.216109 -0.306877
v 0.710862 0.217894 -0.306877
v 0.724534 0.217455 -0.306877
v 0.738066 0.216134 -0.306877
v 0.751487 0.213925 -0.306877
v 0.764825 0.210820 -0.306877
v 0.778108 0.206811 -0.306877
v 0.791363 0.201894 -0.306877
v 0.804617 0.196059 -0.306877
v 0.817899 0.189301 -0.306877
v 0.831237 0.181612 -0.306877
v 0.844659 0.172986 -0.306877
v 0.858191 0.163416 -0.306877
v 0.871862 0.152894 -0.306877
v 0.871862 0.029894 -0.306877
v 0.858214 0.046409 -0.306877
v 0.844760 0.061014 -0.306877
v 0.831487 0.073800 -0.306877
v 0.818381 0.084857 -0.306877
v 0.805427 0.094274 -0.306877
v 0.792612 0.102144 -0.306877
v 0.779922 0.108555 -0.306877
v 0.767344 0.113597 -0.306877
v 0.754862 0.117362 -0.306877
v 0.742464 0.119940 -0.306877
v 0.730135 0.121420 -0.306877
v 0.717862 0.121894 -0.306877
v 0.701486 0.120807 -0.306877
v 0.685932 0.117621 -0.306877
v 0.671315 0.112441 -0.306877
v 0.657751 0.105375 -0.306877
v 0.645354 0.096532 -0.306877
v 0.634237 0.086019 -0.306877
v 0.624517 0.073943 -0.306877
v 0.616307 0.060412 -0.306877
v 0.609721 0.045534 -0.306877
v 0.604876 0.029417 -0.306877
v 0.601885 0.012167 -0.306877
v 0.600862 -0.006106 -0.306877
v 0.601196 -0.019903 -0.306877
v 0.602196 -0.032893 -0.306878
v 0.603862 -0.045231 -0.306878
v 0.606196 -0.057069 -0.306878
v 0.609196 -0.068560 -0.306878
v 0.612862 -0.079856 -0.306878
v 0.617196 -0.091111 -0.306878
v 0.622195 -0.102477 -0.306878
v 0.627862 -0.114106 -0.306878
v 0.634196 -0.126153 -0.306878
v 0.641196 -0.138768 -0.306878
v 0.648862 -0.152106 -0.306878
v 0.664277 -0.177344 -0.306878
v 0.681348 -0.203421 -0.306878
v 0.699815 -0.230138 -0.306878
v 0.719418 -0.257291 -0.306878
v 0.739895 -0.284682 -0.306878
v 0.760987 -0.312106 -0.306878
v 0.782434 -0.339364 -0.306878
v 0.803973 -0.366255 -0.306878
v 0.825347 -0.392575 -0.306878
v 0.846293 -0.418125 -0.306878
v 0.866552 -0.442702 -0.306878
v 0.885862 -0.466106 -0.306878
v 0.885862 -0.473106 -0.306878
v 0.453862 -0.473106 -0.306878
v 1.218862 0.208894 -0.306877
v 1.336862 0.208894 -0.306877
v 1.549862 -0.051106 -0.306878
v 1.763862 0.208894 -0.306877
v 1.882862 0.208894 -0.306877
v 1.609862 -0.120106 -0.306878
v 1.903862 -0.473106 -0.306879
v 1.784862 -0.473106 -0.306879
v 1.549862 -0.191106 -0.306878
v 1.317862 -0.473106 -0.306878
v 1.199862 -0.473106 -0.306878
v 1.490862 -0.120106 -0.306878
v 2.683862 -0.132106 -0.306878
v 2.680959 -0.177856 -0.306878
v 2.672386 -0.222268 -0.306878
v 2.658347 -0.264841 -0.306878
v 2.639048 -0.305069 -0.306878
v 2.614693 -0.342451 -0.306878
v 2.585487 -0.376481 -0.306878
v 2.551636 -0.406658 -0.306878
v 2.513344 -0.432477 -0.306878
v 2.470815 -0.453434 -0.306879
v 2.424256 -0.469028 -0.306879
v 2.373870 -0.478753 -0.306879
v 2.319862 -0.482106 -0.306879
v 2.264076 -0.478734 -0.306879
v 2.212321 -0.468958 -0.306879
v 2.164753 -0.453294 -0.306879
v 2.121529 -0.432254 -0.306878
v 2.082805 -0.406354 -0.306878
v 2.048737 -0.376106 -0.306878
v 2.019482 -0.342025 -0.306878
v 1.995196 -0.304625 -0.306878
v 1.976034 -0.264419 -0.306878
v 1.962154 -0.221921 -0.306878
v 1.953711 -0.177646 -0.306878
v 1.950862 -0.132106 -0.306878
v 1.953786 -0.085307 -0.306878
v 1.962422 -0.040208 -0.306878
v 1.976565 0.002737 -0.306878
v 1.996011 0.043079 -0.306877
v 2.020553 0.080365 -0.306877
v 2.049987 0.114144 -0.306877
v 2.084109 0.143964 -0.306877
v 2.122714 0.169375 -0.306877
v 2.165597 0.189925 -0.306877
v 2.212552 0.205162 -0.306877
v 2.263376 0.214636 -0.306877
v 2.317863 0.217894 -0.306877
v 2.371489 0.214616 -0.306877
v 2.421710 0.205093 -0.306877
v 2.468284 0.189784 -0.306877
v 2.510973 0.169153 -0.306877
v 2.549538 0.143660 -0.306877
v 2.583737 0.113769 -0.306877
v 2.613333 0.079939 -0.306877
v 2.638085 0.042634 -0.306878
v 2.657753 0.002316 -0.306878
v 2.672099 -0.040555 -0.306878
v 2.680882 -0.085517 -0.306878
v 2.582862 -0.132106 -0.306878
v 2.580551 -0.095480 -0.306878
v 2.573788 -0.060764 -0.306878
v 2.562831 -0.028200 -0.306878
v 2.547936 0.001968 -0.306878
v 2.529361 0.029497 -0.306878
v 2.507362 0.054144 -0.306878
v 2.482197 0.075666 -0.306877
v 2.454122 0.093820 -0.306877
v 2.423394 0.108362 -0.306877
v 2.390270 0.119051 -0.306877
v 2.355007 0.125642 -0.306877
v 2.317863 0.127894 -0.306877
v 2.280488 0.125643 -0.306877
v 2.245034 0.119051 -0.306877
v 2.211753 0.108362 -0.306877
v 2.180899 0.093820 -0.306877
v 2.152726 0.075666 -0.306877
v 2.127487 0.054144 -0.306877
v 2.105436 0.029497 -0.306878
v 2.086825 0.001968 -0.306878
v 2.071909 -0.028200 -0.306878
v 2.060941 -0.060764 -0.306878
v 2.054174 -0.095480 -0.306878
v 2.051862 -0.132106 -0.306878
v 2.054174 -0.168522 -0.306878
v 2.060941 -0.203102 -0.306878
v 2.071909 -0.235591 -0.306878
v 2.086825 -0.265736 -0.306878
v 2.105436 -0.293284 -0.306878
v 2.127487 -0.317981 -0.306878
v 2.152726 -0.339574 -0.306878
v 2.180899 -0.357810 -0.306878
v 2.211753 -0.372434 -0.306878
v 2.245034 -0.383194 -0.306878
v 2.280488 -0.389836 -0.306878
v 2.317863 -0.392106 -0.306878
v 2.355007 -0.389836 -0.306878
v 2.390270 -0.383194 -0.306878
v 2.423394 -0.372434 -0.306878
v 2.454122 -0.357810 -0.306878
v 2.482197 -0.339575 -0.306878
v 2.507362 -0.317981 -0.306878
v 2.529361 -0.293284 -0.306878
v 2.547936 -0.265736 -0.306878
v 2.562831 -0.235591 -0.306878
v 2.573788 -0.203102 -0.306878
v 2.580551 -0.168522 -0.306878
v 2.757862 0.208894 -0.306877
v 3.121862 0.208894 -0.306877
v 3.121862 -0.473106 -0.306879
v 3.023862 -0.473106 -0.306879
v 3.023862 -0.156106 -0.306878
v 2.757862 -0.156106 -0.306878
v 2.757862 -0.068106 -0.306878
v 3.023862 -0.068106 -0.306878
v 3.023862 0.120894 -0.306877
v 2.757862 0.120894 -0.306877
vn -0.0000 -0.0000 1.0000
vn -0.0000 -0.0001 1.0000
vn -0.0000 0.0001 1.0000
vn -0.0000 -0.0000 -1.0000
vn -0.0000 -0.0001 -1.0000
vn -0.5774 -0.8164 -0.0000
vn 0.5447 -0.8386 -0.0000
vn 0.4278 0.9039 -0.0000
vn 0.8550 0.5186 -0.0000
vn -0.5417 0.8406 -0.0000
vn -0.8367 -0.5477 -0.0000
vn -0.6099 -0.7925 -0.0000
vn 0.7588 0.6513 -0.0000
vn -0.7589 0.6513 -0.0000
vn 0.5430 0.8397 -0.0000
vn 0.8295 0.5586 -0.0000
vn 0.7624 -0.6471 -0.0000
vn -0.4283 -0.9036 -0.0000
vn -0.8226 -0.5686 -0.0000
vn -1.0000 -0.0000 -0.0000
vn 0.8353 -0.5498 -0.0000
vn 0.7708 0.6370 -0.0000
vn -0.8333 -0.5529 -0.0000
vn 0.4297 -0.9029 -0.0000
vn 0.8083 0.5888 -0.0000
vn 0.7355 0.6775 -0.0000
vn -0.3076 -0.9515 -0.0000
vn -0.6489 0.7609 -0.0000
vn -0.8108 -0.5853 -0.0000
vn 0.6938 0.7202 -0.0000
vn -0.8009 -0.5988 -0.0000
vn 0.3089 -0.9511 -0.0000
vn 0.6499 0.7600 -0.0000
vn 0.6448 0.7643 -0.0000
vn -0.7453 0.6668 -0.0000
vn 0.6639 0.7478 -0.0000
vn 0.7914 0.6113 -0.0000
vn 0.5880 0.8088 -0.0000
vn -0.6654 0.7465 -0.0000
vn -0.7927 -0.6096 -0.0000
vn 0.7460 0.6659 -0.0000
vn 0.5233 0.8522 -0.0000
vn -0.1841 -0.9829 -0.0000
vn 0.9008 -0.4342 -0.0000
vn 0.7786 0.6275 -0.0000
vn 0.4509 0.8926 -0.0000
vn -0.8988 -0.4384 -0.0000
vn -0.7859 -0.6183 -0.0000
vn 0.1851 -0.9827 -0.0000
vn 0.3721 0.9282 -0.0000
vn -0.0606 -0.9982 -0.0000
vn -0.8285 0.5601 -0.0000
vn 0.7694 0.6388 -0.0000
vn 0.2888 0.9574 -0.0000
vn -0.7805 -0.6252 -0.0000
vn 0.0610 -0.9981 -0.0000
vn 0.8289 0.5593 -0.0000
vn 0.2035 0.9791 -0.0000
vn -0.7763 -0.6304 -0.0000
vn 0.9498 -0.3128 -0.0000
vn 0.1192 0.9929 -0.0000
vn 0.5560 0.8312 -0.0000
vn -0.9483 -0.3173 -0.0000
vn -0.5590 0.8291 -0.0000
vn -0.0000 -1.0000 -0.0000
vn -0.8964 0.4432 -0.0000
vn 0.0385 0.9993 -0.0000
vn 1.0000 -0.0000 -0.0000
vn 0.4377 0.8991 -0.0000
vn -0.7733 -0.6340 -0.0000
vn -0.4420 0.8970 -0.0000
vn 0.8967 0.4427 -0.0000
vn 0.8443 -0.5359 -0.0000
vn -0.9477 0.3192 -0.0000
vn -0.7716 -0.6361 -0.0000
vn -0.0662 0.9978 -0.0000
vn 0.3128 0.9498 -0.0000
vn -0.7713 -0.6364 -0.0000
vn -0.2007 0.9796 -0.0000
vn -0.3176 0.9482 -0.0000
vn 0.9478 0.3189 -0.0000
vn -0.3340 0.9426 -0.0000
vn 0.9822 -0.1881 -0.0000
vn -0.0000 1.0000 -0.0000
vn 0.1856 0.9826 -0.0000
vn -0.9814 -0.1917 -0.0000
vn -0.7696 0.6386 -0.0000
vn -0.1895 0.9819 -0.0000
vn 0.9087 -0.4176 -0.0000
vn -0.9815 0.1913 -0.0000
vn -0.4620 0.8869 -0.0000
vn -0.0620 0.9981 -0.0000
vn 0.0603 0.9982 -0.0000
vn 0.7721 -0.6355 -0.0000
vn -0.5807 0.8141 -0.0000
vn 0.9815 0.1912 -0.0000
vn -0.7736 -0.6337 -0.0000
vn -0.6871 0.7265 -0.0000
vn 0.9981 -0.0624 -0.0000
vn -0.9980 -0.0638 -0.0000
vn 0.7707 0.6372 -0.0000
vn 0.9552 -0.2960 -0.0000
vn -0.9980 0.0630 -0.0000
vn -0.7790 0.6270 -0.0000
vn -0.7684 -0.6400 -0.0000
vn -0.8549 0.5188 -0.0000
vn 0.9980 0.0630 -0.0000
vn -0.9980 0.0633 -0.0000
vn 0.9846 -0.1747 -0.0000
vn 0.7716 -0.6361 -0.0000
vn -0.9144 0.4047 -0.0000
vn 0.9980 -0.0633 -0.0000
vn -0.9980 -0.0634 -0.0000
vn 0.7682 0.6402 -0.0000
vn -0.9577 0.2879 -0.0000
vn -0.7722 0.6353 -0.0000
vn 0.9980 0.0624 -0.0000
vn -0.0610 -0.9981 -0.0000
vn 0.9984 -0.0568 -0.0000
vn -0.9853 0.1709 -0.0000
vn 0.9814 -0.1919 -0.0000
vn 0.0597 -0.9982 -0.0000
vn -0.9814 -0.1920 -0.0000
vn -0.9984 0.0559 -0.0000
vn 0.1832 -0.9831 -0.0000
vn -0.1863 -0.9825 -0.0000
vn 0.9823 0.1873 -0.0000
vn 0.9989 0.0462 -0.0000
vn -0.9819 0.1895 -0.0000
vn -0.9997 -0.0242 -0.0000
vn 0.3087 -0.9512 -0.0000
vn -0.3123 -0.9500 -0.0000
vn -0.9971 -0.0767 -0.0000
vn 0.9476 -0.3196 -0.0000
vn -0.9475 -0.3199 -0.0000
vn 0.4322 -0.9018 -0.0000
vn 0.9899 0.1419 -0.0000
vn -0.0321 -0.9995 -0.0000
vn -0.4351 -0.9004 -0.0000
vn -0.9910 -0.1339 -0.0000
vn 0.9506 0.3105 -0.0000
vn 0.0595 -0.9982 -0.0000
vn -0.9497 0.3132 -0.0000
vn -0.9811 -0.1934 -0.0000
vn -0.0971 -0.9953 -0.0000
vn 0.5498 -0.8353 -0.0000
vn -0.8963 -0.4435 -0.0000
vn -0.5514 -0.8342 -0.0000
vn -0.1624 -0.9867 -0.0000
vn 0.9715 0.2372 -0.0000
vn -0.9676 -0.2526 -0.0000
vn 0.8965 -0.4430 -0.0000
vn 0.6581 -0.7530 -0.0000
vn 0.1829 -0.9831 -0.0000
vn -0.6581 -0.7529 -0.0000
vn -0.9511 -0.3087 -0.0000
vn -0.2268 -0.9740 -0.0000
vn 0.9027 0.4302 -0.0000
vn -0.9016 0.4325 -0.0000
vn 0.9455 0.3256 -0.0000
vn -0.8286 -0.5598 -0.0000
vn -0.9332 -0.3593 -0.0000
vn -0.2889 -0.9574 -0.0000
vn 0.0605 0.9982 -0.0000
vn -0.0601 0.9982 -0.0000
vn -0.9153 -0.4027 -0.0000
vn -0.3479 -0.9375 -0.0000
vn 0.8291 -0.5591 -0.0000
vn -0.7459 -0.6660 -0.0000
vn -0.1828 0.9832 -0.0000
vn -0.8990 -0.4380 -0.0000
vn 0.4340 -0.9009 -0.0000
vn -0.4029 -0.9153 -0.0000
vn 0.7467 -0.6651 -0.0000
vn 0.1837 0.9830 -0.0000
vn 0.9152 0.4030 -0.0000
vn -0.3058 0.9521 -0.0000
vn -0.8851 -0.4654 -0.0000
vn -0.4535 -0.8913 -0.0000
vn 0.8387 0.5446 -0.0000
vn -0.8379 0.5459 -0.0000
vn -0.8744 -0.4852 -0.0000
vn 0.3071 0.9517 -0.0000
vn 0.5540 -0.8325 -0.0000
vn -0.6501 -0.7599 -0.0000
vn -0.4994 -0.8664 -0.0000
vn 0.7539 -0.6570 -0.0000
vn 0.8841 0.4672 -0.0000
vn -0.7526 -0.6584 -0.0000
vn -0.8670 -0.4983 -0.0000
vn -0.5407 -0.8412 -0.0000
vn 0.6512 -0.7589 -0.0000
vn -0.5434 -0.8395 -0.0000
vn -0.4264 0.9046 -0.0000
vn -0.8534 -0.5213 -0.0000
vn 0.6647 -0.7471 -0.0000
vn 0.4297 -0.9030 -0.0000
vn 0.7693 0.6388 -0.0000
vt 0.295455 0.000000
vt 0.284091 0.000000
vt 0.272727 0.000000
vt 0.306818 0.000000
vt 0.318182 0.000000
vt 0.261364 0.000000
vt 0.329545 0.000000
vt 0.250000 0.000000
vt 0.340909 0.000000
vt 0.352273 0.000000
vt 0.238636 0.000000
vt 0.363636 0.000000
vt 0.375000 0.000000
vt 0.227273 0.000000
vt 0.386364 0.000000
vt 0.397727 0.000000
vt 0.215909 0.000000
vt 0.409091 0.000000
vt 0.420455 0.000000
vt 0.204545 0.000000
vt 0.431818 0.000000
vt 0.443182 0.000000
vt 0.454545 0.000000
vt 0.465909 0.000000
vt 0.477273 0.000000
vt 0.488636 0.000000
vt 0.500000 0.000000
vt 0.511364 0.000000
vt 0.522727 0.000000
vt 0.534091 0.000000
vt 0.545455 0.000000
vt 0.556818 0.000000
vt 0.568182 0.000000
vt 0.193182 0.000000
vt 0.579545 0.000000
vt 0.590909 0.000000
vt 0.602273 0.000000
vt 0.181818 0.000000
vt 0.613636 0.000000
vt 0.625000 0.000000
vt 0.636364 0.000000
vt 0.170455 0.000000
vt 0.647727 0.000000
vt 0.659091 0.000000
vt 0.159091 0.000000
vt 0.670455 0.000000
vt 0.681818 0.000000
vt 0.147727 0.000000
vt 0.693182 0.000000
vt 0.704545 0.000000
vt 0.136364 0.000000
vt 0.715909 0.000000
vt 0.727273 0.000000
vt 0.125000 0.000000
vt 0.738636 0.000000
vt 0.750000 0.000000
vt 0.113636 0.000000
vt 0.761364 0.000000
vt 0.772727 0.000000
vt 0.102273 0.000000
vt 0.784091 0.000000
vt 0.795455 0.000000
vt 0.806818 0.000000
vt 0.090909 0.000000
vt 0.818182 0.000000
vt 0.829545 0.000000
vt 0.079545 0.000000
vt 0.840909 0.000000
vt 0.852273 0.000000
vt 0.068182 0.000000
vt 0.863636 0.000000
vt 0.056818 0.000000
vt 0.875000 0.000000
vt 0.045455 0.000000
vt 0.886364 0.000000
vt 0.897727 0.000000
vt 0.034091 0.000000
vt 0.909091 0.000000
vt 0.022727 0.000000
vt 0.920455 0.000000
vt 0.011364 0.000000
vt 0.931818 0.000000
vt 0.943182 0.000000
vt 0.000000 0.000000
vt 1.000000 0.000000
vt 0.954545 0.000000
vt 0.965909 0.000000
vt 0.977273 0.000000
vt 0.988636 0.000000
vt 0.389474 0.000000
vt 0.378947 0.000000
vt 0.368421 0.000000
vt 0.357895 0.000000
vt 0.400000 0.000000
vt 0.347368 0.000000
vt 0.410526 0.000000
vt 0.336842 0.000000
vt 0.421053 0.000000
vt 0.326316 0.000000
vt 0.431579 0.000000
vt 0.315789 0.000000
vt 0.442105 0.000000
vt 0.631579 0.000000
vt 0.621053 0.000000
vt 0.642105 0.000000
vt 0.652632 0.000000
vt 0.610526 0.000000
vt 0.663158 0.000000
vt 0.600000 0.000000
vt 0.305263 0.000000
vt 0.452632 0.000000
vt 0.673684 0.000000
vt 0.589474 0.000000
vt 0.684211 0.000000
vt 0.578947 0.000000
vt 0.294737 0.000000
vt 0.463158 0.000000
vt 0.694737 0.000000
vt 0.568421 0.000000
vt 0.705263 0.000000
vt 0.557895 0.000000
vt 0.284211 0.000000
vt 0.473684 0.000000
vt 0.715789 0.000000
vt 0.547368 0.000000
vt 0.273684 0.000000
vt 0.484211 0.000000
vt 0.726316 0.000000
vt 0.536842 0.000000
vt 0.736842 0.000000
vt 0.526316 0.000000
vt 0.263158 0.000000
vt 0.494737 0.000000
vt 0.747368 0.000000
vt 0.515789 0.000000
vt 0.252632 0.000000
vt 0.757895 0.000000
vt 0.505263 0.000000
vt 0.010526 0.000000
vt 0.768421 0.000000
vt 0.242105 0.000000
vt 0.989474 0.000000
vt 0.778947 0.000000
vt 0.231579 0.000000
vt 0.021053 0.000000
vt 0.978947 0.000000
vt 0.789474 0.000000
vt 0.221053 0.000000
vt 0.031579 0.000000
vt 0.800000 0.000000
vt 0.968421 0.000000
vt 0.210526 0.000000
vt 0.042105 0.000000
vt 0.810526 0.000000
vt 0.957895 0.000000
vt 0.821053 0.000000
vt 0.947368 0.000000
vt 0.200000 0.000000
vt 0.052632 0.000000
vt 0.831579 0.000000
vt 0.936842 0.000000
vt 0.842105 0.000000
vt 0.926316 0.000000
vt 0.189474 0.000000
vt 0.063158 0.000000
vt 0.852632 0.000000
vt 0.915789 0.000000
vt 0.863158 0.000000
vt 0.905263 0.000000
vt 0.178947 0.000000
vt 0.073684 0.000000
vt 0.873684 0.000000
vt 0.894737 0.000000
vt 0.884211 0.000000
vt 0.168421 0.000000
vt 0.084211 0.000000
vt 0.157895 0.000000
vt 0.094737 0.000000
vt 0.147368 0.000000
vt 0.105263 0.000000
vt 0.136842 0.000000
vt 0.115789 0.000000
vt 0.126316 0.000000
vt 0.222222 0.000000
vt 0.111111 0.000000
vt 0.888889 0.000000
vt 0.777778 0.000000
vt 0.444444 0.000000
vt 0.666667 0.000000
vt 0.555556 0.000000
vt 0.333333 0.000000
s 0
usemtl マテリアル
f 27/1/1 26/2/1 25/3/1
f 28/4/1 27/1/1 25/3/1
f 29/5/1 28/4/1 25/3/1
f 29/5/1 25/3/1 24/6/1
f 30/7/1 29/5/1 24/6/1
f 30/7/1 24/6/1 23/8/1
f 31/9/1 30/7/1 23/8/1
f 32/10/1 31/9/1 23/8/1
f 32/10/1 23/8/1 22/11/1
f 33/12/1 32/10/1 22/11/1
f 34/13/1 33/12/1 22/11/1
f 34/13/1 22/11/1 21/14/1
f 35/15/1 34/13/1 21/14/1
f 36/16/1 35/15/1 21/14/1
f 36/16/1 21/14/1 20/17/1
f 37/18/1 36/16/1 20/17/1
f 38/19/1 37/18/1 20/17/1
f 38/19/1 20/17/1 19/20/1
f 39/21/1 38/19/1 40/22/1
f 40/22/1 38/19/1 41/23/1
f 41/23/1 38/19/1 42/24/1
f 42/24/1 38/19/1 43/25/1
f 43/25/1 38/19/1 44/26/1
f 44/26/1 38/19/1 45/27/1
f 45/27/1 38/19/1 46/28/1
f 46/28/1 38/19/1 47/29/1
f 47/29/1 38/19/1 48/30/1
f 48/30/1 38/19/1 49/31/1
f 49/31/1 38/19/1 50/32/1
f 50/32/1 38/19/1 19/20/1
f 50/32/1 19/20/1 51/33/1
f 51/33/1 19/20/1 18/34/1
f 52/35/2 51/33/2 18/34/2
f 53/36/1 52/35/1 18/34/1
f 54/37/1 53/36/1 18/34/1
f 54/37/1 18/34/1 17/38/1
f 55/39/1 54/37/1 17/38/1
f 56/40/1 55/39/1 17/38/1
f 57/41/1 56/40/1 17/38/1
f 57/41/1 17/38/1 16/42/1
f 58/43/1 57/41/1 16/42/1
f 59/44/1 58/43/1 16/42/1
f 59/44/1 16/42/1 15/45/1
f 60/46/1 59/44/1 15/45/1
f 61/47/1 60/46/1 15/45/1
f 61/47/1 15/45/1 14/48/1
f 62/49/1 61/47/1 14/48/1
f 63/50/1 62/49/1 14/48/1
f 63/50/1 14/48/1 13/51/1
f 64/52/1 63/50/1 13/51/1
f 65/53/1 64/52/1 13/51/1
f 65/53/1 13/51/1 12/54/1
f 66/55/1 65/53/1 12/54/1
f 67/56/1 66/55/1 12/54/1
f 67/56/1 12/54/1 11/57/1
f 68/58/1 67/56/1 11/57/1
f 69/59/1 68/58/1 11/57/1
f 69/59/1 11/57/1 10/60/1
f 70/61/1 69/59/1 10/60/1
f 71/62/1 70/61/1 10/60/1
f 72/63/1 71/62/1 10/60/1
f 72/63/1 10/60/1 9/64/1
f 73/65/1 72/63/1 9/64/1
f 74/66/1 73/65/1 9/64/1
f 74/66/1 9/64/1 8/67/1
f 75/68/1 74/66/1 8/67/1
f 76/69/1 75/68/1 8/67/1
f 76/69/1 8/67/1 7/70/1
f 77/71/1 76/69/1 7/70/1
f 77/71/1 7/70/1 6/72/1
f 78/73/1 77/71/1 6/72/1
f 78/73/1 6/72/1 5/74/1
f 79/75/1 78/73/1 5/74/1
f 80/76/1 79/75/1 5/74/1
f 80/76/1 5/74/1 4/77/1
f 81/78/1 80/76/1 4/77/1
f 81/78/1 4/77/1 3/79/1
f 82/80/1 81/78/1 3/79/1
f 82/80/1 3/79/1 2/81/1
f 83/82/1 82/80/1 2/81/1
f 84/83/1 83/82/1 2/81/1
f 84/83/1 2/81/1 1/84/1
f 84/83/1 1/84/1 89/85/1
f 85/86/1 84/83/1 89/85/1
f 86/87/1 85/86/1 89/85/1
f 87/88/1 86/87/1 89/85/1
f 88/89/1 87/88/1 89/85/1
f 95/23/1 94/12/1 93/3/1
f 95/23/1 93/3/1 92/38/1
f 92/38/1 91/64/1 90/84/1
f 92/38/1 90/84/1 101/85/1
f 95/23/1 92/38/1 101/85/1
f 96/31/1 95/23/1 101/85/1
f 96/31/1 101/85/1 98/53/1
f 98/53/1 101/85/1 100/78/1
f 96/31/1 98/53/1 97/41/1
f 99/65/1 98/53/1 100/78/1
f 139/90/1 138/91/1 137/92/1
f 139/90/1 137/92/1 136/93/1
f 140/94/1 139/90/1 136/93/1
f 140/94/1 136/93/1 135/95/1
f 141/96/1 140/94/1 135/95/1
f 141/96/1 135/95/1 134/97/1
f 142/98/1 141/96/1 134/97/1
f 142/98/1 134/97/1 133/99/1
f 143/100/1 142/98/1 133/99/1
f 143/100/1 133/99/1 132/101/1
f 144/102/1 143/100/1 162/103/1
f 162/103/1 143/100/1 132/101/1
f 144/102/3 162/103/3 161/104/3
f 163/105/1 162/103/1 132/101/1
f 164/106/1 163/105/1 132/101/1
f 144/102/1 161/104/1 160/107/1
f 165/108/1 164/106/1 132/101/1
f 144/102/1 160/107/1 159/109/1
f 165/108/1 132/101/1 131/110/1
f 145/111/1 144/102/1 159/109/1
f 166/112/1 165/108/1 131/110/1
f 145/111/1 159/109/1 158/113/1
f 167/114/1 166/112/1 131/110/1
f 145/111/1 158/113/1 157/115/1
f 167/114/1 131/110/1 130/116/1
f 146/117/1 145/111/1 157/115/1
f 168/118/1 167/114/1 130/116/1
f 146/117/1 157/115/1 156/119/1
f 169/120/1 168/118/1 130/116/1
f 146/117/1 156/119/1 155/121/1
f 169/120/1 130/116/1 129/122/1
f 147/123/1 146/117/1 155/121/1
f 170/124/1 169/120/1 129/122/1
f 147/123/1 155/121/1 154/125/1
f 170/124/1 129/122/1 128/126/1
f 148/127/1 147/123/1 154/125/1
f 171/128/1 170/124/1 128/126/1
f 148/127/1 154/125/1 153/129/1
f 172/130/1 171/128/1 128/126/1
f 148/127/1 153/129/1 152/131/1
f 172/130/1 128/126/1 127/132/1
f 149/133/1 148/127/1 152/131/1
f 173/134/1 172/130/1 127/132/1
f 149/133/1 152/131/1 151/135/1
f 173/134/1 127/132/1 126/136/1
f 102/84/1 149/133/1 151/135/1
f 174/137/1 173/134/1 126/136/1
f 102/84/1 151/135/1 150/138/1
f 103/139/1 102/84/1 150/138/1
f 103/139/1 150/138/1 197/85/1
f 175/140/1 174/137/1 126/136/1
f 175/140/1 126/136/1 125/141/1
f 103/139/1 197/85/1 196/142/1
f 176/143/1 175/140/1 125/141/1
f 176/143/1 125/141/1 124/144/1
f 104/145/1 103/139/1 196/142/1
f 104/145/1 196/142/1 195/146/1
f 177/147/1 176/143/1 124/144/1
f 177/147/1 124/144/1 123/148/1
f 105/149/1 104/145/1 195/146/1
f 178/150/1 177/147/1 123/148/1
f 105/149/1 195/146/1 194/151/1
f 178/150/1 123/148/1 122/152/1
f 106/153/1 105/149/1 194/151/1
f 179/154/1 178/150/1 122/152/1
f 106/153/1 194/151/1 193/155/1
f 180/156/1 179/154/1 122/152/1
f 106/153/1 193/155/1 192/157/1
f 180/156/1 122/152/1 121/158/1
f 107/159/1 106/153/1 192/157/1
f 181/160/1 180/156/1 121/158/1
f 107/159/1 192/157/1 191/161/1
f 182/162/1 181/160/1 121/158/1
f 107/159/1 191/161/1 190/163/1
f 182/162/1 121/158/1 120/164/1
f 108/165/1 107/159/1 190/163/1
f 183/166/1 182/162/1 120/164/1
f 108/165/1 190/163/1 189/167/1
f 184/168/1 183/166/1 120/164/1
f 108/165/1 189/167/1 188/169/1
f 184/168/1 120/164/1 119/170/1
f 109/171/1 108/165/1 188/169/1
f 185/172/1 184/168/1 119/170/1
f 109/171/1 188/169/1 187/173/1
f 186/174/1 185/172/1 119/170/1
f 109/171/1 187/173/1 186/174/1
f 109/171/1 186/174/1 119/170/1
f 109/171/1 119/170/1 118/175/1
f 110/176/1 109/171/1 118/175/1
f 110/176/1 118/175/1 117/177/1
f 111/178/1 110/176/1 117/177/1
f 111/178/1 117/177/1 116/179/1
f 112/180/1 111/178/1 116/179/1
f 112/180/1 116/179/1 115/181/1
f 113/182/1 112/180/1 115/181/1
f 113/182/1 115/181/1 114/183/1
f 200/184/1 199/185/1 206/186/1
f 206/186/1 199/185/1 198/84/1
f 206/186/1 198/84/1 207/85/1
f 200/184/1 206/186/1 205/187/1
f 200/184/1 205/187/1 202/188/1
f 202/188/1 205/187/1 204/189/1
f 202/188/1 204/189/1 203/190/1
f 200/184/1 202/188/1 201/191/1
f 234/1/4 232/3/4 233/2/4
f 235/4/4 232/3/4 234/1/4
f 236/5/4 232/3/4 235/4/4
f 236/5/4 231/6/4 232/3/4
f 237/7/4 231/6/4 236/5/4
f 237/7/4 230/8/4 231/6/4
f 238/9/4 230/8/4 237/7/4
f 239/10/4 230/8/4 238/9/4
f 239/10/4 229/11/4 230/8/4
f 240/12/4 229/11/4 239/10/4
f 241/13/4 229/11/4 240/12/4
f 241/13/4 228/14/4 229/11/4
f 242/15/4 228/14/4 241/13/4
f 243/16/4 228/14/4 242/15/4
f 243/16/4 227/17/4 228/14/4
f 244/18/4 227/17/4 243/16/4
f 245/19/4 227/17/4 244/18/4
f 245/19/4 226/20/4 227/17/4
f 246/21/4 247/22/4 245/19/4
f 247/22/4 248/23/4 245/19/4
f 248/23/4 249/24/4 245/19/4
f 249/24/4 250/25/4 245/19/4
f 250/25/4 251/26/4 245/19/4
f 251/26/4 252/27/4 245/19/4
f 252/27/4 253/28/4 245/19/4
f 253/28/4 254/29/4 245/19/4
f 254/29/4 255/30/4 245/19/4
f 255/30/4 256/31/4 245/19/4
f 256/31/4 257/32/4 245/19/4
f 257/32/4 226/20/4 245/19/4
f 257/32/4 258/33/4 226/20/4
f 258/33/4 225/34/4 226/20/4
f 259/35/5 225/34/5 258/33/5
f 260/36/4 225/34/4 259/35/4
f 261/37/4 225/34/4 260/36/4
f 261/37/4 224/38/4 225/34/4
f 262/39/4 224/38/4 261/37/4
f 263/40/4 224/38/4 262/39/4
f 264/41/4 224/38/4 263/40/4
f 264/41/4 223/42/4 224/38/4
f 265/43/4 223/42/4 264/41/4
f 266/44/4 223/42/4 265/43/4
f 266/44/4 222/45/4 223/42/4
f 267/46/4 222/45/4 266/44/4
f 268/47/4 222/45/4 267/46/4
f 268/47/4 221/48/4 222/45/4
f 269/49/4 221/48/4 268/47/4
f 270/50/4 221/48/4 269/49/4
f 270/50/4 220/51/4 221/48/4
f 271/52/4 220/51/4 270/50/4
f 272/53/4 220/51/4 271/52/4
f 272/53/4 219/54/4 220/51/4
f 273/55/4 219/54/4 272/53/4
f 274/56/4 219/54/4 273/55/4
f 274/56/4 218/57/4 219/54/4
f 275/58/4 218/57/4 274/56/4
f 276/59/4 218/57/4 275/58/4
f 276/59/4 217/60/4 218/57/4
f 277/61/4 217/60/4 276/59/4
f 278/62/4 217/60/4 277/61/4
f 279/63/4 217/60/4 278/62/4
f 279/63/4 216/64/4 217/60/4
f 280/65/4 216/64/4 279/63/4
f 281/66/4 216/64/4 280/65/4
f 281/66/4 215/67/4 216/64/4
f 282/68/4 215/67/4 281/66/4
f 283/69/4 215/67/4 282/68/4
f 283/69/4 214/70/4 215/67/4
f 284/71/4 214/70/4 283/69/4
f 284/71/4 213/72/4 214/70/4
f 285/73/4 213/72/4 284/71/4
f 285/73/4 212/74/4 213/72/4
f 286/75/4 212/74/4 285/73/4
f 287/76/4 212/74/4 286/75/4
f 287/76/4 211/77/4 212/74/4
f 288/78/4 211/77/4 287/76/4
f 288/78/4 210/79/4 211/77/4
f 289/80/4 210/79/4 288/78/4
f 289/80/4 209/81/4 210/79/4
f 290/82/4 209/81/4 289/80/4
f 291/83/4 209/81/4 290/82/4
f 291/83/4 208/84/4 209/81/4
f 291/83/4 296/85/4 208/84/4
f 292/86/4 296/85/4 291/83/4
f 293/87/4 296/85/4 292/86/4
f 294/88/4 296/85/4 293/87/4
f 295/89/4 296/85/4 294/88/4
f 302/23/4 300/3/4 301/12/4
f 302/23/4 299/38/4 300/3/4
f 299/38/4 297/84/4 298/64/4
f 299/38/4 308/85/4 297/84/4
f 302/23/4 308/85/4 299/38/4
f 303/31/4 308/85/4 302/23/4
f 303/31/4 305/53/4 308/85/4
f 305/53/4 307/78/4 308/85/4
f 303/31/4 304/41/4 305/53/4
f 306/65/4 307/78/4 305/53/4
f 346/90/4 344/92/4 345/91/4
f 346/90/4 343/93/4 344/92/4
f 347/94/4 343/93/4 346/90/4
f 347/94/4 342/95/4 343/93/4
f 348/96/4 342/95/4 347/94/4
f 348/96/4 341/97/4 342/95/4
f 349/98/4 341/97/4 348/96/4
f 349/98/4 340/99/4 341/97/4
f 350/100/4 340/99/4 349/98/4
f 350/100/4 339/101/4 340/99/4
f 351/102/4 369/103/4 350/100/4
f 369/103/4 339/101/4 350/100/4
f 351/102/5 368/104/5 369/103/5
f 370/105/4 339/101/4 369/103/4
f 371/106/4 339/101/4 370/105/4
f 351/102/4 367/107/4 368/104/4
f 372/108/4 339/101/4 371/106/4
f 351/102/4 366/109/4 367/107/4
f 372/108/4 338/110/4 339/101/4
f 352/111/4 366/109/4 351/102/4
f 373/112/4 338/110/4 372/108/4
f 352/111/4 365/113/4 366/109/4
f 374/114/4 338/110/4 373/112/4
f 352/111/4 364/115/4 365/113/4
f 374/114/4 337/116/4 338/110/4
f 353/117/4 364/115/4 352/111/4
f 375/118/4 337/116/4 374/114/4
f 353/117/4 363/119/4 364/115/4
f 376/120/4 337/116/4 375/118/4
f 353/117/4 362/121/4 363/119/4
f 376/120/4 336/122/4 337/116/4
f 354/123/4 362/121/4 353/117/4
f 377/124/4 336/122/4 376/120/4
f 354/123/4 361/125/4 362/121/4
f 377/124/4 335/126/4 336/122/4
f 355/127/4 361/125/4 354/123/4
f 378/128/4 335/126/4 377/124/4
f 355/127/4 360/129/4 361/125/4
f 379/130/4 335/126/4 378/128/4
f 355/127/4 359/131/4 360/129/4
f 379/130/4 334/132/4 335/126/4
f 356/133/4 359/131/4 355/127/4
f 380/134/4 334/132/4 379/130/4
f 356/133/4 358/135/4 359/131/4
f 380/134/4 333/136/4 334/132/4
f 309/84/4 358/135/4 356/133/4
f 381/137/4 333/136/4 380/134/4
f 309/84/4 357/138/4 358/135/4
f 310/139/4 357/138/4 309/84/4
f 310/139/4 404/85/4 357/138/4
f 382/140/4 333/136/4 381/137/4
f 382/140/4 332/141/4 333/136/4
f 310/139/4 403/142/4 404/85/4
f 383/143/4 332/141/4 382/140/4
f 383/143/4 331/144/4 332/141/4
f 311/145/4 403/142/4 310/139/4
f 311/145/4 402/146/4 403/142/4
f 384/147/4 331/144/4 383/143/4
f 384/147/4 330/148/4 331/144/4
f 312/149/4 402/146/4 311/145/4
f 385/150/4 330/148/4 384/147/4
f 312/149/4 401/151/4 402/146/4
f 385/150/4 329/152/4 330/148/4
f 313/153/4 401/151/4 312/149/4
f 386/154/4 329/152/4 385/150/4
f 313/153/4 400/155/4 401/151/4
f 387/156/4 329/152/4 386/154/4
f 313/153/4 399/157/4 400/155/4
f 387/156/4 328/158/4 329/152/4
f 314/159/4 399/157/4 313/153/4
f 388/160/4 328/158/4 387/156/4
f 314/159/4 398/161/4 399/157/4
f 389/162/4 328/158/4 388/160/4
f 314/159/4 397/163/4 398/161/4
f 389/162/4 327/164/4 328/158/4
f 315/165/4 397/163/4 314/159/4
f 390/166/4 327/164/4 389/162/4
f 315/165/4 396/167/4 397/163/4
f 391/168/4 327/164/4 390/166/4
f 315/165/4 395/169/4 396/167/4
f 391/168/4 326/170/4 327/164/4
f 316/171/4 395/169/4 315/165/4
f 392/172/4 326/170/4 391/168/4
f 316/171/4 394/173/4 395/169/4
f 393/174/4 326/170/4 392/172/4
f 316/171/4 393/174/4 394/173/4
f 316/171/4 326/170/4 393/174/4
f 316/171/4 325/175/4 326/170/4
f 317/176/4 325/175/4 316/171/4
f 317/176/4 324/177/4 325/175/4
f 318/178/4 324/177/4 317/176/4
f 318/178/4 323/179/4 324/177/4
f 319/180/4 323/179/4 318/178/4
f 319/180/4 322/181/4 323/179/4
f 320/182/4 322/181/4 319/180/4
f 320/182/4 321/183/4 322/181/4
f 407/184/4 413/186/4 406/185/4
f 413/186/4 405/84/4 406/185/4
f 413/186/4 414/85/4 405/84/4
f 407/184/4 412/187/4 413/186/4
f 407/184/4 409/188/4 412/187/4
f 409/188/4 411/189/4 412/187/4
f 409/188/4 410/190/4 411/189/4
f 407/184/4 408/191/4 409/188/4
f 37/18/6 243/16/6 36/16/6
f 191/161/7 397/163/7 190/163/7
f 159/109/8 365/113/8 158/113/8
f 8/67/9 214/70/9 7/70/9
f 167/114/10 373/112/10 166/112/10
f 77/71/11 283/69/11 76/69/11
f 38/19/12 244/18/12 37/18/12
f 121/158/13 327/164/13 120/164/13
f 108/165/14 314/159/14 107/159/14
f 158/113/15 364/115/15 157/115/15
f 7/70/16 213/72/16 6/72/16
f 20/17/17 226/20/17 19/20/17
f 183/166/18 389/162/18 182/162/18
f 78/73/19 284/71/19 77/71/19
f 39/21/20 245/19/20 38/19/20
f 131/110/21 337/116/21 130/116/21
f 40/22/22 246/21/22 39/21/22
f 146/117/23 352/111/23 145/111/23
f 190/163/24 396/167/24 189/167/24
f 6/72/25 212/74/25 5/74/25
f 41/23/26 247/22/26 40/22/26
f 184/168/27 390/166/27 183/166/27
f 168/118/28 374/114/28 167/114/28
f 79/75/29 285/73/29 78/73/29
f 42/24/30 248/23/30 41/23/30
f 80/76/31 286/75/31 79/75/31
f 189/167/32 395/169/32 188/169/32
f 157/115/33 363/119/33 156/119/33
f 43/25/34 249/24/34 42/24/34
f 169/120/35 375/118/35 168/118/35
f 120/164/36 326/170/36 119/170/36
f 5/74/37 211/77/37 4/77/37
f 44/26/38 250/25/38 43/25/38
f 109/171/39 315/165/39 108/165/39
f 81/78/40 287/76/40 80/76/40
f 156/119/41 362/121/41 155/121/41
f 45/27/42 251/26/42 44/26/42
f 185/172/43 391/168/43 184/168/43
f 130/116/44 336/122/44 129/122/44
f 4/77/45 210/79/45 3/79/45
f 46/28/46 252/27/46 45/27/46
f 147/123/47 353/117/47 146/117/47
f 82/80/48 288/78/48 81/78/48
f 188/169/49 394/173/49 187/173/49
f 47/29/50 253/28/50 46/28/50
f 186/174/51 392/172/51 185/172/51
f 170/124/52 376/120/52 169/120/52
f 3/79/53 209/81/53 2/81/53
f 48/30/54 254/29/54 47/29/54
f 83/82/55 289/80/55 82/80/55
f 187/173/56 393/174/56 186/174/56
f 155/121/57 361/125/57 154/125/57
f 49/31/58 255/30/58 48/30/58
f 84/83/59 290/82/59 83/82/59
f 129/122/60 335/126/60 128/126/60
f 50/32/61 256/31/61 49/31/61
f 119/170/62 325/175/62 118/175/62
f 148/127/63 354/123/63 147/123/63
f 110/176/64 316/171/64 109/171/64
f 2/81/65 208/84/65 1/84/65
f 171/128/66 377/124/66 170/124/66
f 51/33/67 257/32/67 50/32/67
f 1/84/68 296/85/68 89/85/68
f 118/175/69 324/177/69 117/177/69
f 85/86/70 291/83/70 84/83/70
f 111/178/71 317/176/71 110/176/71
f 154/125/72 360/129/72 153/129/72
f 19/20/73 225/34/73 18/34/73
f 172/130/74 378/128/74 171/128/74
f 86/87/75 292/86/75 85/86/75
f 52/35/76 258/33/76 51/33/76
f 117/177/77 323/179/77 116/179/77
f 87/88/78 293/87/78 86/87/78
f 53/36/79 259/35/79 52/35/79
f 112/180/80 318/178/80 111/178/80
f 153/129/81 359/131/81 152/131/81
f 88/89/20 294/88/20 87/88/20
f 54/37/82 260/36/82 53/36/82
f 128/126/83 334/132/83 127/132/83
f 89/85/84 295/89/84 88/89/84
f 116/179/85 322/181/85 115/181/85
f 149/133/86 355/127/86 148/127/86
f 95/23/87 301/12/87 94/12/87
f 113/182/88 319/180/88 112/180/88
f 18/34/89 224/38/89 17/38/89
f 173/134/90 379/130/90 172/130/90
f 94/12/65 300/3/65 93/3/65
f 55/39/91 261/37/91 54/37/91
f 114/183/92 320/182/92 113/182/92
f 115/181/93 321/183/93 114/183/93
f 93/3/94 299/38/94 92/38/94
f 56/40/95 262/39/95 55/39/95
f 200/184/20 406/185/20 199/185/20
f 152/131/96 358/135/96 151/135/96
f 92/38/97 298/64/97 91/64/97
f 57/41/98 263/40/98 56/40/98
f 127/132/99 333/136/99 126/136/99
f 91/64/65 297/84/65 90/84/65
f 102/84/100 356/133/100 149/133/100
f 199/185/65 405/84/65 198/84/65
f 90/84/101 308/85/101 101/85/101
f 17/38/102 223/42/102 16/42/102
f 207/85/84 413/186/84 206/186/84
f 174/137/103 380/134/103 173/134/103
f 58/43/104 264/41/104 57/41/104
f 198/84/68 414/85/68 207/85/68
f 96/31/105 302/23/105 95/23/105
f 59/44/106 265/43/106 58/43/106
f 206/186/68 412/187/68 205/187/68
f 151/135/107 357/138/107 150/138/107
f 103/139/108 309/84/108 102/84/108
f 16/42/109 222/45/109 15/45/109
f 101/85/110 307/78/110 100/78/110
f 60/46/111 266/44/111 59/44/111
f 205/187/65 411/189/65 204/189/65
f 150/138/112 404/85/112 197/85/112
f 97/41/84 303/31/84 96/31/84
f 203/190/84 409/188/84 202/188/84
f 175/140/113 381/137/113 174/137/113
f 98/53/114 304/41/114 97/41/114
f 61/47/115 267/46/115 60/46/115
f 204/189/68 410/190/68 203/190/68
f 99/65/116 305/53/116 98/53/116
f 201/191/84 407/184/84 200/184/84
f 100/78/84 306/65/84 99/65/84
f 202/188/68 408/191/68 201/191/68
f 126/136/117 332/141/117 125/141/117
f 139/90/118 345/91/118 138/91/118
f 15/45/119 221/48/119 14/48/119
f 62/49/120 268/47/120 61/47/120
f 197/85/121 403/142/121 196/142/121
f 138/91/122 344/92/122 137/92/122
f 176/143/123 382/140/123 175/140/123
f 63/50/124 269/49/124 62/49/124
f 137/92/125 343/93/125 136/93/125
f 140/94/126 346/90/126 139/90/126
f 125/141/127 331/144/127 124/144/127
f 14/48/128 220/51/128 13/51/128
f 104/145/129 310/139/129 103/139/129
f 64/52/130 270/50/130 63/50/130
f 136/93/131 342/95/131 135/95/131
f 141/96/132 347/94/132 140/94/132
f 65/53/133 271/52/133 64/52/133
f 196/142/134 402/146/134 195/146/134
f 177/147/135 383/143/135 176/143/135
f 135/95/136 341/97/136 134/97/136
f 13/51/137 219/54/137 12/54/137
f 27/1/138 233/2/138 26/2/138
f 142/98/139 348/96/139 141/96/139
f 66/55/140 272/53/140 65/53/140
f 124/144/141 330/148/141 123/148/141
f 26/2/142 232/3/142 25/3/142
f 105/149/143 311/145/143 104/145/143
f 67/56/144 273/55/144 66/55/144
f 28/4/145 234/1/145 27/1/145
f 134/97/146 340/99/146 133/99/146
f 178/150/147 384/147/147 177/147/147
f 143/100/148 349/98/148 142/98/148
f 29/5/149 235/4/149 28/4/149
f 12/54/150 218/57/150 11/57/150
f 68/58/151 274/56/151 67/56/151
f 195/146/152 401/151/152 194/151/152
f 133/99/153 339/101/153 132/101/153
f 25/3/154 231/6/154 24/6/154
f 144/102/155 350/100/155 143/100/155
f 69/59/156 275/58/156 68/58/156
f 30/7/157 236/5/157 29/5/157
f 123/148/158 329/152/158 122/152/158
f 106/153/159 312/149/159 105/149/159
f 11/57/160 217/60/160 10/60/160
f 24/6/32 230/8/32 23/8/32
f 179/154/161 385/150/161 178/150/161
f 70/61/162 276/59/162 69/59/162
f 31/9/163 237/7/163 30/7/163
f 162/103/164 368/104/164 161/104/164
f 163/105/165 369/103/165 162/103/165
f 71/62/166 277/61/166 70/61/166
f 32/10/167 238/9/167 31/9/167
f 194/151/168 400/155/168 193/155/168
f 180/156/169 386/154/169 179/154/169
f 164/106/170 370/105/170 163/105/170
f 72/63/171 278/62/171 71/62/171
f 23/8/172 229/11/172 22/11/172
f 33/12/173 239/10/173 32/10/173
f 193/155/174 399/157/174 192/157/174
f 161/104/175 367/107/175 160/107/175
f 10/60/176 216/64/176 9/64/176
f 165/108/177 371/106/177 164/106/177
f 73/65/178 279/63/178 72/63/178
f 34/13/179 240/12/179 33/12/179
f 122/152/180 328/158/180 121/158/180
f 107/159/181 313/153/181 106/153/181
f 74/66/182 280/65/182 73/65/182
f 160/107/183 366/109/183 159/109/183
f 22/11/184 228/14/184 21/14/184
f 181/160/185 387/156/185 180/156/185
f 35/15/186 241/13/186 34/13/186
f 132/101/187 338/110/187 131/110/187
f 9/64/188 215/67/188 8/67/188
f 145/111/189 351/102/189 144/102/189
f 75/68/190 281/66/190 74/66/190
f 36/16/191 242/15/191 35/15/191
f 192/157/192 398/161/192 191/161/192
f 182/162/193 388/160/193 181/160/193
f 166/112/194 372/108/194 165/108/194
f 76/69/195 282/68/195 75/68/195
f 21/14/196 227/17/196 20/17/196
f 37/18/6 244/18/6 243/16/6
f 191/161/7 398/161/7 397/163/7
f 159/109/8 366/109/8 365/113/8
f 8/67/9 215/67/9 214/70/9
f 167/114/10 374/114/10 373/112/10
f 77/71/11 284/71/11 283/69/11
f 38/19/12 245/19/12 244/18/12
f 121/158/13 328/158/13 327/164/13
f 108/165/14 315/165/14 314/159/14
f 158/113/15 365/113/15 364/115/15
f 7/70/16 214/70/16 213/72/16
f 20/17/17 227/17/17 226/20/17
f 183/166/18 390/166/18 389/162/18
f 78/73/19 285/73/19 284/71/19
f 39/21/20 246/21/20 245/19/20
f 131/110/21 338/110/21 337/116/21
f 40/22/22 247/22/22 246/21/22
f 146/117/23 353/117/23 352/111/23
f 190/163/197 397/163/197 396/167/197
f 6/72/25 213/72/25 212/74/25
f 41/23/26 248/23/26 247/22/26
f 184/168/27 391/168/27 390/166/27
f 168/118/28 375/118/28 374/114/28
f 79/75/29 286/75/29 285/73/29
f 42/24/30 249/24/30 248/23/30
f 80/76/31 287/76/31 286/75/31
f 189/167/32 396/167/32 395/169/32
f 157/115/33 364/115/33 363/119/33
f 43/25/34 250/25/34 249/24/34
f 169/120/35 376/120/35 375/118/35
f 120/164/36 327/164/36 326/170/36
f 5/74/37 212/74/37 211/77/37
f 44/26/38 251/26/38 250/25/38
f 109/171/39 316/171/39 315/165/39
f 81/78/40 288/78/40 287/76/40
f 156/119/41 363/119/41 362/121/41
f 45/27/42 252/27/42 251/26/42
f 185/172/43 392/172/43 391/168/43
f 130/116/44 337/116/44 336/122/44
f 4/77/45 211/77/45 210/79/45
f 46/28/46 253/28/46 252/27/46
f 147/123/47 354/123/47 353/117/47
f 82/80/48 289/80/48 288/78/48
f 188/169/49 395/169/49 394/173/49
f 47/29/50 254/29/50 253/28/50
f 186/174/51 393/174/51 392/172/51
f 170/124/52 377/124/52 376/120/52
f 3/79/198 210/79/198 209/81/198
f 48/30/54 255/30/54 254/29/54
f 83/82/55 290/82/55 289/80/55
f 187/173/56 394/173/56 393/174/56
f 155/121/57 362/121/57 361/125/57
f 49/31/58 256/31/58 255/30/58
f 84/83/59 291/83/59 290/82/59
f 129/122/60 336/122/60 335/126/60
f 50/32/61 257/32/61 256/31/61
f 119/170/62 326/170/62 325/175/62
f 148/127/63 355/127/63 354/123/63
f 110/176/64 317/176/64 316/171/64
f 2/81/65 209/81/65 208/84/65
f 171/128/66 378/128/66 377/124/66
f 51/33/67 258/33/67 257/32/67
f 1/84/68 208/84/68 296/85/68
f 118/175/69 325/175/69 324/177/69
f 85/86/70 292/86/70 291/83/70
f 111/178/71 318/178/71 317/176/71
f 154/125/72 361/125/72 360/129/72
f 19/20/73 226/20/73 225/34/73
f 172/130/74 379/130/74 378/128/74
f 86/87/75 293/87/75 292/86/75
f 52/35/76 259/35/76 258/33/76
f 117/177/77 324/177/77 323/179/77
f 87/88/78 294/88/78 293/87/78
f 53/36/79 260/36/79 259/35/79
f 112/180/80 319/180/80 318/178/80
f 153/129/81 360/129/81 359/131/81
f 88/89/20 295/89/20 294/88/20
f 54/37/82 261/37/82 260/36/82
f 128/126/83 335/126/83 334/132/83
f 89/85/84 296/85/84 295/89/84
f 116/179/85 323/179/85 322/181/85
f 149/133/86 356/133/86 355/127/86
f 95/23/87 302/23/87 301/12/87
f 113/182/88 320/182/88 319/180/88
f 18/34/89 225/34/89 224/38/89
f 173/134/90 380/134/90 379/130/90
f 94/12/65 301/12/65 300/3/65
f 55/39/91 262/39/91 261/37/91
f 114/183/92 321/183/92 320/182/92
f 115/181/93 322/181/93 321/183/93
f 93/3/94 300/3/94 299/38/94
f 56/40/95 263/40/95 262/39/95
f 200/184/20 407/184/20 406/185/20
f 152/131/96 359/131/96 358/135/96
f 92/38/97 299/38/97 298/64/97
f 57/41/98 264/41/98 263/40/98
f 127/132/99 334/132/99 333/136/99
f 91/64/65 298/64/65 297/84/65
f 102/84/100 309/84/100 356/133/100
f 199/185/65 406/185/65 405/84/65
f 90/84/101 297/84/101 308/85/101
f 17/38/102 224/38/102 223/42/102
f 207/85/84 414/85/84 413/186/84
f 174/137/103 381/137/103 380/134/103
f 58/43/104 265/43/104 264/41/104
f 198/84/68 405/84/68 414/85/68
f 96/31/105 303/31/105 302/23/105
f 59/44/106 266/44/106 265/43/106
f 206/186/68 413/186/68 412/187/68
f 151/135/107 358/135/107 357/138/107
f 103/139/108 310/139/108 309/84/108
f 16/42/109 223/42/109 222/45/109
f 101/85/110 308/85/110 307/78/110
f 60/46/111 267/46/111 266/44/111
f 205/187/65 412/187/65 411/189/65
f 150/138/112 357/138/112 404/85/112
f 97/41/84 304/41/84 303/31/84
f 203/190/84 410/190/84 409/188/84
f 175/140/113 382/140/113 381/137/113
f 98/53/114 305/53/114 304/41/114
f 61/47/115 268/47/115 267/46/115
f 204/189/68 411/189/68 410/190/68
f 99/65/116 306/65/116 305/53/116
f 201/191/84 408/191/84 407/184/84
f 100/78/84 307/78/84 306/65/84
f 202/188/68 409/188/68 408/191/68
f 126/136/117 333/136/117 332/141/117
f 139/90/118 346/90/118 345/91/118
f 15/45/119 222/45/119 221/48/119
f 62/49/120 269/49/120 268/47/120
f 197/85/121 404/85/121 403/142/121
f 138/91/122 345/91/122 344/92/122
f 176/143/123 383/143/123 382/140/123
f 63/50/124 270/50/124 269/49/124
f 137/92/125 344/92/125 343/93/125
f 140/94/126 347/94/126 346/90/126
f 125/141/127 332/141/127 331/144/127
f 14/48/128 221/48/128 220/51/128
f 104/145/129 311/145/129 310/139/129
f 64/52/130 271/52/130 270/50/130
f 136/93/131 343/93/131 342/95/131
f 141/96/132 348/96/132 347/94/132
f 65/53/133 272/53/133 271/52/133
f 196/142/134 403/142/134 402/146/134
f 177/147/135 384/147/135 383/143/135
f 135/95/136 342/95/136 341/97/136
f 13/51/137 220/51/137 219/54/137
f 27/1/138 234/1/138 233/2/138
f 142/98/139 349/98/139 348/96/139
f 66/55/140 273/55/140 272/53/140
f 124/144/141 331/144/141 330/148/141
f 26/2/142 233/2/142 232/3/142
f 105/149/143 312/149/143 311/145/143
f 67/56/144 274/56/144 273/55/144
f 28/4/145 235/4/145 234/1/145
f 134/97/146 341/97/146 340/99/146
f 178/150/147 385/150/147 384/147/147
f 143/100/148 350/100/148 349/98/148
f 29/5/149 236/5/149 235/4/149
f 12/54/150 219/54/150 218/57/150
f 68/58/151 275/58/151 274/56/151
f 195/146/152 402/146/152 401/151/152
f 133/99/153 340/99/153 339/101/153
f 25/3/154 232/3/154 231/6/154
f 144/102/155 351/102/155 350/100/155
f 69/59/156 276/59/156 275/58/156
f 30/7/157 237/7/157 236/5/157
f 123/148/158 330/148/158 329/152/158
f 106/153/159 313/153/159 312/149/159
f 11/57/160 218/57/160 217/60/160
f 24/6/32 231/6/32 230/8/32
f 179/154/161 386/154/161 385/150/161
f 70/61/162 277/61/162 276/59/162
f 31/9/163 238/9/163 237/7/163
f 162/103/164 369/103/164 368/104/164
f 163/105/165 370/105/165 369/103/165
f 71/62/166 278/62/166 277/61/166
f 32/10/167 239/10/167 238/9/167
f 194/151/168 401/151/168 400/155/168
f 180/156/169 387/156/169 386/154/169
f 164/106/170 371/106/170 370/105/170
f 72/63/171 279/63/171 278/62/171
f 23/8/172 230/8/172 229/11/172
f 33/12/173 240/12/173 239/10/173
f 193/155/174 400/155/174 399/157/174
f 161/104/175 368/104/175 367/107/175
f 10/60/176 217/60/176 216/64/176
f 165/108/177 372/108/177 371/106/177
f 73/65/178 280/65/178 279/63/178
f 34/13/179 241/13/179 240/12/179
f 122/152/180 329/152/180 328/158/180
f 107/159/181 314/159/181 313/153/181
f 74/66/182 281/66/182 280/65/182
f 160/107/183 367/107/183 366/109/183
f 22/11/184 229/11/184 228/14/184
f 181/160/185 388/160/185 387/156/185
f 35/15/186 242/15/186 241/13/186
f 132/101/187 339/101/187 338/110/187
f 9/64/188 216/64/188 215/67/188
f 145/111/189 352/111/189 351/102/189
f 75/68/190 282/68/190 281/66/190
f 36/16/191 243/16/191 242/15/191
f 192/157/192 399/157/192 398/161/192
f 182/162/193 389/162/193 388/160/193
f 166/112/194 373/112/194 372/108/194
f 76/69/195 283/69/195 282/68/195
f 21/14/196 228/14/196 227/17/196
