# Blender 4.5.2 LTS
# www.blender.org
mtllib goal.mtl
o 立方体
v -1.000000 -0.079417 1.000000
v -0.753483 0.847833 0.000000
v -1.000000 0.079417 1.000000
v -0.753483 1.363966 0.000000
v 0.000000 1.394108 -0.092459
v -1.000000 -0.079417 -1.000000
v -1.000000 0.079417 -1.000000
v -0.753483 1.363966 0.004170
v 0.018038 1.394108 -0.090683
v -0.753483 0.847833 0.004170
v 1.000000 -0.079417 1.000000
v 1.000000 0.079417 1.000000
v 0.035383 1.394108 -0.085421
v 1.000000 -0.079417 -1.000000
v 1.000000 0.079417 -1.000000
v 0.051368 1.394108 -0.076877
v 0.065379 1.394108 -0.065379
v 0.076877 1.394108 -0.051368
v 0.085421 1.394108 -0.035383
v 0.090683 1.394108 -0.018038
v 0.092459 1.394108 -0.000000
v 0.090683 1.394108 0.018038
v 0.085421 1.394108 0.035383
v 0.076877 1.394108 0.051368
v 0.065379 1.394108 0.065379
v 0.051368 1.394108 0.076877
v 0.035383 1.394108 0.085421
v 0.018038 1.394108 0.090683
v 0.000000 1.394108 0.092459
v -0.018038 1.394108 0.090683
v -0.035383 1.394108 0.085421
v -0.051368 1.394108 0.076877
v -0.065379 1.394108 0.065379
v -0.076877 1.394108 0.051368
v -0.085421 1.394108 0.035383
v -0.090683 1.394108 0.018038
v -0.092459 1.394108 -0.000000
v -0.090683 1.394108 -0.018038
v -0.085421 1.394108 -0.035383
v -0.076877 1.394108 -0.051368
v -0.065379 1.394108 -0.065379
v -0.051368 1.394108 -0.076877
v -0.035383 1.394108 -0.085421
v -0.018038 1.394108 -0.090683
v -0.092459 0.079417 -0.000000
v -0.090683 0.079417 0.018038
v -0.090683 0.079417 -0.018038
v -0.076877 0.079417 0.051368
v -0.076877 0.079417 -0.051368
v -0.085421 0.079417 0.035383
v -0.085421 0.079417 -0.035383
v -0.051368 0.079417 -0.076877
v -0.018038 0.079417 -0.090683
v -0.035383 0.079417 -0.085421
v 0.018038 0.079417 -0.090683
v 0.051368 0.079417 -0.076877
v 0.035383 0.079417 -0.085421
v 0.000000 0.079417 -0.092459
v -0.065379 0.079417 -0.065379
v -0.065379 0.079417 0.065379
v -0.035383 0.079417 0.085421
v -0.018038 0.079417 0.090683
v -0.051368 0.079417 0.076877
v 0.018038 0.079417 0.090683
v 0.000000 0.079417 0.092459
v 0.051368 0.079417 0.076877
v 0.035383 0.079417 0.085421
v 0.076877 0.079417 0.051368
v 0.076877 0.079417 -0.051368
v 0.092459 0.079417 -0.000000
v 0.090683 0.079417 0.018038
v 0.090683 0.079417 -0.018038
v 0.085421 0.079417 -0.035383
v 0.065379 0.079417 0.065379
v 0.085421 0.079417 0.035383
v 0.065379 0.079417 -0.065379
v -0.092049 1.363966 0.004170
v -0.092049 0.847833 0.004170
v -0.092459 0.847833 0.000000
v -0.092459 1.363966 0.000000
vn -0.5773 -0.5774 0.5773
vn -0.5774 -0.5773 -0.5773
vn -0.5774 0.5774 0.5773
vn -0.5773 0.5773 -0.5774
vn -0.0000 0.6857 -0.7279
vn -0.5773 0.5774 -0.5774
vn -0.5773 0.5773 0.5774
vn 0.1420 0.6857 -0.7139
vn 0.5774 -0.5773 0.5773
vn 0.5773 0.5774 0.5774
vn 0.2786 0.6857 -0.6725
vn 0.5773 -0.5774 -0.5773
vn 0.5774 0.5774 -0.5773
vn 0.4044 0.6857 -0.6052
vn 0.5147 0.6857 -0.5147
vn 0.6052 0.6857 -0.4044
vn 0.6725 0.6857 -0.2786
vn 0.7139 0.6857 -0.1420
vn 0.7279 0.6857 -0.0000
vn 0.7139 0.6857 0.1420
vn 0.6725 0.6857 0.2786
vn 0.6052 0.6857 0.4044
vn 0.5147 0.6857 0.5147
vn 0.4044 0.6857 0.6052
vn 0.2786 0.6857 0.6725
vn 0.1420 0.6857 0.7139
vn -0.0000 0.6857 0.7279
vn -0.1420 0.6857 0.7139
vn -0.2786 0.6857 0.6725
vn -0.4044 0.6857 0.6052
vn -0.5147 0.6857 0.5147
vn -0.6052 0.6857 0.4044
vn -0.6725 0.6857 0.2786
vn -0.7138 0.6857 0.1420
vn -0.7279 0.6857 -0.0000
vn -0.7139 0.6857 -0.1420
vn -0.6725 0.6857 -0.2786
vn -0.6052 0.6857 -0.4044
vn -0.5147 0.6857 -0.5147
vn -0.4044 0.6857 -0.6052
vn -0.2786 0.6857 -0.6725
vn -0.1420 0.6857 -0.7139
vn -0.6836 0.7299 -0.0000
vn -0.6705 0.7298 0.1334
vn -0.6705 0.7298 -0.1334
vn -0.5684 0.7299 0.3798
vn -0.5684 0.7299 -0.3798
vn -0.6316 0.7298 0.2616
vn -0.6316 0.7298 -0.2616
vn -0.3798 0.7299 -0.5684
vn -0.1334 0.7298 -0.6705
vn -0.2616 0.7298 -0.6316
vn 0.1334 0.7298 -0.6705
vn 0.3798 0.7299 -0.5684
vn 0.2616 0.7298 -0.6316
vn -0.0000 0.7299 -0.6836
vn -0.4834 0.7298 -0.4834
vn -0.4834 0.7298 0.4834
vn -0.2616 0.7298 0.6316
vn -0.1334 0.7298 0.6705
vn -0.3798 0.7299 0.5684
vn 0.1334 0.7298 0.6705
vn -0.0000 0.7299 0.6836
vn 0.3798 0.7299 0.5684
vn 0.2616 0.7298 0.6316
vn 0.5684 0.7299 0.3798
vn 0.5684 0.7299 -0.3798
vn 0.6836 0.7299 -0.0000
vn 0.6705 0.7298 0.1334
vn 0.6705 0.7298 -0.1334
vn 0.6316 0.7298 -0.2616
vn 0.4834 0.7298 0.4834
vn 0.6316 0.7298 0.2616
vn 0.4834 0.7298 -0.4834
vn -0.8817 0.2769 0.3821
vn -0.8817 -0.2769 0.3821
vn -0.6188 -0.5489 0.5619
vn -0.9067 0.3216 -0.2730
vt 0.668742 0.498667
vt 0.708450 -0.000000
vt 0.708450 0.498667
vt 0.500000 0.830217
vt 0.539709 0.330217
vt 0.539709 0.830217
vt 0.629033 0.500000
vt 0.668742 0.000000
vt 0.668742 0.500000
vt 0.629033 0.998798
vt 0.668742 0.500000
vt 0.668742 0.998798
vt 0.500000 0.500000
vt 0.000000 0.000000
vt 0.500000 0.000000
vt 0.250000 0.726885
vt 0.245491 0.727329
vt 0.000000 0.500000
vt 0.000000 1.000000
vt 0.245491 0.772671
vt 0.250000 0.773115
vt 0.685086 0.498667
vt 0.689596 0.827339
vt 0.685086 0.827339
vt 0.689596 0.498667
vt 0.693932 0.827339
vt 0.693932 0.498667
vt 0.697928 0.827339
vt 0.697928 0.498667
vt 0.701431 0.827339
vt 0.708450 0.000000
vt 0.711953 0.328673
vt 0.708450 0.328673
vt 0.711953 0.000000
vt 0.715949 0.328673
vt 0.715949 0.000000
vt 0.720286 0.328673
vt 0.720286 0.000000
vt 0.724795 0.328673
vt 0.724795 0.000000
vt 0.729304 0.328673
vt 0.729304 0.000000
vt 0.733641 0.328673
vt 0.733641 0.000000
vt 0.737637 0.328673
vt 0.737637 0.000000
vt 0.741140 0.328673
vt 0.708450 0.328673
vt 0.712144 0.657345
vt 0.708450 0.657345
vt 0.712144 0.328673
vt 0.716279 0.657345
vt 0.716279 0.328673
vt 0.720695 0.657345
vt 0.720695 0.328673
vt 0.725225 0.657345
vt 0.725225 0.328673
vt 0.729693 0.657345
vt 0.729693 0.328673
vt 0.733927 0.657345
vt 0.733927 0.328673
vt 0.737766 0.657345
vt 0.737766 0.328673
vt 0.741061 0.657345
vt 0.712154 0.657345
vt 0.708450 0.986018
vt 0.716295 0.986018
vt 0.712154 0.986018
vt 0.716295 0.657345
vt 0.720716 0.986018
vt 0.724198 0.664881
vt 0.725246 0.657345
vt 0.725246 0.664881
vt 0.725246 0.986018
vt 0.724198 0.793914
vt 0.725246 0.793914
vt 0.729711 0.986018
vt 0.729711 0.657345
vt 0.733939 0.986018
vt 0.733939 0.657345
vt 0.737769 0.986018
vt 0.737769 0.657345
vt 0.741053 0.986018
vt 0.668742 0.498667
vt 0.672244 0.827339
vt 0.668742 0.827339
vt 0.672244 0.498667
vt 0.676241 0.827339
vt 0.757433 0.000884
vt 0.786263 0.016294
vt 0.770853 0.045123
vt 0.676241 0.498667
vt 0.680577 0.827339
vt 0.680577 0.498667
vt 0.500000 0.165256
vt 0.629033 0.000000
vt 0.629033 0.165256
vt 0.500000 0.165256
vt 0.629033 0.330217
vt 0.500000 0.330217
vt 0.742179 0.505757
vt 0.741140 0.376724
vt 0.742179 0.376724
vt 0.741140 0.211366
vt 0.742182 0.046110
vt 0.742182 0.211366
vt 0.741140 0.211366
vt 0.742182 0.376622
vt 0.741140 0.376724
vt 0.668742 -0.000000
vt 0.500000 0.330217
vt 0.629033 0.000000
vt 0.629033 0.500000
vt 0.000000 0.500000
vt 0.237158 0.730781
vt 0.233655 0.733655
vt 0.500000 0.500000
vt 0.266345 0.733655
vt 0.262842 0.730781
vt 0.258846 0.728645
vt 0.241154 0.728645
vt 0.254509 0.727329
vt 0.269219 0.737158
vt 0.226885 0.750000
vt 0.230781 0.737158
vt 0.228645 0.741154
vt 0.271355 0.741154
vt 0.500000 1.000000
vt 0.273115 0.750000
vt 0.272671 0.745491
vt 0.227329 0.745491
vt 0.227329 0.754510
vt 0.272671 0.754510
vt 0.271355 0.758846
vt 0.228645 0.758846
vt 0.230781 0.762842
vt 0.269219 0.762842
vt 0.266345 0.766345
vt 0.233655 0.766345
vt 0.237158 0.769219
vt 0.262842 0.769219
vt 0.258846 0.771355
vt 0.254509 0.772671
vt 0.241154 0.771355
vt 0.701431 0.498667
vt 0.741140 0.000000
vt 0.741061 0.328673
vt 0.720716 0.657345
vt 0.741053 0.657345
vt 0.742024 0.029713
vt 0.741140 0.025269
vt 0.741140 0.020738
vt 0.742024 0.016294
vt 0.743758 0.012107
vt 0.746275 0.008340
vt 0.749479 0.005136
vt 0.753247 0.002618
vt 0.761878 0.000000
vt 0.766409 0.000000
vt 0.770853 0.000884
vt 0.775040 0.002618
vt 0.778807 0.005136
vt 0.782011 0.008340
vt 0.784529 0.012107
vt 0.787147 0.020738
vt 0.787147 0.025269
vt 0.786263 0.029713
vt 0.784529 0.033900
vt 0.782011 0.037667
vt 0.778807 0.040872
vt 0.775040 0.043389
vt 0.766409 0.046007
vt 0.761878 0.046007
vt 0.757433 0.045123
vt 0.753247 0.043389
vt 0.749479 0.040872
vt 0.746275 0.037667
vt 0.743758 0.033900
vt 0.500000 0.000000
vt 0.629033 0.165256
vt 0.741140 0.505757
vt 0.741140 0.046007
vt 0.742182 0.211366
s 1
usemtl マテリアル
f 3/1/3 6/2/2 1/3/1
f 7/4/6 14/5/12 6/6/2
f 15/7/13 11/8/9 14/9/12
f 12/10/10 1/11/1 11/12/9
f 14/13/12 1/14/1 6/15/2
f 70/16/68 71/17/69 12/18/10
f 3/19/3 46/20/44 45/21/43
f 5/22/5 55/23/53 58/24/56
f 9/25/8 57/26/55 55/23/53
f 13/27/11 56/28/54 57/26/55
f 16/29/14 76/30/74 56/28/54
f 17/31/15 69/32/67 76/33/74
f 18/34/16 73/35/71 69/32/67
f 19/36/17 72/37/70 73/35/71
f 20/38/18 70/39/68 72/37/70
f 21/40/19 71/41/69 70/39/68
f 22/42/20 75/43/73 71/41/69
f 23/44/21 68/45/66 75/43/73
f 24/46/22 74/47/72 68/45/66
f 25/48/23 66/49/64 74/50/72
f 26/51/24 67/52/65 66/49/64
f 27/53/25 64/54/62 67/52/65
f 28/55/26 65/56/63 64/54/62
f 29/57/27 62/58/60 65/56/63
f 30/59/28 61/60/59 62/58/60
f 31/61/29 63/62/61 61/60/59
f 32/63/30 60/64/58 63/62/61
f 34/65/32 60/66/58 33/50/31
f 34/65/32 50/67/48 48/68/46
f 35/69/33 46/70/44 50/67/48
f 77/71/75 37/72/35 80/73/78
f 45/74/43 78/75/76 79/76/77
f 37/72/35 47/77/45 45/74/43
f 38/78/36 51/79/49 47/77/45
f 39/80/37 49/81/47 51/79/49
f 40/82/38 59/83/57 49/81/47
f 41/84/39 52/85/50 59/86/57
f 42/87/40 54/88/52 52/85/50
f 37/89/35 29/90/27 21/91/19
f 43/92/41 53/93/51 54/88/52
f 44/94/42 58/24/56 53/93/51
f 4/95/4 79/96/77 2/97/2
f 8/98/7 78/99/76 77/100/75
f 2/101/2 8/102/7 4/103/4
f 8/104/7 80/105/78 4/106/4
f 10/107/1 79/108/77 78/109/76
f 3/1/3 7/110/6 6/2/2
f 7/4/6 15/111/13 14/5/12
f 15/7/13 12/112/10 11/8/9
f 12/10/10 3/113/3 1/11/1
f 14/13/12 11/114/9 1/14/1
f 68/115/66 74/116/72 12/18/10
f 12/18/10 15/117/13 70/16/68
f 15/117/13 76/118/74 69/119/67
f 15/117/13 69/119/67 73/120/71
f 75/121/73 68/115/66 12/18/10
f 71/17/69 75/121/73 12/18/10
f 15/117/13 73/120/71 72/122/70
f 15/117/13 72/122/70 70/16/68
f 56/123/54 76/118/74 15/117/13
f 3/19/3 12/18/10 65/124/63
f 12/18/10 74/116/72 66/125/64
f 12/18/10 66/125/64 67/126/65
f 56/123/54 15/117/13 57/127/55
f 15/117/13 7/128/6 58/129/56
f 57/127/55 15/117/13 55/130/53
f 55/130/53 15/117/13 58/129/56
f 12/18/10 67/126/65 64/131/62
f 12/18/10 64/131/62 65/124/63
f 3/19/3 65/124/63 62/132/60
f 53/133/51 58/129/56 7/128/6
f 54/134/52 53/133/51 7/128/6
f 3/19/3 62/132/60 61/135/59
f 3/19/3 61/135/59 63/136/61
f 52/137/50 54/134/52 7/128/6
f 59/138/57 52/137/50 7/128/6
f 3/19/3 63/136/61 60/139/58
f 3/19/3 60/139/58 48/140/46
f 59/138/57 7/128/6 49/141/47
f 7/128/6 3/19/3 45/21/43
f 49/141/47 7/128/6 51/142/49
f 51/142/49 7/128/6 47/143/45
f 3/19/3 48/140/46 50/144/48
f 3/19/3 50/144/48 46/20/44
f 47/143/45 7/128/6 45/21/43
f 5/22/5 9/25/8 55/23/53
f 9/25/8 13/27/11 57/26/55
f 13/27/11 16/29/14 56/28/54
f 16/29/14 17/145/15 76/30/74
f 17/31/15 18/34/16 69/32/67
f 18/34/16 19/36/17 73/35/71
f 19/36/17 20/38/18 72/37/70
f 20/38/18 21/40/19 70/39/68
f 21/40/19 22/42/20 71/41/69
f 22/42/20 23/44/21 75/43/73
f 23/44/21 24/46/22 68/45/66
f 24/46/22 25/146/23 74/47/72
f 25/48/23 26/51/24 66/49/64
f 26/51/24 27/53/25 67/52/65
f 27/53/25 28/55/26 64/54/62
f 28/55/26 29/57/27 65/56/63
f 29/57/27 30/59/28 62/58/60
f 30/59/28 31/61/29 61/60/59
f 31/61/29 32/63/30 63/62/61
f 32/63/30 33/147/31 60/64/58
f 34/65/32 48/68/46 60/66/58
f 34/65/32 35/69/33 50/67/48
f 35/69/33 36/148/34 46/70/44
f 77/71/75 36/148/34 37/72/35
f 80/73/78 37/72/35 79/76/77
f 37/72/35 45/74/43 79/76/77
f 45/74/43 46/70/44 78/75/76
f 46/70/44 36/148/34 78/75/76
f 36/148/34 77/71/75 78/75/76
f 37/72/35 38/78/36 47/77/45
f 38/78/36 39/80/37 51/79/49
f 39/80/37 40/82/38 49/81/47
f 40/82/38 41/149/39 59/83/57
f 41/84/39 42/87/40 52/85/50
f 42/87/40 43/92/41 54/88/52
f 5/150/5 44/151/42 43/152/41
f 43/152/41 42/153/40 41/154/39
f 41/154/39 40/155/38 39/156/37
f 39/156/37 38/157/36 37/89/35
f 37/89/35 36/158/34 35/159/33
f 35/159/33 34/160/32 33/161/31
f 33/161/31 32/162/30 31/163/29
f 31/163/29 30/164/28 29/90/27
f 29/90/27 28/165/26 27/166/25
f 27/166/25 26/167/24 25/168/23
f 25/168/23 24/169/22 21/91/19
f 24/169/22 23/170/21 21/91/19
f 23/170/21 22/171/20 21/91/19
f 21/91/19 20/172/18 19/173/17
f 19/173/17 18/174/16 21/91/19
f 18/174/16 17/175/15 21/91/19
f 17/175/15 16/176/14 13/177/11
f 13/177/11 9/178/8 5/150/5
f 5/150/5 43/152/41 37/89/35
f 43/152/41 41/154/39 37/89/35
f 41/154/39 39/156/37 37/89/35
f 37/89/35 35/159/33 33/161/31
f 33/161/31 31/163/29 37/89/35
f 31/163/29 29/90/27 37/89/35
f 29/90/27 27/166/25 21/91/19
f 27/166/25 25/168/23 21/91/19
f 17/175/15 13/177/11 21/91/19
f 13/177/11 5/150/5 21/91/19
f 5/150/5 37/89/35 21/91/19
f 43/92/41 44/94/42 53/93/51
f 44/94/42 5/22/5 58/24/56
f 4/95/4 80/179/78 79/96/77
f 8/98/7 10/180/1 78/99/76
f 2/101/2 10/181/1 8/102/7
f 8/104/7 77/182/75 80/105/78
f 10/107/1 2/183/2 79/108/77
