# Blender 4.5.2 LTS
# www.blender.org
mtllib key.mtl
o 立方体
v -0.678181 0.166503 -0.346766
v -0.189718 -0.875789 -0.210661
v -0.678181 0.166502 0.346766
v -0.189718 -0.896732 -0.189718
v 0.678181 0.166503 -0.346766
v -0.210661 -0.875789 -0.189718
v 0.678181 0.166502 0.346766
v -0.189718 -0.896732 0.189718
v -0.237663 0.762018 -0.346766
v -0.189718 -0.875789 0.210661
v -0.082167 0.860035 -0.346766
v -0.210661 -0.875789 0.189718
v 0.333295 -0.764639 -0.205473
v 0.608505 -0.462620 -0.205473
v 0.368426 -0.764639 -0.170343
v 0.463141 -0.149863 -0.205473
v -0.082167 0.860035 0.346767
v 0.333295 -0.799770 -0.170343
v 0.333295 -0.764639 0.205473
v 0.642331 -0.462620 -0.171648
v 0.333295 -0.799770 0.170342
v 0.608505 -0.496445 -0.171648
v 0.507453 -0.149863 -0.161162
v 0.368426 -0.764639 0.170342
v 0.333295 -0.588163 -0.205473
v 0.608505 -0.462620 0.205473
v 0.333295 -0.553032 -0.170343
v -0.237663 0.762018 0.346767
v 0.368426 -0.588163 -0.170343
v 0.608505 -0.496445 0.171648
v 0.463141 -0.194175 -0.161162
v 0.333295 -0.588163 0.205473
v 0.368426 -0.588163 0.170342
v 0.082167 0.860035 -0.346766
v 0.642331 -0.462620 0.171648
v 0.333295 -0.553032 0.170342
v 0.463141 -0.149863 0.205473
v 0.608505 -0.283533 -0.205473
v 0.237663 0.762018 -0.346766
v 0.608505 -0.249707 -0.171648
v 0.463141 -0.194175 0.161162
v 0.642331 -0.283533 -0.171648
v 0.237663 0.762018 0.346767
v 0.608505 -0.283533 0.205473
v 0.507453 -0.149863 0.161162
v 0.642331 -0.283533 0.171648
v 0.082167 0.860035 0.346767
v 0.608505 -0.249707 0.171648
v 0.463141 0.008251 -0.205473
v 0.189718 -0.875789 -0.210661
v 0.463141 0.052563 -0.161162
v 0.210661 -0.875789 -0.189718
v 0.189718 -0.896732 -0.189718
v 0.507453 0.008251 -0.161162
v 0.189718 -0.875789 0.210661
v 0.463141 0.008251 0.205473
v 0.189718 -0.896732 0.189718
v 0.507453 0.008251 0.161162
v 0.210661 -0.875789 0.189718
v 0.463141 0.052563 0.161162
v -0.210661 0.166502 0.189718
v -0.189718 0.166502 0.210661
v 0.210661 0.166502 0.189718
v 0.189718 0.166502 0.210661
v -0.210661 0.166503 -0.189718
v 0.210661 0.166503 -0.189718
v 0.189718 0.166503 -0.210661
v -0.189718 0.166503 -0.210661
v 0.194905 -0.149863 -0.205473
v 0.194905 0.008251 -0.205473
v 0.210661 -0.165618 -0.189718
v 0.210661 0.024007 -0.189718
v 0.194905 -0.149863 0.205473
v 0.194905 0.008251 0.205473
v 0.210661 -0.165618 0.189718
v 0.210661 0.024007 0.189718
v 0.210661 -0.194175 -0.161162
v 0.210661 0.052563 -0.161162
v 0.210661 -0.194175 0.161162
v 0.210661 0.052563 0.161162
v 0.210661 -0.478375 -0.189718
v 0.210661 -0.267778 -0.189718
v 0.194905 -0.462620 -0.205473
v 0.194905 -0.283533 -0.205473
v 0.210661 -0.478375 0.189718
v 0.210661 -0.267778 0.189718
v 0.194905 -0.462620 0.205473
v 0.194905 -0.283533 0.205473
v 0.210661 -0.249707 0.171648
v 0.210661 -0.496445 -0.171648
v 0.210661 -0.249707 -0.171648
v 0.210661 -0.496445 0.171648
v 0.210661 -0.780394 -0.189718
v 0.210661 -0.572407 -0.189718
v 0.194905 -0.764639 -0.205473
v 0.194905 -0.588163 -0.205473
v 0.210661 -0.780394 0.189718
v 0.210661 -0.572407 0.189718
v 0.194905 -0.764639 0.205473
v 0.194905 -0.588163 0.205473
v 0.210661 -0.799770 -0.170343
v 0.210661 -0.553032 -0.170343
v 0.210661 -0.799770 0.170342
v 0.210661 -0.553032 0.170342
vn -0.0000 -1.0000 -0.0000
vn -0.5333 0.8460 -0.0000
vn 0.5333 0.8460 -0.0000
vn -0.0000 -0.0000 -1.0000
vn -0.8039 0.5947 -0.0000
vn -0.0000 1.0000 -0.0000
vn -0.0000 -0.0000 1.0000
vn 0.8039 0.5947 -0.0000
vn -0.5774 -0.5773 -0.5774
vn -0.5774 -0.5773 0.5774
vn 0.5774 -0.5773 -0.5774
vn 0.5774 -0.5773 0.5774
vn -0.7071 -0.0000 -0.7071
vn -0.7071 -0.7071 -0.0000
vn -0.7071 -0.0000 0.7071
vn 0.7071 -0.0000 -0.7071
vn 0.7071 -0.0000 0.7071
vn 0.7071 -0.7071 -0.0000
vn -0.0000 -0.7071 -0.7071
vn -0.0000 -0.7071 0.7071
vn -1.0000 -0.0000 -0.0000
vn 1.0000 -0.0000 -0.0000
vn 0.5774 -0.5774 -0.5774
vn 0.5774 -0.5774 0.5774
vn 0.5774 0.5774 -0.5774
vn 0.5774 0.5774 0.5774
vn -0.0000 0.7071 -0.7071
vn -0.0000 0.7071 0.7071
vn 0.7071 0.7071 -0.0000
vn 0.5773 0.5773 -0.5774
vn 0.5773 0.5773 0.5774
vn 0.5774 0.5774 -0.5773
vn 0.5774 0.5774 0.5773
vt 0.255364 0.000000
vt 0.255364 0.499423
vt 0.205249 0.319567
vt 0.000000 0.499423
vt 0.000000 0.000000
vt 0.050115 0.179856
vt 0.000000 0.779389
vt 0.255364 0.836643
vt 0.000000 0.836643
vt 0.000000 0.661625
vt 0.255364 0.718880
vt 0.000000 0.718880
vt 0.291455 0.629942
vt 0.255364 0.589457
vt 0.291455 0.506185
vt 0.255364 0.744636
vt 0.474637 1.000000
vt 0.255364 1.000000
vt 0.255364 0.779389
vt 0.546819 0.506185
vt 0.766092 0.391491
vt 0.766092 0.744636
vt 0.255364 0.661625
vt 0.953462 0.007711
vt 0.945750 0.007711
vt 0.945750 0.000000
vt 0.806039 0.007711
vt 0.798328 0.007711
vt 0.806039 0.000000
vt 0.699537 0.007711
vt 0.688632 0.007711
vt 0.694085 0.000000
vt 0.354155 0.007711
vt 0.359607 0.000000
vt 0.365060 0.007711
vt 0.913514 0.775270
vt 0.921226 0.391491
vt 0.921226 0.775270
vt 0.773803 0.775270
vt 0.766092 0.391491
vt 0.773803 0.391491
vt 0.696836 0.225784
vt 0.696836 0.159843
vt 0.356856 0.225784
vt 0.356856 0.275003
vt 0.354155 0.391491
vt 0.945750 0.147422
vt 0.806039 0.155134
vt 0.806039 0.147422
vt 0.953462 0.147422
vt 0.798328 0.147422
vt 0.798328 0.007711
vt 0.699537 0.391491
vt 0.913514 0.391491
vt 0.255364 0.007711
vt 0.255364 0.391491
vt 0.463851 0.391491
vt 0.365060 0.391491
vt 0.372495 0.349537
vt 0.463851 0.007711
vt 0.370105 0.035702
vt 0.459146 0.147388
vt 0.369765 0.147388
vt 0.370105 0.126553
vt 0.456416 0.258687
vt 0.372495 0.258687
vt 0.369765 0.238239
vt 0.626998 0.275003
vt 0.603924 0.275003
vt 0.615461 0.258687
vt 0.426694 0.275003
vt 0.438231 0.258687
vt 0.449768 0.275003
vt 0.626998 0.333222
vt 0.615461 0.349537
vt 0.603924 0.333222
vt 0.426694 0.333222
vt 0.449768 0.333222
vt 0.438231 0.349537
vt 0.724717 0.895950
vt 0.625951 0.895950
vt 0.631752 0.890148
vt 0.724717 0.760952
vt 0.631752 0.760952
vt 0.631752 0.750437
vt 0.741033 0.879634
vt 0.741033 0.760952
vt 0.814644 0.290131
vt 0.798328 0.171450
vt 0.814644 0.171450
vt 0.907609 0.290131
vt 0.907609 0.300646
vt 0.814644 0.155134
vt 0.913410 0.155134
vt 0.907609 0.160935
vt 0.696836 0.333222
vt 0.356856 0.333222
vt 0.631752 0.879634
vt 0.533689 0.275003
vt 0.533689 0.333222
vt 0.589150 0.159843
vt 0.571537 0.159843
vt 0.580344 0.147388
vt 0.464542 0.159843
vt 0.473349 0.147388
vt 0.482155 0.159843
vt 0.589150 0.225784
vt 0.580344 0.238239
vt 0.571537 0.225784
vt 0.464542 0.225784
vt 0.482155 0.225784
vt 0.473349 0.238239
vt 0.625951 0.757091
vt 0.625951 0.909382
vt 0.620150 0.903580
vt 0.487092 0.757091
vt 0.487092 0.903580
vt 0.480439 0.903580
vt 0.613496 0.744636
vt 0.487092 0.744636
vt 0.904951 0.927561
vt 0.778547 0.940016
vt 0.778547 0.927561
vt 0.904951 0.781071
vt 0.911605 0.781071
vt 0.766092 0.927561
vt 0.766092 0.775270
vt 0.771893 0.781071
vt 0.356856 0.159843
vt 0.613496 0.903580
vt 0.660805 0.048638
vt 0.642511 0.048638
vt 0.651658 0.035702
vt 0.392887 0.048638
vt 0.402034 0.035702
vt 0.411181 0.048638
vt 0.660805 0.113617
vt 0.651658 0.126553
vt 0.642511 0.113617
vt 0.392887 0.113617
vt 0.411181 0.113617
vt 0.402034 0.126553
vt 0.964366 0.306447
vt 0.913410 0.306447
vt 0.919212 0.300646
vt 0.964366 0.168069
vt 0.919212 0.168069
vt 0.919212 0.160935
vt 0.977302 0.293512
vt 0.977302 0.168069
vt 0.930341 0.913648
vt 0.917406 0.788206
vt 0.930341 0.788206
vt 0.975496 0.913648
vt 0.975496 0.920783
vt 0.930341 0.775270
vt 0.981297 0.775270
vt 0.975496 0.781071
vt 0.696836 0.113617
vt 0.975496 0.788206
vt 0.356856 0.048638
vt 0.919212 0.293512
vt 0.499882 0.048638
vt 0.499882 0.113617
vt 0.205249 0.179856
vt 0.197538 0.172145
vt 0.197538 0.327278
vt 0.057826 0.327278
vt 0.057826 0.172145
vt 0.050115 0.319567
vt 0.255364 0.546670
vt 0.510728 0.391491
vt 0.510728 0.744636
vt 0.474637 0.744636
vt 0.546819 0.629942
vt 0.510728 0.589456
vt 0.510728 0.546670
vt 0.000000 0.499423
vt 0.766092 0.775270
vt 0.688632 0.042836
vt 0.688632 0.391491
vt 0.688632 0.339023
vt 0.696836 0.048638
vt 0.688632 0.154042
vt 0.688632 0.119419
vt 0.696836 0.275003
vt 0.688632 0.269201
vt 0.688632 0.231586
vt 0.356856 0.113617
vt 0.365060 0.119419
vt 0.365060 0.154042
vt 0.365060 0.042836
vt 0.365060 0.339023
vt 0.365060 0.231586
vt 0.365060 0.269201
vt 0.945750 0.155134
vt 0.798328 0.391491
vt 0.456416 0.349537
vt 0.463851 0.339023
vt 0.463851 0.042836
vt 0.458806 0.035702
vt 0.458806 0.126553
vt 0.463851 0.119419
vt 0.463851 0.154042
vt 0.459146 0.238239
vt 0.463851 0.231586
vt 0.463851 0.269201
vt 0.724717 0.879634
vt 0.625951 0.744636
vt 0.724717 0.744636
vt 0.798328 0.290131
vt 0.913410 0.306447
vt 0.814644 0.306447
vt 0.907609 0.171450
vt 0.613496 0.757091
vt 0.474637 0.909382
vt 0.474637 0.757091
vt 0.904951 0.940016
vt 0.917406 0.775270
vt 0.917406 0.927561
vt 0.778547 0.781071
vt 0.964366 0.293512
vt 0.913410 0.155134
vt 0.964366 0.155134
vt 0.917406 0.913648
vt 0.981297 0.926584
vt 0.930341 0.926584
s 0
usemtl マテリアル.002
f 1/1/1 5/2/1 67/3/1
f 7/4/1 3/5/1 62/6/1
f 17/7/2 9/8/2 28/9/2
f 43/10/3 34/11/3 47/12/3
f 9/13/4 11/14/4 39/15/4
f 3/16/5 9/17/5 1/18/5
f 17/7/6 34/11/6 11/19/6
f 28/20/7 3/21/7 7/22/7
f 43/10/8 5/2/8 39/23/8
f 2/24/9 4/25/9 6/26/9
f 8/27/10 10/28/10 12/29/10
f 50/30/11 52/31/11 53/32/11
f 55/33/12 57/34/12 59/35/12
f 6/36/13 68/37/13 2/38/13
f 8/27/14 6/26/14 4/25/14
f 12/39/15 62/40/15 61/41/15
f 50/30/16 84/42/16 83/43/16
f 88/44/17 73/45/17 64/46/17
f 53/47/18 59/48/18 57/49/18
f 50/50/19 4/25/19 2/24/19
f 10/28/20 57/49/20 55/51/20
f 2/52/4 67/53/4 50/30/4
f 12/39/21 65/54/21 6/36/21
f 57/49/1 4/25/1 53/47/1
f 10/55/7 64/46/7 62/56/7
f 66/57/22 63/58/22 80/59/22
f 59/35/22 52/60/22 103/61/22
f 90/62/22 92/63/22 104/64/22
f 77/65/22 79/66/22 89/67/22
f 16/68/23 23/69/23 31/70/23
f 37/71/24 41/72/24 45/73/24
f 49/74/25 51/75/25 54/76/25
f 56/77/26 58/78/26 60/79/26
f 49/80/27 70/81/27 72/82/27
f 60/83/28 80/84/28 76/85/28
f 54/86/29 60/83/29 58/87/29
f 49/74/16 23/69/16 16/68/16
f 37/71/17 58/78/17 56/77/17
f 31/88/18 45/89/18 41/90/18
f 31/88/19 77/91/19 71/92/19
f 37/93/20 73/94/20 75/95/20
f 16/68/4 70/96/4 49/74/4
f 41/90/1 77/91/1 31/88/1
f 37/71/7 74/97/7 73/45/7
f 60/83/6 78/98/6 80/84/6
f 58/78/22 23/99/22 54/100/22
f 14/101/23 20/102/23 22/103/23
f 26/104/24 30/105/24 35/106/24
f 38/107/30 40/108/30 42/109/30
f 44/110/31 46/111/31 48/112/31
f 38/113/27 84/114/27 82/115/27
f 48/116/28 89/117/28 86/118/28
f 42/119/29 48/116/29 46/120/29
f 38/107/16 20/102/16 14/101/16
f 26/104/17 46/111/17 44/110/17
f 22/121/18 35/122/18 30/123/18
f 22/121/19 90/124/19 81/125/19
f 26/126/20 87/127/20 85/128/20
f 14/101/4 84/42/4 38/107/4
f 30/123/1 90/124/1 22/121/1
f 44/110/7 87/129/7 26/104/7
f 48/116/6 91/130/6 89/117/6
f 46/111/22 20/102/22 42/109/22
f 13/131/11 15/132/11 18/133/11
f 19/134/12 21/135/12 24/136/12
f 25/137/32 27/138/32 29/139/32
f 32/140/33 33/141/33 36/142/33
f 25/143/27 96/144/27 94/145/27
f 36/146/28 104/147/28 98/148/28
f 29/149/29 36/146/29 33/150/29
f 25/137/16 15/132/16 13/131/16
f 19/134/17 33/141/17 32/140/17
f 18/151/18 24/152/18 21/153/18
f 18/151/19 101/154/19 93/155/19
f 19/156/20 99/157/20 97/158/20
f 13/131/4 96/159/4 25/137/4
f 18/151/1 103/160/1 101/154/1
f 32/140/7 99/161/7 19/134/7
f 36/146/6 102/162/6 104/147/6
f 33/141/22 15/163/22 29/164/22
f 68/165/1 65/166/1 1/1/1
f 5/2/1 66/167/1 67/3/1
f 67/3/1 68/165/1 1/1/1
f 63/168/1 66/167/1 5/2/1
f 3/5/1 1/1/1 65/166/1
f 3/5/1 65/166/1 61/169/1
f 63/168/1 5/2/1 7/4/1
f 64/170/1 63/168/1 7/4/1
f 3/5/1 61/169/1 62/6/1
f 62/6/1 64/170/1 7/4/1
f 17/7/2 11/19/2 9/8/2
f 43/10/3 39/23/3 34/11/3
f 11/14/4 34/171/4 39/15/4
f 39/15/4 5/172/4 1/173/4
f 1/173/4 9/13/4 39/15/4
f 3/16/5 28/174/5 9/17/5
f 17/7/6 47/12/6 34/11/6
f 7/22/7 43/175/7 28/20/7
f 43/175/7 47/176/7 28/20/7
f 47/176/7 17/177/7 28/20/7
f 43/10/8 7/178/8 5/2/8
f 6/36/13 65/54/13 68/37/13
f 8/27/14 12/29/14 6/26/14
f 12/39/15 10/179/15 62/40/15
f 93/180/16 52/31/16 50/30/16
f 67/53/16 66/181/16 72/182/16
f 67/53/16 72/182/16 70/96/16
f 95/183/16 93/180/16 50/30/16
f 81/184/16 94/185/16 96/159/16
f 96/159/16 95/183/16 50/30/16
f 50/30/16 67/53/16 84/42/16
f 67/53/16 70/96/16 69/186/16
f 69/186/16 71/187/16 82/188/16
f 67/53/16 69/186/16 84/42/16
f 83/43/16 81/184/16 96/159/16
f 69/186/16 82/188/16 84/42/16
f 83/43/16 96/159/16 50/30/16
f 100/189/17 98/190/17 85/191/17
f 100/189/17 85/191/17 87/129/17
f 59/35/17 97/192/17 55/33/17
f 97/192/17 99/161/17 55/33/17
f 76/193/17 63/58/17 64/46/17
f 74/97/17 76/193/17 64/46/17
f 64/46/17 55/33/17 88/44/17
f 55/33/17 99/161/17 100/189/17
f 55/33/17 100/189/17 87/129/17
f 73/45/17 74/97/17 64/46/17
f 86/194/17 75/195/17 73/45/17
f 88/44/17 86/194/17 73/45/17
f 55/33/17 87/129/17 88/44/17
f 53/47/18 52/196/18 59/48/18
f 50/50/19 53/47/19 4/25/19
f 10/28/20 8/27/20 57/49/20
f 2/52/4 68/197/4 67/53/4
f 12/39/21 61/41/21 65/54/21
f 57/49/1 8/27/1 4/25/1
f 10/55/7 55/33/7 64/46/7
f 78/198/22 72/199/22 66/57/22
f 63/58/22 76/193/22 80/59/22
f 80/59/22 78/198/22 66/57/22
f 52/60/22 93/200/22 101/201/22
f 103/61/22 97/192/22 59/35/22
f 52/60/22 101/201/22 103/61/22
f 102/202/22 94/203/22 90/62/22
f 94/203/22 81/204/22 90/62/22
f 85/191/22 98/190/22 92/63/22
f 98/190/22 104/64/22 92/63/22
f 104/64/22 102/202/22 90/62/22
f 91/205/22 82/206/22 71/207/22
f 91/205/22 71/207/22 77/65/22
f 75/195/22 86/194/22 89/67/22
f 89/67/22 91/205/22 77/65/22
f 79/66/22 75/195/22 89/67/22
f 72/82/27 78/98/27 51/208/27
f 51/208/27 49/80/27 72/82/27
f 76/85/28 74/209/28 56/210/28
f 56/210/28 60/83/28 76/85/28
f 54/86/29 51/208/29 60/83/29
f 49/74/16 54/76/16 23/69/16
f 37/71/17 45/73/17 58/78/17
f 31/88/18 23/211/18 45/89/18
f 71/92/19 69/212/19 16/213/19
f 16/213/19 31/88/19 71/92/19
f 75/95/20 79/214/20 41/90/20
f 41/90/20 37/93/20 75/95/20
f 16/68/4 69/186/4 70/96/4
f 41/90/1 79/214/1 77/91/1
f 37/71/7 56/77/7 74/97/7
f 60/83/6 51/208/6 78/98/6
f 58/78/22 45/73/22 23/99/22
f 82/115/27 91/130/27 40/215/27
f 40/215/27 38/113/27 82/115/27
f 86/118/28 88/216/28 44/217/28
f 44/217/28 48/116/28 86/118/28
f 42/119/29 40/215/29 48/116/29
f 38/107/16 42/109/16 20/102/16
f 26/104/17 35/106/17 46/111/17
f 22/121/18 20/218/18 35/122/18
f 81/125/19 83/219/19 14/220/19
f 14/220/19 22/121/19 81/125/19
f 85/128/20 92/221/20 30/123/20
f 30/123/20 26/126/20 85/128/20
f 14/101/4 83/43/4 84/42/4
f 30/123/1 92/221/1 90/124/1
f 44/110/7 88/44/7 87/129/7
f 48/116/6 40/215/6 91/130/6
f 46/111/22 35/106/22 20/102/22
f 102/162/27 27/222/27 94/145/27
f 27/222/27 25/143/27 94/145/27
f 98/148/28 100/223/28 32/224/28
f 32/224/28 36/146/28 98/148/28
f 29/149/29 27/222/29 36/146/29
f 25/137/16 29/139/16 15/132/16
f 19/134/17 24/136/17 33/141/17
f 18/151/18 15/225/18 24/152/18
f 93/155/19 95/226/19 13/227/19
f 13/227/19 18/151/19 93/155/19
f 103/160/20 21/153/20 97/158/20
f 21/153/20 19/156/20 97/158/20
f 13/131/4 95/183/4 96/159/4
f 18/151/1 21/153/1 103/160/1
f 32/140/7 100/189/7 99/161/7
f 36/146/6 27/222/6 102/162/6
f 33/141/22 24/136/22 15/163/22
