# Blender 4.5.2 LTS
# www.blender.org
mtllib goal_help.mtl
o 平面
v -1.013757 1.479619 0.000000
v 0.000000 0.895145 0.000000
v -1.013757 4.150816 0.000000
v 0.000000 2.646945 0.000000
v 1.013757 1.479619 0.000000
v 1.013757 4.150816 0.000000
v -1.013757 1.479619 0.022192
v 0.000000 0.895145 0.022192
v -1.013757 4.150816 0.022192
v 0.000000 2.646945 0.022192
v 1.013757 1.479619 0.022192
v 1.013757 4.150816 0.022192
vn -0.0000 -0.0000 -1.0000
vn -0.0000 -0.0000 1.0000
vn 0.4995 -0.8663 -0.0000
vn 0.8292 0.5590 -0.0000
vn -0.4995 -0.8663 -0.0000
vn -0.8292 0.5590 -0.0000
vn 1.0000 -0.0000 -0.0000
vn -1.0000 -0.0000 -0.0000
vt 0.000000 0.000000
vt 1.000000 1.000000
vt 1.000000 0.000000
vt 0.000000 1.000000
s 0
usemtl マテリアル
f 1/1/1 4/2/1 2/3/1
f 5/1/1 4/2/1 6/4/1
f 7/1/2 10/2/2 9/4/2
f 11/1/2 10/2/2 8/3/2
f 5/1/3 8/3/3 2/3/3
f 3/4/4 10/2/4 4/2/4
f 2/3/5 7/1/5 1/1/5
f 4/2/6 12/4/6 6/4/6
f 6/4/7 11/1/7 5/1/7
f 1/1/8 9/4/8 3/4/8
f 1/1/1 3/4/1 4/2/1
f 5/1/1 2/3/1 4/2/1
f 7/1/2 8/3/2 10/2/2
f 11/1/2 12/4/2 10/2/2
f 5/1/3 11/1/3 8/3/3
f 3/4/4 9/4/4 10/2/4
f 2/3/5 8/3/5 7/1/5
f 4/2/6 10/2/6 12/4/6
f 6/4/7 12/4/7 11/1/7
f 1/1/8 7/1/8 9/4/8
