# Blender 4.4.3
# www.blender.org
mtllib attackFX.mtl
o 平面
v -0.000000 1.652620 1.982181
v 0.000000 -1.833496 1.982181
v -0.000000 1.083960 -1.429932
v 0.000000 -1.083960 -1.429932
v 0.041237 1.652620 1.982181
v 0.041237 -1.833496 1.982181
v 0.041237 1.083960 -1.429932
v 0.041237 -1.083960 -1.429932
vn -1.0000 -0.0000 -0.0000
vn 1.0000 -0.0000 -0.0000
vn -0.0000 -0.9767 -0.2146
vn -0.0000 0.9864 -0.1644
vn -0.0000 -0.0000 -1.0000
vn -0.0000 -0.0000 1.0000
vt 0.000000 0.000000
vt 0.494029 0.082335
vt 0.494029 0.396221
vt -0.000000 0.504744
vt 0.494029 0.504744
vt 0.988059 0.108523
vt 0.988059 0.422409
vt 0.494029 0.000000
vt 0.988059 0.396221
vt 0.994029 0.504744
vt 0.988059 0.504744
vt 0.988059 -0.000000
vt 0.994029 0.082334
vt 0.988059 0.082334
vt 0.994029 0.396221
vt 0.994029 -0.000000
vt 1.000000 0.504744
vt 0.994029 0.504744
vt 0.994029 -0.000000
vt 1.000000 -0.000000
s 0
usemtl マテリアル
f 1/1/1 3/2/1 4/3/1
f 1/1/1 4/3/1 2/4/1
f 5/5/2 8/6/2 7/7/2
f 5/5/2 6/8/2 8/6/2
f 4/9/3 6/10/3 2/11/3
f 1/12/4 7/13/4 3/14/4
f 3/14/5 8/15/5 4/9/5
f 2/16/6 5/17/6 1/18/6
f 4/9/3 8/15/3 6/10/3
f 1/12/4 5/19/4 7/13/4
f 3/14/5 7/13/5 8/15/5
f 2/16/6 6/20/6 5/17/6
